<?xml version="1.0" standalone="no"?>
<!DOCTYPE svg PUBLIC "-//W3C//DTD SVG 1.1//EN" "http://www.w3.org/Graphics/SVG/1.1/DTD/svg11.dtd" >
<svg xmlns="http://www.w3.org/2000/svg" xmlns:xlink="http://www.w3.org/1999/xlink" version="1.1">
<metadata>
Created by FontForge 20170731 at Tue Mar 22 15:24:21 2022
 By Aleksey,,,
Copyright 2020 The Akshar Type Project Authors (https://github.com/tallchai/akshar-type)
</metadata>
<defs>
<font id="Akshar-Light" horiz-adv-x="190" >
  <font-face 
    font-family="Akshar Light"
    font-weight="300"
    font-stretch="normal"
    units-per-em="1000"
    panose-1="0 0 0 0 0 0 0 0 0 0"
    ascent="800"
    descent="-200"
    x-height="500"
    cap-height="700"
    bbox="-300.571 -306 1755 977"
    underline-thickness="50"
    underline-position="-175"
    unicode-range="U+0020-25CC"
  />
<missing-glyph horiz-adv-x="800" 
d="M325 -120v66h205v-66h-205zM255 724v66h275v-66h-275zM60 -120v910h66v-910h-66zM60 -120v66h220v-66h-220zM60 724v66h220v-66h-220zM740 -120h-66v910h66v-910zM740 -120h-220v66h220v-66zM740 724h-220v66h220v-66zM60 -120v910h66v-910h-66zM60 -120v66h220v-66h-220
zM60 724v66h220v-66h-220zM325 54q0 63 15.5 107t38 76t45 59t38 55t15.5 64q0 53 -28 80t-84 27q-29 0 -49 -10t-30 -29t-10 -48h-66q0 45 19.5 79t54.5 52.5t81 18.5q53 0 92 -21t61 -59.5t22 -89.5q0 -43 -15.5 -74t-38 -58t-45 -57.5t-38 -71.5t-15.5 -100h-63zM325 -79
v133h63v-133h-63z" />
    <glyph glyph-name="f_f" unicode="ff" horiz-adv-x="575" 
d="M145 440v60h250v-60h-250zM83 0v560h66v-560h-66zM25 440v60h250v-60h-250zM83 560q0 73 35 114t96 41l5 -63q-22 0 -37.5 -11t-24 -31.5t-8.5 -49.5h-66zM266 635q-11 8 -22.5 12.5t-24.5 4.5l-5 63q22 0 43.5 -7t37.5 -21zM353 0v560h66v-560h-66zM295 440v60h250v-60
h-250zM353 560q0 73 35 114t96 41l5 -63q-22 0 -37.5 -11t-24 -31.5t-8.5 -49.5h-66zM536 635q-11 8 -22.5 12.5t-24.5 4.5l-5 63q22 0 43.5 -7t37.5 -21z" />
    <glyph glyph-name="f_f_i" unicode="ffi" horiz-adv-x="738" 
d="M125 440v60h250v-60h-250zM83 0v560h66v-560h-66zM25 440v60h250v-60h-250zM83 560q0 73 35 114t96 41l5 -63q-22 0 -37.5 -11t-24 -31.5t-8.5 -49.5h-66zM266 635q-11 8 -22.5 12.5t-24.5 4.5l-5 63q22 0 43.5 -7t37.5 -21zM619 0v500h66v-500h-66zM353 0v530h66v-530
h-66zM295 440v60h328v-60h-328zM353 530q0 87 45.5 136t125.5 49v-60q-49 0 -77 -33t-28 -92h-66zM651 624q-35 14 -68.5 22.5t-58.5 8.5v60q33 0 71.5 -9t73.5 -25z" />
    <glyph glyph-name="f_f_j" unicode="ffj" horiz-adv-x="719" 
d="M685 1q0 -73 -34.5 -114t-96.5 -41l-5 63q22 0 37.5 11t24 31.5t8.5 49.5h66zM502 -74q11 -7 22.5 -12t24.5 -5l5 -63q-22 0 -43 7.5t-38 20.5zM125 440v60h250v-60h-250zM83 0v560h66v-560h-66zM25 440v60h250v-60h-250zM83 560q0 73 35 114t96 41l5 -63
q-22 0 -37.5 -11t-24 -31.5t-8.5 -49.5h-66zM266 635q-11 8 -22.5 12.5t-24.5 4.5l-5 63q22 0 43.5 -7t37.5 -21zM619 0v500h66v-500h-66zM353 0v530h66v-530h-66zM295 440v60h328v-60h-328zM353 530q0 87 45.5 136t125.5 49v-60q-49 0 -77 -33t-28 -92h-66zM651 624
q-35 14 -68.5 22.5t-58.5 8.5v60q33 0 71.5 -9t73.5 -25z" />
    <glyph glyph-name="f_f_l" unicode="ffl" horiz-adv-x="790" 
d="M155 440v60h250v-60h-250zM83 0v560h66v-560h-66zM25 440v60h250v-60h-250zM83 560q0 73 35 114t96 41l5 -63q-22 0 -37.5 -11t-24 -31.5t-8.5 -49.5h-66zM266 635q-11 8 -22.5 12.5t-24.5 4.5l-5 63q22 0 43.5 -7t37.5 -21zM654 0v685h66v-685h-66zM368 0v550h66v-550
h-66zM310 440v60h250v-60h-250zM368 550q0 78 48.5 121.5t133.5 43.5v-64q-55 0 -85.5 -27t-30.5 -74h-66zM654 622q-17 14 -44.5 21.5t-59.5 7.5v64q41 0 85.5 -7.5t84.5 -21.5z" />
    <glyph glyph-name="f_i" unicode="fi" horiz-adv-x="468" 
d="M83 0v530h66v-530h-66zM25 440v60h328v-60h-328zM83 530q0 87 45.5 136t125.5 49v-60q-49 0 -77 -33t-28 -92h-66zM381 624q-35 14 -68.5 22.5t-58.5 8.5v60q33 0 71.5 -9t73.5 -25zM349 0v500h66v-500h-66z" />
    <glyph glyph-name="f_j" unicode="fj" horiz-adv-x="449" 
d="M415 1q0 -73 -34.5 -114t-96.5 -41l-5 63q22 0 37.5 11t24 31.5t8.5 49.5h66zM232 -74q11 -7 22.5 -12t24.5 -5l5 -63q-22 0 -43 7.5t-38 20.5zM83 0v530h66v-530h-66zM25 440v60h328v-60h-328zM83 530q0 87 45.5 136t125.5 49v-60q-49 0 -77 -33t-28 -92h-66zM381 624
q-35 14 -68.5 22.5t-58.5 8.5v60q33 0 71.5 -9t73.5 -25zM349 0v500h66v-500h-66z" />
    <glyph glyph-name="f_l" unicode="fl" horiz-adv-x="505" 
d="M369 0v685h66v-685h-66zM83 0v550h66v-550h-66zM25 440v60h250v-60h-250zM83 550q0 78 48.5 121.5t133.5 43.5v-64q-55 0 -85.5 -27t-30.5 -74h-66zM369 622q-17 14 -44.5 21.5t-59.5 7.5v64q41 0 85.5 -7.5t84.5 -21.5z" />
    <glyph glyph-name="t_t" unicode="tt" horiz-adv-x="585" 
d="M145 440v60h250v-60h-250zM93 139v562l66 -1v-561h-66zM35 440v60h250v-60h-250zM93 140h66q0 -29 8.5 -49.5t24 -31.5t37.5 -11l-5 -63q-61 0 -96 41t-35 114zM276 65l29 -52q-16 -13 -37.5 -20.5t-43.5 -7.5l5 63q13 0 24.5 5t22.5 12zM353 139v562l66 -1v-561h-66z
M295 440v60h250v-60h-250zM353 140h66q0 -29 8.5 -49.5t24 -31.5t37.5 -11l-5 -63q-61 0 -96 41t-35 114zM536 65l29 -52q-16 -13 -37.5 -20.5t-43.5 -7.5l5 63q13 0 24.5 5t22.5 12z" />
    <glyph glyph-name=".notdef" horiz-adv-x="800" 
d="M325 -120v66h205v-66h-205zM255 724v66h275v-66h-275zM60 -120v910h66v-910h-66zM60 -120v66h220v-66h-220zM60 724v66h220v-66h-220zM740 -120h-66v910h66v-910zM740 -120h-220v66h220v-66zM740 724h-220v66h220v-66zM60 -120v910h66v-910h-66zM60 -120v66h220v-66h-220
zM60 724v66h220v-66h-220zM325 54q0 63 15.5 107t38 76t45 59t38 55t15.5 64q0 53 -28 80t-84 27q-29 0 -49 -10t-30 -29t-10 -48h-66q0 45 19.5 79t54.5 52.5t81 18.5q53 0 92 -21t61 -59.5t22 -89.5q0 -43 -15.5 -74t-38 -58t-45 -57.5t-38 -71.5t-15.5 -100h-63zM325 -79
v133h63v-133h-63z" />
    <glyph glyph-name=".null" horiz-adv-x="0" 
 />
    <glyph glyph-name="nonmarkingreturn" horiz-adv-x="333" 
 />
    <glyph glyph-name="space" unicode=" " horiz-adv-x="180" 
 />
    <glyph glyph-name="exclam" unicode="!" horiz-adv-x="199" 
d="M72 206l-6 494h66l-6 -494h-54zM99 0q-21 0 -35 14t-14 35t14 35.5t35 14.5t35.5 -14.5t14.5 -35.5t-14.5 -35t-35.5 -14z" />
    <glyph glyph-name="quotedbl" unicode="&#x22;" horiz-adv-x="277" 
d="M163 500l-12 215h66l-12 -215h-42zM72 500l-12 215h66l-12 -215h-42z" />
    <glyph glyph-name="numbersign" unicode="#" horiz-adv-x="597" 
d="M286 31l142 600h66l-142 -600h-66zM50 206l13 66h440l-13 -66h-440zM98 31l142 600h66l-142 -600h-66zM94 389l13 66h440l-13 -66h-440z" />
    <glyph glyph-name="dollar" unicode="$" horiz-adv-x="448" 
d="M196 663v137h53v-137h-53zM196 -101v137h53v-137h-53zM345 153q0 38 -20.5 68t-53 57t-69.5 54t-69.5 58t-53 69.5t-20.5 87.5h66q0 -37 20.5 -67.5t53 -57.5t69.5 -54t69.5 -58t53 -69t20.5 -88h-66zM59 545q0 54 23 92t65 58t97 20v-63q-56 0 -87.5 -28.5t-31.5 -78.5
h-66zM411 155q0 -54 -23 -92t-64.5 -58t-97.5 -20v63q56 0 87.5 28.5t31.5 78.5h66zM349 562q-5 47 -35 68.5t-70 21.5v63q44 0 80.5 -18.5t60 -49.5t28.5 -71zM96 187q7 -65 41 -102t89 -37v-63q-79 0 -129.5 50t-61.5 139z" />
    <glyph glyph-name="percent" unicode="%" horiz-adv-x="624" 
d="M74 -3l411 706h65l-411 -706h-65zM442 -12v54q34 0 56 22t22 56h54q0 -37 -17.5 -67t-47 -47.5t-67.5 -17.5zM442 -12q-37 0 -67 17.5t-47 47.5t-17 67h54q0 -34 22 -56t55 -22v-54zM311 120q0 38 17 67.5t47 46.5t67 17v-54q-33 0 -55 -22t-22 -55h-54zM520 120
q0 33 -22 55t-56 22v54q38 0 67.5 -17t47 -46.5t17.5 -67.5h-54zM181 449v54q34 0 56 22t22 56h54q0 -37 -17.5 -67t-47 -47.5t-67.5 -17.5zM181 449q-37 0 -67 17.5t-47 47.5t-17 67h54q0 -34 22 -56t55 -22v-54zM50 581q0 38 17 67.5t47 46.5t67 17v-54q-33 0 -55 -22
t-22 -55h-54zM259 581q0 33 -22 55t-56 22v54q38 0 67.5 -17t47 -46.5t17.5 -67.5h-54z" />
    <glyph glyph-name="ampersand" unicode="&#x26;" horiz-adv-x="633" 
d="M528 0l-327 382l44 47l328 -388zM236 -15q-83 0 -129.5 46t-46.5 122h65q0 -51 29.5 -79.5t81.5 -28.5v-60zM236 -15v60q17 0 36.5 6.5t40 20.5t40.5 36l37 -51q-24 -25 -51 -41t-53 -23.5t-50 -7.5zM60 153q-1 34 12.5 67.5t36 64.5t48 57.5t49 48.5t39.5 38l43 -51
q-13 -16 -39.5 -40.5t-55 -54t-48.5 -62.5t-20 -68h-65zM390 57l-37 51l145 156l41 -41zM201 382q-20 25 -43.5 54t-40.5 63t-17 72h63q0 -25 13.5 -50.5t33 -48.5t35.5 -43zM100 571q0 41 19 73.5t52.5 51.5t74.5 19v-63q-35 0 -59 -23t-24 -58h-63zM350 562
q-5 47 -35 68.5t-70 21.5v63q44 0 80.5 -18.5t60 -49.5t28.5 -71z" />
    <glyph glyph-name="quotesingle" unicode="'" horiz-adv-x="186" 
d="M72 500l-12 215h66l-12 -215h-42z" />
    <glyph glyph-name="parenleft" unicode="(" horiz-adv-x="239" 
d="M173 -120q-123 224 -123 455t123 455h66q-107 -224 -107 -455t107 -455h-66z" />
    <glyph glyph-name="parenright" unicode=")" horiz-adv-x="239" 
d="M66 -120h-66q107 224 107 455t-107 455h66q123 -224 123 -455t-123 -455z" />
    <glyph glyph-name="asterisk" unicode="*" horiz-adv-x="372" 
d="M292 479l-121 70l-121 70l30 52l121 -70l121 -70zM80 479l-30 52l121 70l121 70l30 -52l-121 -70zM156 435v140v140h60v-140v-140h-60z" />
    <glyph glyph-name="plus" unicode="+" horiz-adv-x="450" 
d="M192 125v390h66v-390h-66zM30 287v66h390v-66h-390z" />
    <glyph glyph-name="comma" unicode="," horiz-adv-x="203" 
d="M50 -71q12 18 21 32t14.5 27.5t8.5 29t3 35.5l56 10q0 -30 -7.5 -55.5t-21.5 -50t-32 -51.5zM103 14q-21 0 -35 14t-14 35t14 35.5t35 14.5t35.5 -14.5t14.5 -35.5t-14.5 -35t-35.5 -14z" />
    <glyph glyph-name="hyphen" unicode="-" horiz-adv-x="370" 
d="M50 287v66h270v-66h-270z" />
    <glyph glyph-name="period" unicode="." horiz-adv-x="199" 
d="M99 0q-21 0 -35 14t-14 35t14 35.5t35 14.5t35.5 -14.5t14.5 -35.5t-14.5 -35t-35.5 -14z" />
    <glyph glyph-name="slash" unicode="/" horiz-adv-x="320" 
d="M25 0l201 700h69l-201 -700h-69z" />
    <glyph glyph-name="zero" unicode="0" horiz-adv-x="452" 
d="M331 165v370h66v-370h-66zM55 165v370h66v-370h-66zM224 652v63h4v-63h-4zM224 -15v63h4v-63h-4zM55 535q0 52 22.5 92.5t61 64t87.5 23.5v-63q-49 0 -77 -30.5t-28 -86.5h-66zM397 535h-66q0 56 -27.5 86.5t-77.5 30.5v63q49 0 87.5 -23.5t61 -64t22.5 -92.5zM55 165h66
q0 -55 28 -86t77 -31v-63q-49 0 -87.5 23.5t-61 64t-22.5 92.5zM397 165q0 -52 -22.5 -92.5t-61 -64t-87.5 -23.5v63q50 0 77.5 31t27.5 86h66z" />
    <glyph glyph-name="one" unicode="1" horiz-adv-x="294" 
d="M73 516l-43 45l128 139v-91zM158 0v700h66v-700h-66z" />
    <glyph glyph-name="two" unicode="2" horiz-adv-x="444" 
d="M70 66q1 69 20 119t49 87.5t63.5 69t63 63t48.5 69t19 87.5h6.5h16.5h20h16.5h6.5q0 -63 -19 -108t-49 -79.5t-64 -65t-64 -64t-49.5 -76t-20.5 -102.5h-63zM70 0v66h329v-66h-329zM124 572l-64 14q5 40 28.5 71t60.5 49.5t80 18.5v-63q-40 0 -70 -21.5t-35 -68.5z
M399 560h-66q0 44 -30 73t-75 29v63q49 0 87.5 -21.5t61 -59t22.5 -84.5z" />
    <glyph glyph-name="three" unicode="3" horiz-adv-x="434" 
d="M218 339v63q41 0 68.5 36t27.5 91h66q0 -54 -21 -97t-57.5 -68t-83.5 -25zM323 148v89h66v-89h-66zM157 339v63h62v-63h-62zM314 528q0 53 -27.5 88.5t-68.5 35.5v63q47 0 83.5 -24.5t57.5 -66.5t21 -96h-66zM389 149q0 -47 -22.5 -84.5t-61 -59t-87.5 -21.5v63
q45 0 75 29.5t30 72.5h66zM389 237h-66q0 44 -30 73t-75 29v63q49 0 87.5 -21.5t61 -59t22.5 -84.5zM114 562l-64 14q5 40 28.5 71t60.5 49.5t80 18.5v-63q-40 0 -70 -21.5t-35 -68.5zM114 137q5 -46 35 -68t70 -22v-63q-43 0 -80 18.5t-60.5 50t-28.5 70.5z" />
    <glyph glyph-name="four" unicode="4" horiz-adv-x="464" 
d="M35 221l189 479h66l-189 -479h-66zM35 155v66h389v-66h-389zM281 0v399h63v-399h-63z" />
    <glyph glyph-name="five" unicode="5" horiz-adv-x="459" 
d="M70 295v405h66v-405h-66zM333 164v131h66v-131h-66zM70 634v66h313v-66h-313zM333 294q0 46 -30 76t-74 30l4 60q48 0 85.5 -21.5t59 -59t21.5 -85.5h-66zM88 295q0 47 19 84.5t52.5 59t74.5 21.5l-4 -60q-40 0 -67 -30t-27 -75h-48zM399 164q0 -52 -22.5 -92.5t-61 -64
t-87.5 -23.5v63q50 0 77.5 31t27.5 86h66zM124 137q5 -46 35 -68t70 -22v-63q-43 0 -80 18.5t-60.5 50t-28.5 70.5z" />
    <glyph glyph-name="six" unicode="6" horiz-adv-x="447" 
d="M60 250q0 88 16.5 159.5t44 129t60.5 101t66 75.5l52 -39q-35 -36 -66 -75t-55 -87.5t-38 -112.5t-14 -151h-66zM60 165v85h66v-85h-66zM336 165v85h66v-85h-66zM402 165q0 -52 -22.5 -92.5t-61 -64t-87.5 -23.5v63q50 0 77.5 31t27.5 86h66zM60 165h66q0 -55 28 -86
t77 -31v-63q-49 0 -87.5 23.5t-61 64t-22.5 92.5zM402 250h-66q0 56 -27.5 86.5t-77.5 30.5v63q49 0 87.5 -23.5t61 -64t22.5 -92.5zM60 250q0 52 22.5 92.5t61 64t87.5 23.5v-63q-49 0 -77 -30.5t-28 -86.5h-66z" />
    <glyph glyph-name="seven" unicode="7" horiz-adv-x="409" 
d="M94 0l219 634h66l-219 -634h-66zM30 634v66h349v-66h-349z" />
    <glyph glyph-name="eight" unicode="8" horiz-adv-x="462" 
d="M336 222q0 56 -27.5 86.5t-77.5 30.5v63q80 0 125.5 -47.5t45.5 -132.5h-66zM231 -15q-80 0 -125.5 47.5t-45.5 132.5h66q0 -37 12.5 -63t36 -40t56.5 -14v-63zM60 165v57h66v-57h-66zM231 -15v63q33 0 56.5 14t36 40t12.5 63h66q0 -85 -45.5 -132.5t-125.5 -47.5z
M60 222q0 85 45.5 132.5t125.5 47.5v-63q-49 0 -77 -30.5t-28 -86.5h-66zM336 165v57h66v-57h-66zM231 339q-73 0 -117.5 47t-44.5 123h66q0 -52 24.5 -79.5t71.5 -27.5v-63zM69 509v36h66v-36h-66zM231 339v63q47 0 71.5 27.5t24.5 79.5h66q0 -76 -44.5 -123t-117.5 -47z
M69 545q0 77 44.5 123.5t117.5 46.5v-63q-31 0 -52.5 -12t-32.5 -36t-11 -59h-66zM327 509v36h66v-36h-66zM327 545q0 35 -11 59t-32 36t-53 12v63q73 0 117.5 -46.5t44.5 -123.5h-66z" />
    <glyph glyph-name="nine" unicode="9" horiz-adv-x="447" 
d="M387 450q0 -88 -16.5 -159.5t-44 -129t-60.5 -101t-66 -75.5l-52 39q35 36 66 75t55 87.5t38 112.5t14 151h66zM387 535v-85h-66v85h66zM111 535v-85h-66v85h66zM45 535q0 52 22.5 92.5t61 64t87.5 23.5v-63q-49 0 -77 -30.5t-28 -86.5h-66zM387 535h-66q0 56 -27.5 86.5
t-77.5 30.5v63q49 0 87.5 -23.5t61 -64t22.5 -92.5zM45 450h66q0 -55 28 -86t77 -31v-63q-49 0 -87.5 23.5t-61 64.5t-22.5 92zM387 450q0 -51 -22.5 -92t-61 -64.5t-87.5 -23.5v63q50 0 77.5 31t27.5 86h66z" />
    <glyph glyph-name="colon" unicode=":" horiz-adv-x="250" 
d="M149 41q-21 0 -35 14t-14 35t14 35.5t35 14.5t35.5 -14.5t14.5 -35.5t-14.5 -35t-35.5 -14zM150 364q-21 0 -35 14t-14 35t14 35.5t35 14.5t35.5 -14.5t14.5 -35.5t-14.5 -35t-35.5 -14z" />
    <glyph glyph-name="semicolon" unicode=";" horiz-adv-x="264" 
d="M149 364q-21 0 -35 14t-14 35t14 35.5t35 14.5t35.5 -14.5t14.5 -35.5t-14.5 -35t-35.5 -14zM111 -71q12 18 21 32t14.5 27.5t8.5 29t3 35.5l56 10q0 -30 -7.5 -55.5t-21.5 -50t-32 -51.5zM164 14q-21 0 -35 14t-14 35t14 35.5t35 14.5t35.5 -14.5t14.5 -35.5t-14.5 -35
t-35.5 -14z" />
    <glyph glyph-name="less" unicode="&#x3c;" horiz-adv-x="411" 
d="M30 282v66l351 178v-66zM381 104l-351 178v66l351 -178v-66z" />
    <glyph glyph-name="equal" unicode="=" horiz-adv-x="388" 
d="M30 397v66h328v-66h-328zM30 237v66h328v-66h-328z" />
    <glyph glyph-name="greater" unicode="&#x3e;" horiz-adv-x="411" 
d="M381 282l-351 178v66l351 -178v-66zM30 104v66l351 178v-66z" />
    <glyph glyph-name="question" unicode="?" horiz-adv-x="415" 
d="M150 184q0 63 15.5 107t38 76t45 59t38 55t15.5 64q0 53 -28 80t-84 27q-29 0 -49 -10t-30 -29t-10 -48h-66q0 45 19.5 79t54.5 52.5t81 18.5q53 0 92 -21t61 -59.5t22 -89.5q0 -43 -15.5 -74t-38 -58t-45 -57.5t-38 -71.5t-15.5 -100h-63zM150 161v23h63v-23h-63zM181 0
q-21 0 -35 14t-14 35t14 35.5t35 14.5t35.5 -14.5t14.5 -35.5t-14.5 -35t-35.5 -14z" />
    <glyph glyph-name="at" unicode="@" horiz-adv-x="718" 
d="M52 328q6 74 32.5 134t71 103t103 66.5t128.5 23.5l-5 -61q-78 0 -136 -31.5t-92 -91t-41 -143.5h-61zM331 -90q-93 0 -159.5 41t-99.5 114.5t-26 171.5h61q-6 -83 19 -143t78.5 -91.5t131.5 -31.5zM46 237l6 91h61l-6 -91h-61zM331 -90l5 61q37 0 75.5 9t64.5 24l29 -48
q-35 -21 -82.5 -33.5t-91.5 -12.5zM322 75q-44 0 -75.5 20.5t-47 58t-11.5 86.5h66q-4 -49 18 -74t68 -25zM188 240l5 71h66l-5 -71h-66zM322 75l18 66q38 0 59 25t25 74h39q-4 -49 -23 -86.5t-49 -58t-69 -20.5zM605 237h61q-4 -54 -24 -89.5t-49 -53.5t-60 -18t-57.5 18.5
t-41 55t-10.5 90.5h66q-4 -53 11.5 -80t38 -27t42 26t23.5 78zM193 311q4 50 25.5 87t56 57.5t78.5 20.5l9 -66q-46 0 -72 -25t-31 -74h-66zM429 311q4 49 -13 74t-54 25l-9 66q39 0 66 -20.5t40 -57.5t9 -87h-39zM424 240l14 202l2 28h66l-16 -230h-66zM605 237l6 91h61
l-6 -91h-61zM611 328q7 84 -18.5 143.5t-78.5 91t-132 31.5l5 61q93 0 159.5 -41t100 -114.5t25.5 -171.5h-61z" />
    <glyph glyph-name="A" unicode="A" horiz-adv-x="468" 
d="M114 150v63h255v-63h-255zM266 700l-170 -700h-66l170 700h66zM268 700l170 -700h-66l-170 700h66z" />
    <glyph glyph-name="B" unicode="B" horiz-adv-x="435" 
d="M195 331v66q56 0 87.5 33t31.5 91h66q0 -54 -24 -97t-66 -68t-95 -25zM96 0v63h109v-63h-109zM96 331v66h109v-66h-109zM324 179v26h66v-26h-66zM324 204q0 60 -31.5 93.5t-87.5 33.5v66q53 0 95 -25.5t66 -69t24 -98.5h-66zM96 637v63h99v-63h-99zM380 520h-66
q0 56 -31.5 86.5t-87.5 30.5v63q56 0 97.5 -22.5t64.5 -63t23 -94.5zM390 180q0 -54 -23 -94.5t-64.5 -63t-97.5 -22.5v63q56 0 87.5 31t31.5 86h66zM60 0v700h66v-700h-66z" />
    <glyph glyph-name="C" unicode="C" horiz-adv-x="455" 
d="M50 164v372h66v-372h-66zM50 536q0 54 23 94.5t65 63t97 22.5v-63q-56 0 -87.5 -30.5t-31.5 -86.5h-66zM50 164h66q0 -55 31.5 -86t87.5 -31v-63q-55 0 -97 22.5t-65 63t-23 94.5zM364 514q-7 65 -41 102t-89 37v63q79 0 129.5 -50t61.5 -139zM364 186l61 -13
q-11 -89 -61.5 -139t-129.5 -50v63q55 0 89 37t41 102z" />
    <glyph glyph-name="D" unicode="D" horiz-adv-x="445" 
d="M324 180v340h66v-340h-66zM96 0v63h109v-63h-109zM96 637v63h109v-63h-109zM96 637v63h109v-63h-109zM390 520h-66q0 56 -31.5 86.5t-87.5 30.5v63q56 0 97.5 -22.5t64.5 -63t23 -94.5zM390 180q0 -54 -23 -94.5t-64.5 -63t-97.5 -22.5v63q56 0 87.5 31t31.5 86h66zM60 0
v700h66v-700h-66z" />
    <glyph glyph-name="E" unicode="E" horiz-adv-x="410" 
d="M86 0v63h284v-63h-284zM106 315v66h204v-66h-204zM60 700h66v-700h-66v700zM96 700h264v-63h-264v63z" />
    <glyph glyph-name="F" unicode="F" horiz-adv-x="380" 
d="M106 315v66h204v-66h-204zM60 700h66v-700h-66v700zM96 700h264v-63h-264v63z" />
    <glyph glyph-name="G" unicode="G" horiz-adv-x="480" 
d="M230 302v63h189v-63h-189zM353 163v199h66v-199h-66zM50 164v372h66v-372h-66zM50 536q0 54 23 94.5t65 63t97 22.5v-63q-56 0 -87.5 -30.5t-31.5 -86.5h-66zM50 164h66q0 -55 31.5 -86t87.5 -31v-63q-55 0 -97 22.5t-65 63t-23 94.5zM364 514q-7 65 -41 102t-89 37v63
q79 0 129.5 -50t61.5 -139zM419 164q0 -54 -23 -94.5t-64.5 -63t-97.5 -22.5v63q56 0 87.5 31t31.5 86h66z" />
    <glyph glyph-name="H" unicode="H" horiz-adv-x="492" 
d="M80 318v63h306v-63h-306zM366 0v700h66v-700h-66zM60 0v700h66v-700h-66z" />
    <glyph glyph-name="I" unicode="I" horiz-adv-x="206" 
d="M70 0v700h66v-700h-66z" />
    <glyph glyph-name="J" unicode="J" horiz-adv-x="292" 
d="M166 139v561h66v-561h-66zM232 139q0 -73 -34.5 -114t-96.5 -41l-5 63q22 0 37.5 11t24 31.5t8.5 49.5h66zM49 64q11 -7 22.5 -12t24.5 -5l5 -63q-22 0 -43 7.5t-38 20.5z" />
    <glyph glyph-name="K" unicode="K" horiz-adv-x="352" 
d="M76 378l213 322h70l-213 -322h-70zM302 0l-226 378h70l226 -378h-70zM60 0v700h66v-700h-66z" />
    <glyph glyph-name="L" unicode="L" horiz-adv-x="380" 
d="M96 0v63h264v-63h-264zM60 0v700h66v-700h-66z" />
    <glyph glyph-name="M" unicode="M" horiz-adv-x="574" 
d="M255 0l157 700h66l-157 -700h-66zM252 0l-157 700h66l157 -700h-66zM60 0v700h66v-700h-66zM448 0v700h66v-700h-66z" />
    <glyph glyph-name="N" unicode="N" horiz-adv-x="500" 
d="M355 0l-281 700h72l280 -700h-71zM60 0v700h66v-700h-66zM374 0v700h66v-700h-66z" />
    <glyph glyph-name="O" unicode="O" horiz-adv-x="480" 
d="M359 164v372h66v-372h-66zM55 164v372h66v-372h-66zM425 535h-66q0 56 -31.5 86.5t-87.5 30.5v63q56 0 97.5 -22.5t64.5 -63t23 -94.5zM55 535q0 54 23 94.5t65 63t97 22.5v-63q-56 0 -87.5 -30.5t-31.5 -86.5h-66zM425 165q0 -54 -23 -94.5t-64.5 -63t-97.5 -22.5v63
q56 0 87.5 31t31.5 86h66zM55 165h66q0 -55 31.5 -86t87.5 -31v-63q-55 0 -97 22.5t-65 63t-23 94.5z" />
    <glyph glyph-name="P" unicode="P" horiz-adv-x="420" 
d="M86 637v63h120v-63h-120zM86 279v63h120v-63h-120zM324 458v62h66v-62h-66zM390 520h-66q0 56 -31.5 86.5t-87.5 30.5v63q56 0 97.5 -22.5t64.5 -63t23 -94.5zM390 459q0 -54 -23 -94.5t-64.5 -63t-97.5 -22.5v63q56 0 87.5 31t31.5 86h66zM60 0v700h66v-700h-66z" />
    <glyph glyph-name="Q" unicode="Q" horiz-adv-x="480" 
d="M338 -133q-23 2 -48 17.5t-46.5 39.5t-35.5 48l23 29q30 -32 63 -54t71 -27zM359 164v372h66v-372h-66zM55 164v372h66v-372h-66zM425 535h-66q0 56 -31.5 86.5t-87.5 30.5v63q56 0 97.5 -22.5t64.5 -63t23 -94.5zM55 535q0 54 23 94.5t65 63t97 22.5v-63
q-56 0 -87.5 -30.5t-31.5 -86.5h-66zM425 165q0 -54 -23 -94.5t-64.5 -63t-97.5 -22.5v63q56 0 87.5 31t31.5 86h66zM55 165h66q0 -55 31.5 -86t87.5 -31v-63q-55 0 -97 22.5t-65 63t-23 94.5z" />
    <glyph glyph-name="R" unicode="R" horiz-adv-x="430" 
d="M320 0l-129 348h70l129 -348h-70zM86 311v63h120v-63h-120zM86 637v63h120v-63h-120zM324 490v31h66v-31h-66zM390 520h-66q0 56 -31.5 86.5t-87.5 30.5v63q56 0 97.5 -22.5t64.5 -63t23 -94.5zM390 491q0 -54 -23 -94.5t-64.5 -63t-97.5 -22.5v63q56 0 87.5 31t31.5 86
h66zM60 0v700h66v-700h-66z" />
    <glyph glyph-name="S" unicode="S" horiz-adv-x="448" 
d="M345 153q0 38 -20.5 68t-53 57t-69.5 54t-69.5 58t-53 69.5t-20.5 87.5h66q0 -37 20.5 -67.5t53 -57.5t69.5 -54t69.5 -58t53 -69t20.5 -88h-66zM59 545q0 54 23 92t65 58t97 20v-63q-56 0 -87.5 -28.5t-31.5 -78.5h-66zM411 155q0 -54 -23 -92t-64.5 -58t-97.5 -20v63
q56 0 87.5 28.5t31.5 78.5h66zM349 562q-5 47 -35 68.5t-70 21.5v63q44 0 80.5 -18.5t60 -49.5t28.5 -71zM96 187q7 -65 41 -102t89 -37v-63q-79 0 -129.5 50t-61.5 139z" />
    <glyph glyph-name="T" unicode="T" horiz-adv-x="430" 
d="M20 637v63h390v-63h-390zM182 0v700h66v-700h-66z" />
    <glyph glyph-name="U" unicode="U" horiz-adv-x="488" 
d="M362 164v536h66v-536h-66zM60 164v536h66v-536h-66zM428 165q0 -54 -23 -94.5t-64.5 -63t-97.5 -22.5v63q56 0 87.5 31t31.5 86h66zM60 165h66q0 -55 31.5 -86t87.5 -31v-63q-55 0 -97 22.5t-65 63t-23 94.5z" />
    <glyph glyph-name="V" unicode="V" horiz-adv-x="468" 
d="M202 0l170 700h66l-170 -700h-66zM200 0l-170 700h66l170 -700h-66z" />
    <glyph glyph-name="W" unicode="W" horiz-adv-x="717" 
d="M466 0l-137 700h66l137 -700h-66zM167 0l-127 700h66l127 -700h-66zM185 0l137 700h66l-137 -700h-66zM484 0l127 700h66l-127 -700h-66z" />
    <glyph glyph-name="X" unicode="X" horiz-adv-x="432" 
d="M336 0l-306 700h66l306 -700h-66zM30 0l153 350h66l-153 -350h-66zM183 350l153 350h66l-153 -350h-66z" />
    <glyph glyph-name="Y" unicode="Y" horiz-adv-x="426" 
d="M180 238l150 462h66l-150 -462h-66zM180 0v238h66v-238h-66zM180 238l-150 462h66l150 -462h-66z" />
    <glyph glyph-name="Z" unicode="Z" horiz-adv-x="452" 
d="M40 63l303 574h69l-303 -574h-69zM40 0v63h372v-63h-372zM40 637v63h372v-63h-372z" />
    <glyph glyph-name="bracketleft" unicode="[" horiz-adv-x="270" 
d="M50 -120v910h66v-910h-66zM50 -120v66h220v-66h-220zM50 724v66h220v-66h-220z" />
    <glyph glyph-name="backslash" unicode="\" horiz-adv-x="320" 
d="M295 0h-69l-201 700h69z" />
    <glyph glyph-name="bracketright" unicode="]" horiz-adv-x="270" 
d="M220 -120h-66v910h66v-910zM220 -120h-220v66h220v-66zM220 724h-220v66h220v-66z" />
    <glyph glyph-name="asciicircum" unicode="^" horiz-adv-x="482" 
d="M208 700h66l178 -351h-66zM30 349l178 351h66l-178 -351h-66z" />
    <glyph glyph-name="underscore" unicode="_" horiz-adv-x="424" 
d="M50 -30v66h324v-66h-324z" />
    <glyph glyph-name="grave" unicode="`" horiz-adv-x="283" 
d="M147 557l-77 128h78l65 -128h-66z" />
    <glyph glyph-name="a" unicode="a" horiz-adv-x="441" 
d="M330 0v350h66v-350h-66zM205 -15v60q40 0 67.5 20t42.5 58.5t15 91.5h38q0 -68 -21 -120t-57.5 -81t-84.5 -29zM205 -15q-43 0 -79.5 21t-58.5 57.5t-22 81.5h66q0 -43 29 -71.5t65 -28.5v-60zM45 145q0 46 22.5 81.5t61 56.5t86.5 21v-60q-44 0 -74 -28t-30 -71h-66z
M215 244v60h168v-60h-168zM330 215v136h38v-136h-38zM396 350h-66q0 44 -30 73t-75 29v63q49 0 87.5 -21.5t61 -59t22.5 -84.5zM120 362l-64 14q5 40 28.5 71t60.5 49.5t80 18.5v-63q-40 0 -70 -21.5t-35 -68.5z" />
    <glyph glyph-name="b" unicode="b" horiz-adv-x="448" 
d="M60 499v201h66v-201h-66zM126 0h-66v500h66v-500zM403 150h-66v200h66v-200zM337 350q0 43 -30 71t-75 28l14 66q45 0 80.5 -21.5t56 -59t20.5 -84.5h-66zM88 350q0 47 21 84.5t56.5 59t80.5 21.5l-14 -66q-46 0 -76 -28t-30 -71h-38zM337 150h66q0 -47 -20.5 -84.5
t-56 -59t-80.5 -21.5l-14 66q45 0 75 28t30 71zM88 150h38q0 -43 30 -71t76 -28l14 -66q-45 0 -80.5 21.5t-56.5 59t-21 84.5z" />
    <glyph glyph-name="c" unicode="c" horiz-adv-x="407" 
d="M45 163v174h66v-174h-66zM45 336q0 52 22.5 92.5t61 64t87.5 23.5v-63q-49 0 -77 -30.5t-28 -86.5h-66zM320 363q-5 47 -35 68.5t-70 21.5v63q44 0 80.5 -18.5t60 -49.5t28.5 -71zM45 164h66q0 -55 28 -86t77 -31v-63q-49 0 -87.5 23.5t-61 64t-22.5 92.5zM320 137
l64 -14q-5 -39 -28.5 -70.5t-60 -50t-80.5 -18.5v63q40 0 70 22t35 68z" />
    <glyph glyph-name="d" unicode="d" horiz-adv-x="448" 
d="M388 499h-66v201h66v-201zM322 0v500h66v-500h-66zM45 150v200h66v-200h-66zM111 350h-66q0 47 20.5 84.5t56 59t80.5 21.5l14 -66q-45 0 -75 -28t-30 -71zM360 350h-38q0 43 -30 71t-76 28l-14 66q45 0 81 -21.5t56.5 -59t20.5 -84.5zM111 150q0 -43 30 -71t75 -28
l-14 -66q-45 0 -80.5 21.5t-56 59t-20.5 84.5h66zM360 150q0 -47 -20.5 -84.5t-56.5 -59t-81 -21.5l14 66q46 0 76 28t30 71h38z" />
    <glyph glyph-name="e" unicode="e" horiz-adv-x="412" 
d="M41 227v57h336v-57h-336zM205 -16v63h4v-63h-4zM35 164v171h66v-171h-66zM311 284v66h66v-66h-66zM377 350h-66q0 44 -30 73t-75 29v63q49 0 87.5 -21.5t61 -59t22.5 -84.5zM313 137l64 -14q-5 -39 -28.5 -70.5t-60 -50t-80.5 -18.5v63q40 0 70 22t35 68zM35 335
q0 52 22.5 92.5t61 64t87.5 23.5v-63q-49 0 -77 -30.5t-28 -86.5h-66zM35 164h66q0 -55 28 -86t77 -31v-63q-49 0 -87.5 23.5t-61 64t-22.5 92.5z" />
    <glyph glyph-name="f" unicode="f" horiz-adv-x="305" 
d="M83 0v560h66v-560h-66zM25 440v60h250v-60h-250zM83 560q0 73 35 114t96 41l5 -63q-22 0 -37.5 -11t-24 -31.5t-8.5 -49.5h-66zM266 635q-11 8 -22.5 12.5t-24.5 4.5l-5 63q22 0 43.5 -7t37.5 -21z" />
    <glyph glyph-name="g" unicode="g" horiz-adv-x="448" 
d="M322 -20v520h66v-520h-66zM45 159v191h66v-191h-66zM111 350h-66q0 47 20.5 84.5t56 59t80.5 21.5l14 -66q-45 0 -75 -28t-30 -71zM360 350h-38q0 43 -30 71t-76 28l-14 66q45 0 81 -21.5t56.5 -59t20.5 -84.5zM111 159q0 -43 30 -71t75 -28l-14 -66q-45 0 -80.5 21.5
t-56 59t-20.5 84.5h66zM360 159q0 -47 -20.5 -84.5t-56.5 -59t-81 -21.5l14 66q46 0 76 28t30 71h38zM388 -20q0 -47 -22.5 -84.5t-61 -59t-87.5 -21.5v63q45 0 75 29.5t30 72.5h66zM112 -32q5 -46 35 -68t70 -22v-63q-43 0 -80 18.5t-60.5 50t-28.5 70.5z" />
    <glyph glyph-name="h" unicode="h" horiz-adv-x="448" 
d="M60 0v500h66v-500h-66zM337 0v350h66v-350h-66zM337 350q0 43 -30 71t-75 28l14 66q45 0 80.5 -21.5t56 -59t20.5 -84.5h-66zM88 350q0 47 21 84.5t56.5 59t80.5 21.5l-14 -66q-46 0 -76 -28t-30 -71h-38zM60 0v715h66v-715h-66z" />
    <glyph glyph-name="i" unicode="i" horiz-adv-x="206" 
d="M70 0v500h66v-500h-66zM103 566q-21 0 -35 14t-14 35t14 35.5t35 14.5t35.5 -14.5t14.5 -35.5t-14.5 -35t-35.5 -14z" />
    <glyph glyph-name="j" unicode="j" horiz-adv-x="222" 
d="M152 1q0 -73 -34.5 -114t-96.5 -41l-5 63q22 0 37.5 11t24 31.5t8.5 49.5h66zM-31 -74q11 -7 22.5 -12t24.5 -5l5 -63q-22 0 -43 7.5t-38 20.5zM86 0v500h66v-500h-66zM138 567q-21 0 -35 14t-14 35t14 35.5t35 14.5t35.5 -14.5t14.5 -35.5t-14.5 -35t-35.5 -14z" />
    <glyph glyph-name="k" unicode="k" horiz-adv-x="397" 
d="M304 0l-178 277l60 29l186 -306h-68zM116 190l-47 47l205 263h87zM60 0v715h66v-715h-66z" />
    <glyph glyph-name="l" unicode="l" horiz-adv-x="206" 
d="M70 0v715h66v-715h-66z" />
    <glyph glyph-name="m" unicode="m" horiz-adv-x="683" 
d="M60 0v500h66v-500h-66zM316 0v350h66v-350h-66zM87 350q0 47 19.5 84.5t53 59t75.5 21.5l-14 -66q-40 0 -67.5 -28t-27.5 -71h-39zM316 350q0 43 -27 71t-68 28l14 66q42 0 75.5 -21.5t52.5 -59t19 -84.5h-66zM572 0v350h66v-350h-66zM343 350q0 47 19.5 84.5t53 59
t75.5 21.5l-14 -66q-40 0 -67.5 -28t-27.5 -71h-39zM572 350q0 43 -27 71t-68 28l14 66q42 0 75.5 -21.5t52.5 -59t19 -84.5h-66z" />
    <glyph glyph-name="n" unicode="n" horiz-adv-x="448" 
d="M60 0v500h66v-500h-66zM337 0v350h66v-350h-66zM337 350q0 43 -30 71t-75 28l14 66q45 0 80.5 -21.5t56 -59t20.5 -84.5h-66zM88 350q0 47 21 84.5t56.5 59t80.5 21.5l-14 -66q-46 0 -76 -28t-30 -71h-38z" />
    <glyph glyph-name="o" unicode="o" horiz-adv-x="412" 
d="M311 164v172h66v-172h-66zM35 164v172h66v-172h-66zM204 452v63h4v-63h-4zM204 -15v63h4v-63h-4zM35 335q0 52 22.5 92.5t61 64t87.5 23.5v-63q-49 0 -77 -30.5t-28 -86.5h-66zM377 335h-66q0 56 -27.5 86.5t-77.5 30.5v63q49 0 87.5 -23.5t61 -64t22.5 -92.5zM35 165h66
q0 -55 28 -86t77 -31v-63q-49 0 -87.5 23.5t-61 64t-22.5 92.5zM377 165q0 -52 -22.5 -92.5t-61 -64t-87.5 -23.5v63q50 0 77.5 31t27.5 86h66z" />
    <glyph glyph-name="p" unicode="p" horiz-adv-x="448" 
d="M60 1h66v-201h-66v201zM126 500v-500h-66v500h66zM403 350v-200h-66v200h66zM337 150h66q0 -47 -20.5 -84.5t-56 -59t-80.5 -21.5l-14 66q45 0 75 28t30 71zM88 150h38q0 -43 30 -71t76 -28l14 -66q-45 0 -80.5 21.5t-56.5 59t-21 84.5zM337 350q0 43 -30 71t-75 28
l14 66q45 0 80.5 -21.5t56 -59t20.5 -84.5h-66zM88 350q0 47 21 84.5t56.5 59t80.5 21.5l-14 -66q-46 0 -76 -28t-30 -71h-38z" />
    <glyph glyph-name="q" unicode="q" horiz-adv-x="448" 
d="M388 1v-201h-66v201h66zM322 500h66v-500h-66v500zM45 350h66v-200h-66v200zM111 150q0 -43 30 -71t75 -28l-14 -66q-45 0 -80.5 21.5t-56 59t-20.5 84.5h66zM360 150q0 -47 -20.5 -84.5t-56.5 -59t-81 -21.5l14 66q46 0 76 28t30 71h38zM111 350h-66q0 47 20.5 84.5
t56 59t80.5 21.5l14 -66q-45 0 -75 -28t-30 -71zM360 350h-38q0 43 -30 71t-76 28l-14 66q45 0 81 -21.5t56.5 -59t20.5 -84.5z" />
    <glyph glyph-name="r" unicode="r" horiz-adv-x="330" 
d="M60 0v500h66v-500h-66zM87 345q0 47 18 84.5t49.5 59t70.5 21.5l-14 -66q-37 0 -61 -28t-24 -71h-39zM271 422q-16 11 -30.5 16.5t-29.5 5.5l14 66q22 0 41.5 -7t38.5 -23z" />
    <glyph glyph-name="s" unicode="s" horiz-adv-x="402" 
d="M299 125q0 27 -18 45t-46 32.5t-59.5 29t-59.5 33t-46 46.5t-18 69h6.5h16.5h20h16.5h6.5q0 -27 18 -45t46 -32t59.5 -28.5t59.5 -33.5t46 -46.5t18 -69.5h-6.5h-16.5h-20h-16.5h-6.5zM204 -15v63q41 0 68 22t27 55h66q0 -40 -21 -71.5t-57.5 -50t-82.5 -18.5zM52 380
q0 39 19 70t52.5 48.5t74.5 17.5v-63q-34 0 -57 -20.5t-23 -52.5h-66zM99 138q5 -46 35 -68t70 -22v-63q-43 0 -80 18.5t-60.5 50t-28.5 70.5zM303 363q-5 47 -35 68.5t-70 21.5v63q44 0 80.5 -18.5t60 -49.5t28.5 -71z" />
    <glyph glyph-name="t" unicode="t" horiz-adv-x="325" 
d="M93 139v562l66 -1v-561h-66zM35 440v60h250v-60h-250zM93 140h66q0 -29 8.5 -49.5t24 -31.5t37.5 -11l-5 -63q-61 0 -96 41t-35 114zM276 65l29 -52q-16 -13 -37.5 -20.5t-43.5 -7.5l5 63q13 0 24.5 5t22.5 12z" />
    <glyph glyph-name="u" unicode="u" horiz-adv-x="448" 
d="M388 500v-500h-66v500h66zM111 500v-350h-66v350h66zM111 150q0 -43 30 -71t75 -28l-14 -66q-45 0 -80.5 21.5t-56 59t-20.5 84.5h66zM360 150q0 -47 -20.5 -84.5t-56.5 -59t-81 -21.5l14 66q46 0 76 28t30 71h38z" />
    <glyph glyph-name="v" unicode="v" horiz-adv-x="459" 
d="M197 0l166 500h66l-166 -500h-66zM196 0l-166 500h66l166 -500h-66z" />
    <glyph glyph-name="w" unicode="w" horiz-adv-x="666" 
d="M435 0l135 500h66l-135 -500h-66zM165 0l-135 500h66l135 -500h-66zM165 0l135 500h66l-135 -500h-66zM435 0l-135 500h66l135 -500h-66z" />
    <glyph glyph-name="x" unicode="x" horiz-adv-x="418" 
d="M316 0l-286 500h72l286 -500h-72zM30 0l143 250h72l-143 -250h-72zM173 250l143 250h72l-143 -250h-72z" />
    <glyph glyph-name="y" unicode="y" horiz-adv-x="460" 
d="M59 -187l13 58q38 -10 65 8t44 71h66q-29 -88 -77 -121t-111 -16zM181 -50l183 550h66l-183 -550h-66zM203 -19l-173 519h66l142 -428z" />
    <glyph glyph-name="z" unicode="z" horiz-adv-x="420" 
d="M55 63l235 374h75l-234 -374h-76zM55 0v63h310v-63h-310zM55 437v63h310v-63h-310z" />
    <glyph glyph-name="braceleft" unicode="{" horiz-adv-x="326" 
d="M155 470v144h66v-144h-66zM155 30v144h66v-144h-66zM155 614q0 52 22.5 92.5t61 64t87.5 23.5v-63q-49 0 -77 -30.5t-28 -86.5h-66zM155 30h66q0 -55 28 -86t77 -31v-63q-49 0 -87.5 23.5t-61 64.5t-22.5 92zM221 470q0 -51 -22.5 -92t-61 -64.5t-87.5 -23.5v63
q50 0 77.5 31t27.5 86h66zM221 174h-66q0 56 -27.5 86.5t-77.5 30.5v63q49 0 87.5 -23.5t61 -64t22.5 -92.5z" />
    <glyph glyph-name="bar" unicode="|" horiz-adv-x="203" 
d="M70 -90v880h63v-880h-63z" />
    <glyph glyph-name="braceright" unicode="}" horiz-adv-x="326" 
d="M171 470h-66v144h66v-144zM171 30h-66v144h66v-144zM171 614h-66q0 56 -27.5 86.5t-77.5 30.5v63q49 0 87.5 -23.5t61 -64t22.5 -92.5zM171 30q0 -51 -22.5 -92t-61 -64.5t-87.5 -23.5v63q50 0 77.5 31t27.5 86h66zM105 470h66q0 -55 28 -86t77 -31v-63q-49 0 -87.5 23.5
t-61 64.5t-22.5 92zM105 174q0 52 22.5 92.5t61 64t87.5 23.5v-63q-49 0 -77 -30.5t-28 -86.5h-66z" />
    <glyph glyph-name="asciitilde" unicode="~" horiz-adv-x="452" 
d="M318 230q-27 0 -47.5 8t-37 20t-31.5 24t-31 20t-37 8v54q27 0 47.5 -8t37 -20t31.5 -24t31 -20t37 -8v-54zM30 267q1 44 29.5 70.5t74.5 26.5v-54q-22 0 -34 -11t-13 -32h-57zM318 230v54q23 0 34.5 11t12.5 32h57q-1 -43 -29.5 -70t-74.5 -27z" />
    <glyph glyph-name="uni00A0" unicode="&#xa0;" horiz-adv-x="180" 
 />
    <glyph glyph-name="exclamdown" unicode="&#xa1;" horiz-adv-x="199" 
d="M99 700q21 0 35.5 -14t14.5 -35t-14.5 -35.5t-35.5 -14.5t-35 14.5t-14 35.5t14 35t35 14zM72 494h54l6 -494h-66z" />
    <glyph glyph-name="cent" unicode="&#xa2;" horiz-adv-x="373" 
d="M172 5v137h53v-137h-53zM171 530v137h53v-137h-53zM45 259v156h59v-156h-59zM45 414q0 47 20 83.5t54.5 57.5t78.5 21v-56q-44 0 -69 -28t-25 -78h-59zM292 439q-5 42 -32 61.5t-62 19.5v56q39 0 71.5 -16.5t54 -44.5t26.5 -64zM45 260h59q0 -50 25 -78t69 -28v-56
q-44 0 -78.5 21t-54.5 57.5t-20 83.5zM292 235l58 -12q-5 -36 -26.5 -64t-54 -44.5t-71.5 -16.5v56q35 0 62 19.5t32 61.5z" />
    <glyph glyph-name="sterling" unicode="&#xa3;" horiz-adv-x="500" 
d="M165 499q0 95 51.5 148t143.5 53l-14 -63q-36 1 -61.5 -15.5t-39.5 -47.5t-14 -75h-66zM60 0v63h400v-63h-400zM165 165v334h66v-334h-66zM77 320v60h310v-60h-310zM420 614q-20 13 -37 18t-37 5l14 63q31 0 55.5 -9t43.5 -23zM231 165q0 -47 -22.5 -84.5t-61 -59
t-87.5 -21.5v63q45 0 75 29.5t30 72.5h66z" />
    <glyph glyph-name="currency" unicode="&#xa4;" horiz-adv-x="495" 
d="M340 398l-44 45l105 105l44 -45zM94 152l-44 45l105 105l44 -45zM155 398l-105 105l44 45l105 -105zM401 152l-105 105l44 45l105 -105zM249 204v60q37 0 61.5 24.5t24.5 61.5h60q0 -41 -19 -74.5t-52 -52.5t-75 -19zM249 204q-42 0 -74.5 19t-51.5 52.5t-19 74.5h59
q0 -37 24.5 -61.5t61.5 -24.5v-60zM104 350q0 42 19 75t51.5 52t74.5 19v-60q-37 0 -61.5 -24.5t-24.5 -61.5h-59zM335 350q0 37 -24.5 61.5t-61.5 24.5v60q42 0 75 -19t52 -52t19 -75h-60z" />
    <glyph glyph-name="yen" unicode="&#xa5;" horiz-adv-x="493" 
d="M60 269v60h360v-60h-360zM60 155v60h360v-60h-360zM217 238l150 462h66l-150 -462h-66zM217 0v238h66v-238h-66zM217 238l-150 462h66l150 -462h-66z" />
    <glyph glyph-name="brokenbar" unicode="&#xa6;" horiz-adv-x="203" 
d="M70 387v390h63v-390h-63zM70 -103v390h63v-390h-63z" />
    <glyph glyph-name="section" unicode="&#xa7;" horiz-adv-x="405" 
d="M302 315q0 27 -18 45t-46 32.5t-59.5 29t-59.5 33t-46 46.5t-18 69h6.5h16.5h20h16.5h6.5q0 -27 18 -45t46 -32t59.5 -28.5t59.5 -33.5t46 -46.5t18 -69.5h-6.5h-16.5h-20h-16.5h-6.5zM207 175v63q41 0 68 22t27 55h66q0 -40 -21 -71.5t-57.5 -50t-82.5 -18.5zM55 570
q0 39 19 69.5t52.5 48.5t74.5 18v-63q-34 0 -57 -20.5t-23 -52.5h-66zM102 328q5 -46 35 -68t70 -22v-63q-43 0 -80 18.5t-60.5 50t-28.5 70.5zM306 553q-5 47 -35 68.5t-70 21.5v63q44 0 80.5 -18.5t60 -49.5t28.5 -71zM103 321q0 -27 18 -45t46 -32.5t59.5 -29t59.5 -33
t46 -46.5t18 -69h-6.5h-16.5h-20h-16.5h-6.5q0 27 -18 45t-46 32t-59.5 28.5t-59.5 33.5t-46 47t-18 69h6.5h16.5h20h16.5h6.5zM198 461v-63q-40 0 -67.5 -22t-27.5 -55h-66q0 40 21 71.5t57.5 50t82.5 18.5zM350 66q0 -39 -19 -69.5t-52 -48.5t-75 -18v63q35 0 57.5 21
t22.5 52h66zM303 308q-5 47 -35 68.5t-70 21.5v63q44 0 80.5 -18.5t60 -49.5t28.5 -71zM99 83q5 -46 35 -68t70 -22v-63q-43 0 -80 18.5t-60.5 50t-28.5 70.5zM302 315q0 27 -18 45t-46 32.5t-59.5 29t-59.5 33t-46 46.5t-18 69h6.5h16.5h20h16.5h6.5q0 -27 18 -45t46 -32
t59.5 -28.5t59.5 -33.5t46 -46.5t18 -69.5h-6.5h-16.5h-20h-16.5h-6.5zM207 175v63q41 0 68 22t27 55h66q0 -40 -21 -71.5t-57.5 -50t-82.5 -18.5zM55 570q0 39 19 70t52.5 48.5t74.5 17.5v-63q-34 0 -57 -20.5t-23 -52.5h-66zM102 328q5 -46 35 -68t70 -22v-63
q-43 0 -80 18.5t-60.5 50t-28.5 70.5zM306 553q-5 47 -35 68.5t-70 21.5v63q44 0 80.5 -18.5t60 -49.5t28.5 -71z" />
    <glyph glyph-name="dieresis" unicode="&#xa8;" horiz-adv-x="369" 
d="M119 546q-21 0 -35 14t-14 35t14 35.5t35 14.5t35.5 -14.5t14.5 -35.5t-14.5 -35t-35.5 -14zM249 546q-21 0 -35 14t-14 35t14 35.5t35 14.5t35.5 -14.5t14.5 -35.5t-14.5 -35t-35.5 -14z" />
    <glyph glyph-name="copyright" unicode="&#xa9;" horiz-adv-x="710" 
d="M613 385q0 84 -32 145.5t-90 95.5t-137 34v52q93 0 163 -41t109 -114.5t39 -171.5h-52zM354 -12q-93 0 -162.5 41t-108 114.5t-38.5 171.5h52q0 -84 32 -145.5t89.5 -95.5t135.5 -34v-52zM45 315v70h52v-70h-52zM354 -12v52q79 0 137 34t90 95.5t32 145.5h52
q0 -98 -39 -171.5t-109 -114.5t-163 -41zM45 385q0 98 38.5 171.5t108 114.5t162.5 41v-52q-78 0 -135.5 -34t-89.5 -95.5t-32 -145.5h-52zM613 315v70h52v-70h-52zM224 280v141h54v-141h-54zM224 420q0 42 18.5 75t49.5 52t71 19v-51q-40 0 -62.5 -25t-22.5 -70h-54z
M447 442q-4 38 -28.5 55.5t-56.5 17.5v51q53 0 92 -32.5t45 -80.5zM224 281h54q0 -45 22.5 -70t62.5 -25v-51q-40 0 -71 19t-49.5 52t-18.5 75zM447 259l52 -11q-6 -48 -45 -80.5t-92 -32.5v51q32 0 56.5 17.5t28.5 55.5z" />
    <glyph glyph-name="ordfeminine" unicode="&#xaa;" horiz-adv-x="353" 
d="M259 319v263h49v-263h-49zM165 308v45q29 0 50 15t32.5 43.5t11.5 68.5h28q0 -51 -15.5 -90t-43.5 -60.5t-63 -21.5zM165 308q-32 0 -59.5 15.5t-44 43t-16.5 61.5h49q0 -32 22 -53.5t49 -21.5v-45zM45 428q0 34 16.5 61t45.5 42.5t65 15.5v-45q-33 0 -55.5 -21
t-22.5 -53h-49zM172 502v45h126v-45h-126zM259 480v102h28v-102h-28zM308 582h-49q0 32 -22.5 54t-56.5 22v47q37 0 66 -16t45.5 -44t16.5 -63zM101 591l-48 10q6 44 42 74t85 30v-47q-30 0 -52.5 -16.5t-26.5 -50.5z" />
    <glyph glyph-name="guillemotleft" unicode="&#xab;" horiz-adv-x="483" 
d="M73 204v88l200 176v-82zM73 204l-53 44l53 44v-88zM273 28l-200 176v88l200 -182v-82zM263 204v88l200 176v-82zM263 204l-53 44l53 44v-88zM463 28l-200 176v88l200 -182v-82z" />
    <glyph glyph-name="logicalnot" unicode="&#xac;" horiz-adv-x="460" 
d="M35 347v66h390v-66h-390zM359 218v195h66v-195h-66z" />
    <glyph glyph-name="uni00AD" unicode="&#xad;" horiz-adv-x="370" 
d="M50 287v66h270v-66h-270z" />
    <glyph glyph-name="registered" unicode="&#xae;" horiz-adv-x="463" 
d="M232 277q-56 0 -98 24.5t-65 69t-24 103.5h31q0 -50 19 -87.5t54.5 -57.5t82.5 -20v-32zM45 474v42h31v-42h-31zM232 277v32q47 0 82 20t54 57.5t19 87.5h31q0 -59 -23.5 -103.5t-65 -69t-97.5 -24.5zM45 516q1 59 24 103t65 68.5t98 24.5v-31q-47 0 -82.5 -20.5
t-54.5 -57.5t-19 -87h-31zM387 474v42h31v-42h-31zM387 516q0 50 -19 87t-54 57.5t-82 20.5v31q56 0 97.5 -24.5t65 -68.5t23.5 -103h-31zM173 356v273h26v-273h-26zM275 356l-51 136h28l50 -136h-27zM184 477v25h46v-25h-46zM184 604v25h46v-25h-46zM276 547v12h26v-12h-26
zM302 559h-26q0 21 -12 33t-34 12v25q32 0 52 -19.5t20 -50.5zM302 547q0 -31 -20 -50.5t-52 -19.5v25q22 0 34 12t12 33h26z" />
    <glyph glyph-name="macron" unicode="&#xaf;" horiz-adv-x="410" 
d="M70 648v52h270v-52h-270z" />
    <glyph glyph-name="degree" unicode="&#xb0;" horiz-adv-x="363" 
d="M181 497v54q34 0 56 22t22 56h54q0 -37 -17.5 -67t-47 -47.5t-67.5 -17.5zM181 497q-37 0 -67 17.5t-47 47.5t-17 67h54q0 -34 22 -56t55 -22v-54zM50 629q0 38 17 67.5t47 46.5t67 17v-54q-33 0 -55 -22t-22 -55h-54zM259 629q0 33 -22 55t-56 22v54q38 0 67.5 -17
t47 -46.5t17.5 -67.5h-54z" />
    <glyph glyph-name="plusminus" unicode="&#xb1;" horiz-adv-x="450" 
d="M192 195v390h66v-390h-66zM30 357v66h390v-66h-390zM30 60v66h390v-66h-390z" />
    <glyph glyph-name="uni00B2" unicode="&#xb2;" horiz-adv-x="263" 
d="M60 483q0 37 12 62t29.5 43.5t35 35t29.5 35.5t12 46h4.5h10.5h10.5h4.5q0 -34 -12 -56.5t-30 -39.5t-35.5 -34t-30 -38.5t-12.5 -53.5h-28zM60 453v30h148v-30h-148zM84 710l-29 7q3 26 25 44t51 18v-28q-18 0 -31.5 -10t-15.5 -31zM208 705h-30q0 20 -13.5 33t-33.5 13
v28q33 0 55 -21t22 -53z" />
    <glyph glyph-name="uni00B3" unicode="&#xb3;" horiz-adv-x="262" 
d="M130 606v28q19 0 31 16t12 41h30q0 -37 -21 -61t-52 -24zM177 520v40h30v-40h-30zM103 606v28h28v-28h-28zM173 691q0 24 -12 39.5t-31 15.5v29q31 0 52 -24t21 -60h-30zM207 520q0 -32 -22 -53t-55 -21v28q20 0 33.5 13t13.5 33h30zM207 560h-30q0 19 -13.5 32.5
t-33.5 13.5v28q33 0 55 -21.5t22 -52.5zM83 706l-28 6q3 27 24.5 45t51.5 18v-29q-18 0 -31.5 -9.5t-16.5 -30.5zM83 515q3 -21 16.5 -31t31.5 -10v-28q-30 0 -51.5 18t-24.5 44z" />
    <glyph glyph-name="acute" unicode="&#xb4;" horiz-adv-x="283" 
d="M136 557h-66l65 128h78z" />
    <glyph glyph-name="uni00B5" unicode="&#xb5;" horiz-adv-x="448" 
d="M322 0v56v444h66v-500h-66zM111 150q0 -43 30 -71t75 -28l-14 -66q-45 0 -80.5 21.5t-56 59t-20.5 84.5h66zM360 150q0 -47 -20.5 -84.5t-56.5 -59t-81 -21.5l14 66q46 0 76 28t30 71h38zM45 -200v700h66v-700h-66z" />
    <glyph glyph-name="paragraph" unicode="&#xb6;" horiz-adv-x="514" 
d="M208 355q-48 0 -87 23.5t-62.5 62.5t-23.5 87t23.5 87t62.5 62t87 23v-345zM208 -200v900h66v-900h-66zM388 -200v900h66v-900h-66zM208 634v66h246v-66h-246z" />
    <glyph glyph-name="periodcentered" unicode="&#xb7;" horiz-adv-x="199" 
d="M99 300q-21 0 -35 14t-14 35t14 35.5t35 14.5t35.5 -14.5t14.5 -35.5t-14.5 -35t-35.5 -14z" />
    <glyph glyph-name="cedilla" unicode="&#xb8;" horiz-adv-x="304" 
d="M157 -166q-19 0 -42.5 5t-44.5 16l18 45q24 -9 46 -12.5t34 5t5 36.5h60q6 -45 -14 -70t-62 -25zM173 -71q-6 23 -13 39t-16 32h60q9 -13 17 -29t12 -42h-60z" />
    <glyph glyph-name="uni00B9" unicode="&#xb9;" horiz-adv-x="160" 
d="M75 453v315h30v-315h-30zM37 685l-19 20l57 63v-41z" />
    <glyph glyph-name="ordmasculine" unicode="&#xba;" horiz-adv-x="347" 
d="M252 452v129h50v-129h-50zM45 452v129h50v-129h-50zM172 668v47h3v-47h-3zM172 318v47h3v-47h-3zM45 580q0 39 17 69.5t46 48t66 17.5v-47q-38 0 -58.5 -23t-20.5 -65h-50zM302 580h-50q0 42 -20.5 65t-57.5 23v47q36 0 65 -17.5t46 -48t17 -69.5zM45 453h50
q0 -42 20.5 -65t58.5 -23v-47q-37 0 -66 17.5t-46 48t-17 69.5zM302 453q0 -39 -17 -69.5t-46 -48t-65 -17.5v47q37 0 57.5 23t20.5 65h50z" />
    <glyph glyph-name="guillemotright" unicode="&#xbb;" horiz-adv-x="483" 
d="M410 204l-200 182v82l200 -176v-88zM410 204v88l53 -44zM210 28v82l200 182v-88zM220 204l-200 182v82l200 -176v-88zM220 204v88l53 -44zM20 28v82l200 182v-88z" />
    <glyph glyph-name="onequarter" unicode="&#xbc;" horiz-adv-x="733" 
d="M102 297v462h44v-462h-44zM46 638l-28 29l84 92v-60zM421 146l125 316h43l-124 -316h-44zM421 102v44h257v-44h-257zM583 0v263h42v-263h-42zM151 -15l311 806h45l-311 -806h-45z" />
    <glyph glyph-name="onehalf" unicode="&#xbd;" horiz-adv-x="740" 
d="M102 297v462h44v-462h-44zM46 638l-28 29l84 92v-60zM468 44q1 54 18.5 91t43.5 64t51.5 51.5t43 52.5t17.5 67h6.5h15h15h6.5q0 -50 -17.5 -83.5t-43.5 -58.5t-52 -49.5t-44 -56t-18 -78.5h-42zM468 0v44h217v-44h-217zM504 378l-42 9q5 39 36.5 65.5t74.5 26.5v-42
q-26 0 -46 -14.5t-23 -44.5zM685 370h-43q0 28 -20 47.5t-50 19.5v42q33 0 58.5 -14.5t40 -39t14.5 -55.5zM151 -15l311 806h45l-311 -806h-45z" />
    <glyph glyph-name="threequarters" unicode="&#xbe;" horiz-adv-x="866" 
d="M166 521v41q27 0 45 24t18 60h44q0 -54 -30.5 -89.5t-76.5 -35.5zM235 395v58h44v-58h-44zM126 521v41h41v-41h-41zM229 645q0 36 -18 59t-45 23v42q46 0 76.5 -35.5t30.5 -88.5h-44zM279 395q0 -31 -15 -55.5t-40.5 -39t-57.5 -14.5v42q30 0 49.5 19.5t19.5 47.5h44z
M279 453h-44q0 29 -19.5 48.5t-49.5 19.5v41q32 0 57.5 -14t40.5 -39t15 -56zM97 668l-42 9q5 39 36.5 65.5t75.5 26.5v-42q-27 0 -46.5 -14t-23.5 -45zM97 387q4 -30 23.5 -44.5t46.5 -14.5v-42q-44 0 -75.5 26.5t-36.5 65.5zM554 146l125 316h43l-124 -316h-44zM554 102
v44h257v-44h-257zM716 0v263h42v-263h-42zM284 -15l311 806h45l-311 -806h-45z" />
    <glyph glyph-name="questiondown" unicode="&#xbf;" horiz-adv-x="415" 
d="M234 700q21 0 35 -14t14 -35t-14 -35.5t-35 -14.5t-35.5 14.5t-14.5 35.5t14.5 35t35.5 14zM265 516q0 -63 -15.5 -107t-38 -76t-45 -59t-38 -55t-15.5 -64q0 -52 28.5 -79.5t83.5 -27.5q29 0 49 10t30 29.5t10 47.5h66q0 -45 -19.5 -78.5t-54 -52.5t-81.5 -19
q-52 0 -91.5 21.5t-61.5 59.5t-22 89q0 43 15.5 74t38 58t45 57.5t38 71.5t15.5 100h63zM265 539v-23h-63v23h63z" />
    <glyph glyph-name="Agrave" unicode="&#xc0;" horiz-adv-x="468" 
d="M114 150v63h255v-63h-255zM266 700l-170 -700h-66l170 700h66zM268 700l170 -700h-66l-170 700h66zM185 757l-77 128h78l65 -128h-66z" />
    <glyph glyph-name="Aacute" unicode="&#xc1;" horiz-adv-x="468" 
d="M244 757h-66l65 128h78zM114 150v63h255v-63h-255zM266 700l-170 -700h-66l170 700h66zM268 700l170 -700h-66l-170 700h66z" />
    <glyph glyph-name="Acircumflex" unicode="&#xc2;" horiz-adv-x="468" 
d="M195 885h66l-65 -128h-78zM264 885l77 -128h-78l-65 128h66zM114 150v63h255v-63h-255zM266 700l-170 -700h-66l170 700h66zM268 700l170 -700h-66l-170 700h66z" />
    <glyph glyph-name="Atilde" unicode="&#xc3;" horiz-adv-x="468" 
d="M114 150v63h255v-63h-255zM266 700l-170 -700h-66l170 700h66zM268 700l170 -700h-66l-170 700h66zM280 799q-19 0 -31.5 5.5t-22.5 13.5t-20.5 13.5t-25.5 5.5v45q19 0 31.5 -5.5t22.5 -13.5t20.5 -13.5t25.5 -5.5v-45zM106 805q0 36 19.5 56.5t54.5 20.5v-45
q-12 0 -19 -8.5t-7 -23.5h-48zM280 799v45q12 0 19 8.5t7 23.5h48q0 -36 -19.5 -56.5t-54.5 -20.5z" />
    <glyph glyph-name="Adieresis" unicode="&#xc4;" horiz-adv-x="468" 
d="M114 150v63h255v-63h-255zM266 700l-170 -700h-66l170 700h66zM268 700l170 -700h-66l-170 700h66zM164 766q-21 0 -35 14t-14 35t14 35.5t35 14.5t35.5 -14.5t14.5 -35.5t-14.5 -35t-35.5 -14zM294 766q-21 0 -35 14t-14 35t14 35.5t35 14.5t35.5 -14.5t14.5 -35.5
t-14.5 -35t-35.5 -14z" />
    <glyph glyph-name="Aring" unicode="&#xc5;" horiz-adv-x="468" 
d="M114 150v63h255v-63h-255zM266 700l-170 -700h-66l170 700h66zM268 700l170 -700h-66l-170 700h66zM256 834q0 11 -7.5 18.5t-18.5 7.5v48q32 0 53 -21t21 -53h-48zM230 760q-31 0 -52.5 21.5t-21.5 52.5h48q0 -11 7.5 -18.5t18.5 -7.5v-48zM230 760v48q11 0 18.5 7.5
t7.5 18.5h48q0 -31 -21 -52.5t-53 -21.5zM156 834q0 32 21.5 53t52.5 21v-48q-11 0 -18.5 -7.5t-7.5 -18.5h-48z" />
    <glyph glyph-name="AE" unicode="&#xc6;" horiz-adv-x="690" 
d="M262 637v63h132v-63h-132zM104 150v63h255v-63h-255zM30 0l190 700h66l-190 -700h-66zM386 315v66h204v-66h-204zM340 700h66v-700h-66v700zM376 700h264v-63h-264v63zM366 0v63h284v-63h-284z" />
    <glyph glyph-name="Ccedilla" unicode="&#xc7;" horiz-adv-x="455" 
d="M50 164v372h66v-372h-66zM50 536q0 54 23 94.5t65 63t97 22.5v-63q-56 0 -87.5 -30.5t-31.5 -86.5h-66zM50 164h66q0 -55 31.5 -86t87.5 -31v-63q-55 0 -97 22.5t-65 63t-23 94.5zM364 514q-7 65 -41 102t-89 37v63q79 0 129.5 -50t61.5 -139zM364 186l61 -13
q-11 -89 -61.5 -139t-129.5 -50v63q55 0 89 37t41 102zM272 -166q-19 0 -42.5 5t-44.5 16l18 45q24 -9 46 -12.5t34 5t5 36.5h60q6 -45 -14 -70t-62 -25zM288 -71q-6 23 -13 39t-16 32h60q9 -13 17 -29t12 -42h-60z" />
    <glyph glyph-name="Egrave" unicode="&#xc8;" horiz-adv-x="410" 
d="M86 0v63h284v-63h-284zM106 315v66h204v-66h-204zM60 700h66v-700h-66v700zM96 700h264v-63h-264v63zM160 757l-77 128h78l65 -128h-66z" />
    <glyph glyph-name="Eacute" unicode="&#xc9;" horiz-adv-x="410" 
d="M219 757h-66l65 128h78zM86 0v63h284v-63h-284zM106 315v66h204v-66h-204zM60 700h66v-700h-66v700zM96 700h264v-63h-264v63z" />
    <glyph glyph-name="Ecircumflex" unicode="&#xca;" horiz-adv-x="410" 
d="M170 885h66l-65 -128h-78zM239 885l77 -128h-78l-65 128h66zM86 0v63h284v-63h-284zM106 315v66h204v-66h-204zM60 700h66v-700h-66v700zM96 700h264v-63h-264v63z" />
    <glyph glyph-name="Edieresis" unicode="&#xcb;" horiz-adv-x="410" 
d="M86 0v63h284v-63h-284zM106 315v66h204v-66h-204zM60 700h66v-700h-66v700zM96 700h264v-63h-264v63zM139 766q-21 0 -35 14t-14 35t14 35.5t35 14.5t35.5 -14.5t14.5 -35.5t-14.5 -35t-35.5 -14zM269 766q-21 0 -35 14t-14 35t14 35.5t35 14.5t35.5 -14.5t14.5 -35.5
t-14.5 -35t-35.5 -14z" />
    <glyph glyph-name="Igrave" unicode="&#xcc;" horiz-adv-x="206" 
d="M70 0v700h66v-700h-66zM58 757l-77 128h78l65 -128h-66z" />
    <glyph glyph-name="Iacute" unicode="&#xcd;" horiz-adv-x="206" 
d="M117 757h-66l65 128h78zM70 0v700h66v-700h-66z" />
    <glyph glyph-name="Icircumflex" unicode="&#xce;" horiz-adv-x="206" 
d="M68 885h66l-65 -128h-78zM137 885l77 -128h-78l-65 128h66zM70 0v700h66v-700h-66z" />
    <glyph glyph-name="Idieresis" unicode="&#xcf;" horiz-adv-x="206" 
d="M70 0v700h66v-700h-66zM37 766q-21 0 -35 14t-14 35t14 35.5t35 14.5t35.5 -14.5t14.5 -35.5t-14.5 -35t-35.5 -14zM167 766q-21 0 -35 14t-14 35t14 35.5t35 14.5t35.5 -14.5t14.5 -35.5t-14.5 -35t-35.5 -14z" />
    <glyph glyph-name="Eth" unicode="&#xd0;" horiz-adv-x="445" 
d="M324 180v340h66v-340h-66zM96 0v63h109v-63h-109zM96 637v63h109v-63h-109zM96 637v63h109v-63h-109zM390 520h-66q0 56 -31.5 86.5t-87.5 30.5v63q56 0 97.5 -22.5t64.5 -63t23 -94.5zM390 180q0 -54 -23 -94.5t-64.5 -63t-97.5 -22.5v63q56 0 87.5 31t31.5 86h66zM60 0
v700h66v-700h-66zM-34 323v56h240v-56h-240z" />
    <glyph glyph-name="Ntilde" unicode="&#xd1;" horiz-adv-x="500" 
d="M355 0l-281 700h72l280 -700h-71zM60 0v700h66v-700h-66zM374 0v700h66v-700h-66zM280 799q-19 0 -31.5 5.5t-22.5 13.5t-20.5 13.5t-25.5 5.5v45q19 0 31.5 -5.5t22.5 -13.5t20.5 -13.5t25.5 -5.5v-45zM106 805q0 36 19.5 56.5t54.5 20.5v-45q-12 0 -19 -8.5t-7 -23.5
h-48zM280 799v45q12 0 19 8.5t7 23.5h48q0 -36 -19.5 -56.5t-54.5 -20.5z" />
    <glyph glyph-name="Ograve" unicode="&#xd2;" horiz-adv-x="480" 
d="M359 164v372h66v-372h-66zM55 164v372h66v-372h-66zM425 535h-66q0 56 -31.5 86.5t-87.5 30.5v63q56 0 97.5 -22.5t64.5 -63t23 -94.5zM55 535q0 54 23 94.5t65 63t97 22.5v-63q-56 0 -87.5 -30.5t-31.5 -86.5h-66zM425 165q0 -54 -23 -94.5t-64.5 -63t-97.5 -22.5v63
q56 0 87.5 31t31.5 86h66zM55 165h66q0 -55 31.5 -86t87.5 -31v-63q-55 0 -97 22.5t-65 63t-23 94.5zM195 757l-77 128h78l65 -128h-66z" />
    <glyph glyph-name="Oacute" unicode="&#xd3;" horiz-adv-x="480" 
d="M254 757h-66l65 128h78zM359 164v372h66v-372h-66zM55 164v372h66v-372h-66zM425 535h-66q0 56 -31.5 86.5t-87.5 30.5v63q56 0 97.5 -22.5t64.5 -63t23 -94.5zM55 535q0 54 23 94.5t65 63t97 22.5v-63q-56 0 -87.5 -30.5t-31.5 -86.5h-66zM425 165q0 -54 -23 -94.5
t-64.5 -63t-97.5 -22.5v63q56 0 87.5 31t31.5 86h66zM55 165h66q0 -55 31.5 -86t87.5 -31v-63q-55 0 -97 22.5t-65 63t-23 94.5z" />
    <glyph glyph-name="Ocircumflex" unicode="&#xd4;" horiz-adv-x="480" 
d="M205 885h66l-65 -128h-78zM274 885l77 -128h-78l-65 128h66zM359 164v372h66v-372h-66zM55 164v372h66v-372h-66zM425 535h-66q0 56 -31.5 86.5t-87.5 30.5v63q56 0 97.5 -22.5t64.5 -63t23 -94.5zM55 535q0 54 23 94.5t65 63t97 22.5v-63q-56 0 -87.5 -30.5t-31.5 -86.5
h-66zM425 165q0 -54 -23 -94.5t-64.5 -63t-97.5 -22.5v63q56 0 87.5 31t31.5 86h66zM55 165h66q0 -55 31.5 -86t87.5 -31v-63q-55 0 -97 22.5t-65 63t-23 94.5z" />
    <glyph glyph-name="Otilde" unicode="&#xd5;" horiz-adv-x="480" 
d="M359 164v372h66v-372h-66zM55 164v372h66v-372h-66zM425 535h-66q0 56 -31.5 86.5t-87.5 30.5v63q56 0 97.5 -22.5t64.5 -63t23 -94.5zM55 535q0 54 23 94.5t65 63t97 22.5v-63q-56 0 -87.5 -30.5t-31.5 -86.5h-66zM425 165q0 -54 -23 -94.5t-64.5 -63t-97.5 -22.5v63
q56 0 87.5 31t31.5 86h66zM55 165h66q0 -55 31.5 -86t87.5 -31v-63q-55 0 -97 22.5t-65 63t-23 94.5zM290 799q-19 0 -31.5 5.5t-22.5 13.5t-20.5 13.5t-25.5 5.5v45q19 0 31.5 -5.5t22.5 -13.5t20.5 -13.5t25.5 -5.5v-45zM116 805q0 36 19.5 56.5t54.5 20.5v-45
q-12 0 -19 -8.5t-7 -23.5h-48zM290 799v45q12 0 19 8.5t7 23.5h48q0 -36 -19.5 -56.5t-54.5 -20.5z" />
    <glyph glyph-name="Odieresis" unicode="&#xd6;" horiz-adv-x="480" 
d="M359 164v372h66v-372h-66zM55 164v372h66v-372h-66zM425 535h-66q0 56 -31.5 86.5t-87.5 30.5v63q56 0 97.5 -22.5t64.5 -63t23 -94.5zM55 535q0 54 23 94.5t65 63t97 22.5v-63q-56 0 -87.5 -30.5t-31.5 -86.5h-66zM425 165q0 -54 -23 -94.5t-64.5 -63t-97.5 -22.5v63
q56 0 87.5 31t31.5 86h66zM55 165h66q0 -55 31.5 -86t87.5 -31v-63q-55 0 -97 22.5t-65 63t-23 94.5zM174 766q-21 0 -35 14t-14 35t14 35.5t35 14.5t35.5 -14.5t14.5 -35.5t-14.5 -35t-35.5 -14zM304 766q-21 0 -35 14t-14 35t14 35.5t35 14.5t35.5 -14.5t14.5 -35.5
t-14.5 -35t-35.5 -14z" />
    <glyph glyph-name="multiply" unicode="&#xd7;" horiz-adv-x="383" 
d="M307 159l-276 276l46 46l276 -276zM77 158l-47 47l276 276l47 -47z" />
    <glyph glyph-name="Oslash" unicode="&#xd8;" horiz-adv-x="480" 
d="M359 164v372h66v-372h-66zM55 164v372h66v-372h-66zM425 535h-66q0 56 -31.5 86.5t-87.5 30.5v63q56 0 97.5 -22.5t64.5 -63t23 -94.5zM55 535q0 54 23 94.5t65 63t97 22.5v-63q-56 0 -87.5 -30.5t-31.5 -86.5h-66zM425 165q0 -54 -23 -94.5t-64.5 -63t-97.5 -22.5v63
q56 0 87.5 31t31.5 86h66zM55 165h66q0 -55 31.5 -86t87.5 -31v-63q-55 0 -97 22.5t-65 63t-23 94.5zM76 -53l270 806h57l-270 -806h-57z" />
    <glyph glyph-name="Ugrave" unicode="&#xd9;" horiz-adv-x="488" 
d="M362 164v536h66v-536h-66zM60 164v536h66v-536h-66zM428 165q0 -54 -23 -94.5t-64.5 -63t-97.5 -22.5v63q56 0 87.5 31t31.5 86h66zM60 165h66q0 -55 31.5 -86t87.5 -31v-63q-55 0 -97 22.5t-65 63t-23 94.5zM199 757l-77 128h78l65 -128h-66z" />
    <glyph glyph-name="Uacute" unicode="&#xda;" horiz-adv-x="488" 
d="M258 757h-66l65 128h78zM362 164v536h66v-536h-66zM60 164v536h66v-536h-66zM428 165q0 -54 -23 -94.5t-64.5 -63t-97.5 -22.5v63q56 0 87.5 31t31.5 86h66zM60 165h66q0 -55 31.5 -86t87.5 -31v-63q-55 0 -97 22.5t-65 63t-23 94.5z" />
    <glyph glyph-name="Ucircumflex" unicode="&#xdb;" horiz-adv-x="488" 
d="M209 885h66l-65 -128h-78zM278 885l77 -128h-78l-65 128h66zM362 164v536h66v-536h-66zM60 164v536h66v-536h-66zM428 165q0 -54 -23 -94.5t-64.5 -63t-97.5 -22.5v63q56 0 87.5 31t31.5 86h66zM60 165h66q0 -55 31.5 -86t87.5 -31v-63q-55 0 -97 22.5t-65 63t-23 94.5z
" />
    <glyph glyph-name="Udieresis" unicode="&#xdc;" horiz-adv-x="488" 
d="M362 164v536h66v-536h-66zM60 164v536h66v-536h-66zM428 165q0 -54 -23 -94.5t-64.5 -63t-97.5 -22.5v63q56 0 87.5 31t31.5 86h66zM60 165h66q0 -55 31.5 -86t87.5 -31v-63q-55 0 -97 22.5t-65 63t-23 94.5zM178 766q-21 0 -35 14t-14 35t14 35.5t35 14.5t35.5 -14.5
t14.5 -35.5t-14.5 -35t-35.5 -14zM308 766q-21 0 -35 14t-14 35t14 35.5t35 14.5t35.5 -14.5t14.5 -35.5t-14.5 -35t-35.5 -14z" />
    <glyph glyph-name="Yacute" unicode="&#xdd;" horiz-adv-x="426" 
d="M227 757h-66l65 128h78zM180 238l150 462h66l-150 -462h-66zM180 0v238h66v-238h-66zM180 238l-150 462h66l150 -462h-66z" />
    <glyph glyph-name="Thorn" unicode="&#xde;" horiz-adv-x="420" 
d="M86 497v63h119v-63h-119zM86 139v63h119v-63h-119zM324 318v62h66v-62h-66zM390 380h-66q0 56 -31.5 86.5t-87.5 30.5v63q56 0 97.5 -22.5t64.5 -63t23 -94.5zM390 319q0 -54 -23 -94.5t-64.5 -63t-97.5 -22.5v63q56 0 87.5 31t31.5 86h66zM60 0v700h66v-700h-66z" />
    <glyph glyph-name="germandbls" unicode="&#xdf;" horiz-adv-x="477" 
d="M60 0v520h63v-520h-63zM190 0l10 60h61v-60h-71zM190 322v60h71v-60h-71zM369 179v24h63v-24h-63zM339 501v20h63v-20h-63zM60 520q0 57 20.5 97t59 61.5t91.5 21.5v-60q-51 0 -79.5 -32t-28.5 -88h-63zM402 520h-63q0 56 -28.5 88t-79.5 32v60q54 0 92 -21.5t58.5 -61.5
t20.5 -97zM402 502q0 -56 -20.5 -96.5t-58.5 -62t-92 -21.5v60q51 0 79.5 32t28.5 88h63zM432 202h-63q0 56 -28.5 88t-79.5 32v60q54 0 92 -21.5t58.5 -61.5t20.5 -97zM432 180q0 -56 -20.5 -96.5t-58.5 -62t-92 -21.5v60q51 0 79.5 32t28.5 88h63z" />
    <glyph glyph-name="agrave" unicode="&#xe0;" horiz-adv-x="441" 
d="M330 0v350h66v-350h-66zM205 -15v60q40 0 67.5 20t42.5 58.5t15 91.5h38q0 -68 -21 -120t-57.5 -81t-84.5 -29zM205 -15q-43 0 -79.5 21t-58.5 57.5t-22 81.5h66q0 -43 29 -71.5t65 -28.5v-60zM45 145q0 46 22.5 81.5t61 56.5t86.5 21v-60q-44 0 -74 -28t-30 -71h-66z
M215 244v60h168v-60h-168zM330 215v136h38v-136h-38zM396 350h-66q0 44 -30 73t-75 29v63q49 0 87.5 -21.5t61 -59t22.5 -84.5zM120 362l-64 14q5 40 28.5 71t60.5 49.5t80 18.5v-63q-40 0 -70 -21.5t-35 -68.5zM170 567l-77 128h78l65 -128h-66z" />
    <glyph glyph-name="aacute" unicode="&#xe1;" horiz-adv-x="441" 
d="M229 567h-66l65 128h78zM330 0v350h66v-350h-66zM205 -15v60q40 0 67.5 20t42.5 58.5t15 91.5h38q0 -68 -21 -120t-57.5 -81t-84.5 -29zM205 -15q-43 0 -79.5 21t-58.5 57.5t-22 81.5h66q0 -43 29 -71.5t65 -28.5v-60zM45 145q0 46 22.5 81.5t61 56.5t86.5 21v-60
q-44 0 -74 -28t-30 -71h-66zM215 244v60h168v-60h-168zM330 215v136h38v-136h-38zM396 350h-66q0 44 -30 73t-75 29v63q49 0 87.5 -21.5t61 -59t22.5 -84.5zM120 362l-64 14q5 40 28.5 71t60.5 49.5t80 18.5v-63q-40 0 -70 -21.5t-35 -68.5z" />
    <glyph glyph-name="acircumflex" unicode="&#xe2;" horiz-adv-x="441" 
d="M180 695h66l-65 -128h-78zM249 695l77 -128h-78l-65 128h66zM330 0v350h66v-350h-66zM205 -15v60q40 0 67.5 20t42.5 58.5t15 91.5h38q0 -68 -21 -120t-57.5 -81t-84.5 -29zM205 -15q-43 0 -79.5 21t-58.5 57.5t-22 81.5h66q0 -43 29 -71.5t65 -28.5v-60zM45 145
q0 46 22.5 81.5t61 56.5t86.5 21v-60q-44 0 -74 -28t-30 -71h-66zM215 244v60h168v-60h-168zM330 215v136h38v-136h-38zM396 350h-66q0 44 -30 73t-75 29v63q49 0 87.5 -21.5t61 -59t22.5 -84.5zM120 362l-64 14q5 40 28.5 71t60.5 49.5t80 18.5v-63q-40 0 -70 -21.5
t-35 -68.5z" />
    <glyph glyph-name="atilde" unicode="&#xe3;" horiz-adv-x="441" 
d="M330 0v350h66v-350h-66zM205 -15v60q40 0 67.5 20t42.5 58.5t15 91.5h38q0 -68 -21 -120t-57.5 -81t-84.5 -29zM205 -15q-43 0 -79.5 21t-58.5 57.5t-22 81.5h66q0 -43 29 -71.5t65 -28.5v-60zM45 145q0 46 22.5 81.5t61 56.5t86.5 21v-60q-44 0 -74 -28t-30 -71h-66z
M215 244v60h168v-60h-168zM330 215v136h38v-136h-38zM396 350h-66q0 44 -30 73t-75 29v63q49 0 87.5 -21.5t61 -59t22.5 -84.5zM120 362l-64 14q5 40 28.5 71t60.5 49.5t80 18.5v-63q-40 0 -70 -21.5t-35 -68.5zM265 609q-19 0 -31.5 5.5t-22.5 13.5t-20.5 13.5t-25.5 5.5
v45q19 0 31.5 -5.5t22.5 -13.5t20.5 -13.5t25.5 -5.5v-45zM91 615q0 36 19.5 56.5t54.5 20.5v-45q-12 0 -19 -8.5t-7 -23.5h-48zM265 609v45q12 0 19 8.5t7 23.5h48q0 -36 -19.5 -56.5t-54.5 -20.5z" />
    <glyph glyph-name="adieresis" unicode="&#xe4;" horiz-adv-x="441" 
d="M330 0v350h66v-350h-66zM205 -15v60q40 0 67.5 20t42.5 58.5t15 91.5h38q0 -68 -21 -120t-57.5 -81t-84.5 -29zM205 -15q-43 0 -79.5 21t-58.5 57.5t-22 81.5h66q0 -43 29 -71.5t65 -28.5v-60zM45 145q0 46 22.5 81.5t61 56.5t86.5 21v-60q-44 0 -74 -28t-30 -71h-66z
M215 244v60h168v-60h-168zM330 215v136h38v-136h-38zM396 350h-66q0 44 -30 73t-75 29v63q49 0 87.5 -21.5t61 -59t22.5 -84.5zM120 362l-64 14q5 40 28.5 71t60.5 49.5t80 18.5v-63q-40 0 -70 -21.5t-35 -68.5zM149 576q-21 0 -35 14t-14 35t14 35.5t35 14.5t35.5 -14.5
t14.5 -35.5t-14.5 -35t-35.5 -14zM279 576q-21 0 -35 14t-14 35t14 35.5t35 14.5t35.5 -14.5t14.5 -35.5t-14.5 -35t-35.5 -14z" />
    <glyph glyph-name="aring" unicode="&#xe5;" horiz-adv-x="441" 
d="M330 0v350h66v-350h-66zM205 -15v60q40 0 67.5 20t42.5 58.5t15 91.5h38q0 -68 -21 -120t-57.5 -81t-84.5 -29zM205 -15q-43 0 -79.5 21t-58.5 57.5t-22 81.5h66q0 -43 29 -71.5t65 -28.5v-60zM45 145q0 46 22.5 81.5t61 56.5t86.5 21v-60q-44 0 -74 -28t-30 -71h-66z
M215 244v60h168v-60h-168zM330 215v136h38v-136h-38zM396 350h-66q0 44 -30 73t-75 29v63q49 0 87.5 -21.5t61 -59t22.5 -84.5zM120 362l-64 14q5 40 28.5 71t60.5 49.5t80 18.5v-63q-40 0 -70 -21.5t-35 -68.5zM241 644q0 11 -7.5 18.5t-18.5 7.5v48q32 0 53 -21t21 -53
h-48zM215 570q-31 0 -52.5 21.5t-21.5 52.5h48q0 -11 7.5 -18.5t18.5 -7.5v-48zM215 570v48q11 0 18.5 7.5t7.5 18.5h48q0 -31 -21 -52.5t-53 -21.5zM141 644q0 32 21.5 53t52.5 21v-48q-11 0 -18.5 -7.5t-7.5 -18.5h-48z" />
    <glyph glyph-name="ae" unicode="&#xe6;" horiz-adv-x="738" 
d="M225 -15v60q42 0 67 13.5t36.5 44.5t11.5 82h58q0 -57 -22.5 -102t-61.5 -71.5t-89 -26.5zM205 -15v60q40 0 67.5 20t42.5 58.5t15 91.5h38q0 -68 -21 -120t-57.5 -81t-84.5 -29zM205 -15q-43 0 -79.5 21t-58.5 57.5t-22 81.5h66q0 -43 29 -71.5t65 -28.5v-60zM45 145
q0 46 22.5 81.5t61 56.5t86.5 21v-60q-44 0 -74 -28t-30 -71h-66zM215 244v60h168v-60h-168zM330 215v136h38v-136h-38zM396 350h-66q0 44 -30 73t-75 29v63q49 0 87.5 -21.5t61 -59t22.5 -84.5zM120 362l-64 14q5 40 28.5 71t60.5 49.5t80 18.5v-63q-40 0 -70 -21.5
t-35 -68.5zM367 227v57h336v-57h-336zM531 -16v63h4v-63h-4zM361 164v171h66v-171h-66zM637 284v66h66v-66h-66zM703 350h-66q0 44 -30 73t-75 29v63q49 0 87.5 -21.5t61 -59t22.5 -84.5zM639 137l64 -14q-5 -39 -28.5 -70.5t-60 -50t-80.5 -18.5v63q40 0 70 22t35 68z
M361 335q0 52 22.5 92.5t61 64t87.5 23.5v-63q-49 0 -77 -30.5t-28 -86.5h-66zM361 164h66q0 -55 28 -86t77 -31v-63q-49 0 -87.5 23.5t-61 64t-22.5 92.5z" />
    <glyph glyph-name="ccedilla" unicode="&#xe7;" horiz-adv-x="407" 
d="M45 163v174h66v-174h-66zM45 336q0 52 22.5 92.5t61 64t87.5 23.5v-63q-49 0 -77 -30.5t-28 -86.5h-66zM320 363q-5 47 -35 68.5t-70 21.5v63q44 0 80.5 -18.5t60 -49.5t28.5 -71zM45 164h66q0 -55 28 -86t77 -31v-63q-49 0 -87.5 23.5t-61 64t-22.5 92.5zM320 137
l64 -14q-5 -39 -28.5 -70.5t-60 -50t-80.5 -18.5v63q40 0 70 22t35 68zM253 -166q-19 0 -42.5 5t-44.5 16l18 45q24 -9 46 -12.5t34 5t5 36.5h60q6 -45 -14 -70t-62 -25zM269 -71q-6 23 -13 39t-16 32h60q9 -13 17 -29t12 -42h-60z" />
    <glyph glyph-name="egrave" unicode="&#xe8;" horiz-adv-x="412" 
d="M41 227v57h336v-57h-336zM205 -16v63h4v-63h-4zM35 164v171h66v-171h-66zM311 284v66h66v-66h-66zM377 350h-66q0 44 -30 73t-75 29v63q49 0 87.5 -21.5t61 -59t22.5 -84.5zM313 137l64 -14q-5 -39 -28.5 -70.5t-60 -50t-80.5 -18.5v63q40 0 70 22t35 68zM35 335
q0 52 22.5 92.5t61 64t87.5 23.5v-63q-49 0 -77 -30.5t-28 -86.5h-66zM35 164h66q0 -55 28 -86t77 -31v-63q-49 0 -87.5 23.5t-61 64t-22.5 92.5zM161 557l-77 128h78l65 -128h-66z" />
    <glyph glyph-name="eacute" unicode="&#xe9;" horiz-adv-x="412" 
d="M220 557h-66l65 128h78zM41 227v57h336v-57h-336zM205 -16v63h4v-63h-4zM35 164v171h66v-171h-66zM311 284v66h66v-66h-66zM377 350h-66q0 44 -30 73t-75 29v63q49 0 87.5 -21.5t61 -59t22.5 -84.5zM313 137l64 -14q-5 -39 -28.5 -70.5t-60 -50t-80.5 -18.5v63
q40 0 70 22t35 68zM35 335q0 52 22.5 92.5t61 64t87.5 23.5v-63q-49 0 -77 -30.5t-28 -86.5h-66zM35 164h66q0 -55 28 -86t77 -31v-63q-49 0 -87.5 23.5t-61 64t-22.5 92.5z" />
    <glyph glyph-name="ecircumflex" unicode="&#xea;" horiz-adv-x="412" 
d="M171 685h66l-65 -128h-78zM240 685l77 -128h-78l-65 128h66zM41 227v57h336v-57h-336zM205 -16v63h4v-63h-4zM35 164v171h66v-171h-66zM311 284v66h66v-66h-66zM377 350h-66q0 44 -30 73t-75 29v63q49 0 87.5 -21.5t61 -59t22.5 -84.5zM313 137l64 -14
q-5 -39 -28.5 -70.5t-60 -50t-80.5 -18.5v63q40 0 70 22t35 68zM35 335q0 52 22.5 92.5t61 64t87.5 23.5v-63q-49 0 -77 -30.5t-28 -86.5h-66zM35 164h66q0 -55 28 -86t77 -31v-63q-49 0 -87.5 23.5t-61 64t-22.5 92.5z" />
    <glyph glyph-name="edieresis" unicode="&#xeb;" horiz-adv-x="412" 
d="M41 227v57h336v-57h-336zM205 -16v63h4v-63h-4zM35 164v171h66v-171h-66zM311 284v66h66v-66h-66zM377 350h-66q0 44 -30 73t-75 29v63q49 0 87.5 -21.5t61 -59t22.5 -84.5zM313 137l64 -14q-5 -39 -28.5 -70.5t-60 -50t-80.5 -18.5v63q40 0 70 22t35 68zM35 335
q0 52 22.5 92.5t61 64t87.5 23.5v-63q-49 0 -77 -30.5t-28 -86.5h-66zM35 164h66q0 -55 28 -86t77 -31v-63q-49 0 -87.5 23.5t-61 64t-22.5 92.5zM140 566q-21 0 -35 14t-14 35t14 35.5t35 14.5t35.5 -14.5t14.5 -35.5t-14.5 -35t-35.5 -14zM270 566q-21 0 -35 14t-14 35
t14 35.5t35 14.5t35.5 -14.5t14.5 -35.5t-14.5 -35t-35.5 -14z" />
    <glyph glyph-name="igrave" unicode="&#xec;" horiz-adv-x="206" 
d="M70 0v500h66v-500h-66zM59 557l-77 128h78l65 -128h-66z" />
    <glyph glyph-name="iacute" unicode="&#xed;" horiz-adv-x="206" 
d="M118 557h-66l65 128h78zM70 0v500h66v-500h-66z" />
    <glyph glyph-name="icircumflex" unicode="&#xee;" horiz-adv-x="206" 
d="M69 685h66l-65 -128h-78zM138 685l77 -128h-78l-65 128h66zM70 0v500h66v-500h-66z" />
    <glyph glyph-name="idieresis" unicode="&#xef;" horiz-adv-x="206" 
d="M70 0v500h66v-500h-66zM38 566q-21 0 -35 14t-14 35t14 35.5t35 14.5t35.5 -14.5t14.5 -35.5t-14.5 -35t-35.5 -14zM168 566q-21 0 -35 14t-14 35t14 35.5t35 14.5t35.5 -14.5t14.5 -35.5t-14.5 -35t-35.5 -14z" />
    <glyph glyph-name="eth" unicode="&#xf0;" horiz-adv-x="422" 
d="M311 341q0 65 -15.5 128t-47 127.5t-80.5 133.5l51 28q54 -72 89 -140.5t52 -137t17 -139.5h-66zM161 593l-30 48l181 104l30 -48zM311 164v172h66v-172h-66zM35 164v172h66v-172h-66zM204 452v63h4v-63h-4zM204 -15v63h4v-63h-4zM35 335q0 52 22.5 92.5t61 64t87.5 23.5
v-63q-49 0 -77 -30.5t-28 -86.5h-66zM377 335h-66q0 56 -27.5 86.5t-77.5 30.5v63q49 0 87.5 -23.5t61 -64t22.5 -92.5zM35 165h66q0 -55 28 -86t77 -31v-63q-49 0 -87.5 23.5t-61 64t-22.5 92.5zM377 165q0 -52 -22.5 -92.5t-61 -64t-87.5 -23.5v63q50 0 77.5 31t27.5 86
h66z" />
    <glyph glyph-name="ntilde" unicode="&#xf1;" horiz-adv-x="448" 
d="M60 0v500h66v-500h-66zM337 0v350h66v-350h-66zM337 350q0 43 -30 71t-75 28l14 66q45 0 80.5 -21.5t56 -59t20.5 -84.5h-66zM88 350q0 47 21 84.5t56.5 59t80.5 21.5l-14 -66q-46 0 -76 -28t-30 -71h-38zM288 599q-19 0 -31.5 5.5t-22.5 13.5t-20.5 13.5t-25.5 5.5v45
q19 0 31.5 -5.5t22.5 -13.5t20.5 -13.5t25.5 -5.5v-45zM114 605q0 36 19.5 56.5t54.5 20.5v-45q-12 0 -19 -8.5t-7 -23.5h-48zM288 599v45q12 0 19 8.5t7 23.5h48q0 -36 -19.5 -56.5t-54.5 -20.5z" />
    <glyph glyph-name="ograve" unicode="&#xf2;" horiz-adv-x="412" 
d="M311 164v172h66v-172h-66zM35 164v172h66v-172h-66zM204 452v63h4v-63h-4zM204 -15v63h4v-63h-4zM35 335q0 52 22.5 92.5t61 64t87.5 23.5v-63q-49 0 -77 -30.5t-28 -86.5h-66zM377 335h-66q0 56 -27.5 86.5t-77.5 30.5v63q49 0 87.5 -23.5t61 -64t22.5 -92.5zM35 165h66
q0 -55 28 -86t77 -31v-63q-49 0 -87.5 23.5t-61 64t-22.5 92.5zM377 165q0 -52 -22.5 -92.5t-61 -64t-87.5 -23.5v63q50 0 77.5 31t27.5 86h66zM161 557l-77 128h78l65 -128h-66z" />
    <glyph glyph-name="oacute" unicode="&#xf3;" horiz-adv-x="412" 
d="M220 557h-66l65 128h78zM311 164v172h66v-172h-66zM35 164v172h66v-172h-66zM204 452v63h4v-63h-4zM204 -15v63h4v-63h-4zM35 335q0 52 22.5 92.5t61 64t87.5 23.5v-63q-49 0 -77 -30.5t-28 -86.5h-66zM377 335h-66q0 56 -27.5 86.5t-77.5 30.5v63q49 0 87.5 -23.5
t61 -64t22.5 -92.5zM35 165h66q0 -55 28 -86t77 -31v-63q-49 0 -87.5 23.5t-61 64t-22.5 92.5zM377 165q0 -52 -22.5 -92.5t-61 -64t-87.5 -23.5v63q50 0 77.5 31t27.5 86h66z" />
    <glyph glyph-name="ocircumflex" unicode="&#xf4;" horiz-adv-x="412" 
d="M171 685h66l-65 -128h-78zM240 685l77 -128h-78l-65 128h66zM311 164v172h66v-172h-66zM35 164v172h66v-172h-66zM204 452v63h4v-63h-4zM204 -15v63h4v-63h-4zM35 335q0 52 22.5 92.5t61 64t87.5 23.5v-63q-49 0 -77 -30.5t-28 -86.5h-66zM377 335h-66q0 56 -27.5 86.5
t-77.5 30.5v63q49 0 87.5 -23.5t61 -64t22.5 -92.5zM35 165h66q0 -55 28 -86t77 -31v-63q-49 0 -87.5 23.5t-61 64t-22.5 92.5zM377 165q0 -52 -22.5 -92.5t-61 -64t-87.5 -23.5v63q50 0 77.5 31t27.5 86h66z" />
    <glyph glyph-name="otilde" unicode="&#xf5;" horiz-adv-x="412" 
d="M311 164v172h66v-172h-66zM35 164v172h66v-172h-66zM204 452v63h4v-63h-4zM204 -15v63h4v-63h-4zM35 335q0 52 22.5 92.5t61 64t87.5 23.5v-63q-49 0 -77 -30.5t-28 -86.5h-66zM377 335h-66q0 56 -27.5 86.5t-77.5 30.5v63q49 0 87.5 -23.5t61 -64t22.5 -92.5zM35 165h66
q0 -55 28 -86t77 -31v-63q-49 0 -87.5 23.5t-61 64t-22.5 92.5zM377 165q0 -52 -22.5 -92.5t-61 -64t-87.5 -23.5v63q50 0 77.5 31t27.5 86h66zM256 599q-19 0 -31.5 5.5t-22.5 13.5t-20.5 13.5t-25.5 5.5v45q19 0 31.5 -5.5t22.5 -13.5t20.5 -13.5t25.5 -5.5v-45zM82 605
q0 36 19.5 56.5t54.5 20.5v-45q-12 0 -19 -8.5t-7 -23.5h-48zM256 599v45q12 0 19 8.5t7 23.5h48q0 -36 -19.5 -56.5t-54.5 -20.5z" />
    <glyph glyph-name="odieresis" unicode="&#xf6;" horiz-adv-x="412" 
d="M311 164v172h66v-172h-66zM35 164v172h66v-172h-66zM204 452v63h4v-63h-4zM204 -15v63h4v-63h-4zM35 335q0 52 22.5 92.5t61 64t87.5 23.5v-63q-49 0 -77 -30.5t-28 -86.5h-66zM377 335h-66q0 56 -27.5 86.5t-77.5 30.5v63q49 0 87.5 -23.5t61 -64t22.5 -92.5zM35 165h66
q0 -55 28 -86t77 -31v-63q-49 0 -87.5 23.5t-61 64t-22.5 92.5zM377 165q0 -52 -22.5 -92.5t-61 -64t-87.5 -23.5v63q50 0 77.5 31t27.5 86h66zM140 566q-21 0 -35 14t-14 35t14 35.5t35 14.5t35.5 -14.5t14.5 -35.5t-14.5 -35t-35.5 -14zM270 566q-21 0 -35 14t-14 35
t14 35.5t35 14.5t35.5 -14.5t14.5 -35.5t-14.5 -35t-35.5 -14z" />
    <glyph glyph-name="divide" unicode="&#xf7;" horiz-adv-x="450" 
d="M30 317v66h390v-66h-390zM225 450q-21 0 -35 14t-14 35t14 35.5t35 14.5t35.5 -14.5t14.5 -35.5t-14.5 -35t-35.5 -14zM225 151q-21 0 -35 14t-14 35t14 35.5t35 14.5t35.5 -14.5t14.5 -35.5t-14.5 -35t-35.5 -14z" />
    <glyph glyph-name="oslash" unicode="&#xf8;" horiz-adv-x="412" 
d="M60 -54l233 608h57l-233 -608h-57zM311 164v172h66v-172h-66zM35 164v172h66v-172h-66zM204 452v63h4v-63h-4zM204 -15v63h4v-63h-4zM35 335q0 52 22.5 92.5t61 64t87.5 23.5v-63q-49 0 -77 -30.5t-28 -86.5h-66zM377 335h-66q0 56 -27.5 86.5t-77.5 30.5v63
q49 0 87.5 -23.5t61 -64t22.5 -92.5zM35 165h66q0 -55 28 -86t77 -31v-63q-49 0 -87.5 23.5t-61 64t-22.5 92.5zM377 165q0 -52 -22.5 -92.5t-61 -64t-87.5 -23.5v63q50 0 77.5 31t27.5 86h66z" />
    <glyph glyph-name="ugrave" unicode="&#xf9;" horiz-adv-x="448" 
d="M388 500v-500h-66v500h66zM111 500v-350h-66v350h66zM111 150q0 -43 30 -71t75 -28l-14 -66q-45 0 -80.5 21.5t-56 59t-20.5 84.5h66zM360 150q0 -47 -20.5 -84.5t-56.5 -59t-81 -21.5l14 66q46 0 76 28t30 71h38zM168 557l-77 128h78l65 -128h-66z" />
    <glyph glyph-name="uacute" unicode="&#xfa;" horiz-adv-x="448" 
d="M388 500v-500h-66v500h66zM111 500v-350h-66v350h66zM111 150q0 -43 30 -71t75 -28l-14 -66q-45 0 -80.5 21.5t-56 59t-20.5 84.5h66zM360 150q0 -47 -20.5 -84.5t-56.5 -59t-81 -21.5l14 66q46 0 76 28t30 71h38zM227 557h-66l65 128h78z" />
    <glyph glyph-name="ucircumflex" unicode="&#xfb;" horiz-adv-x="448" 
d="M388 500v-500h-66v500h66zM111 500v-350h-66v350h66zM111 150q0 -43 30 -71t75 -28l-14 -66q-45 0 -80.5 21.5t-56 59t-20.5 84.5h66zM360 150q0 -47 -20.5 -84.5t-56.5 -59t-81 -21.5l14 66q46 0 76 28t30 71h38zM178 685h66l-65 -128h-78zM247 685l77 -128h-78l-65 128
h66z" />
    <glyph glyph-name="udieresis" unicode="&#xfc;" horiz-adv-x="448" 
d="M388 500v-500h-66v500h66zM111 500v-350h-66v350h66zM111 150q0 -43 30 -71t75 -28l-14 -66q-45 0 -80.5 21.5t-56 59t-20.5 84.5h66zM360 150q0 -47 -20.5 -84.5t-56.5 -59t-81 -21.5l14 66q46 0 76 28t30 71h38zM147 566q-21 0 -35 14t-14 35t14 35.5t35 14.5
t35.5 -14.5t14.5 -35.5t-14.5 -35t-35.5 -14zM277 566q-21 0 -35 14t-14 35t14 35.5t35 14.5t35.5 -14.5t14.5 -35.5t-14.5 -35t-35.5 -14z" />
    <glyph glyph-name="yacute" unicode="&#xfd;" horiz-adv-x="460" 
d="M244 557h-66l65 128h78zM59 -187l13 58q38 -10 65 8t44 71h66q-29 -88 -77 -121t-111 -16zM181 -50l183 550h66l-183 -550h-66zM203 -19l-173 519h66l142 -428z" />
    <glyph glyph-name="thorn" unicode="&#xfe;" horiz-adv-x="448" 
d="M60 499v201h66v-201h-66zM60 1h66v-201h-66v201zM126 500v-500h-66v500h66zM403 350v-200h-66v200h66zM337 150h66q0 -47 -20.5 -84.5t-56 -59t-80.5 -21.5l-14 66q45 0 75 28t30 71zM88 150h38q0 -43 30 -71t76 -28l14 -66q-45 0 -80.5 21.5t-56.5 59t-21 84.5zM337 350
q0 43 -30 71t-75 28l14 66q45 0 80.5 -21.5t56 -59t20.5 -84.5h-66zM88 350q0 47 21 84.5t56.5 59t80.5 21.5l-14 -66q-46 0 -76 -28t-30 -71h-38z" />
    <glyph glyph-name="ydieresis" unicode="&#xff;" horiz-adv-x="460" 
d="M59 -187l13 58q38 -10 65 8t44 71h66q-29 -88 -77 -121t-111 -16zM181 -50l183 550h66l-183 -550h-66zM203 -19l-173 519h66l142 -428zM164 566q-21 0 -35 14t-14 35t14 35.5t35 14.5t35.5 -14.5t14.5 -35.5t-14.5 -35t-35.5 -14zM294 566q-21 0 -35 14t-14 35t14 35.5
t35 14.5t35.5 -14.5t14.5 -35.5t-14.5 -35t-35.5 -14z" />
    <glyph glyph-name="Amacron" unicode="&#x100;" horiz-adv-x="468" 
d="M95 781v52h270v-52h-270zM114 150v63h255v-63h-255zM266 700l-170 -700h-66l170 700h66zM268 700l170 -700h-66l-170 700h66z" />
    <glyph glyph-name="amacron" unicode="&#x101;" horiz-adv-x="441" 
d="M80 591v52h270v-52h-270zM330 0v350h66v-350h-66zM205 -15v60q40 0 67.5 20t42.5 58.5t15 91.5h38q0 -68 -21 -120t-57.5 -81t-84.5 -29zM205 -15q-43 0 -79.5 21t-58.5 57.5t-22 81.5h66q0 -43 29 -71.5t65 -28.5v-60zM45 145q0 46 22.5 81.5t61 56.5t86.5 21v-60
q-44 0 -74 -28t-30 -71h-66zM215 244v60h168v-60h-168zM330 215v136h38v-136h-38zM396 350h-66q0 44 -30 73t-75 29v63q49 0 87.5 -21.5t61 -59t22.5 -84.5zM120 362l-64 14q5 40 28.5 71t60.5 49.5t80 18.5v-63q-40 0 -70 -21.5t-35 -68.5z" />
    <glyph glyph-name="Emacron" unicode="&#x112;" horiz-adv-x="410" 
d="M70 781v52h270v-52h-270zM86 0v63h284v-63h-284zM106 315v66h204v-66h-204zM60 700h66v-700h-66v700zM96 700h264v-63h-264v63z" />
    <glyph glyph-name="emacron" unicode="&#x113;" horiz-adv-x="412" 
d="M71 581v52h270v-52h-270zM41 227v57h336v-57h-336zM205 -16v63h4v-63h-4zM35 164v171h66v-171h-66zM311 284v66h66v-66h-66zM377 350h-66q0 44 -30 73t-75 29v63q49 0 87.5 -21.5t61 -59t22.5 -84.5zM313 137l64 -14q-5 -39 -28.5 -70.5t-60 -50t-80.5 -18.5v63
q40 0 70 22t35 68zM35 335q0 52 22.5 92.5t61 64t87.5 23.5v-63q-49 0 -77 -30.5t-28 -86.5h-66zM35 164h66q0 -55 28 -86t77 -31v-63q-49 0 -87.5 23.5t-61 64t-22.5 92.5z" />
    <glyph glyph-name="Imacron" unicode="&#x12a;" horiz-adv-x="206" 
d="M-32 781v52h270v-52h-270zM70 0v700h66v-700h-66z" />
    <glyph glyph-name="imacron" unicode="&#x12b;" horiz-adv-x="206" 
d="M-31 581v52h270v-52h-270zM70 0v500h66v-500h-66z" />
    <glyph glyph-name="dotlessi" unicode="&#x131;" horiz-adv-x="206" 
d="M70 0v500h66v-500h-66z" />
    <glyph glyph-name="Omacron" unicode="&#x14c;" horiz-adv-x="480" 
d="M105 781v52h270v-52h-270zM359 164v372h66v-372h-66zM55 164v372h66v-372h-66zM425 535h-66q0 56 -31.5 86.5t-87.5 30.5v63q56 0 97.5 -22.5t64.5 -63t23 -94.5zM55 535q0 54 23 94.5t65 63t97 22.5v-63q-56 0 -87.5 -30.5t-31.5 -86.5h-66zM425 165q0 -54 -23 -94.5
t-64.5 -63t-97.5 -22.5v63q56 0 87.5 31t31.5 86h66zM55 165h66q0 -55 31.5 -86t87.5 -31v-63q-55 0 -97 22.5t-65 63t-23 94.5z" />
    <glyph glyph-name="omacron" unicode="&#x14d;" horiz-adv-x="412" 
d="M71 581v52h270v-52h-270zM311 164v172h66v-172h-66zM35 164v172h66v-172h-66zM204 452v63h4v-63h-4zM204 -15v63h4v-63h-4zM35 335q0 52 22.5 92.5t61 64t87.5 23.5v-63q-49 0 -77 -30.5t-28 -86.5h-66zM377 335h-66q0 56 -27.5 86.5t-77.5 30.5v63q49 0 87.5 -23.5
t61 -64t22.5 -92.5zM35 165h66q0 -55 28 -86t77 -31v-63q-49 0 -87.5 23.5t-61 64t-22.5 92.5zM377 165q0 -52 -22.5 -92.5t-61 -64t-87.5 -23.5v63q50 0 77.5 31t27.5 86h66z" />
    <glyph glyph-name="OE" unicode="&#x152;" horiz-adv-x="730" 
d="M359 164v372h66v-372h-66zM55 164v372h66v-372h-66zM425 535h-66q0 56 -31.5 86.5t-87.5 30.5v63q56 0 97.5 -22.5t64.5 -63t23 -94.5zM55 535q0 54 23 94.5t65 63t97 22.5v-63q-56 0 -87.5 -30.5t-31.5 -86.5h-66zM425 165q0 -54 -23 -94.5t-64.5 -63t-97.5 -22.5v63
q56 0 87.5 31t31.5 86h66zM55 165h66q0 -55 31.5 -86t87.5 -31v-63q-55 0 -97 22.5t-65 63t-23 94.5zM406 0v63h284v-63h-284zM426 315v66h204v-66h-204zM380 700h66v-700h-66v700zM416 700h264v-63h-264v63z" />
    <glyph glyph-name="oe" unicode="&#x153;" horiz-adv-x="690" 
d="M311 164v172h66v-172h-66zM35 164v172h66v-172h-66zM204 452v63h4v-63h-4zM204 -15v63h4v-63h-4zM35 335q0 52 22.5 92.5t61 64t87.5 23.5v-63q-49 0 -77 -30.5t-28 -86.5h-66zM377 335h-66q0 56 -27.5 86.5t-77.5 30.5v63q49 0 87.5 -23.5t61 -64t22.5 -92.5zM35 165h66
q0 -55 28 -86t77 -31v-63q-49 0 -87.5 23.5t-61 64t-22.5 92.5zM377 165q0 -52 -22.5 -92.5t-61 -64t-87.5 -23.5v63q50 0 77.5 31t27.5 86h66zM319 227v57h336v-57h-336zM483 -16v63h4v-63h-4zM313 164v171h66v-171h-66zM589 284v66h66v-66h-66zM655 350h-66q0 44 -30 73
t-75 29v63q49 0 87.5 -21.5t61 -59t22.5 -84.5zM591 137l64 -14q-5 -39 -28.5 -70.5t-60 -50t-80.5 -18.5v63q40 0 70 22t35 68zM313 335q0 52 22.5 92.5t61 64t87.5 23.5v-63q-49 0 -77 -30.5t-28 -86.5h-66zM313 164h66q0 -55 28 -86t77 -31v-63q-49 0 -87.5 23.5t-61 64
t-22.5 92.5z" />
    <glyph glyph-name="Umacron" unicode="&#x16a;" horiz-adv-x="488" 
d="M109 781v52h270v-52h-270zM362 164v536h66v-536h-66zM60 164v536h66v-536h-66zM428 165q0 -54 -23 -94.5t-64.5 -63t-97.5 -22.5v63q56 0 87.5 31t31.5 86h66zM60 165h66q0 -55 31.5 -86t87.5 -31v-63q-55 0 -97 22.5t-65 63t-23 94.5z" />
    <glyph glyph-name="umacron" unicode="&#x16b;" horiz-adv-x="448" 
d="M388 500v-500h-66v500h66zM111 500v-350h-66v350h66zM111 150q0 -43 30 -71t75 -28l-14 -66q-45 0 -80.5 21.5t-56 59t-20.5 84.5h66zM360 150q0 -47 -20.5 -84.5t-56.5 -59t-81 -21.5l14 66q46 0 76 28t30 71h38zM78 581v52h270v-52h-270z" />
    <glyph glyph-name="Wcircumflex" unicode="&#x174;" horiz-adv-x="717" 
d="M323 885h66l-65 -128h-78zM392 885l77 -128h-78l-65 128h66zM466 0l-137 700h66l137 -700h-66zM167 0l-127 700h66l127 -700h-66zM185 0l137 700h66l-137 -700h-66zM484 0l127 700h66l-127 -700h-66z" />
    <glyph glyph-name="wcircumflex" unicode="&#x175;" horiz-adv-x="666" 
d="M298 685h66l-65 -128h-78zM367 685l77 -128h-78l-65 128h66zM435 0l135 500h66l-135 -500h-66zM165 0l-135 500h66l135 -500h-66zM165 0l135 500h66l-135 -500h-66zM435 0l-135 500h66l135 -500h-66z" />
    <glyph glyph-name="Ycircumflex" unicode="&#x176;" horiz-adv-x="426" 
d="M178 885h66l-65 -128h-78zM247 885l77 -128h-78l-65 128h66zM180 238l150 462h66l-150 -462h-66zM180 0v238h66v-238h-66zM180 238l-150 462h66l150 -462h-66z" />
    <glyph glyph-name="ycircumflex" unicode="&#x177;" horiz-adv-x="460" 
d="M195 685h66l-65 -128h-78zM264 685l77 -128h-78l-65 128h66zM59 -187l13 58q38 -10 65 8t44 71h66q-29 -88 -77 -121t-111 -16zM181 -50l183 550h66l-183 -550h-66zM203 -19l-173 519h66l142 -428z" />
    <glyph glyph-name="Ydieresis" unicode="&#x178;" horiz-adv-x="426" 
d="M180 238l150 462h66l-150 -462h-66zM180 0v238h66v-238h-66zM180 238l-150 462h66l150 -462h-66zM147 766q-21 0 -35 14t-14 35t14 35.5t35 14.5t35.5 -14.5t14.5 -35.5t-14.5 -35t-35.5 -14zM277 766q-21 0 -35 14t-14 35t14 35.5t35 14.5t35.5 -14.5t14.5 -35.5
t-14.5 -35t-35.5 -14z" />
    <glyph glyph-name="uni0237" unicode="&#x237;" horiz-adv-x="222" 
d="M152 1q0 -73 -34.5 -114t-96.5 -41l-5 63q22 0 37.5 11t24 31.5t8.5 49.5h66zM-31 -74q11 -7 22.5 -12t24.5 -5l5 -63q-22 0 -43 7.5t-38 20.5zM86 0v500h66v-500h-66z" />
    <glyph glyph-name="circumflex" unicode="&#x2c6;" horiz-adv-x="363" 
d="M147 685h66l-65 -128h-78zM216 685l77 -128h-78l-65 128h66z" />
    <glyph glyph-name="ring" unicode="&#x2da;" horiz-adv-x="288" 
d="M170 634q0 11 -7.5 18.5t-18.5 7.5v48q32 0 53 -21t21 -53h-48zM144 560q-31 0 -52.5 21.5t-21.5 52.5h48q0 -11 7.5 -18.5t18.5 -7.5v-48zM144 560v48q11 0 18.5 7.5t7.5 18.5h48q0 -31 -21 -52.5t-53 -21.5zM70 634q0 32 21.5 53t52.5 21v-48q-11 0 -18.5 -7.5
t-7.5 -18.5h-48z" />
    <glyph glyph-name="tilde" unicode="&#x2dc;" horiz-adv-x="388" 
d="M244 599q-19 0 -31.5 5.5t-22.5 13.5t-20.5 13.5t-25.5 5.5v45q19 0 31.5 -5.5t22.5 -13.5t20.5 -13.5t25.5 -5.5v-45zM70 605q0 36 19.5 56.5t54.5 20.5v-45q-12 0 -19 -8.5t-7 -23.5h-48zM244 599v45q12 0 19 8.5t7 23.5h48q0 -36 -19.5 -56.5t-54.5 -20.5z" />
    <glyph glyph-name="gravecomb" unicode="&#x300;" horiz-adv-x="0" 
d="M147 557l-77 128h78l65 -128h-66z" />
    <glyph glyph-name="acutecomb" unicode="&#x301;" horiz-adv-x="0" 
d="M136 557h-66l65 128h78z" />
    <glyph glyph-name="uni0302" unicode="&#x302;" horiz-adv-x="0" 
d="M147 685h66l-65 -128h-78zM216 685l77 -128h-78l-65 128h66z" />
    <glyph glyph-name="tildecomb" unicode="&#x303;" horiz-adv-x="0" 
d="M244 599q-19 0 -31.5 5.5t-22.5 13.5t-20.5 13.5t-25.5 5.5v45q19 0 31.5 -5.5t22.5 -13.5t20.5 -13.5t25.5 -5.5v-45zM70 605q0 36 19.5 56.5t54.5 20.5v-45q-12 0 -19 -8.5t-7 -23.5h-48zM244 599v45q12 0 19 8.5t7 23.5h48q0 -36 -19.5 -56.5t-54.5 -20.5z" />
    <glyph glyph-name="uni0307" unicode="&#x307;" horiz-adv-x="0" 
d="M119 546q-21 0 -35 14t-14 35t14 35.5t35 14.5t35.5 -14.5t14.5 -35.5t-14.5 -35t-35.5 -14z" />
    <glyph glyph-name="uni0308" unicode="&#x308;" horiz-adv-x="0" 
d="M119 546q-21 0 -35 14t-14 35t14 35.5t35 14.5t35.5 -14.5t14.5 -35.5t-14.5 -35t-35.5 -14zM249 546q-21 0 -35 14t-14 35t14 35.5t35 14.5t35.5 -14.5t14.5 -35.5t-14.5 -35t-35.5 -14z" />
    <glyph glyph-name="uni030A" unicode="&#x30a;" horiz-adv-x="0" 
d="M170 634q0 11 -7.5 18.5t-18.5 7.5v48q32 0 53 -21t21 -53h-48zM144 560q-31 0 -52.5 21.5t-21.5 52.5h48q0 -11 7.5 -18.5t18.5 -7.5v-48zM144 560v48q11 0 18.5 7.5t7.5 18.5h48q0 -31 -21 -52.5t-53 -21.5zM70 634q0 32 21.5 53t52.5 21v-48q-11 0 -18.5 -7.5
t-7.5 -18.5h-48z" />
    <glyph glyph-name="uni0327" unicode="&#x327;" horiz-adv-x="0" 
d="M157 -166q-19 0 -42.5 5t-44.5 16l18 45q24 -9 46 -12.5t34 5t5 36.5h60q6 -45 -14 -70t-62 -25zM173 -71q-6 23 -13 39t-16 32h60q9 -13 17 -29t12 -42h-60z" />
    <glyph glyph-name="uni0335" unicode="&#x335;" horiz-adv-x="0" 
d="M70 322v56h240v-56h-240z" />
    <glyph glyph-name="uni0338" unicode="&#x338;" horiz-adv-x="0" 
d="M70 -53l270 806h57l-270 -806h-57z" />
    <glyph glyph-name="uni0900" unicode="&#x900;" horiz-adv-x="0" 
d="M184 866v-54q-40 0 -74.5 -18.5t-55.5 -50.5l-54 26q32 46 81 71.5t103 25.5zM184 866q54 0 103 -25.5t81 -71.5l-54 -26q-21 32 -55 50.5t-75 18.5v54zM184 754q22 0 37 -14.5t15 -36.5t-15 -37.5t-37 -15.5t-37 15.5t-15 37.5t15 36.5t37 14.5z" />
    <glyph glyph-name="uni0901" unicode="&#x901;" horiz-adv-x="0" 
d="M184 813q-22 0 -37 14.5t-15 36.5q0 23 15 38t37 15t37 -15t15 -38q0 -22 -15 -36.5t-37 -14.5zM184 701v54q41 0 75 18.5t55 50.5l54 -26q-32 -46 -81 -71.5t-103 -25.5zM184 701q-54 0 -103 25.5t-81 71.5l54 26q21 -32 55.5 -50.5t74.5 -18.5v-54z" />
    <glyph glyph-name="uni0902" unicode="&#x902;" horiz-adv-x="0" 
d="M52 639q-22 0 -37 14.5t-15 36.5t15 37.5t37 15.5t37 -15.5t15 -37.5t-15 -36.5t-37 -14.5z" />
    <glyph glyph-name="uni0903" unicode="&#x903;" horiz-adv-x="150" 
d="M0 567v63h73v-63h-73zM73 56q-22 0 -37 14.5t-15 36.5t15 37.5t37 15.5t37 -15.5t15 -37.5t-15 -36.5t-37 -14.5zM73 324q-22 0 -37 14.5t-15 36.5t15 37.5t37 15.5t37 -15.5t15 -37.5t-15 -36.5t-37 -14.5z" />
    <glyph glyph-name="uni0904" unicode="&#x904;" horiz-adv-x="569" 
d="M281 483q0 42 -26 70t-65 28v63q45 0 80.5 -21t56 -57.5t20.5 -82.5h-66zM96 491l-64 14q5 40 27.5 71t57 49.5t74.5 18.5v-63q-37 0 -64 -26t-31 -64zM274 264v60h216v-60h-216zM284 194q0 52 -30.5 86t-77.5 34v60q49 0 87.5 -23.5t61 -64t22.5 -92.5h-63zM186 15
q-76 0 -118.5 47.5t-42.5 132.5h63q0 -56 26 -88t72 -32v-60zM186 15v60q47 0 72.5 32t25.5 88h63q0 -56 -19 -96.5t-55 -62t-87 -21.5zM135 314v63h51v-63h-51zM185 314v63q41 0 68.5 30.5t27.5 76.5h66q0 -48 -21.5 -86.5t-58 -61t-82.5 -22.5zM433 0v630h63v-630h-63z
M455 567v63h139v-63h-139zM432 630q8 38 -7 60t-56 30l10 60q47 -9 74.5 -28.5t38 -49.5t3.5 -72h-63zM369 720q-46 10 -74 29t-38 49t-4 72h63q-8 -38 7.5 -60t55.5 -30z" />
    <glyph glyph-name="uni0905" unicode="&#x905;" horiz-adv-x="569" 
d="M281 483q0 42 -26 70t-65 28v63q45 0 80.5 -21t56 -57.5t20.5 -82.5h-66zM96 491l-64 14q5 40 27.5 71t57 49.5t74.5 18.5v-63q-37 0 -64 -26t-31 -64zM274 264v60h216v-60h-216zM284 194q0 52 -30.5 86t-77.5 34v60q49 0 87.5 -23.5t61 -64t22.5 -92.5h-63zM186 15
q-76 0 -118.5 47.5t-42.5 132.5h63q0 -56 26 -88t72 -32v-60zM186 15v60q47 0 72.5 32t25.5 88h63q0 -56 -19 -96.5t-55 -62t-87 -21.5zM135 314v63h51v-63h-51zM185 314v63q41 0 68.5 30.5t27.5 76.5h66q0 -48 -21.5 -86.5t-58 -61t-82.5 -22.5zM433 0v630h63v-630h-63z
M455 567v63h139v-63h-139z" />
    <glyph glyph-name="uni0906" unicode="&#x906;" horiz-adv-x="778" 
d="M281 483q0 42 -26 70t-65 28v63q45 0 80.5 -21t56 -57.5t20.5 -82.5h-66zM96 491l-64 14q5 40 27.5 71t57 49.5t74.5 18.5v-63q-37 0 -64 -26t-31 -64zM274 264v60h216v-60h-216zM284 194q0 52 -30.5 86t-77.5 34v60q49 0 87.5 -23.5t61 -64t22.5 -92.5h-63zM186 15
q-76 0 -118.5 47.5t-42.5 132.5h63q0 -56 26 -88t72 -32v-60zM186 15v60q47 0 72.5 32t25.5 88h63q0 -56 -19 -96.5t-55 -62t-87 -21.5zM135 314v63h51v-63h-51zM185 314v63q41 0 68.5 30.5t27.5 76.5h66q0 -48 -21.5 -86.5t-58 -61t-82.5 -22.5zM433 0v630h63v-630h-63z
M455 567v63h139v-63h-139zM642 0v620h63v-620h-63zM544 567v63h259v-63h-259z" />
    <glyph glyph-name="uni0907" unicode="&#x907;" horiz-adv-x="393" 
d="M-25 567v63h443v-63h-443zM200 0v60q44 0 68 22.5t24 62.5h63q0 -68 -41 -106.5t-114 -38.5zM194 240q-69 0 -107.5 32.5t-38.5 90.5h66q0 -30 23.5 -46.5t66.5 -16.5zM292 145q0 47 -25.5 72t-72.5 23l10 60q48 0 81.5 -18.5t51.5 -53t18 -83.5h-63zM48 363q0 56 40 88
t111 32v-60q-40 0 -62.5 -15.5t-22.5 -44.5h-66zM199 423v60h115v-60h-115zM251 450v165h63v-165h-63zM39 108h60q0 -22 16 -35t44 -13v-47q-56 0 -88 25t-32 70zM69 194l60 -30q-30 -35 -30 -56h-60q0 42 30 86zM69 194l90 -40v-106h-60zM206 0q-28 0 -50 7t-49 23l10 60
q27 -16 47 -23t42 -7v-60zM189 -118l-126 224l54 30l127 -222z" />
    <glyph glyph-name="uni0908" unicode="&#x908;" horiz-adv-x="393" 
d="M176 739l-60 11q0 43 21.5 76t59 52.5t84.5 19.5v-54q-45 0 -75 -30t-30 -75zM281 582q-47 0 -84.5 22t-59 60t-21.5 86l60 -11q0 -46 30 -77.5t75 -31.5v-48zM320 837q-10 3 -20.5 5t-19.5 2v54q17 0 36 -3.5t35 -10.5zM-25 567v63h443v-63h-443zM200 0v60q44 0 68 22.5
t24 62.5h63q0 -68 -41 -106.5t-114 -38.5zM194 240q-69 0 -107.5 32.5t-38.5 90.5h66q0 -30 23.5 -46.5t66.5 -16.5zM292 145q0 47 -25.5 72t-72.5 23l10 60q48 0 81.5 -18.5t51.5 -53t18 -83.5h-63zM48 363q0 56 40 88t111 32v-60q-40 0 -62.5 -15.5t-22.5 -44.5h-66z
M199 423v60h115v-60h-115zM251 450v165h63v-165h-63zM39 108h60q0 -22 16 -35t44 -13v-47q-56 0 -88 25t-32 70zM69 194l60 -30q-30 -35 -30 -56h-60q0 42 30 86zM69 194l90 -40v-106h-60zM206 0q-28 0 -50 7t-49 23l10 60q27 -16 47 -23t42 -7v-60zM189 -118l-126 224
l54 30l127 -222z" />
    <glyph glyph-name="uni0909" unicode="&#x909;" horiz-adv-x="398" 
d="M286 475q0 40 -30 66t-75 26v48q49 0 87.5 -18.5t61 -50t22.5 -71.5h-66zM-25 567v63h448v-63h-448zM289 186q0 52 -30.5 86t-77.5 34v60q49 0 87.5 -23.5t61 -64t22.5 -92.5h-63zM191 7q-76 0 -118.5 47.5t-42.5 132.5h63q0 -56 26 -88t72 -32v-60zM191 7v60
q47 0 72.5 32t25.5 88h63q0 -56 -19 -96.5t-55 -62t-87 -21.5zM140 306v63h51v-63h-51zM190 306v63q41 0 68.5 30.5t27.5 76.5h66q0 -48 -21.5 -86.5t-58 -61t-82.5 -22.5z" />
    <glyph glyph-name="uni090A" unicode="&#x90a;" horiz-adv-x="550" 
d="M134 567v63h441v-63h-441zM381 25v63q58 0 90 26.5t32 72.5h63q0 -51 -22 -87.5t-63.5 -55.5t-99.5 -19zM329 252l-26 51q18 17 42 27t46 10v-63q-13 0 -29.5 -6t-32.5 -19zM503 187q0 43 -29.5 66.5t-82.5 23.5v63q55 0 94 -18t60 -52.5t21 -82.5h-63zM286 475
q0 40 -30 66t-75 26v48q49 0 87.5 -18.5t61 -50t22.5 -71.5h-66zM-25 567v63h448v-63h-448zM289 186q0 52 -30.5 86t-77.5 34v60q49 0 87.5 -23.5t61 -64t22.5 -92.5h-63zM191 7q-76 0 -118.5 47.5t-42.5 132.5h63q0 -56 26 -88t72 -32v-60zM191 7v60q47 0 72.5 32t25.5 88
h63q0 -56 -19 -96.5t-55 -62t-87 -21.5zM140 306v63h51v-63h-51zM190 306v63q41 0 68.5 30.5t27.5 76.5h66q0 -48 -21.5 -86.5t-58 -61t-82.5 -22.5z" />
    <glyph glyph-name="uni090B" unicode="&#x90b;" horiz-adv-x="842" 
d="M345 212v91l150 131v-89zM677 -8q-44 0 -78 18.5t-53.5 51t-19.5 74.5h60q0 -38 25.5 -62.5t65.5 -24.5v-57zM677 -8v57q39 0 65 25t26 62l60 -13q0 -37 -20 -67t-54 -47t-77 -17zM526 136q0 42 22 74.5t60.5 51t88.5 18.5v-54q-49 0 -80 -25t-31 -65h-60zM687 226
q-63 0 -112 22.5t-76.5 61.5t-27.5 90h60q0 -52 44 -86t112 -34v-54zM471 400q0 37 15.5 65t43.5 44t63 16v-57q-27 0 -44.5 -19t-17.5 -49h-60zM643 428q0 17 -14 28.5t-36 11.5v57q32 0 57 -12.5t39 -34t14 -50.5h-60zM456 567v63h411v-63h-411zM611 334l-27 54
q28 1 43.5 11.5t15.5 28.5h60q1 -25 -10 -44.5t-31.5 -32t-50.5 -17.5zM123 0l-46 47l255 257v-94zM215 351q-41 50 -78.5 51.5t-85.5 -26.5l-28 58q45 25 83 32.5t75 -9t77 -64.5zM332 210l-117 141l43 42l117 -140zM-25 567v63h321v-63h-321zM325 0v620h63v-620h-63z
M227 567v63h259v-63h-259z" />
    <glyph glyph-name="uni090C" unicode="&#x90c;" horiz-adv-x="589" 
d="M454 123v462h63v-462h-63zM197 567v63h417v-63h-417zM271 299q0 80 49 125.5t137 45.5v-60q-58 0 -90.5 -29t-32.5 -82h-63zM456 410v60h16v-60h-16zM296 -15q-75 0 -129 27t-83 79.5t-29 125.5h63q0 -81 47 -126.5t131 -45.5v-60zM55 217v43h63v-43h-63zM55 259
q0 100 38.5 155.5t106.5 55.5v-60q-39 0 -60.5 -40t-21.5 -111h-63zM271 213v86h63v-86h-63zM271 299q0 53 -18.5 82t-52.5 29v60q63 1 98.5 -44t35.5 -127h-63zM-25 567v63h471v-63h-471zM454 171v299h63v-299h-63zM382 54q0 49 35 78t98 31l5 -53q-34 0 -57.5 -16
t-23.5 -40h-57zM539 -58q-74 0 -115.5 30t-41.5 82h57q0 -25 28.5 -41.5t71.5 -16.5v-54z" />
    <glyph glyph-name="uni090D" unicode="&#x90d;" horiz-adv-x="450" 
d="M325 -15q-89 0 -141.5 34t-75.5 104t-23 178h66q0 -86 16 -142.5t54 -83.5t104 -27v-63zM85 301v303h66v-303h-66zM320 430v175h66v-175h-66zM-25 567v63h500v-63h-500zM386 430q0 -56 -16.5 -99t-50.5 -69t-85 -32l-10 63q34 6 55 25t31 48t10 64h66zM299 691v54
q41 0 75 18.5t55 50.5l54 -26q-32 -46 -81 -71.5t-103 -25.5zM299 691q-54 0 -103 25.5t-81 71.5l54 26q21 -32 55.5 -50.5t74.5 -18.5v-54z" />
    <glyph glyph-name="uni090E" unicode="&#x90e;" horiz-adv-x="450" 
d="M325 -15q-89 0 -141.5 34t-75.5 104t-23 178h66q0 -86 16 -142.5t54 -83.5t104 -27v-63zM85 301v303h66v-303h-66zM320 430v175h66v-175h-66zM-25 567v63h500v-63h-500zM386 430q0 -56 -16.5 -99t-50.5 -69t-85 -32l-10 63q34 6 55 25t31 48t10 64h66zM330 630
q8 38 -7 60t-56 30l10 60q47 -9 74.5 -28.5t38 -49.5t3.5 -72h-63zM267 720q-46 10 -74 29t-38 49t-4 72h63q-8 -38 7.5 -60t55.5 -30z" />
    <glyph glyph-name="uni090F" unicode="&#x90f;" horiz-adv-x="450" 
d="M325 -15q-89 0 -141.5 34t-75.5 104t-23 178h66q0 -86 16 -142.5t54 -83.5t104 -27v-63zM85 301v303h66v-303h-66zM320 430v175h66v-175h-66zM-25 567v63h500v-63h-500zM386 430q0 -56 -16.5 -99t-50.5 -69t-85 -32l-10 63q34 6 55 25t31 48t10 64h66z" />
    <glyph glyph-name="uni0910" unicode="&#x910;" horiz-adv-x="450" 
d="M325 -15q-89 0 -141.5 34t-75.5 104t-23 178h66q0 -86 16 -142.5t54 -83.5t104 -27v-63zM85 301v303h66v-303h-66zM320 430v175h66v-175h-66zM-25 567v63h500v-63h-500zM386 430q0 -56 -16.5 -99t-50.5 -69t-85 -32l-10 63q34 6 55 25t31 48t10 64h66zM307 630l-93 141
l45 41l119 -182h-71zM214 771q-25 38 -53.5 46t-65.5 -15l-28 51q61 34 109.5 23t82.5 -64z" />
    <glyph glyph-name="uni0911" unicode="&#x911;" horiz-adv-x="778" 
d="M281 483q0 42 -26 70t-65 28v63q45 0 80.5 -21t56 -57.5t20.5 -82.5h-66zM96 491l-64 14q5 40 27.5 71t57 49.5t74.5 18.5v-63q-37 0 -64 -26t-31 -64zM274 264v60h216v-60h-216zM284 194q0 52 -30.5 86t-77.5 34v60q49 0 87.5 -23.5t61 -64t22.5 -92.5h-63zM186 15
q-76 0 -118.5 47.5t-42.5 132.5h63q0 -56 26 -88t72 -32v-60zM186 15v60q47 0 72.5 32t25.5 88h63q0 -56 -19 -96.5t-55 -62t-87 -21.5zM135 314v63h51v-63h-51zM185 314v63q41 0 68.5 30.5t27.5 76.5h66q0 -48 -21.5 -86.5t-58 -61t-82.5 -22.5zM433 0v630h63v-630h-63z
M455 567v63h139v-63h-139zM642 0v620h63v-620h-63zM544 567v63h259v-63h-259zM608 691v54q41 0 75 18.5t55 50.5l54 -26q-32 -46 -81 -71.5t-103 -25.5zM608 691q-54 0 -103 25.5t-81 71.5l54 26q21 -32 55.5 -50.5t74.5 -18.5v-54z" />
    <glyph glyph-name="uni0912" unicode="&#x912;" horiz-adv-x="778" 
d="M281 483q0 42 -26 70t-65 28v63q45 0 80.5 -21t56 -57.5t20.5 -82.5h-66zM96 491l-64 14q5 40 27.5 71t57 49.5t74.5 18.5v-63q-37 0 -64 -26t-31 -64zM274 264v60h216v-60h-216zM284 194q0 52 -30.5 86t-77.5 34v60q49 0 87.5 -23.5t61 -64t22.5 -92.5h-63zM186 15
q-76 0 -118.5 47.5t-42.5 132.5h63q0 -56 26 -88t72 -32v-60zM186 15v60q47 0 72.5 32t25.5 88h63q0 -56 -19 -96.5t-55 -62t-87 -21.5zM135 314v63h51v-63h-51zM185 314v63q41 0 68.5 30.5t27.5 76.5h66q0 -48 -21.5 -86.5t-58 -61t-82.5 -22.5zM433 0v630h63v-630h-63z
M455 567v63h139v-63h-139zM642 0v620h63v-620h-63zM544 567v63h259v-63h-259zM651 630q8 38 -7 60t-56 30l10 60q47 -9 74.5 -28.5t38 -49.5t3.5 -72h-63zM588 720q-46 10 -74 29t-38 49t-4 72h63q-8 -38 7.5 -60t55.5 -30z" />
    <glyph glyph-name="uni0913" unicode="&#x913;" horiz-adv-x="778" 
d="M281 483q0 42 -26 70t-65 28v63q45 0 80.5 -21t56 -57.5t20.5 -82.5h-66zM96 491l-64 14q5 40 27.5 71t57 49.5t74.5 18.5v-63q-37 0 -64 -26t-31 -64zM274 264v60h216v-60h-216zM284 194q0 52 -30.5 86t-77.5 34v60q49 0 87.5 -23.5t61 -64t22.5 -92.5h-63zM186 15
q-76 0 -118.5 47.5t-42.5 132.5h63q0 -56 26 -88t72 -32v-60zM186 15v60q47 0 72.5 32t25.5 88h63q0 -56 -19 -96.5t-55 -62t-87 -21.5zM135 314v63h51v-63h-51zM185 314v63q41 0 68.5 30.5t27.5 76.5h66q0 -48 -21.5 -86.5t-58 -61t-82.5 -22.5zM433 0v630h63v-630h-63z
M455 567v63h139v-63h-139zM642 0v620h63v-620h-63zM544 567v63h259v-63h-259zM628 630l-93 141l45 41l119 -182h-71zM535 771q-25 38 -53.5 46t-65.5 -15l-28 51q61 34 109.5 23t82.5 -64z" />
    <glyph glyph-name="uni0914" unicode="&#x914;" horiz-adv-x="778" 
d="M281 483q0 42 -26 70t-65 28v63q45 0 80.5 -21t56 -57.5t20.5 -82.5h-66zM96 491l-64 14q5 40 27.5 71t57 49.5t74.5 18.5v-63q-37 0 -64 -26t-31 -64zM274 264v60h216v-60h-216zM284 194q0 52 -30.5 86t-77.5 34v60q49 0 87.5 -23.5t61 -64t22.5 -92.5h-63zM186 15
q-76 0 -118.5 47.5t-42.5 132.5h63q0 -56 26 -88t72 -32v-60zM186 15v60q47 0 72.5 32t25.5 88h63q0 -56 -19 -96.5t-55 -62t-87 -21.5zM135 314v63h51v-63h-51zM185 314v63q41 0 68.5 30.5t27.5 76.5h66q0 -48 -21.5 -86.5t-58 -61t-82.5 -22.5zM433 0v630h63v-630h-63z
M455 567v63h139v-63h-139zM642 0v620h63v-620h-63zM544 567v63h259v-63h-259zM624 630l-125 101l22 47l184 -148h-81zM388 719l-45 31q24 34 53.5 48.5t61.5 9.5t63 -30l-22 -47q-30 25 -59 22t-52 -34zM640 630l-73 174l54 24l84 -198h-65zM567 804q-14 35 -40.5 48
t-58.5 2l-15 64q37 9 69.5 1.5t57.5 -30.5t41 -61z" />
    <glyph glyph-name="uni0915" unicode="&#x915;" horiz-adv-x="623" 
d="M386 567v63h262v-63h-262zM-25 567v63h306v-63h-306zM44 264v12h63v-12h-63zM291 234v72h48v-72h-48zM107 275h-63q0 62 17.5 105.5t50.5 66.5t79 23l4 -60q-41 0 -64.5 -35.5t-23.5 -99.5zM339 305h-48q0 45 -27.5 75t-68.5 30l-4 60q43 0 76 -21.5t52.5 -59t19.5 -84.5
zM107 265q0 -64 23.5 -99.5t64.5 -35.5l-4 -60q-46 0 -79 23t-50.5 67t-17.5 105h63zM339 235q0 -47 -19.5 -84.5t-52.5 -59t-76 -21.5l4 60q41 0 68.5 30t27.5 75h48zM538 275q0 64 -23.5 99.5t-64.5 35.5l4 60q46 0 79 -23t50.5 -66.5t17.5 -105.5h-63zM306 305
q0 47 19.5 84.5t53 59t75.5 21.5l-4 -60q-41 0 -68.5 -30t-27.5 -75h-48zM538 271v4h63v-4h-63zM438 73l-10 61q52 5 81 41.5t29 95.5h63q0 -59 -19.5 -102t-56 -67.5t-87.5 -28.5zM291 0v620h63v-620h-63zM193 567v63h259v-63h-259z" />
    <glyph glyph-name="uni0916" unicode="&#x916;" horiz-adv-x="687" 
d="M304 -15q-63 0 -106 38.5t-79 119.5h69q15 -33 31.5 -55t37 -32.5t47.5 -10.5v-60zM119 143l-75 163h70l74 -163h-69zM304 -15v60q36 0 65.5 29t56.5 79l54 -35q-27 -42 -55 -71.5t-58 -45.5t-63 -16zM461 111q-42 0 -75 24t-52.5 66t-19.5 95h63q0 -35 11.5 -63.5
t31.5 -45t45 -16.5zM461 111l4 60q25 0 44 14t30.5 37.5t11.5 53.5h48q0 -47 -18 -84.5t-49 -59t-71 -21.5zM314 295q0 53 19.5 95t52.5 66t75 24l4 -60q-25 0 -45 -16.5t-31.5 -44.5t-11.5 -64h-63zM-25 567v63h585v-63h-585zM551 315q0 30 -11.5 53.5t-30.5 37.5t-44 14
l-4 60q40 0 71 -21.5t49 -59t18 -84.5h-48zM62 268l-29 60q65 0 105.5 14t57.5 44t10 76h63q6 -41 -3 -76t-30 -61.5t-52 -41.5t-70 -15h-52zM206 462l-21 138h63l21 -138h-63zM551 0v620h63v-620h-63zM453 567v63h259v-63h-259z" />
    <glyph glyph-name="uni0917" unicode="&#x917;" horiz-adv-x="501" 
d="M-25 567v63h332v-63h-332zM141 301v329h63v-329h-63zM109 182v60q23 0 35.5 16t12.5 44h47q0 -56 -25 -88t-70 -32zM23 212l30 60q35 -30 56 -30v-60q-42 0 -86 30zM23 212l40 90h106v-60zM365 0v620h63v-620h-63zM267 567v63h259v-63h-259z" />
    <glyph glyph-name="uni0918" unicode="&#x918;" horiz-adv-x="551" 
d="M281 85v60q41 0 71 15t46.5 41.5t16.5 59.5h39q0 -50 -21.5 -90t-60 -63t-91.5 -23zM281 85q-53 0 -95 21t-66.5 57.5t-24.5 82.5h63q0 -43 35.5 -72t87.5 -29v-60zM95 246q0 68 42 107.5t119 39.5v-60q-51 0 -74.5 -23t-23.5 -64h-63zM256 333q-90 0 -140.5 39
t-50.5 108h63q0 -41 34 -64t94 -23v-60zM256 333v60h16v-60h-16zM65 480q0 60 37 93.5t104 33.5v-40q-37 0 -57.5 -23t-20.5 -64h-63zM-25 567v63h451v-63h-451zM273 542q-12 12 -28 18.5t-40 6.5v40q36 0 58.5 -8t41.5 -22zM415 0v620h63v-620h-63zM317 567v63h259v-63
h-259z" />
    <glyph glyph-name="uni0919" unicode="&#x919;" horiz-adv-x="440" 
d="M375 567v63h85v-63h-85zM211 0q-63 0 -106.5 37t-58.5 103l63 15q14 -45 41 -70t61 -25v-60zM-25 567v63h443v-63h-443zM200 0v60q44 0 68 22.5t24 62.5h63q0 -68 -41 -106.5t-114 -38.5zM194 240q-69 0 -107.5 32.5t-38.5 90.5h66q0 -30 23.5 -46.5t66.5 -16.5zM292 145
q0 47 -25.5 72t-72.5 23l10 60q48 0 81.5 -18.5t51.5 -53t18 -83.5h-63zM48 363q0 56 40 88t111 32v-60q-40 0 -62.5 -15.5t-22.5 -44.5h-66zM199 423v60h115v-60h-115zM251 450v165h63v-165h-63zM415 300q-21 0 -35 14t-14 35t14 35.5t35 14.5t35.5 -14.5t14.5 -35.5
t-14.5 -35t-35.5 -14z" />
    <glyph glyph-name="uni091A" unicode="&#x91a;" horiz-adv-x="510" 
d="M254 98q-42 0 -75 21.5t-52.5 59t-19.5 84.5h66q0 -43 27.5 -71t67.5 -28zM107 263v22h66v-22h-66zM254 98l14 66q46 0 76 34t30 85h27q0 -53 -19 -95t-52 -66t-76 -24zM107 285q0 47 21.5 83.5t59 58t84.5 21.5v-39q-43 0 -71 -35.5t-28 -88.5h-66zM55 409v57h220v-57
h-220zM-25 567v63h404v-63h-404zM374 0v620h63v-620h-63zM276 567v63h259v-63h-259z" />
    <glyph glyph-name="uni091B" unicode="&#x91b;" horiz-adv-x="553" 
d="M354 433v152h66v-152q-11 3 -22 4t-22 0t-22 -4zM294 11l-10 66q49 0 87 33t60.5 88.5t22.5 122.5h60q0 -85 -27.5 -155.5t-77 -112.5t-115.5 -42zM264 11q-47 0 -90 22t-70 62.5t-27 95.5h63q0 -33 20.5 -58.5t51.5 -40.5t62 -15zM263 11l10 66h12l10 -66h-32zM77 191
q0 39 12.5 71.5t36 56t55.5 36.5t70 13v-60q-32 0 -57.5 -15t-39.5 -41t-14 -61h-63zM251 308q-54 0 -96 20t-66 56.5t-24 85.5h63q0 -47 34.5 -74.5t88.5 -27.5v-60zM65 470q0 43 21 73.5t60.5 47t94.5 16.5v-40q-35 0 -60.5 -11.5t-39 -33t-13.5 -52.5h-63zM-25 567v63
h603v-63h-603zM454 321q0 41 -16.5 64.5t-45.5 23.5v57q35 0 62.5 -19t43.5 -51.5t16 -74.5h-60zM313 256q-17 32 -23 51t-6 47h60q0 -19 5.5 -37t21.5 -47zM284 354q0 32 14 57.5t38.5 40t55.5 14.5v-57q-20 0 -34 -16t-14 -39h-60z" />
    <glyph glyph-name="uni091C" unicode="&#x91c;" horiz-adv-x="582" 
d="M194 55v60q53 0 76.5 43.5t13.5 121.5h63q9 -64 -8 -115t-54.5 -80.5t-90.5 -29.5zM195 55q-42 0 -76 23.5t-53.5 64.5t-19.5 92h63q0 -56 23 -88t63 -32v-60zM46 234v77l63 10v-87h-63zM284 280q-4 30 -16.5 53t-30 36.5t-37.5 13.5v49q38 0 68 -16.5t51 -50t28 -85.5
h-63zM200 383v60h257v-60h-257zM-25 567v63h481v-63h-481zM446 0v620h63v-620h-63zM348 567v63h259v-63h-259z" />
    <glyph glyph-name="uni091D" unicode="&#x91d;" horiz-adv-x="575" 
d="M454 240l-240 1l-23 59l263 -1v-59zM-25 567v63h443v-63h-443zM200 0v60q44 0 68 22.5t24 62.5h63q0 -68 -41 -106.5t-114 -38.5zM194 240q-69 0 -107.5 32.5t-38.5 90.5h66q0 -30 23.5 -46.5t66.5 -16.5zM292 145q0 47 -25.5 72t-72.5 23l10 60q48 0 81.5 -18.5
t51.5 -53t18 -83.5h-63zM48 363q0 56 40 88t111 32v-60q-40 0 -62.5 -15.5t-22.5 -44.5h-66zM199 423v60h115v-60h-115zM251 450v165h63v-165h-63zM39 108h60q0 -22 16 -35t44 -13v-47q-56 0 -88 25t-32 70zM69 194l60 -30q-30 -35 -30 -56h-60q0 42 30 86zM69 194l90 -40
v-106h-60zM206 0q-28 0 -50 7t-49 23l10 60q27 -16 47 -23t42 -7v-60zM189 -118l-126 224l54 30l127 -222zM439 0v620h63v-620h-63zM341 567v63h259v-63h-259z" />
    <glyph glyph-name="uni091E" unicode="&#x91e;" horiz-adv-x="584" 
d="M-25 567v63h426v-63h-426zM204 49q-43 0 -77 21.5t-54 59t-20 84.5h66q0 -43 24 -72.5t61 -29.5v-63zM203 49v63q37 0 61.5 30.5t24.5 76.5h66q0 -48 -20 -86.5t-54 -61t-78 -22.5zM120 332l-64 14q5 40 26 71t53.5 49.5t69.5 18.5v-63q-32 0 -56 -26t-29 -64zM289 219
v106h66v-106h-66zM355 237v60h105v-60h-105zM289 325q0 41 -24.5 69t-61.5 28v63q44 0 78 -21t54 -57t20 -82h-66zM448 0v620h63v-620h-63zM350 567v63h259v-63h-259z" />
    <glyph glyph-name="uni091F" unicode="&#x91f;" horiz-adv-x="460" 
d="M-25 567v63h510v-63h-510zM245 8v60q31 0 50.5 11t31.5 33t21 55l56 -10q-11 -73 -51 -111t-108 -38zM246 8q-90 0 -135.5 47.5t-45.5 132.5h63q0 -37 13 -64t39 -41.5t66 -14.5v-60zM65 187v84h63v-84h-63zM65 270q0 77 40.5 116.5t120.5 53.5v-60q-52 -10 -75 -35.5
t-23 -74.5h-63zM226 380v60l120 20v-60zM283 437v193h63v-193h-63z" />
    <glyph glyph-name="uni0920" unicode="&#x920;" horiz-adv-x="462" 
d="M-25 567v63h512v-63h-512zM214 8v60h22v-60h-22zM44 188v78h63v-78h-63zM343 188v78h63v-78h-63zM214 385v60h22v-60h-22zM235 417v193h63v-193h-63zM406 188q0 -56 -20.5 -96.5t-58.5 -62t-92 -21.5v60q51 0 79.5 32t28.5 88h63zM406 265h-63q0 56 -28.5 88t-79.5 32v60
q54 0 92 -21.5t58.5 -61.5t20.5 -97zM44 188h63q0 -56 28.5 -88t79.5 -32v-60q-53 0 -91.5 21.5t-59 62t-20.5 96.5zM44 265q0 57 20.5 97t59 61.5t91.5 21.5v-60q-51 0 -79.5 -32t-28.5 -88h-63z" />
    <glyph glyph-name="uni0921" unicode="&#x921;" horiz-adv-x="393" 
d="M211 0q-63 0 -106.5 37t-58.5 103l63 15q14 -45 41 -70t61 -25v-60zM-25 567v63h443v-63h-443zM200 0v60q44 0 68 22.5t24 62.5h63q0 -68 -41 -106.5t-114 -38.5zM194 240q-69 0 -107.5 32.5t-38.5 90.5h66q0 -30 23.5 -46.5t66.5 -16.5zM292 145q0 47 -25.5 72t-72.5 23
l10 60q48 0 81.5 -18.5t51.5 -53t18 -83.5h-63zM48 363q0 56 40 88t111 32v-60q-40 0 -62.5 -15.5t-22.5 -44.5h-66zM199 423v60h115v-60h-115zM251 450v165h63v-165h-63z" />
    <glyph glyph-name="uni0922" unicode="&#x922;" horiz-adv-x="432" 
d="M-25 567v63h482v-63h-482zM234 8v60h11v-60h-11zM245 8v60q46 0 71.5 29t25.5 72h57q0 -46 -20 -82.5t-55 -57.5t-79 -21zM299 76l-40 93q0 32 19.5 54t48.5 22q31 0 51.5 -22t20.5 -54q0 -26 -13 -47.5t-35.5 -33.5t-51.5 -12zM236 8q-90 0 -135.5 47.5t-45.5 132.5h63
q0 -37 13 -64t39 -41.5t66 -14.5v-60zM55 187v84h63v-84h-63zM55 270q0 77 40.5 116.5t120.5 53.5v-60q-52 -10 -75 -35.5t-23 -74.5h-63zM216 380v60l120 20v-60zM273 437v193h63v-193h-63z" />
    <glyph glyph-name="uni0923" unicode="&#x923;" horiz-adv-x="578" 
d="M-25 567v63h444v-63h-444zM203 129q-39 0 -70.5 20t-49.5 56t-18 84h66q0 -50 19 -73.5t53 -23.5v-63zM201 129v63q34 0 53 23.5t19 73.5h66q0 -48 -18 -84t-49 -56t-71 -20zM65 289v341h66v-341h-66zM273 289v341h66v-341h-66zM442 0v620h63v-620h-63zM344 567v63h259
v-63h-259z" />
    <glyph glyph-name="uni0924" unicode="&#x924;" horiz-adv-x="484" 
d="M84 219q-33 113 3.5 176t134.5 63h58l14 -60h-58q-35 0 -57.5 -10t-33.5 -30t-10.5 -51t12.5 -73zM149 0l-65 219l63 15l68 -234h-66zM279 398v60h85v-60h-85zM-25 567v63h440v-63h-440zM348 0v620h63v-620h-63zM250 567v63h259v-63h-259z" />
    <glyph glyph-name="uni0925" unicode="&#x925;" horiz-adv-x="565" 
d="M429 0v630h63v-630h-63zM451 567v63h139v-63h-139zM71 260l-10 60q62 5 108 27.5t72 64.5t26 103h60q0 -60 -17.5 -104.5t-50.5 -75.5t-80.5 -49t-107.5 -26zM265 127q-60 1 -108 26.5t-75 69t-27 97.5h63q0 -38 19.5 -68t52.5 -47.5t75 -17.5v-60zM265 127v60
q47 0 84 14.5t58.5 40.5t21.5 58h39q0 -49 -26.5 -88.5t-72.5 -62t-104 -22.5zM267 515q0 41 -16.5 64.5t-45.5 23.5v57q35 0 62.5 -19t43.5 -51.5t16 -74.5h-60zM126 450q-17 32 -23 51t-6 47h60q0 -19 5.5 -37t21.5 -47zM97 548q0 32 14 57.5t38.5 40t55.5 14.5v-57
q-20 0 -34 -16t-14 -39h-60z" />
    <glyph glyph-name="uni0926" unicode="&#x926;" horiz-adv-x="444" 
d="M-25 567v63h494v-63h-494zM236 8q-90 0 -135.5 47.5t-45.5 132.5h63q0 -37 13 -64t39 -41.5t66 -14.5v-60zM55 187v84h63v-84h-63zM55 270q0 77 40.5 116.5t120.5 53.5v-60q-52 -10 -75 -35.5t-23 -74.5h-63zM216 380v60l120 20v-60zM273 437v193h63v-193h-63zM395 172
q12 -43 -12.5 -75.5t-78.5 -46.5l-12 45q27 7 39 23.5t6 38.5zM344 248q41 -35 51 -76l-58 -15q-5 20 -43 46zM344 248l9 -149l-58 -16l-27 103zM341 -89l-70 268l60 18l71 -267zM235 8v60q23 0 42.5 7t46.5 23l10 -60q-27 -16 -49 -23t-50 -7z" />
    <glyph glyph-name="uni0927" unicode="&#x927;" horiz-adv-x="556" 
d="M420 0v630h63v-630h-63zM442 567v63h139v-63h-139zM248 338q-48 -3 -85.5 7t-64 33t-40 57.5t-13.5 79.5h60q0 -34 11 -58.5t32.5 -39.5t52 -19.5t69.5 1.5v-57zM276 77q-50 0 -90 19t-63 51.5t-23 73.5l60 10q0 -41 33.5 -69t82.5 -28v-57zM100 221q0 47 24 86t65.5 64
t93.5 29l12 -54q-38 -6 -69 -23.5t-48.5 -41.5t-17.5 -50zM276 77v57q41 0 73.5 19.5t51.5 52.5t19 75h39q0 -58 -24 -104.5t-65 -73t-94 -26.5zM270 342v57l35 6l7 -57zM105 515h-60q0 42 16 74.5t44 51.5t62 19v-57q-28 0 -45 -23.5t-17 -64.5zM246 450l-58 14
q16 29 21.5 47t5.5 37h60q0 -28 -6 -47t-23 -51zM275 548h-60q0 23 -14 39t-34 16v57q31 0 55.5 -14.5t38.5 -40t14 -57.5z" />
    <glyph glyph-name="uni0928" unicode="&#x928;" horiz-adv-x="463" 
d="M-25 567v63h419v-63h-419zM30 269q0 45 32 70t88 25v-47q-28 0 -44 -12.5t-16 -35.5h-60zM60 183q-30 44 -30 86h60q0 -21 30 -56zM60 183l30 146h60v-106zM147 307v57h217v-57h-217zM327 0v620h63v-620h-63zM229 567v63h259v-63h-259z" />
    <glyph glyph-name="uni092A" unicode="&#x92a;" horiz-adv-x="458" 
d="M217 169q-46 0 -83 25.5t-58 70t-21 99.5h63q0 -58 29.5 -96.5t73.5 -38.5zM217 169l4 60q44 0 72.5 30t28.5 75h48q0 -47 -20 -84.5t-54.5 -59t-78.5 -21.5zM55 363v267h63v-267h-63zM-25 567v63h341v-63h-341zM322 0v620h63v-620h-63zM224 567v63h259v-63h-259z" />
    <glyph glyph-name="uni092B" unicode="&#x92b;" horiz-adv-x="645" 
d="M375 567v63h295v-63h-295zM559 281v4h63v-4h-63zM459 83l-10 61q52 5 81 41.5t29 95.5h63q0 -59 -19.5 -102t-56 -67.5t-87.5 -28.5zM559 285q0 64 -23.5 99.5t-64.5 35.5l4 60q46 0 79 -23t50.5 -66.5t17.5 -105.5h-63zM327 315q0 47 19.5 84.5t53 59t75.5 21.5l-4 -60
q-41 0 -68.5 -30t-27.5 -75h-48zM217 169q-43 0 -77.5 28t-54.5 73.5t-20 98.5h63q1 -36 13 -68t33 -52t47 -20zM217 169l4 60q39 0 65 30t26 75h48q0 -47 -18.5 -84.5t-51 -59t-73.5 -21.5zM65 368v262h63v-262h-63zM-25 567v63h331v-63h-331zM312 0v620h63v-620h-63z
M214 567v63h259v-63h-259z" />
    <glyph glyph-name="uni092C" unicode="&#x92c;" horiz-adv-x="467" 
d="M331 234v72h48v-72h-48zM289 94l-178 319l42 33l178 -319zM-25 567v63h346v-63h-346zM44 264v12h63v-12h-63zM107 275h-63q0 56 22.5 100t61.5 69.5t88 25.5l4 -60q-32 0 -58 -17.5t-40.5 -48t-14.5 -69.5zM379 305h-48q0 45 -32 75t-79 30l-4 60q47 0 83.5 -21.5t58 -59
t21.5 -84.5zM107 265q0 -38 14.5 -69t40.5 -48.5t58 -17.5l-4 -60q-49 0 -88 25.5t-61.5 70t-22.5 99.5h63zM379 235q0 -47 -21.5 -84.5t-58 -59t-83.5 -21.5l4 60q47 0 79 30t32 75h48zM331 0v620h63v-620h-63zM233 567v63h259v-63h-259z" />
    <glyph glyph-name="uni092D" unicode="&#x92d;" horiz-adv-x="512" 
d="M376 0v630h63v-630h-63zM398 567v63h139v-63h-139zM144 311v216h63v-216h-63zM158 189v137h49v-116zM35 567l-19 63q21 8 39.5 12t36.5 4v-63q-13 0 -25 -2.5t-32 -13.5zM144 526q0 29 -14.5 43t-37.5 14v63q50 0 82.5 -32t32.5 -88h-63zM164 277v57h257v-57h-257z
M72 240q0 41 28.5 63.5t79.5 22.5v-43q-26 0 -40 -11.5t-14 -31.5h-54zM99 163q-27 39 -27 77h54q0 -19 27 -50zM99 163l27 131h54v-95z" />
    <glyph glyph-name="uni092E" unicode="&#x92e;" horiz-adv-x="518" 
d="M-25 567v63h364v-63h-364zM121 311v319h63v-319h-63zM136 189v137h49v-116zM142 277v57h257v-57h-257zM50 240q0 41 28.5 63.5t79.5 22.5v-43q-26 0 -40 -11.5t-14 -31.5h-54zM77 163q-27 39 -27 77h54q0 -19 27 -50zM77 163l27 131h54v-95zM382 0v620h63v-620h-63z
M284 567v63h259v-63h-259z" />
    <glyph glyph-name="uni092F" unicode="&#x92f;" horiz-adv-x="555" 
d="M74 246v54q51 0 91.5 19t63.5 52.5t23 74.5h60q0 -57 -31 -102.5t-85 -71.5t-122 -26zM252 446q0 35 -13 62t-36 43t-52 16v40q46 0 82.5 -21t57.5 -57t21 -83h-60zM-25 567v63h517v-63h-517zM265 107q-60 1 -108 26.5t-75 69t-27 97.5h63q0 -38 19.5 -68t52.5 -47.5
t75 -17.5v-60zM265 107v60q44 0 79 19t55 51.5t20 73.5h39q0 -58 -25.5 -104.5t-69 -73t-98.5 -26.5zM84 542l-32 35q19 14 41.5 22t58.5 8v-40q-24 0 -40 -6.5t-28 -18.5zM419 0v620h63v-620h-63zM321 567v63h259v-63h-259z" />
    <glyph glyph-name="uni0930" unicode="&#x930;" horiz-adv-x="315" 
d="M56 268l-29 60q65 0 102 14t50.5 44t6.5 76h63q6 -41 -3 -76t-30 -61.5t-52 -41.5t-70 -15h-38zM179 0l-161 328h69l162 -328h-70zM186 462l-21 138h63l21 -138h-63zM-25 567v63h365v-63h-365z" />
    <glyph glyph-name="uni0931" unicode="&#x931;" horiz-adv-x="345" 
d="M-25 567v63h65v-63h-65zM66 268l-29 60q65 0 102 14t50.5 44t6.5 76h63q6 -41 -3 -76t-30 -61.5t-52 -41.5t-70 -15h-38zM189 0l-161 328h69l162 -328h-70zM196 462l-21 138h63l21 -138h-63zM-15 567v63h365v-63h-365zM31 -9q-22 0 -37 14.5t-15 36.5t15 37.5t37 15.5
t37 -15.5t15 -37.5t-15 -36.5t-37 -14.5z" />
    <glyph glyph-name="uni0932" unicode="&#x932;" horiz-adv-x="593" 
d="M271 299q0 80 49 125.5t137 45.5v-60q-58 0 -90.5 -29t-32.5 -82h-63zM456 410v60h16v-60h-16zM296 -15q-75 0 -129 27t-83 79.5t-29 125.5h63q0 -81 47 -126.5t131 -45.5v-60zM55 217v43h63v-43h-63zM55 259q0 100 38.5 155.5t106.5 55.5v-60q-39 0 -60.5 -40
t-21.5 -111h-63zM271 213v86h63v-86h-63zM271 299q0 53 -18.5 82t-52.5 29v60q63 1 98.5 -44t35.5 -127h-63zM-25 567v63h471v-63h-471zM457 0v620h63v-620h-63zM359 567v63h259v-63h-259z" />
    <glyph glyph-name="uni0933" unicode="&#x933;" horiz-adv-x="706" 
d="M445 417v198h63v-198h-63zM-25 567v63h756v-63h-756zM212 15q-42 0 -75 21.5t-52.5 59t-19.5 84.5h63q0 -45 27.5 -75t67.5 -30zM65 180v105h63v-105h-63zM212 15l11 60q43 0 71 30t28 75h48q0 -47 -20.5 -84.5t-56.5 -59t-81 -21.5zM65 285q0 47 19.5 84.5t52.5 59
t75 21.5l11 -60q-40 0 -67.5 -30t-27.5 -75h-63zM494 15q-45 0 -80.5 21.5t-56.5 59t-21 84.5h48q0 -45 28 -75t71 -30zM322 180v105h62v-105h-62zM322 285q0 45 -28 75t-71 30l-11 60q45 0 81 -21.5t56.5 -59t20.5 -84.5h-48zM494 15l-11 60q41 0 68 30t27 75h63
q0 -47 -19 -84.5t-52.5 -59t-75.5 -21.5zM336 285q0 47 21 84.5t56.5 59t80.5 21.5l-11 -60q-43 0 -71 -30t-28 -75h-48zM578 180v105h63v-105h-63zM578 285q0 45 -27 75t-68 30l11 60q42 0 75.5 -21.5t52.5 -59t19 -84.5h-63z" />
    <glyph glyph-name="uni0935" unicode="&#x935;" horiz-adv-x="467" 
d="M-25 567v63h346v-63h-346zM44 264v12h63v-12h-63zM107 275h-63q0 56 22.5 100t61.5 69.5t88 25.5l4 -60q-32 0 -58 -17.5t-40.5 -48t-14.5 -69.5zM379 305h-48q0 45 -32 75t-79 30l-4 60q47 0 83.5 -21.5t58 -59t21.5 -84.5zM107 265q0 -38 14.5 -69t40.5 -48.5t58 -17.5
l-4 -60q-49 0 -88 25.5t-61.5 70t-22.5 99.5h63zM379 235q0 -47 -21.5 -84.5t-58 -59t-83.5 -21.5l4 60q47 0 79 30t32 75h48zM331 0v620h63v-620h-63zM233 567v63h259v-63h-259z" />
    <glyph glyph-name="uni0936" unicode="&#x936;" horiz-adv-x="597" 
d="M461 0v630h63v-630h-63zM483 567v63h139v-63h-139zM37 211l24 58q47 -18 90.5 -11t78 34.5t54.5 71.5t20 99h60q0 -73 -27 -130t-73.5 -93t-105 -44.5t-121.5 15.5zM211 411q-37 0 -66.5 15.5t-46.5 42t-17 59.5h60q0 -25 20 -42.5t50 -17.5v-57zM211 411v57q11 0 22 2.5
t24 6.5l6 -58q-13 -4 -25.5 -6t-26.5 -2zM81 528q0 34 15.5 60t43 41.5t61.5 15.5v-57q-25 0 -42.5 -17t-17.5 -43h-60zM304 463q0 59 -27 92t-76 33v57q51 0 87.5 -21.5t56 -62.5t19.5 -98h-60zM285 -16l-201 216l47 46l200 -214z" />
    <glyph glyph-name="uni0937" unicode="&#x937;" horiz-adv-x="458" 
d="M297 246l-210 299l38 37l210 -299zM217 169q-46 0 -83 25.5t-58 70t-21 99.5h63q0 -58 29.5 -96.5t73.5 -38.5zM217 169l4 60q44 0 72.5 30t28.5 75h48q0 -47 -20 -84.5t-54.5 -59t-78.5 -21.5zM55 363v267h63v-267h-63zM-25 567v63h341v-63h-341zM322 0v620h63v-620h-63
zM224 567v63h259v-63h-259z" />
    <glyph glyph-name="uni0938" unicode="&#x938;" horiz-adv-x="554" 
d="M275 567v63h152v-63h-152zM95 269v59h334v-59h-334zM51 268l-29 60q65 0 102 14t50.5 44t6.5 76h63q6 -41 -3 -76t-30 -61.5t-52 -41.5t-70 -15h-38zM174 0l-161 328h69l162 -328h-70zM181 462l-21 138h63l21 -138h-63zM-30 567v63h365v-63h-365zM418 0v620h63v-620h-63z
M320 567v63h259v-63h-259z" />
    <glyph glyph-name="uni0939" unicode="&#x939;" horiz-adv-x="445" 
d="M356 -94q-150 0 -220.5 56.5t-70.5 174.5h63q0 -88 55 -129.5t173 -41.5v-60zM-25 567v63h495v-63h-495zM65 136q0 53 22 93.5t60.5 63.5t88.5 23v-57q-46 0 -77 -35t-31 -88h-63zM138 249q-27 26 -44 56.5t-17 59.5h63q0 -20 11.5 -42t31.5 -41zM77 365q0 55 41 90
t103 35v-60q-38 0 -59.5 -17t-21.5 -48h-63zM221 430v60h154v-60h-154zM312 490v140h63v-140h-63zM407 125l-63 1v25h63v-26zM344 151q0 47 -30.5 77.5t-77.5 30.5v57q50 0 88.5 -21t60.5 -58t22 -86h-63z" />
    <glyph glyph-name="uni093A" unicode="&#x93a;" horiz-adv-x="0" 
d="M0 548v212h63v-212h-63z" />
    <glyph glyph-name="uni093B" unicode="&#x93b;" horiz-adv-x="209" 
d="M73 0v620h63v-620h-63zM-25 567v63h259v-63h-259zM73 548v212h63v-212h-63z" />
    <glyph glyph-name="uni093C" unicode="&#x93c;" horiz-adv-x="0" 
d="M52 -153q-22 0 -37 14.5t-15 36.5t15 37.5t37 15.5t37 -15.5t15 -37.5t-15 -36.5t-37 -14.5z" />
    <glyph glyph-name="uni093D" unicode="&#x93d;" horiz-adv-x="446" 
d="M345 163q0 28 -15.5 47t-41 33t-56 26t-61 27t-56 35t-41 49.5t-15.5 71.5h66q0 -30 15.5 -50t41 -34t56 -26t61 -26t56 -33.5t41 -48.5t15.5 -71h-66zM244 567v63h157v-63h-157zM59 450q0 54 23 94.5t65 63t97 22.5v-63q-56 0 -87.5 -30.5t-31.5 -86.5h-66zM411 165
q0 -54 -23 -94.5t-64.5 -63t-97.5 -22.5v63q56 0 87.5 31t31.5 86h66zM96 187q7 -65 41 -102t89 -37v-63q-79 0 -129.5 50t-61.5 139z" />
    <glyph glyph-name="uni093E" unicode="&#x93e;" horiz-adv-x="209" 
d="M73 0v620h63v-620h-63zM-25 567v63h259v-63h-259z" />
    <glyph glyph-name="uni093F" unicode="&#x93f;" 
d="M402 733q-34 65 -80 101t-94 36l-20 60q59 0 106.5 -20t84 -57t61.5 -90zM69 615l-18 88l64 11l20 -99h-66zM51 703q-12 65 4 116.5t56 81t97 29.5l20 -60q-50 0 -77.5 -20t-35.5 -55.5t0 -80.5zM73 0v620h63v-620h-63zM-25 567v63h259v-63h-259z" />
    <glyph glyph-name="uni0940" unicode="&#x940;" horiz-adv-x="209" 
d="M56 703q-9 55 -24.5 92t-35 56t-41.5 19l-10 60q50 0 85.5 -25.5t58 -74t31.5 -116.5zM-164 723q-12 59 -2 106t39 74t72 27l10 -60q-44 0 -58.5 -39.5t-1.5 -98.5zM69 615l-13 88l64 11l15 -99h-66zM73 0v620h63v-620h-63zM-25 567v63h259v-63h-259z" />
    <glyph glyph-name="uni0941" unicode="&#x941;" horiz-adv-x="0" 
d="M258 -139q-64 0 -132.5 36.5t-125.5 101.5l46 43q57 -62 108.5 -91.5t103.5 -29.5v-60zM258 -139v60q32 1 53.5 17.5t21.5 41.5h60q0 -34 -17.5 -61t-48 -42.5t-69.5 -15.5zM223 -11l-52 28q17 35 47 54.5t68 19.5v-60q-18 0 -35 -11t-28 -31zM393 -20h-60q1 23 -12.5 37
t-34.5 14v60q30 0 54.5 -14.5t38.5 -40t14 -56.5z" />
    <glyph glyph-name="uni0942" unicode="&#x942;" horiz-adv-x="0" 
d="M166 78q62 -17 118.5 -69.5t94.5 -130.5l-55 -30q-39 75 -81 117t-93 55zM166 78l-16 -58q-31 8 -56 -3t-31 -34l-58 15q8 33 32 54t58 28.5t71 -2.5zM166 -55l43 -40q-17 -20 -38 -31.5t-44.5 -14t-47.5 3.5l16 58q17 -4 36 2t35 22zM5 -2l58 -15q-7 -22 2.5 -39.5
t29.5 -22.5l-16 -58q-29 8 -49 28.5t-26.5 48.5t1.5 58z" />
    <glyph glyph-name="uni0943" unicode="&#x943;" horiz-adv-x="0" 
d="M0 -60q0 49 35 78t98 31l5 -53q-34 0 -57.5 -16t-23.5 -40h-57zM157 -172q-74 0 -115.5 30t-41.5 82h57q0 -25 28.5 -41.5t71.5 -16.5v-54z" />
    <glyph glyph-name="uni0944" unicode="&#x944;" horiz-adv-x="0" 
d="M7 -119q-4 49 37.5 80.5t120.5 39.5l14 -47q-58 -3 -90 -19.5t-31 -43.5zM200 -200q-87 -7 -138 14.5t-55 66.5l51 10q2 -28 37 -40.5t96 -5.5zM177 -40q-71 -20 -117 -6.5t-57 56.5l55 15q8 -21 36 -26.5t71 4.5zM3 10q-11 46 21 82t100 55l12 -48q-44 -11 -64.5 -30.5
t-13.5 -43.5z" />
    <glyph glyph-name="uni0945" unicode="&#x945;" horiz-adv-x="0" 
d="M184 701v54q41 0 75 18.5t55 50.5l54 -26q-32 -46 -81 -71.5t-103 -25.5zM184 701q-54 0 -103 25.5t-81 71.5l54 26q21 -32 55.5 -50.5t74.5 -18.5v-54z" />
    <glyph glyph-name="uni0946" unicode="&#x946;" horiz-adv-x="0" 
d="M182 630q8 38 -7 60t-56 30l10 60q47 -9 74.5 -28.5t38 -49.5t3.5 -72h-63zM119 720q-46 10 -74 29t-38 49t-4 72h63q-8 -38 7.5 -60t55.5 -30z" />
    <glyph glyph-name="uni0947" unicode="&#x947;" horiz-adv-x="0" 
d="M240 630l-93 141l45 41l119 -182h-71zM147 771q-25 38 -53.5 46t-65.5 -15l-28 51q61 34 109.5 23t82.5 -64z" />
    <glyph glyph-name="uni0948" unicode="&#x948;" horiz-adv-x="0" 
d="M281 630l-125 101l22 47l184 -148h-81zM45 719l-45 31q24 34 53.5 48.5t61.5 9.5t63 -30l-22 -47q-30 25 -59 22t-52 -34zM297 630l-73 174l54 24l84 -198h-65zM224 804q-14 35 -40.5 48t-58.5 2l-15 64q37 9 69.5 1.5t57.5 -30.5t41 -61z" />
    <glyph glyph-name="uni0949" unicode="&#x949;" horiz-adv-x="209" 
d="M73 0v620h63v-620h-63zM-25 567v63h259v-63h-259zM39 691v54q41 0 75 18.5t55 50.5l54 -26q-32 -46 -81 -71.5t-103 -25.5zM39 691q-54 0 -103 25.5t-81 71.5l54 26q21 -32 55.5 -50.5t74.5 -18.5v-54z" />
    <glyph glyph-name="uni094A" unicode="&#x94a;" horiz-adv-x="209" 
d="M73 0v620h63v-620h-63zM-25 567v63h259v-63h-259zM82 630q8 38 -7 60t-56 30l10 60q47 -9 74.5 -28.5t38 -49.5t3.5 -72h-63zM19 720q-46 10 -74 29t-38 49t-4 72h63q-8 -38 7.5 -60t55.5 -30z" />
    <glyph glyph-name="uni094B" unicode="&#x94b;" horiz-adv-x="209" 
d="M73 0v620h63v-620h-63zM-25 567v63h259v-63h-259zM59 630l-93 141l45 41l119 -182h-71zM-34 771q-25 38 -53.5 46t-65.5 -15l-28 51q61 34 109.5 23t82.5 -64z" />
    <glyph glyph-name="uni094C" unicode="&#x94c;" horiz-adv-x="209" 
d="M73 0v620h63v-620h-63zM-25 567v63h259v-63h-259zM55 630l-125 101l22 47l184 -148h-81zM-181 719l-45 31q24 34 53.5 48.5t61.5 9.5t63 -30l-22 -47q-30 25 -59 22t-52 -34zM71 630l-73 174l54 24l84 -198h-65zM-2 804q-14 35 -40.5 48t-58.5 2l-15 64q37 9 69.5 1.5
t57.5 -30.5t41 -61z" />
    <glyph glyph-name="uni094D" unicode="&#x94d;" horiz-adv-x="0" 
d="M67 -166l-67 115l57 33l66 -115z" />
    <glyph glyph-name="uni094F" unicode="&#x94f;" horiz-adv-x="209" 
d="M58 624q18 35 8.5 60t-46.5 44l25 55q43 -21 65 -47t24 -57.5t-15 -70.5zM20 728q-42 21 -64 46.5t-24 57.5t15 71l61 -17q-18 -35 -9 -60t46 -43zM60 603q-6 39 -28 54t-63 8l-12 59q47 8 79.5 0t53 -32.5t29.5 -65.5zM-31 665q-47 -8 -79.5 0t-53 32.5t-29.5 65.5
l59 23q6 -39 28 -53.5t63 -8.5zM73 0v620h63v-620h-63zM-25 567v63h259v-63h-259z" />
    <glyph glyph-name="uni0950" unicode="&#x950;" horiz-adv-x="784" 
d="M395 141v57q22 0 31 13.5t9 37.5h66q0 -47 -29 -77.5t-77 -30.5zM395 141q-29 0 -51 11.5t-33.5 33t-11.5 51.5h45q5 -19 17.5 -29t33.5 -10v-57zM597 55q-32 0 -64.5 15t-50.5 36l48 44q13 -15 30.5 -23.5t36.5 -8.5v-63zM435 249v126h66v-126h-66zM693 225v150h66v-150
h-66zM281 495q0 38 -26 62.5t-65 24.5v63q45 0 80.5 -19.5t56 -53.5t20.5 -77h-66zM96 492l-64 14q5 40 27.5 71t57 49.5t74.5 18.5v-63q-37 0 -64 -26t-31 -64zM759 375h-66q0 46 -27.5 76.5t-68.5 30.5v63q47 0 83.5 -22.5t57.5 -60.5t21 -87zM435 375q0 49 21 87t58 60.5
t83 22.5v-63q-41 0 -68.5 -30.5t-27.5 -76.5h-66zM759 225q0 -48 -21 -86.5t-57.5 -61t-83.5 -22.5v63q41 0 68.5 30.5t27.5 76.5h66zM284 206q0 52 -30.5 86t-77.5 34v60q49 0 87.5 -23.5t61 -64t22.5 -92.5h-63zM186 27q-76 0 -118.5 47.5t-42.5 132.5h63q0 -56 26 -88
t72 -32v-60zM186 27v60q47 0 72.5 32t25.5 88h63q0 -56 -19 -96.5t-55 -62t-87 -21.5zM135 326v63h51v-63h-51zM185 326v63q41 0 68.5 30.5t27.5 76.5h66q0 -48 -21.5 -86.5t-58 -61t-82.5 -22.5zM483 601v61q45 0 83.5 20.5t61.5 56.5l61 -29q-36 -52 -91 -80.5t-115 -28.5
zM483 601q-61 0 -115.5 28.5t-90.5 80.5l60 29q24 -36 62.5 -56.5t83.5 -20.5v-61zM483 726q-25 0 -41.5 16.5t-16.5 40.5q0 26 16.5 43t41.5 17q24 0 41 -17t17 -43q0 -24 -17 -40.5t-41 -16.5z" />
    <glyph glyph-name="uni0952" unicode="&#x952;" horiz-adv-x="0" 
d="M30 -101v51h340v-51h-340z" />
    <glyph glyph-name="uni0953" unicode="&#x953;" horiz-adv-x="0" 
d="M147 557l-77 128h78l65 -128h-66z" />
    <glyph glyph-name="uni0954" unicode="&#x954;" horiz-adv-x="0" 
d="M136 557h-66l65 128h78z" />
    <glyph glyph-name="uni0956" unicode="&#x956;" horiz-adv-x="0" 
d="M179 -143v52q36 0 80 8.5t85 24.5l14 -52q-46 -16 -93.5 -24.5t-85.5 -8.5zM179 -143q-38 0 -85.5 8.5t-93.5 24.5l14 52q41 -16 85 -24.5t80 -8.5v-52z" />
    <glyph glyph-name="uni0957" unicode="&#x957;" horiz-adv-x="0" 
d="M179 -143v52q36 0 80 8.5t85 24.5l14 -52q-46 -16 -93.5 -24.5t-85.5 -8.5zM179 -143q-38 0 -85.5 8.5t-93.5 24.5l14 52q41 -16 85 -24.5t80 -8.5v-52zM179 -233v52q36 0 80 8.5t85 24.5l14 -52q-46 -16 -93.5 -24.5t-85.5 -8.5zM179 -233q-38 0 -85.5 8.5t-93.5 24.5
l14 52q41 -16 85 -24.5t80 -8.5v-52z" />
    <glyph glyph-name="uni0958" unicode="&#x958;" horiz-adv-x="623" 
d="M386 567v63h262v-63h-262zM-25 567v63h306v-63h-306zM44 264v12h63v-12h-63zM291 234v72h48v-72h-48zM107 275h-63q0 62 17.5 105.5t50.5 66.5t79 23l4 -60q-41 0 -64.5 -35.5t-23.5 -99.5zM339 305h-48q0 45 -27.5 75t-68.5 30l-4 60q43 0 76 -21.5t52.5 -59t19.5 -84.5
zM107 265q0 -64 23.5 -99.5t64.5 -35.5l-4 -60q-46 0 -79 23t-50.5 67t-17.5 105h63zM339 235q0 -47 -19.5 -84.5t-52.5 -59t-76 -21.5l4 60q41 0 68.5 30t27.5 75h48zM538 275q0 64 -23.5 99.5t-64.5 35.5l4 60q46 0 79 -23t50.5 -66.5t17.5 -105.5h-63zM306 305
q0 47 19.5 84.5t53 59t75.5 21.5l-4 -60q-41 0 -68.5 -30t-27.5 -75h-48zM538 271v4h63v-4h-63zM438 73l-10 61q52 5 81 41.5t29 95.5h63q0 -59 -19.5 -102t-56 -67.5t-87.5 -28.5zM291 0v620h63v-620h-63zM193 567v63h259v-63h-259zM26 -5q-22 0 -37 14.5t-15 36.5t15 37.5
t37 15.5t37 -15.5t15 -37.5t-15 -36.5t-37 -14.5z" />
    <glyph glyph-name="uni0959" unicode="&#x959;" horiz-adv-x="687" 
d="M304 -15q-63 0 -106 38.5t-79 119.5h69q15 -33 31.5 -55t37 -32.5t47.5 -10.5v-60zM119 143l-75 163h70l74 -163h-69zM304 -15v60q36 0 65.5 29t56.5 79l54 -35q-27 -42 -55 -71.5t-58 -45.5t-63 -16zM461 111q-42 0 -75 24t-52.5 66t-19.5 95h63q0 -35 11.5 -63.5
t31.5 -45t45 -16.5zM461 111l4 60q25 0 44 14t30.5 37.5t11.5 53.5h48q0 -47 -18 -84.5t-49 -59t-71 -21.5zM314 295q0 53 19.5 95t52.5 66t75 24l4 -60q-25 0 -45 -16.5t-31.5 -44.5t-11.5 -64h-63zM-25 567v63h585v-63h-585zM551 315q0 30 -11.5 53.5t-30.5 37.5t-44 14
l-4 60q40 0 71 -21.5t49 -59t18 -84.5h-48zM62 268l-29 60q65 0 105.5 14t57.5 44t10 76h63q6 -41 -3 -76t-30 -61.5t-52 -41.5t-70 -15h-52zM206 462l-21 138h63l21 -138h-63zM551 0v620h63v-620h-63zM453 567v63h259v-63h-259zM57 -31q-22 0 -37 14.5t-15 36.5t15 37.5
t37 15.5t37 -15.5t15 -37.5t-15 -36.5t-37 -14.5z" />
    <glyph glyph-name="uni095A" unicode="&#x95a;" horiz-adv-x="501" 
d="M-25 567v63h332v-63h-332zM141 301v329h63v-329h-63zM109 182v60q23 0 35.5 16t12.5 44h47q0 -56 -25 -88t-70 -32zM23 212l30 60q35 -30 56 -30v-60q-42 0 -86 30zM23 212l40 90h106v-60zM365 0v620h63v-620h-63zM267 567v63h259v-63h-259zM123 6q-22 0 -37 14.5
t-15 36.5t15 37.5t37 15.5t37 -15.5t15 -37.5t-15 -36.5t-37 -14.5z" />
    <glyph glyph-name="uni095B" unicode="&#x95b;" horiz-adv-x="582" 
d="M194 55v60q53 0 76.5 43.5t13.5 121.5h63q9 -64 -8 -115t-54.5 -80.5t-90.5 -29.5zM195 55q-42 0 -76 23.5t-53.5 64.5t-19.5 92h63q0 -56 23 -88t63 -32v-60zM46 234v77l63 10v-87h-63zM284 280q-4 30 -16.5 53t-30 36.5t-37.5 13.5v49q38 0 68 -16.5t51 -50t28 -85.5
h-63zM200 383v60h257v-60h-257zM-25 567v63h481v-63h-481zM446 0v620h63v-620h-63zM348 567v63h259v-63h-259zM102 -90q-22 0 -37 14.5t-15 36.5t15 37.5t37 15.5t37 -15.5t15 -37.5t-15 -36.5t-37 -14.5z" />
    <glyph glyph-name="uni095C" unicode="&#x95c;" horiz-adv-x="393" 
d="M211 0q-63 0 -106.5 37t-58.5 103l63 15q14 -45 41 -70t61 -25v-60zM-25 567v63h443v-63h-443zM200 0v60q44 0 68 22.5t24 62.5h63q0 -68 -41 -106.5t-114 -38.5zM194 240q-69 0 -107.5 32.5t-38.5 90.5h66q0 -30 23.5 -46.5t66.5 -16.5zM292 145q0 47 -25.5 72t-72.5 23
l10 60q48 0 81.5 -18.5t51.5 -53t18 -83.5h-63zM48 363q0 56 40 88t111 32v-60q-40 0 -62.5 -15.5t-22.5 -44.5h-66zM199 423v60h115v-60h-115zM251 450v165h63v-165h-63zM206 -134q-22 0 -37 14.5t-15 36.5t15 37.5t37 15.5t37 -15.5t15 -37.5t-15 -36.5t-37 -14.5z" />
    <glyph glyph-name="uni095D" unicode="&#x95d;" horiz-adv-x="432" 
d="M-25 567v63h482v-63h-482zM234 8v60h11v-60h-11zM245 8v60q46 0 71.5 29t25.5 72h57q0 -46 -20 -82.5t-55 -57.5t-79 -21zM299 76l-40 93q0 32 19.5 54t48.5 22q31 0 51.5 -22t20.5 -54q0 -26 -13 -47.5t-35.5 -33.5t-51.5 -12zM236 8q-90 0 -135.5 47.5t-45.5 132.5h63
q0 -37 13 -64t39 -41.5t66 -14.5v-60zM55 187v84h63v-84h-63zM55 270q0 77 40.5 116.5t120.5 53.5v-60q-52 -10 -75 -35.5t-23 -74.5h-63zM216 380v60l120 20v-60zM273 437v193h63v-193h-63zM241 -131q-22 0 -37 14.5t-15 36.5t15 37.5t37 15.5t37 -15.5t15 -37.5t-15 -36.5
t-37 -14.5z" />
    <glyph glyph-name="uni095E" unicode="&#x95e;" horiz-adv-x="645" 
d="M375 567v63h295v-63h-295zM559 281v4h63v-4h-63zM459 83l-10 61q52 5 81 41.5t29 95.5h63q0 -59 -19.5 -102t-56 -67.5t-87.5 -28.5zM559 285q0 64 -23.5 99.5t-64.5 35.5l4 60q46 0 79 -23t50.5 -66.5t17.5 -105.5h-63zM327 315q0 47 19.5 84.5t53 59t75.5 21.5l-4 -60
q-41 0 -68.5 -30t-27.5 -75h-48zM217 169q-43 0 -77.5 28t-54.5 73.5t-20 98.5h63q1 -36 13 -68t33 -52t47 -20zM217 169l4 60q39 0 65 30t26 75h48q0 -47 -18.5 -84.5t-51 -59t-73.5 -21.5zM65 368v262h63v-262h-63zM-25 567v63h331v-63h-331zM312 0v620h63v-620h-63z
M214 567v63h259v-63h-259zM52 67q-22 0 -37 14.5t-15 36.5t15 37.5t37 15.5t37 -15.5t15 -37.5t-15 -36.5t-37 -14.5z" />
    <glyph glyph-name="uni095F" unicode="&#x95f;" horiz-adv-x="555" 
d="M74 246v54q51 0 91.5 19t63.5 52.5t23 74.5h60q0 -57 -31 -102.5t-85 -71.5t-122 -26zM252 446q0 35 -13 62t-36 43t-52 16v40q46 0 82.5 -21t57.5 -57t21 -83h-60zM-25 567v63h517v-63h-517zM265 107q-60 1 -108 26.5t-75 69t-27 97.5h63q0 -38 19.5 -68t52.5 -47.5
t75 -17.5v-60zM265 107v60q44 0 79 19t55 51.5t20 73.5h39q0 -58 -25.5 -104.5t-69 -73t-98.5 -26.5zM84 542l-32 35q19 14 41.5 22t58.5 8v-40q-24 0 -40 -6.5t-28 -18.5zM419 0v620h63v-620h-63zM321 567v63h259v-63h-259zM67 4q-22 0 -37 14.5t-15 36.5t15 37.5t37 15.5
t37 -15.5t15 -37.5t-15 -36.5t-37 -14.5z" />
    <glyph glyph-name="uni0960" unicode="&#x960;" horiz-adv-x="823" 
d="M708 -84q-61 -10 -100 13.5t-50 75.5l60 11q5 -28 26 -40.5t55 -7.5zM558 5q-10 56 25.5 94.5t108.5 51.5l17 -56q-47 -9 -71 -29.5t-20 -49.5zM709 95q-74 -13 -124.5 8t-58.5 68l64 12q5 -21 37 -29.5t78 0.5zM708 -84l-9 52q33 8 48.5 29t9.5 52l60 11q9 -58 -20 -96
t-89 -48zM526 171q-9 48 31 85.5t114 50.5l16 -51q-46 -8 -73.5 -29t-23.5 -44zM687 256q-102 0 -159 43.5t-57 120.5h60q0 -34 18.5 -59t53.5 -38t84 -13v-54zM471 420q0 37 15.5 65t43.5 44t63 16v-57q-18 0 -32 -8.5t-22 -24t-8 -35.5h-60zM643 448q0 17 -14 28.5
t-36 11.5v57q32 0 57 -12.5t39 -34t14 -50.5h-60zM436 567v63h412v-63h-412zM611 354l-27 54q28 1 43.5 11.5t15.5 28.5h60q1 -25 -10 -44.5t-31.5 -32t-50.5 -17.5zM345 212v91l150 131v-89zM123 0l-46 47l255 257v-94zM215 351q-41 50 -78.5 51.5t-85.5 -26.5l-28 58
q45 25 83 32.5t75 -9t77 -64.5zM332 210l-117 141l43 42l117 -140zM-25 567v63h321v-63h-321zM325 0v620h63v-620h-63zM227 567v63h259v-63h-259z" />
    <glyph glyph-name="uni0961" unicode="&#x961;" horiz-adv-x="589" 
d="M454 103v482h63v-462zM197 567v63h417v-63h-417zM271 299q0 80 49 125.5t137 45.5v-60q-58 0 -90.5 -29t-32.5 -82h-63zM456 410v60h16v-60h-16zM296 -15q-75 0 -129 27t-83 79.5t-29 125.5h63q0 -81 47 -126.5t131 -45.5v-60zM55 217v43h63v-43h-63zM55 259
q0 100 38.5 155.5t106.5 55.5v-60q-39 0 -60.5 -40t-21.5 -111h-63zM271 213v86h63v-86h-63zM271 299q0 53 -18.5 82t-52.5 29v60q63 1 98.5 -44t35.5 -127h-63zM-25 567v63h471v-63h-471zM454 171v299h63v-299h-63zM388 -95q-4 49 37.5 80.5t120.5 39.5l14 -47
q-58 -3 -90 -19.5t-31 -43.5zM581 -176q-87 -7 -138 14.5t-55 66.5l51 10q2 -28 37 -40.5t96 -5.5zM558 -16q-71 -20 -117 -6.5t-57 56.5l55 15q8 -21 36 -26.5t71 4.5zM384 34q-11 46 21 82t100 55l12 -48q-44 -11 -64.5 -30.5t-13.5 -43.5z" />
    <glyph glyph-name="uni0962" unicode="&#x962;" horiz-adv-x="0" 
d="M190 -146q-54 0 -97 23t-68 62.5t-25 89.5h63q0 -49 36 -82t91 -33v-60zM0 29q0 56 33 93.5t82 37.5v-60q-22 0 -37 -20t-15 -51h-63zM171 9q0 39 -16 65t-40 26v60q34 0 61 -19.5t42.5 -53.5t15.5 -78h-63zM171 9q0 43 15.5 77t42.5 54t61 20l-4 -60q-22 0 -37 -26
t-15 -65h-63zM345 56q-10 27 -28.5 35.5t-30.5 8.5l4 60q16 0 32.5 -5.5t33.5 -18.5t33 -36zM301 6q0 49 35 78t98 31l5 -53q-34 0 -57.5 -16t-23.5 -40h-57zM458 -106q-74 0 -115.5 30t-41.5 82h57q0 -25 28.5 -41.5t71.5 -16.5v-54z" />
    <glyph glyph-name="uni0963" unicode="&#x963;" horiz-adv-x="0" 
d="M190 -146q-54 0 -97 23t-68 62.5t-25 89.5h63q0 -49 36 -82t91 -33v-60zM0 29q0 56 33 93.5t82 37.5v-60q-22 0 -37 -20t-15 -51h-63zM171 9q0 39 -16 65t-40 26v60q34 0 61 -19.5t42.5 -53.5t15.5 -78h-63zM171 9q0 43 15.5 77t42.5 54t61 20l-4 -60q-22 0 -37 -26
t-15 -65h-63zM345 56q-10 27 -28.5 35.5t-30.5 8.5l4 60q16 0 32.5 -5.5t33.5 -18.5t33 -36zM333 -155q-12 47 24 84.5t113 58.5l21 -44q-57 -13 -86 -34t-24 -48zM536 -205q-85 -21 -139 -7.5t-64 57.5l48 17q6 -27 42.5 -34t96.5 10zM488 -51q-67 -31 -114.5 -25t-65.5 47
l52 24q11 -20 40 -21t69 16zM308 -29q-18 44 8 84.5t90 70.5l20 -46q-42 -18 -59.5 -40.5t-6.5 -44.5z" />
    <glyph glyph-name="uni0964" unicode="&#x964;" horiz-adv-x="306" 
d="M180 -30v700h66v-700h-66z" />
    <glyph glyph-name="uni0965" unicode="&#x965;" horiz-adv-x="492" 
d="M366 -30v700h66v-700h-66zM180 -30v700h66v-700h-66z" />
    <glyph glyph-name="uni0966" unicode="&#x966;" horiz-adv-x="392" 
d="M304 225v180h63v-180h-63zM25 225v180h63v-180h-63zM25 405q0 57 20.5 97t59 61.5t91.5 21.5v-60q-51 0 -79.5 -32t-28.5 -88h-63zM367 405h-63q0 56 -28.5 88t-79.5 32v60q54 0 92 -21.5t58.5 -61.5t20.5 -97zM25 225h63q0 -56 28.5 -88t79.5 -32v-60q-53 0 -91.5 21.5
t-59 62t-20.5 96.5zM367 225q0 -56 -20.5 -96.5t-58.5 -62t-92 -21.5v60q51 0 79.5 32t28.5 88h63z" />
    <glyph glyph-name="uni0967" unicode="&#x967;" horiz-adv-x="282" 
d="M150 159q0 57 7.5 116t15 121t7.5 129h60q0 -67 -7.5 -129t-15 -121t-7.5 -116h-60zM110 399q-52 8 -81 42t-29 83h60q0 -29 17.5 -46t42.5 -22zM225 0q-37 31 -56 70.5t-19 88.5h60q0 -34 11.5 -61.5t35.5 -49.5zM0 524q0 33 15.5 61.5t43 46t61.5 17.5v-57
q-25 0 -42.5 -19.5t-17.5 -48.5h-60zM180 524q0 32 -15.5 50t-44.5 18v57q56 0 88 -33t32 -92h-60z" />
    <glyph glyph-name="uni0968" unicode="&#x968;" horiz-adv-x="378" 
d="M64 519l-29 51q29 29 65 44.5t72 15.5v-60q-27 0 -55.5 -13.5t-52.5 -37.5zM293 412q0 50 -14.5 85t-41.5 54t-65 19v60q57 0 97.5 -26t62 -74.5t21.5 -117.5h-60zM55 191l23 56q63 -29 111.5 -13t76 64t27.5 115h60q0 -67 -22.5 -120t-63 -85.5t-95 -38.5t-117.5 22z
M236 -19l-135 227l55 35l135 -224zM43 203l51 30q12 -19 32 -22t44 11l24 -41q-49 -28 -89 -22.5t-62 44.5zM25 293l67 4q-8 -45 2 -64l-51 -30q-21 37 -18 90zM25 293l98 10l53 -92l-52 -30z" />
    <glyph glyph-name="uni0969" unicode="&#x969;" horiz-adv-x="372" 
d="M272 475q0 46 -27.5 76.5t-68.5 30.5v63q47 0 83.5 -22.5t57.5 -60.5t21 -87h-66zM192 32v60q40 0 66 27t26 67h63q0 -44 -20 -79t-55 -55t-80 -20zM135 305l10 63h31v-63h-41zM88 480l-63 10q0 45 20 80t54 55t77 20v-63q-37 0 -62.5 -29t-25.5 -73zM347 185h-63
q0 56 -28.5 88t-79.5 32v60q54 0 92 -21.5t58.5 -61.5t20.5 -97zM338 475q0 -48 -21 -86.5t-57.5 -61t-83.5 -22.5v63q41 0 68.5 30.5t27.5 76.5h66zM193 32q-28 0 -50 7t-49 23l10 60q27 -16 47 -23t42 -7v-60zM176 -86l-126 224l54 30l127 -222zM26 140h60q0 -22 16 -35
t44 -13v-47q-56 0 -88 25t-32 70zM56 226l60 -30q-30 -35 -30 -56h-60q0 42 30 86zM56 226l90 -40v-106h-60z" />
    <glyph glyph-name="uni096A" unicode="&#x96a;" horiz-adv-x="392" 
d="M196 289v60q51 0 79.5 32t28.5 88h63q0 -56 -20.5 -96.5t-58.5 -62t-92 -21.5zM196 0q-46 0 -82.5 23t-57.5 62.5t-21 89.5h63q0 -49 28 -82t70 -33v-60zM196 0v60q42 0 70 33t28 82h63q0 -50 -21 -89.5t-57.5 -62.5t-82.5 -23zM35 174q0 50 21 89.5t57.5 62.5t82.5 23
v-60q-42 0 -70 -32.5t-28 -82.5h-63zM196 289q-53 0 -91.5 21.5t-59 62t-20.5 96.5h63q0 -56 28.5 -88t79.5 -32v-60zM294 174q0 50 -28 82.5t-70 32.5v60q46 0 82.5 -23t57.5 -62.5t21 -89.5h-63zM25 467q0 23 5 54t15 61t24 48l57 -19q-12 -20 -20.5 -47.5t-13 -54
t-4.5 -42.5h-63zM304 467q0 16 -4.5 42.5t-13 54t-20.5 47.5l57 19q14 -18 24 -48t15 -61t5 -54h-63z" />
    <glyph glyph-name="uni096B" unicode="&#x96b;" horiz-adv-x="359" 
d="M25 499v131h63v-131h-63zM271 205v425h63v-425h-63zM191 32v60q25 0 43 13.5t27.5 39t9.5 61.5h63q1 -82 -37 -128t-106 -46zM88 500q0 -64 23.5 -99.5t64.5 -35.5l-4 -60q-46 0 -79 23t-50.5 67t-17.5 105h63zM320 470q0 -47 -19.5 -84.5t-52.5 -59t-76 -21.5l4 60
q41 0 68.5 30t27.5 75h48zM25 140h60q0 -22 16 -35t44 -13v-47q-56 0 -88 25t-32 70zM55 226l60 -30q-30 -35 -30 -56h-60q0 42 30 86zM55 226l90 -40v-106h-60zM192 32q-28 0 -50 7t-49 23l10 60q27 -16 47 -23t42 -7v-60zM175 -86l-126 224l54 30l127 -222z" />
    <glyph glyph-name="uni096C" unicode="&#x96c;" horiz-adv-x="382" 
d="M190 22q-47 0 -84.5 20t-59 55t-21.5 79h63q0 -40 29.5 -67t72.5 -27v-60zM196 305q-46 0 -83 22.5t-58 61t-21 86.5h66q0 -46 27.5 -76.5t68.5 -30.5v-63zM25 175v10h63v-10h-63zM196 305v63h31l10 -63h-41zM284 480q0 44 -25 73t-63 29v63q43 0 77 -20t54 -55t20 -80z
M25 185q0 57 20.5 97t59 61.5t91.5 21.5v-60q-51 0 -79.5 -32t-28.5 -88h-63zM34 475q0 49 21 87t58 60.5t83 22.5v-63q-41 0 -68.5 -30.5t-27.5 -76.5h-66zM296 -75l-70 268l60 18l71 -267zM190 22v60q23 0 42.5 7t46.5 23l10 -60q-27 -16 -49 -23t-50 -7zM350 186
q12 -43 -12.5 -75.5t-78.5 -46.5l-12 45q27 7 39 23.5t6 38.5zM299 262q41 -35 51 -76l-58 -15q-5 20 -43 46zM299 262l9 -149l-58 -16l-27 103z" />
    <glyph glyph-name="uni096D" unicode="&#x96d;" horiz-adv-x="424" 
d="M223 18q-56 0 -100.5 40t-70.5 109.5t-27 157.5h66q0 -52 10 -96.5t28 -77.5t42 -51.5t52 -18.5v-63zM223 18v63q23 0 44 15.5t37 43.5t25.5 66t9.5 82h60q0 -77 -24 -138t-64 -96.5t-88 -35.5zM25 325q0 51 8.5 99t26.5 94.5t44 91.5l64 -24q-40 -64 -58.5 -128.5
t-18.5 -132.5h-66zM339 287q0 41 -16.5 64.5t-45.5 23.5v57q35 0 62.5 -19t43.5 -51.5t16 -74.5h-60zM198 222q-17 32 -23 51t-6 47h60q0 -19 5.5 -37t21.5 -47zM169 320q0 32 14 57.5t38.5 40t55.5 14.5v-57q-20 0 -34 -16t-14 -39h-60z" />
    <glyph glyph-name="uni096E" unicode="&#x96e;" horiz-adv-x="387" 
d="M116 250l-62 14l163 360l63 -15zM214 18q-83 0 -131 31.5t-56.5 87t27.5 127.5l62 -14q-26 -54 -23.5 -92.5t33.5 -59t88 -20.5v-60zM214 18v60q23 0 48 2.5t50.5 7t49.5 10.5v-60q-22 -6 -48.5 -10.5t-52.5 -7t-47 -2.5z" />
    <glyph glyph-name="uni096F" unicode="&#x96f;" horiz-adv-x="340" 
d="M252 159q0 30 -23 55.5t-56.5 52t-67.5 58t-57 72.5t-23 96h63q0 -39 16.5 -69t42 -55t55 -47.5t55 -46.5t42 -52t16.5 -64h-63zM247 0l-47 47q8 9 20.5 27.5t22 41t9.5 43.5h63q0 -29 -11 -60t-26.5 -57t-30.5 -42zM25 493q0 45 18 79t50.5 53.5t74.5 19.5v-60
q-37 0 -58.5 -24t-21.5 -68h-63zM184 392l-16 59q32 0 49.5 18t17.5 49h63q0 -33 -14.5 -60t-40 -44.5t-59.5 -21.5zM235 518q0 32 -17.5 49.5t-49.5 17.5v60q38 0 67.5 -16.5t46 -45t16.5 -65.5h-63z" />
    <glyph glyph-name="uni0970" unicode="&#x970;" horiz-adv-x="366" 
d="M182 192v65q41 0 67.5 26.5t26.5 67.5h65q0 -45 -21 -81t-57 -57t-81 -21zM182 192q-45 0 -80.5 21t-56 57t-20.5 81h65q0 -41 26.5 -67.5t65.5 -26.5v-65zM25 351q0 45 20.5 80.5t56 56t80.5 20.5v-65q-39 0 -65.5 -26.5t-26.5 -65.5h-65zM276 351q0 39 -26.5 65.5
t-67.5 26.5v65q45 0 81 -20.5t57 -56t21 -80.5h-65z" />
    <glyph glyph-name="uni0972" unicode="&#x972;" horiz-adv-x="569" 
d="M281 483q0 42 -26 70t-65 28v63q45 0 80.5 -21t56 -57.5t20.5 -82.5h-66zM96 491l-64 14q5 40 27.5 71t57 49.5t74.5 18.5v-63q-37 0 -64 -26t-31 -64zM274 264v60h216v-60h-216zM284 194q0 52 -30.5 86t-77.5 34v60q49 0 87.5 -23.5t61 -64t22.5 -92.5h-63zM186 15
q-76 0 -118.5 47.5t-42.5 132.5h63q0 -56 26 -88t72 -32v-60zM186 15v60q47 0 72.5 32t25.5 88h63q0 -56 -19 -96.5t-55 -62t-87 -21.5zM135 314v63h51v-63h-51zM185 314v63q41 0 68.5 30.5t27.5 76.5h66q0 -48 -21.5 -86.5t-58 -61t-82.5 -22.5zM433 0v630h63v-630h-63z
M455 567v63h139v-63h-139zM439 691v54q41 0 75 18.5t55 50.5l54 -26q-32 -46 -81 -71.5t-103 -25.5zM439 691q-54 0 -103 25.5t-81 71.5l54 26q21 -32 55.5 -50.5t74.5 -18.5v-54z" />
    <glyph glyph-name="uni0973" unicode="&#x973;" horiz-adv-x="569" 
d="M433 548v212h63v-212h-63zM281 483q0 42 -26 70t-65 28v63q45 0 80.5 -21t56 -57.5t20.5 -82.5h-66zM96 491l-64 14q5 40 27.5 71t57 49.5t74.5 18.5v-63q-37 0 -64 -26t-31 -64zM274 264v60h216v-60h-216zM284 194q0 52 -30.5 86t-77.5 34v60q49 0 87.5 -23.5t61 -64
t22.5 -92.5h-63zM186 15q-76 0 -118.5 47.5t-42.5 132.5h63q0 -56 26 -88t72 -32v-60zM186 15v60q47 0 72.5 32t25.5 88h63q0 -56 -19 -96.5t-55 -62t-87 -21.5zM135 314v63h51v-63h-51zM185 314v63q41 0 68.5 30.5t27.5 76.5h66q0 -48 -21.5 -86.5t-58 -61t-82.5 -22.5z
M433 0v630h63v-630h-63zM455 567v63h139v-63h-139z" />
    <glyph glyph-name="uni0974" unicode="&#x974;" horiz-adv-x="778" 
d="M642 548v212h62v-212h-62zM281 483q0 42 -26 70t-65 28v63q45 0 80.5 -21t56 -57.5t20.5 -82.5h-66zM96 491l-64 14q5 40 27.5 71t57 49.5t74.5 18.5v-63q-37 0 -64 -26t-31 -64zM274 264v60h216v-60h-216zM284 194q0 52 -30.5 86t-77.5 34v60q49 0 87.5 -23.5t61 -64
t22.5 -92.5h-63zM186 15q-76 0 -118.5 47.5t-42.5 132.5h63q0 -56 26 -88t72 -32v-60zM186 15v60q47 0 72.5 32t25.5 88h63q0 -56 -19 -96.5t-55 -62t-87 -21.5zM135 314v63h51v-63h-51zM185 314v63q41 0 68.5 30.5t27.5 76.5h66q0 -48 -21.5 -86.5t-58 -61t-82.5 -22.5z
M433 0v630h63v-630h-63zM455 567v63h139v-63h-139zM642 0v620h63v-620h-63zM544 567v63h259v-63h-259z" />
    <glyph glyph-name="uni0975" unicode="&#x975;" horiz-adv-x="778" 
d="M627 624q18 35 8.5 60t-46.5 44l25 55q43 -21 65 -47t24 -57.5t-15 -70.5zM589 728q-42 21 -64 46.5t-24 57.5t15 71l61 -17q-18 -35 -9 -60t46 -43zM629 603q-6 39 -28 54t-63 8l-12 59q47 8 79.5 0t53 -32.5t29.5 -65.5zM538 665q-47 -8 -79.5 0t-53 32.5t-29.5 65.5
l59 23q6 -39 28 -53.5t63 -8.5zM281 483q0 42 -26 70t-65 28v63q45 0 80.5 -21t56 -57.5t20.5 -82.5h-66zM96 491l-64 14q5 40 27.5 71t57 49.5t74.5 18.5v-63q-37 0 -64 -26t-31 -64zM274 264v60h216v-60h-216zM284 194q0 52 -30.5 86t-77.5 34v60q49 0 87.5 -23.5t61 -64
t22.5 -92.5h-63zM186 15q-76 0 -118.5 47.5t-42.5 132.5h63q0 -56 26 -88t72 -32v-60zM186 15v60q47 0 72.5 32t25.5 88h63q0 -56 -19 -96.5t-55 -62t-87 -21.5zM135 314v63h51v-63h-51zM185 314v63q41 0 68.5 30.5t27.5 76.5h66q0 -48 -21.5 -86.5t-58 -61t-82.5 -22.5z
M433 0v630h63v-630h-63zM455 567v63h139v-63h-139zM642 0v620h63v-620h-63zM544 567v63h259v-63h-259z" />
    <glyph glyph-name="uni0976" unicode="&#x976;" horiz-adv-x="569" 
d="M281 483q0 42 -26 70t-65 28v63q45 0 80.5 -21t56 -57.5t20.5 -82.5h-66zM96 491l-64 14q5 40 27.5 71t57 49.5t74.5 18.5v-63q-37 0 -64 -26t-31 -64zM274 264v60h216v-60h-216zM284 194q0 52 -30.5 86t-77.5 34v60q49 0 87.5 -23.5t61 -64t22.5 -92.5h-63zM186 15
q-76 0 -118.5 47.5t-42.5 132.5h63q0 -56 26 -88t72 -32v-60zM186 15v60q47 0 72.5 32t25.5 88h63q0 -56 -19 -96.5t-55 -62t-87 -21.5zM135 314v63h51v-63h-51zM185 314v63q41 0 68.5 30.5t27.5 76.5h66q0 -48 -21.5 -86.5t-58 -61t-82.5 -22.5zM433 0v630h63v-630h-63z
M455 567v63h139v-63h-139zM287 -143v52q36 0 80 8.5t85 24.5l14 -52q-46 -16 -93.5 -24.5t-85.5 -8.5zM287 -143q-38 0 -85.5 8.5t-93.5 24.5l14 52q41 -16 85 -24.5t80 -8.5v-52z" />
    <glyph glyph-name="uni0977" unicode="&#x977;" horiz-adv-x="569" 
d="M281 483q0 42 -26 70t-65 28v63q45 0 80.5 -21t56 -57.5t20.5 -82.5h-66zM96 491l-64 14q5 40 27.5 71t57 49.5t74.5 18.5v-63q-37 0 -64 -26t-31 -64zM274 264v60h216v-60h-216zM284 194q0 52 -30.5 86t-77.5 34v60q49 0 87.5 -23.5t61 -64t22.5 -92.5h-63zM186 15
q-76 0 -118.5 47.5t-42.5 132.5h63q0 -56 26 -88t72 -32v-60zM186 15v60q47 0 72.5 32t25.5 88h63q0 -56 -19 -96.5t-55 -62t-87 -21.5zM135 314v63h51v-63h-51zM185 314v63q41 0 68.5 30.5t27.5 76.5h66q0 -48 -21.5 -86.5t-58 -61t-82.5 -22.5zM433 0v630h63v-630h-63z
M455 567v63h139v-63h-139zM287 -143v52q36 0 80 8.5t85 24.5l14 -52q-46 -16 -93.5 -24.5t-85.5 -8.5zM287 -143q-38 0 -85.5 8.5t-93.5 24.5l14 52q41 -16 85 -24.5t80 -8.5v-52zM287 -233v52q36 0 80 8.5t85 24.5l14 -52q-46 -16 -93.5 -24.5t-85.5 -8.5zM287 -233
q-38 0 -85.5 8.5t-93.5 24.5l14 52q41 -16 85 -24.5t80 -8.5v-52z" />
    <glyph glyph-name="uni0979" unicode="&#x979;" horiz-adv-x="582" 
d="M223 -221q-18 0 -30.5 12t-12.5 30t12.5 30.5t30.5 12.5t30.5 -12.5t12.5 -30.5t-12.5 -30t-30.5 -12zM310 -105q-18 0 -30.5 12t-12.5 30t12.5 30.5t30.5 12.5t30.5 -12.5t12.5 -30.5t-12.5 -30t-30.5 -12zM140 -105q-18 0 -30.5 12t-12.5 30t12.5 30.5t30.5 12.5
t30.5 -12.5t12.5 -30.5t-12.5 -30t-30.5 -12zM194 55v60q53 0 76.5 43.5t13.5 121.5h63q9 -64 -8 -115t-54.5 -80.5t-90.5 -29.5zM195 55q-42 0 -76 23.5t-53.5 64.5t-19.5 92h63q0 -56 23 -88t63 -32v-60zM46 234v77l63 10v-87h-63zM284 280q-4 30 -16.5 53t-30 36.5
t-37.5 13.5v49q38 0 68 -16.5t51 -50t28 -85.5h-63zM200 383v60h257v-60h-257zM-25 567v63h481v-63h-481zM446 0v620h63v-620h-63zM348 567v63h259v-63h-259z" />
    <glyph glyph-name="uni097B" unicode="&#x97b;" horiz-adv-x="501" 
d="M-25 567v63h332v-63h-332zM141 301v329h63v-329h-63zM109 182v60q23 0 35.5 16t12.5 44h47q0 -56 -25 -88t-70 -32zM23 212l30 60q35 -30 56 -30v-60q-42 0 -86 30zM23 212l40 90h106v-60zM365 0v620h63v-620h-63zM267 567v63h259v-63h-259zM88 -101v51h340v-51h-340z
" />
    <glyph glyph-name="uni097C" unicode="&#x97c;" horiz-adv-x="582" 
d="M194 55v60q53 0 76.5 43.5t13.5 121.5h63q9 -64 -8 -115t-54.5 -80.5t-90.5 -29.5zM195 55q-42 0 -76 23.5t-53.5 64.5t-19.5 92h63q0 -56 23 -88t63 -32v-60zM46 234v77l63 10v-87h-63zM284 280q-4 30 -16.5 53t-30 36.5t-37.5 13.5v49q38 0 68 -16.5t51 -50t28 -85.5
h-63zM200 383v60h257v-60h-257zM-25 567v63h481v-63h-481zM446 0v620h63v-620h-63zM348 567v63h259v-63h-259zM169 -101v51h340v-51h-340z" />
    <glyph glyph-name="uni097D" unicode="&#x97d;" horiz-adv-x="430" 
d="M165 184q0 63 15.5 107t38 76t45 59t38 55t15.5 64q0 53 -28 80t-84 27q-29 0 -49 -10t-30 -29t-10 -48h-66q0 45 19.5 79t54.5 52.5t81 18.5q53 0 92 -21t61 -59.5t22 -89.5q0 -43 -15.5 -74t-38 -58t-45 -57.5t-38 -71.5t-15.5 -100h-63zM165 51v133h63v-133h-63z" />
    <glyph glyph-name="uni097E" unicode="&#x97e;" horiz-adv-x="393" 
d="M211 0q-63 0 -106.5 37t-58.5 103l63 15q14 -45 41 -70t61 -25v-60zM-25 567v63h443v-63h-443zM200 0v60q44 0 68 22.5t24 62.5h63q0 -68 -41 -106.5t-114 -38.5zM194 240q-69 0 -107.5 32.5t-38.5 90.5h66q0 -30 23.5 -46.5t66.5 -16.5zM292 145q0 47 -25.5 72t-72.5 23
l10 60q48 0 81.5 -18.5t51.5 -53t18 -83.5h-63zM48 363q0 56 40 88t111 32v-60q-40 0 -62.5 -15.5t-22.5 -44.5h-66zM199 423v60h115v-60h-115zM251 450v165h63v-165h-63zM33 -102v51h340v-51h-340z" />
    <glyph glyph-name="uni097F" unicode="&#x97f;" horiz-adv-x="467" 
d="M331 234v72h48v-72h-48zM289 94l-178 319l42 33l178 -319zM-25 567v63h346v-63h-346zM44 264v12h63v-12h-63zM107 275h-63q0 56 22.5 100t61.5 69.5t88 25.5l4 -60q-32 0 -58 -17.5t-40.5 -48t-14.5 -69.5zM379 305h-48q0 45 -32 75t-79 30l-4 60q47 0 83.5 -21.5t58 -59
t21.5 -84.5zM107 265q0 -38 14.5 -69t40.5 -48.5t58 -17.5l-4 -60q-49 0 -88 25.5t-61.5 70t-22.5 99.5h63zM379 235q0 -47 -21.5 -84.5t-58 -59t-83.5 -21.5l4 60q47 0 79 30t32 75h48zM331 0v620h63v-620h-63zM233 567v63h259v-63h-259zM54 -101v51h340v-51h-340z" />
    <glyph glyph-name="uni0FD5" unicode="&#xfd5;" horiz-adv-x="510" 
d="M222 65v450h66v-450h-66zM33 65v66h225v-66h-225zM30 287v225h66v-225h-66zM30 257v66h450v-66h-450zM414 68v225h66v-225h-66zM252 449v66h225v-66h-225z" />
    <glyph glyph-name="Wgrave" unicode="&#x1e80;" horiz-adv-x="717" 
d="M466 0l-137 700h66l137 -700h-66zM167 0l-127 700h66l127 -700h-66zM185 0l137 700h66l-137 -700h-66zM484 0l127 700h66l-127 -700h-66zM313 757l-77 128h78l65 -128h-66z" />
    <glyph glyph-name="wgrave" unicode="&#x1e81;" horiz-adv-x="666" 
d="M435 0l135 500h66l-135 -500h-66zM165 0l-135 500h66l135 -500h-66zM165 0l135 500h66l-135 -500h-66zM435 0l-135 500h66l135 -500h-66zM288 557l-77 128h78l65 -128h-66z" />
    <glyph glyph-name="Wacute" unicode="&#x1e82;" horiz-adv-x="717" 
d="M372 757h-66l65 128h78zM466 0l-137 700h66l137 -700h-66zM167 0l-127 700h66l127 -700h-66zM185 0l137 700h66l-137 -700h-66zM484 0l127 700h66l-127 -700h-66z" />
    <glyph glyph-name="wacute" unicode="&#x1e83;" horiz-adv-x="666" 
d="M347 557h-66l65 128h78zM435 0l135 500h66l-135 -500h-66zM165 0l-135 500h66l135 -500h-66zM165 0l135 500h66l-135 -500h-66zM435 0l-135 500h66l135 -500h-66z" />
    <glyph glyph-name="Wdieresis" unicode="&#x1e84;" horiz-adv-x="717" 
d="M466 0l-137 700h66l137 -700h-66zM167 0l-127 700h66l127 -700h-66zM185 0l137 700h66l-137 -700h-66zM484 0l127 700h66l-127 -700h-66zM292 766q-21 0 -35 14t-14 35t14 35.5t35 14.5t35.5 -14.5t14.5 -35.5t-14.5 -35t-35.5 -14zM422 766q-21 0 -35 14t-14 35t14 35.5
t35 14.5t35.5 -14.5t14.5 -35.5t-14.5 -35t-35.5 -14z" />
    <glyph glyph-name="wdieresis" unicode="&#x1e85;" horiz-adv-x="666" 
d="M435 0l135 500h66l-135 -500h-66zM165 0l-135 500h66l135 -500h-66zM165 0l135 500h66l-135 -500h-66zM435 0l-135 500h66l135 -500h-66zM267 566q-21 0 -35 14t-14 35t14 35.5t35 14.5t35.5 -14.5t14.5 -35.5t-14.5 -35t-35.5 -14zM397 566q-21 0 -35 14t-14 35t14 35.5
t35 14.5t35.5 -14.5t14.5 -35.5t-14.5 -35t-35.5 -14z" />
    <glyph glyph-name="Ygrave" unicode="&#x1ef2;" horiz-adv-x="426" 
d="M180 238l150 462h66l-150 -462h-66zM180 0v238h66v-238h-66zM180 238l-150 462h66l150 -462h-66zM168 757l-77 128h78l65 -128h-66z" />
    <glyph glyph-name="ygrave" unicode="&#x1ef3;" horiz-adv-x="460" 
d="M59 -187l13 58q38 -10 65 8t44 71h66q-29 -88 -77 -121t-111 -16zM181 -50l183 550h66l-183 -550h-66zM203 -19l-173 519h66l142 -428zM185 557l-77 128h78l65 -128h-66z" />
    <glyph glyph-name="endash" unicode="&#x2013;" horiz-adv-x="424" 
d="M50 287v66h324v-66h-324z" />
    <glyph glyph-name="emdash" unicode="&#x2014;" horiz-adv-x="586" 
d="M50 287v66h486v-66h-486z" />
    <glyph glyph-name="quoteleft" unicode="&#x2018;" horiz-adv-x="223" 
d="M110 610q21 0 35 -14t14 -35t-14 -35.5t-35 -14.5t-35.5 14.5t-14.5 35.5t14.5 35t35.5 14zM163 695q-12 -18 -21 -32t-14.5 -27.5t-8.5 -29t-3 -35.5l-56 -10q0 31 8 56t21.5 49.5t31.5 51.5z" />
    <glyph glyph-name="quoteright" unicode="&#x2019;" horiz-adv-x="223" 
d="M60 524q12 18 21 32t14.5 27.5t8.5 29t3 35.5l56 10q0 -30 -7.5 -55.5t-21.5 -50t-32 -51.5zM113 609q-21 0 -35 14t-14 35t14 35.5t35 14.5t35.5 -14.5t14.5 -35.5t-14.5 -35t-35.5 -14z" />
    <glyph glyph-name="quotesinglbase" unicode="&#x201a;" horiz-adv-x="203" 
d="M50 -71q12 18 21 32t14.5 27.5t8.5 29t3 35.5l56 10q0 -30 -7.5 -55.5t-21.5 -50t-32 -51.5zM103 14q-21 0 -35 14t-14 35t14 35.5t35 14.5t35.5 -14.5t14.5 -35.5t-14.5 -35t-35.5 -14z" />
    <glyph glyph-name="quotedblleft" unicode="&#x201c;" horiz-adv-x="363" 
d="M110 602q21 0 35 -14t14 -35t-14 -35.5t-35 -14.5t-35.5 14.5t-14.5 35.5t14.5 35t35.5 14zM163 687q-12 -18 -21 -32t-14.5 -27.5t-8.5 -29t-3 -35.5l-56 -10q0 31 8 56t21.5 49.5t31.5 51.5zM250 602q21 0 35 -14t14 -35t-14 -35.5t-35 -14.5t-35.5 14.5t-14.5 35.5
t14.5 35t35.5 14zM303 687q-12 -18 -21 -32t-14.5 -27.5t-8.5 -29t-3 -35.5l-56 -10q0 31 8 56t21.5 49.5t31.5 51.5z" />
    <glyph glyph-name="quotedblright" unicode="&#x201d;" horiz-adv-x="363" 
d="M200 526q12 18 21 32t14.5 27.5t8.5 29t3 35.5l56 10q0 -30 -7.5 -55.5t-21.5 -50t-32 -51.5zM253 611q-21 0 -35 14t-14 35t14 35.5t35 14.5t35.5 -14.5t14.5 -35.5t-14.5 -35t-35.5 -14zM60 526q12 18 21 32t14.5 27.5t8.5 29t3 35.5l56 10q0 -30 -7.5 -55.5t-21.5 -50
t-32 -51.5zM113 611q-21 0 -35 14t-14 35t14 35.5t35 14.5t35.5 -14.5t14.5 -35.5t-14.5 -35t-35.5 -14z" />
    <glyph glyph-name="quotedblbase" unicode="&#x201e;" horiz-adv-x="342" 
d="M189 -71q12 18 21 32t14.5 27.5t8.5 29t3 35.5l56 10q0 -30 -7.5 -55.5t-21.5 -50t-32 -51.5zM242 14q-21 0 -35 14t-14 35t14 35.5t35 14.5t35.5 -14.5t14.5 -35.5t-14.5 -35t-35.5 -14zM50 -71q12 18 21 32t14.5 27.5t8.5 29t3 35.5l56 10q0 -30 -7.5 -55.5t-21.5 -50
t-32 -51.5zM103 14q-21 0 -35 14t-14 35t14 35.5t35 14.5t35.5 -14.5t14.5 -35.5t-14.5 -35t-35.5 -14z" />
    <glyph glyph-name="bullet" unicode="&#x2022;" horiz-adv-x="298" 
d="M148 249q-42 0 -70 28t-28 70q0 28 13 50.5t35 36t50 13.5t50.5 -13.5t36 -36t13.5 -50.5t-13.5 -50t-36 -35t-50.5 -13z" />
    <glyph glyph-name="ellipsis" unicode="&#x2026;" horiz-adv-x="519" 
d="M259 0q-21 0 -35 14t-14 35t14 35.5t35 14.5t35.5 -14.5t14.5 -35.5t-14.5 -35t-35.5 -14zM99 0q-21 0 -35 14t-14 35t14 35.5t35 14.5t35.5 -14.5t14.5 -35.5t-14.5 -35t-35.5 -14zM419 0q-21 0 -35 14t-14 35t14 35.5t35 14.5t35.5 -14.5t14.5 -35.5t-14.5 -35
t-35.5 -14z" />
    <glyph glyph-name="guilsinglleft" unicode="&#x2039;" horiz-adv-x="293" 
d="M73 204v88l200 176v-82zM73 204l-53 44l53 44v-88zM273 28l-200 176v88l200 -182v-82z" />
    <glyph glyph-name="guilsinglright" unicode="&#x203a;" horiz-adv-x="293" 
d="M220 204l-200 182v82l200 -176v-88zM220 204v88l53 -44zM20 28v82l200 182v-88z" />
    <glyph glyph-name="fraction" unicode="&#x2044;" horiz-adv-x="206" 
d="M-50 -15l311 806h45l-311 -806h-45z" />
    <glyph glyph-name="uni2074" unicode="&#x2074;" horiz-adv-x="285" 
d="M55 549l85 216h30l-86 -216h-29zM55 520v29h175v-29h-175zM165 450v180h29v-180h-29z" />
    <glyph glyph-name="Euro" unicode="&#x20ac;" horiz-adv-x="513" 
d="M143 150v400h66v-400h-66zM60 262v60h350v-60h-350zM60 381v60h350v-60h-350zM143 550q0 47 22.5 84.5t61 59t87.5 21.5v-63q-45 0 -75 -29t-30 -73h-66zM143 150h66q0 -43 30 -72.5t75 -29.5v-63q-49 0 -87.5 21.5t-61 59t-22.5 84.5zM419 562q-5 47 -35 68.5t-70 21.5
v63q44 0 80.5 -18.5t60 -49.5t28.5 -71zM418 138l64 -14q-5 -39 -28.5 -70.5t-60 -50t-80.5 -18.5v63q40 0 70 22t35 68z" />
    <glyph glyph-name="uni20B9" unicode="&#x20b9;" horiz-adv-x="545" 
d="M60 493v66h425v-66h-425zM322 -1l-166 311h69l167 -311h-70zM290 60l-172 320h69l172 -320h-69zM158 331l-33 49q65 0 103 8t54.5 30t16.5 64h63q0 -76 -37.5 -113.5t-105.5 -37.5h-61zM299 482v183h63v-183h-63zM60 627v63h425v-63h-425z" />
    <glyph glyph-name="trademark" unicode="&#x2122;" horiz-adv-x="484" 
d="M88 406v294h28v-294h-28zM20 674v26h164v-26h-164zM396 406v294h28v-294h-28zM315 406l66 294h28l-66 -294h-28zM314 406l-66 294h28l66 -294h-28zM233 406v294h28v-294h-28z" />
    <glyph glyph-name="oneeighth" unicode="&#x215b;" horiz-adv-x="742" 
d="M102 297v462h44v-462h-44zM46 638l-28 29l84 92v-60zM644 147q0 36 -18.5 56.5t-51.5 20.5v41q53 0 83 -31.5t30 -86.5h-43zM574 -10q-53 0 -82.5 31.5t-29.5 87.5h43q0 -37 18.5 -57t50.5 -20v-42zM462 109v38h43v-38h-43zM574 -10v42q33 0 51.5 20t18.5 57h43
q0 -56 -30 -87.5t-83 -31.5zM462 147q0 55 29.5 86.5t82.5 31.5v-41q-32 0 -50.5 -20.5t-18.5 -56.5h-43zM644 109v38h43v-38h-43zM574 224q-48 0 -77 30.5t-29 81.5h43q0 -35 16 -53t47 -18v-41zM468 336v24h43v-24h-43zM574 224v41q32 0 48 18t16 53h43q0 -51 -29.5 -81.5
t-77.5 -30.5zM468 360q0 50 29 81t77 31v-42q-31 0 -47 -18t-16 -52h-43zM638 336v24h43v-24h-43zM638 360q0 34 -16 52t-48 18v42q48 0 77.5 -31t29.5 -81h-43zM151 -15l311 806h45l-311 -806h-45z" />
    <glyph glyph-name="threeeighths" unicode="&#x215c;" horiz-adv-x="875" 
d="M166 521v41q27 0 45 24t18 60h44q0 -54 -30.5 -89.5t-76.5 -35.5zM235 395v58h44v-58h-44zM126 521v41h41v-41h-41zM229 645q0 36 -18 59t-45 23v42q46 0 76.5 -35.5t30.5 -88.5h-44zM279 395q0 -31 -15 -55.5t-40.5 -39t-57.5 -14.5v42q30 0 49.5 19.5t19.5 47.5h44z
M279 453h-44q0 29 -19.5 48.5t-49.5 19.5v41q32 0 57.5 -14t40.5 -39t15 -56zM97 668l-42 9q5 39 36.5 65.5t75.5 26.5v-42q-27 0 -46.5 -14t-23.5 -45zM97 387q4 -30 23.5 -44.5t46.5 -14.5v-42q-44 0 -75.5 26.5t-36.5 65.5zM777 147q0 36 -18.5 56.5t-51.5 20.5v41
q53 0 83 -31.5t30 -86.5h-43zM707 -10q-53 0 -82.5 31.5t-29.5 87.5h43q0 -37 18.5 -57t50.5 -20v-42zM595 109v38h43v-38h-43zM707 -10v42q33 0 51.5 20t18.5 57h43q0 -56 -30 -87.5t-83 -31.5zM595 147q0 55 29.5 86.5t82.5 31.5v-41q-32 0 -50.5 -20.5t-18.5 -56.5h-43z
M777 109v38h43v-38h-43zM707 224q-48 0 -77 30.5t-29 81.5h43q0 -35 16 -53t47 -18v-41zM601 336v24h43v-24h-43zM707 224v41q32 0 48 18t16 53h43q0 -51 -29.5 -81.5t-77.5 -30.5zM601 360q0 50 29 81t77 31v-42q-31 0 -47 -18t-16 -52h-43zM771 336v24h43v-24h-43z
M771 360q0 34 -16 52t-48 18v42q48 0 77.5 -31t29.5 -81h-43zM284 -15l311 806h45l-311 -806h-45z" />
    <glyph glyph-name="fiveeighths" unicode="&#x215d;" horiz-adv-x="874" 
d="M61 492v267h44v-267h-44zM235 405v87h43v-87h-43zM61 715v44h207v-44h-207zM235 491q0 30 -20 50t-49 20l3 40q31 0 56 -14.5t39 -39.5t14 -56h-43zM73 492q0 46 27.5 77.5t68.5 31.5l-2 -40q-27 0 -44.5 -20t-17.5 -49h-32zM278 405q0 -34 -14.5 -60.5t-40 -42.5
t-58.5 -16v42q33 0 51.5 20.5t18.5 56.5h43zM97 387q3 -30 23 -44.5t46 -14.5v-42q-43 0 -74.5 26.5t-36.5 65.5zM776 147q0 36 -18.5 56.5t-51.5 20.5v41q53 0 83 -31.5t30 -86.5h-43zM706 -10q-53 0 -82.5 31.5t-29.5 87.5h43q0 -37 18.5 -57t50.5 -20v-42zM594 109v38h43
v-38h-43zM706 -10v42q33 0 51.5 20t18.5 57h43q0 -56 -30 -87.5t-83 -31.5zM594 147q0 55 29.5 86.5t82.5 31.5v-41q-32 0 -50.5 -20.5t-18.5 -56.5h-43zM776 109v38h43v-38h-43zM706 224q-48 0 -77 30.5t-29 81.5h43q0 -35 16 -53t47 -18v-41zM600 336v24h43v-24h-43z
M706 224v41q32 0 48 18t16 53h43q0 -51 -29.5 -81.5t-77.5 -30.5zM600 360q0 50 29 81t77 31v-42q-31 0 -47 -18t-16 -52h-43zM770 336v24h43v-24h-43zM770 360q0 34 -16 52t-48 18v42q48 0 77.5 -31t29.5 -81h-43zM283 -15l311 806h45l-311 -806h-45z" />
    <glyph glyph-name="seveneighths" unicode="&#x215e;" horiz-adv-x="771" 
d="M97 297l145 418h43l-144 -418h-44zM55 715v44h230v-44h-230zM673 147q0 36 -18.5 56.5t-51.5 20.5v41q53 0 83 -31.5t30 -86.5h-43zM603 -10q-53 0 -82.5 31.5t-29.5 87.5h43q0 -37 18.5 -57t50.5 -20v-42zM491 109v38h43v-38h-43zM603 -10v42q33 0 51.5 20t18.5 57h43
q0 -56 -30 -87.5t-83 -31.5zM491 147q0 55 29.5 86.5t82.5 31.5v-41q-32 0 -50.5 -20.5t-18.5 -56.5h-43zM673 109v38h43v-38h-43zM603 224q-48 0 -77 30.5t-29 81.5h43q0 -35 16 -53t47 -18v-41zM497 336v24h43v-24h-43zM603 224v41q32 0 48 18t16 53h43q0 -51 -29.5 -81.5
t-77.5 -30.5zM497 360q0 50 29 81t77 31v-42q-31 0 -47 -18t-16 -52h-43zM667 336v24h43v-24h-43zM667 360q0 34 -16 52t-48 18v42q48 0 77.5 -31t29.5 -81h-43zM180 -15l311 806h45l-311 -806h-45z" />
    <glyph glyph-name="minus" unicode="&#x2212;" horiz-adv-x="450" 
d="M30 317v66h390v-66h-390z" />
    <glyph glyph-name="uni2215" unicode="&#x2215;" horiz-adv-x="320" 
d="M25 -1l201 700h69l-201 -700h-69z" />
    <glyph glyph-name="approxequal" unicode="&#x2248;" horiz-adv-x="452" 
d="M318 280q-27 0 -47.5 8t-37 20t-31.5 24t-31 20t-37 8v54q27 0 47.5 -8t37 -20t31.5 -24t31 -20t37 -8v-54zM30 317q1 44 29.5 70.5t74.5 26.5v-54q-22 0 -34 -11t-13 -32h-57zM318 280v54q23 0 34.5 11t12.5 32h57q-1 -43 -29.5 -70t-74.5 -27zM318 130q-27 0 -47.5 8
t-37 20t-31.5 24t-31 20t-37 8v54q27 0 47.5 -8t37 -20t31.5 -24t31 -20t37 -8v-54zM30 167q1 44 29.5 70.5t74.5 26.5v-54q-22 0 -34 -11t-13 -32h-57zM318 130v54q23 0 34.5 11t12.5 32h57q-1 -43 -29.5 -70t-74.5 -27z" />
    <glyph glyph-name="notequal" unicode="&#x2260;" horiz-adv-x="388" 
d="M49 155l225 390h66l-225 -390h-66zM30 397v66h328v-66h-328zM30 237v66h328v-66h-328z" />
    <glyph glyph-name="lessequal" unicode="&#x2264;" horiz-adv-x="411" 
d="M30 413v66l351 178v-66zM381 235l-351 178v66l351 -178v-66zM381 84l-351 178v66l351 -178v-66z" />
    <glyph glyph-name="greaterequal" unicode="&#x2265;" horiz-adv-x="411" 
d="M30 84v66l351 178v-66zM381 413l-351 178v66l351 -178v-66zM30 235v66l351 178v-66z" />
    <glyph glyph-name="uni25CC" unicode="&#x25cc;" horiz-adv-x="499" 
d="M259 126q-11 0 -18 7t-7 18q0 10 7 17.5t18 7.5q10 0 17.5 -7.5t7.5 -17.5q0 -11 -7.5 -18t-17.5 -7zM259 526q-11 0 -18 7t-7 18q0 10 7 17.5t18 7.5q10 0 17.5 -7.5t7.5 -17.5q0 -11 -7.5 -18t-17.5 -7zM474 361q0 -11 -7 -18t-17 -7q-11 0 -18 7t-7 18q0 10 7 17.5
t18 7.5q10 0 17 -7.5t7 -17.5zM74 361q0 -11 -7 -18t-17 -7q-11 0 -18 7t-7 18q0 10 7 17.5t18 7.5q10 0 17 -7.5t7 -17.5zM370 161q-9 -5 -18.5 -2.5t-15.5 11.5q-5 9 -2.5 18.5t11.5 15.5q9 5 19 2.5t15 -12.5q6 -9 3 -18.5t-12 -14.5zM170 508q-9 -5 -18.5 -2.5
t-15.5 11.5q-5 9 -2.5 18.5t11.5 15.5q9 5 19 2.5t15 -12.5q6 -9 3 -18.5t-12 -14.5zM439 472q6 -9 3 -18.5t-12 -15.5q-9 -5 -18.5 -2.5t-15.5 11.5q-5 9 -2.5 19t12.5 15q9 6 18.5 3t14.5 -12zM91 271q6 -9 3 -18.5t-12 -15.5q-9 -5 -18.5 -2.5t-15.5 11.5q-5 9 -2.5 19
t12.5 15q9 6 18.5 3t14.5 -12zM449 247q-5 -9 -15 -11.5t-19 2.5t-11.5 15t2.5 19t15 11.5t19 -2.5t11.5 -15t-2.5 -19zM102 447q-5 -9 -15 -11.5t-19 2.5t-11.5 15t2.5 19t15 11.5t19 -2.5t11.5 -15t-2.5 -19zM353 551q9 -5 11.5 -15t-2.5 -19t-15 -11.5t-19 2.5t-11.5 15
t2.5 19t15 11.5t19 -2.5zM152 203q9 -5 11.5 -15t-2.5 -19t-15 -11.5t-19 2.5t-11.5 15t2.5 19t15 11.5t19 -2.5z" />
    <glyph glyph-name="I.ss01" horiz-adv-x="330" 
d="M132 0v700h66v-700h-66zM20 637v63h290v-63h-290zM20 0v63h290v-63h-290z" />
    <glyph glyph-name="Iacute.ss01" horiz-adv-x="330" 
d="M179 757h-66l65 128h78zM132 0v700h66v-700h-66zM20 637v63h290v-63h-290zM20 0v63h290v-63h-290z" />
    <glyph glyph-name="Icircumflex.ss01" horiz-adv-x="330" 
d="M130 885h66l-65 -128h-78zM199 885l77 -128h-78l-65 128h66zM132 0v700h66v-700h-66zM20 637v63h290v-63h-290zM20 0v63h290v-63h-290z" />
    <glyph glyph-name="Idieresis.ss01" horiz-adv-x="330" 
d="M132 0v700h66v-700h-66zM20 637v63h290v-63h-290zM20 0v63h290v-63h-290zM99 766q-21 0 -35 14t-14 35t14 35.5t35 14.5t35.5 -14.5t14.5 -35.5t-14.5 -35t-35.5 -14zM229 766q-21 0 -35 14t-14 35t14 35.5t35 14.5t35.5 -14.5t14.5 -35.5t-14.5 -35t-35.5 -14z" />
    <glyph glyph-name="Igrave.ss01" horiz-adv-x="330" 
d="M132 0v700h66v-700h-66zM20 637v63h290v-63h-290zM20 0v63h290v-63h-290zM120 757l-77 128h78l65 -128h-66z" />
    <glyph glyph-name="Imacron.ss01" horiz-adv-x="330" 
d="M30 781v52h270v-52h-270zM132 0v700h66v-700h-66zM20 637v63h290v-63h-290zM20 0v63h290v-63h-290z" />
    <glyph glyph-name="J.ss01" horiz-adv-x="341" 
d="M166 139v561h66v-561h-66zM21 637v63h300v-63h-300zM232 139q0 -73 -34.5 -114t-96.5 -41l-5 63q22 0 37.5 11t24 31.5t8.5 49.5h66zM49 64q11 -7 22.5 -12t24.5 -5l5 -63q-22 0 -43 7.5t-38 20.5z" />
    <glyph glyph-name="Y.ss03" horiz-adv-x="426" 
d="M123 0l207 700h66l-207 -700h-66zM200 207l-170 493h66l160 -462z" />
    <glyph glyph-name="Yacute.ss03" horiz-adv-x="426" 
d="M227 757h-66l65 128h78zM123 0l207 700h66l-207 -700h-66zM200 207l-170 493h66l160 -462z" />
    <glyph glyph-name="Ycircumflex.ss03" horiz-adv-x="426" 
d="M178 885h66l-65 -128h-78zM247 885l77 -128h-78l-65 128h66zM123 0l207 700h66l-207 -700h-66zM200 207l-170 493h66l160 -462z" />
    <glyph glyph-name="Ydieresis.ss03" horiz-adv-x="426" 
d="M123 0l207 700h66l-207 -700h-66zM200 207l-170 493h66l160 -462zM147 766q-21 0 -35 14t-14 35t14 35.5t35 14.5t35.5 -14.5t14.5 -35.5t-14.5 -35t-35.5 -14zM277 766q-21 0 -35 14t-14 35t14 35.5t35 14.5t35.5 -14.5t14.5 -35.5t-14.5 -35t-35.5 -14z" />
    <glyph glyph-name="Ygrave.ss03" horiz-adv-x="426" 
d="M123 0l207 700h66l-207 -700h-66zM200 207l-170 493h66l160 -462zM168 757l-77 128h78l65 -128h-66z" />
    <glyph glyph-name="a.ss02" horiz-adv-x="403" 
d="M30 150v200h66v-200h-66zM96 350h-66q0 47 20.5 84.5t56 59t80.5 21.5l14 -66q-45 0 -75 -28t-30 -71zM345 350h-38q0 43 -30 71t-76 28l-14 66q45 0 81 -21.5t56.5 -59t20.5 -84.5zM96 150q0 -43 30 -71t75 -28l-14 -66q-45 0 -80.5 21.5t-56 59t-20.5 84.5h66zM345 150
q0 -47 -20.5 -84.5t-56.5 -59t-81 -21.5l14 66q46 0 76 28t30 71h38zM307 0v500h66v-500h-66z" />
    <glyph glyph-name="aacute.ss02" horiz-adv-x="403" 
d="M216 577h-66l65 128h78zM30 150v200h66v-200h-66zM96 350h-66q0 47 20.5 84.5t56 59t80.5 21.5l14 -66q-45 0 -75 -28t-30 -71zM345 350h-38q0 43 -30 71t-76 28l-14 66q45 0 81 -21.5t56.5 -59t20.5 -84.5zM96 150q0 -43 30 -71t75 -28l-14 -66q-45 0 -80.5 21.5t-56 59
t-20.5 84.5h66zM345 150q0 -47 -20.5 -84.5t-56.5 -59t-81 -21.5l14 66q46 0 76 28t30 71h38zM307 0v500h66v-500h-66z" />
    <glyph glyph-name="acircumflex.ss02" horiz-adv-x="403" 
d="M167 705h66l-65 -128h-78zM236 705l77 -128h-78l-65 128h66zM30 150v200h66v-200h-66zM96 350h-66q0 47 20.5 84.5t56 59t80.5 21.5l14 -66q-45 0 -75 -28t-30 -71zM345 350h-38q0 43 -30 71t-76 28l-14 66q45 0 81 -21.5t56.5 -59t20.5 -84.5zM96 150q0 -43 30 -71
t75 -28l-14 -66q-45 0 -80.5 21.5t-56 59t-20.5 84.5h66zM345 150q0 -47 -20.5 -84.5t-56.5 -59t-81 -21.5l14 66q46 0 76 28t30 71h38zM307 0v500h66v-500h-66z" />
    <glyph glyph-name="adieresis.ss02" horiz-adv-x="403" 
d="M30 150v200h66v-200h-66zM96 350h-66q0 47 20.5 84.5t56 59t80.5 21.5l14 -66q-45 0 -75 -28t-30 -71zM345 350h-38q0 43 -30 71t-76 28l-14 66q45 0 81 -21.5t56.5 -59t20.5 -84.5zM96 150q0 -43 30 -71t75 -28l-14 -66q-45 0 -80.5 21.5t-56 59t-20.5 84.5h66zM345 150
q0 -47 -20.5 -84.5t-56.5 -59t-81 -21.5l14 66q46 0 76 28t30 71h38zM307 0v500h66v-500h-66zM136 586q-21 0 -35 14t-14 35t14 35.5t35 14.5t35.5 -14.5t14.5 -35.5t-14.5 -35t-35.5 -14zM266 586q-21 0 -35 14t-14 35t14 35.5t35 14.5t35.5 -14.5t14.5 -35.5t-14.5 -35
t-35.5 -14z" />
    <glyph glyph-name="agrave.ss02" horiz-adv-x="403" 
d="M30 150v200h66v-200h-66zM96 350h-66q0 47 20.5 84.5t56 59t80.5 21.5l14 -66q-45 0 -75 -28t-30 -71zM345 350h-38q0 43 -30 71t-76 28l-14 66q45 0 81 -21.5t56.5 -59t20.5 -84.5zM96 150q0 -43 30 -71t75 -28l-14 -66q-45 0 -80.5 21.5t-56 59t-20.5 84.5h66zM345 150
q0 -47 -20.5 -84.5t-56.5 -59t-81 -21.5l14 66q46 0 76 28t30 71h38zM307 0v500h66v-500h-66zM157 577l-77 128h78l65 -128h-66z" />
    <glyph glyph-name="amacron.ss02" horiz-adv-x="403" 
d="M67 601v52h270v-52h-270zM30 150v200h66v-200h-66zM96 350h-66q0 47 20.5 84.5t56 59t80.5 21.5l14 -66q-45 0 -75 -28t-30 -71zM345 350h-38q0 43 -30 71t-76 28l-14 66q45 0 81 -21.5t56.5 -59t20.5 -84.5zM96 150q0 -43 30 -71t75 -28l-14 -66q-45 0 -80.5 21.5
t-56 59t-20.5 84.5h66zM345 150q0 -47 -20.5 -84.5t-56.5 -59t-81 -21.5l14 66q46 0 76 28t30 71h38zM307 0v500h66v-500h-66z" />
    <glyph glyph-name="aring.ss02" horiz-adv-x="403" 
d="M30 150v200h66v-200h-66zM96 350h-66q0 47 20.5 84.5t56 59t80.5 21.5l14 -66q-45 0 -75 -28t-30 -71zM345 350h-38q0 43 -30 71t-76 28l-14 66q45 0 81 -21.5t56.5 -59t20.5 -84.5zM96 150q0 -43 30 -71t75 -28l-14 -66q-45 0 -80.5 21.5t-56 59t-20.5 84.5h66zM345 150
q0 -47 -20.5 -84.5t-56.5 -59t-81 -21.5l14 66q46 0 76 28t30 71h38zM307 0v500h66v-500h-66zM228 654q0 11 -7.5 18.5t-18.5 7.5v48q32 0 53 -21t21 -53h-48zM202 580q-31 0 -52.5 21.5t-21.5 52.5h48q0 -11 7.5 -18.5t18.5 -7.5v-48zM202 580v48q11 0 18.5 7.5t7.5 18.5
h48q0 -31 -21 -52.5t-53 -21.5zM128 654q0 32 21.5 53t52.5 21v-48q-11 0 -18.5 -7.5t-7.5 -18.5h-48z" />
    <glyph glyph-name="atilde.ss02" horiz-adv-x="403" 
d="M30 150v200h66v-200h-66zM96 350h-66q0 47 20.5 84.5t56 59t80.5 21.5l14 -66q-45 0 -75 -28t-30 -71zM345 350h-38q0 43 -30 71t-76 28l-14 66q45 0 81 -21.5t56.5 -59t20.5 -84.5zM96 150q0 -43 30 -71t75 -28l-14 -66q-45 0 -80.5 21.5t-56 59t-20.5 84.5h66zM345 150
q0 -47 -20.5 -84.5t-56.5 -59t-81 -21.5l14 66q46 0 76 28t30 71h38zM307 0v500h66v-500h-66zM252 619q-19 0 -31.5 5.5t-22.5 13.5t-20.5 13.5t-25.5 5.5v45q19 0 31.5 -5.5t22.5 -13.5t20.5 -13.5t25.5 -5.5v-45zM78 625q0 36 19.5 56.5t54.5 20.5v-45q-12 0 -19 -8.5
t-7 -23.5h-48zM252 619v45q12 0 19 8.5t7 23.5h48q0 -36 -19.5 -56.5t-54.5 -20.5z" />
    <glyph glyph-name="ae.ss02" horiz-adv-x="715" 
d="M344 227v57h336v-57h-336zM508 -16v63h4v-63h-4zM338 164v171h66v-171h-66zM614 284v66h66v-66h-66zM680 350h-66q0 44 -30 73t-75 29v63q49 0 87.5 -21.5t61 -59t22.5 -84.5zM616 137l64 -14q-5 -39 -28.5 -70.5t-60 -50t-80.5 -18.5v63q40 0 70 22t35 68zM338 335
q0 52 22.5 92.5t61 64t87.5 23.5v-63q-49 0 -77 -30.5t-28 -86.5h-66zM338 164h66q0 -55 28 -86t77 -31v-63q-49 0 -87.5 23.5t-61 64t-22.5 92.5zM45 150v200h66v-200h-66zM111 350h-66q0 47 20.5 84.5t56 59t80.5 21.5l14 -66q-45 0 -75 -28t-30 -71zM360 350h-38
q0 43 -30 71t-76 28l-14 66q45 0 81 -21.5t56.5 -59t20.5 -84.5zM111 150q0 -43 30 -71t75 -28l-14 -66q-45 0 -80.5 21.5t-56 59t-20.5 84.5h66zM360 150q0 -47 -20.5 -84.5t-56.5 -59t-81 -21.5l14 66q46 0 76 28t30 71h38zM322 0v500h66v-500h-66z" />
    <glyph glyph-name="y.ss03" horiz-adv-x="460" 
d="M140 -171l224 671h66l-224 -671h-66zM203 -19l-173 519h66l142 -428z" />
    <glyph glyph-name="yacute.ss03" horiz-adv-x="460" 
d="M244 557h-66l65 128h78zM140 -171l224 671h66l-224 -671h-66zM203 -19l-173 519h66l142 -428z" />
    <glyph glyph-name="ycircumflex.ss03" horiz-adv-x="460" 
d="M195 685h66l-65 -128h-78zM264 685l77 -128h-78l-65 128h66zM140 -171l224 671h66l-224 -671h-66zM203 -19l-173 519h66l142 -428z" />
    <glyph glyph-name="ydieresis.ss03" horiz-adv-x="460" 
d="M140 -171l224 671h66l-224 -671h-66zM203 -19l-173 519h66l142 -428zM164 566q-21 0 -35 14t-14 35t14 35.5t35 14.5t35.5 -14.5t14.5 -35.5t-14.5 -35t-35.5 -14zM294 566q-21 0 -35 14t-14 35t14 35.5t35 14.5t35.5 -14.5t14.5 -35.5t-14.5 -35t-35.5 -14z" />
    <glyph glyph-name="ygrave.ss03" horiz-adv-x="460" 
d="M140 -171l224 671h66l-224 -671h-66zM203 -19l-173 519h66l142 -428zM185 557l-77 128h78l65 -128h-66z" />
    <glyph glyph-name="ordfeminine.ss02" horiz-adv-x="347" 
d="M252 329v375h50v-375h-50zM45 442v150h49v-150h-49zM94 592h-49q0 35 15 63t42 44t60 16l11 -49q-34 0 -56.5 -21t-22.5 -53zM281 592h-29q0 32 -22.5 53t-56.5 21l-11 49q34 0 61 -16t42.5 -44t15.5 -63zM94 442q0 -33 22.5 -54t56.5 -21l-11 -49q-33 0 -60 16t-42 44
t-15 64h49zM281 442q0 -36 -15.5 -64t-42.5 -44t-61 -16l11 49q34 0 56.5 21t22.5 54h29z" />
    <glyph glyph-name="uniA7330902" horiz-adv-x="778" 
d="M575 709q-22 0 -37 14.5t-15 36.5t15 37.5t37 15.5t37 -15.5t15 -37.5t-15 -36.5t-37 -14.5zM281 483q0 42 -26 70t-65 28v63q45 0 80.5 -21t56 -57.5t20.5 -82.5h-66zM96 491l-64 14q5 40 27.5 71t57 49.5t74.5 18.5v-63q-37 0 -64 -26t-31 -64zM274 264v60h216v-60
h-216zM284 194q0 52 -30.5 86t-77.5 34v60q49 0 87.5 -23.5t61 -64t22.5 -92.5h-63zM186 15q-76 0 -118.5 47.5t-42.5 132.5h63q0 -56 26 -88t72 -32v-60zM186 15v60q47 0 72.5 32t25.5 88h63q0 -56 -19 -96.5t-55 -62t-87 -21.5zM135 314v63h51v-63h-51zM185 314v63
q41 0 68.5 30.5t27.5 76.5h66q0 -48 -21.5 -86.5t-58 -61t-82.5 -22.5zM433 0v630h63v-630h-63zM455 567v63h139v-63h-139zM642 0v620h63v-620h-63zM544 567v63h259v-63h-259z" />
    <glyph glyph-name="uni006F0902" horiz-adv-x="778" 
d="M733 749q-22 0 -37 14.5t-15 36.5t15 37.5t37 15.5t37 -15.5t15 -37.5t-15 -36.5t-37 -14.5zM281 483q0 42 -26 70t-65 28v63q45 0 80.5 -21t56 -57.5t20.5 -82.5h-66zM96 491l-64 14q5 40 27.5 71t57 49.5t74.5 18.5v-63q-37 0 -64 -26t-31 -64zM274 264v60h216v-60
h-216zM284 194q0 52 -30.5 86t-77.5 34v60q49 0 87.5 -23.5t61 -64t22.5 -92.5h-63zM186 15q-76 0 -118.5 47.5t-42.5 132.5h63q0 -56 26 -88t72 -32v-60zM186 15v60q47 0 72.5 32t25.5 88h63q0 -56 -19 -96.5t-55 -62t-87 -21.5zM135 314v63h51v-63h-51zM185 314v63
q41 0 68.5 30.5t27.5 76.5h66q0 -48 -21.5 -86.5t-58 -61t-82.5 -22.5zM433 0v630h63v-630h-63zM455 567v63h139v-63h-139zM642 0v620h63v-620h-63zM544 567v63h259v-63h-259zM628 630l-93 141l45 41l119 -182h-71zM535 771q-25 38 -53.5 46t-65.5 -15l-28 51
q61 34 109.5 23t82.5 -64z" />
    <glyph glyph-name="iMatra_anusvaradeva" 
d="M505 832q-22 0 -37 14.5t-15 36.5t15 37.5t37 15.5t37 -15.5t15 -37.5t-15 -36.5t-37 -14.5zM402 733q-34 65 -80 101t-94 36l-20 60q59 0 106.5 -20t84 -57t61.5 -90zM69 615l-18 88l64 11l20 -99h-66zM51 703q-12 65 4 116.5t56 81t97 29.5l20 -60q-50 0 -77.5 -20
t-35.5 -55.5t0 -80.5zM73 0v620h63v-620h-63zM-25 567v63h259v-63h-259z" />
    <glyph glyph-name="iMatra_rephdeva" 
d="M402 733q-34 65 -80 101t-94 36l-20 60q59 0 106.5 -20t84 -57t61.5 -90zM69 615l-18 88l64 11l20 -99h-66zM51 703q-12 65 4 116.5t56 81t97 29.5l20 -60q-50 0 -77.5 -20t-35.5 -55.5t0 -80.5zM73 0v620h63v-620h-63zM-25 567v63h259v-63h-259zM386 826q0 39 19.5 70
t56.5 52t89 29l10 -58q-52 -10 -82 -32.5t-30 -60.5h-63zM423 676q-17 33 -27 73t-10 77h63q0 -20 9 -53.5t25 -72.5z" />
    <glyph glyph-name="iMatra_reph_anusvaradeva" 
d="M544 765q-22 0 -37 14.5t-15 36.5t15 37.5t37 15.5t37 -15.5t15 -37.5t-15 -36.5t-37 -14.5zM402 733q-34 65 -80 101t-94 36l-20 60q59 0 106.5 -20t84 -57t61.5 -90zM69 615l-18 88l64 11l20 -99h-66zM51 703q-12 65 4 116.5t56 81t97 29.5l20 -60q-50 0 -77.5 -20
t-35.5 -55.5t0 -80.5zM73 0v620h63v-620h-63zM-25 567v63h259v-63h-259zM386 826q0 39 19.5 70t56.5 52t89 29l10 -58q-52 -10 -82 -32.5t-30 -60.5h-63zM423 676q-17 33 -27 73t-10 77h63q0 -20 9 -53.5t25 -72.5z" />
    <glyph glyph-name="iiMatra_anusvaradeva" horiz-adv-x="209" 
d="M226 729q-22 0 -37 14.5t-15 36.5t15 37.5t37 15.5t37 -15.5t15 -37.5t-15 -36.5t-37 -14.5zM56 703q-9 55 -24.5 92t-35 56t-41.5 19l-10 60q50 0 85.5 -25.5t58 -74t31.5 -116.5zM-164 723q-12 59 -2 106t39 74t72 27l10 -60q-44 0 -58.5 -39.5t-1.5 -98.5zM69 615
l-13 88l64 11l15 -99h-66zM73 0v620h63v-620h-63zM-25 567v63h259v-63h-259z" />
    <glyph glyph-name="iiMatra_rephdeva" horiz-adv-x="209" 
d="M56 703q-9 55 -24.5 92t-35 56t-41.5 19l-10 60q50 0 85.5 -25.5t58 -74t31.5 -116.5zM-164 723q-12 59 -2 106t39 74t72 27l10 -60q-44 0 -58.5 -39.5t-1.5 -98.5zM69 615l-13 88l64 11l15 -99h-66zM73 0v620h63v-620h-63zM-25 567v63h259v-63h-259zM57 756
q0 39 19.5 70t56.5 52t89 29l10 -58q-52 -10 -82 -32.5t-30 -60.5h-63zM94 606q-17 33 -27 73t-10 77h63q0 -20 9 -53.5t25 -72.5z" />
    <glyph glyph-name="iiMatra_reph_anusvaradeva" horiz-adv-x="209" 
d="M219 695q-22 0 -37 14.5t-15 36.5t15 37.5t37 15.5t37 -15.5t15 -37.5t-15 -36.5t-37 -14.5zM56 703q-9 55 -24.5 92t-35 56t-41.5 19l-10 60q50 0 85.5 -25.5t58 -74t31.5 -116.5zM-164 723q-12 59 -2 106t39 74t72 27l10 -60q-44 0 -58.5 -39.5t-1.5 -98.5zM69 615
l-13 88l64 11l15 -99h-66zM73 0v620h63v-620h-63zM-25 567v63h259v-63h-259zM61 756q0 39 19.5 70t56.5 52t89 29l10 -58q-52 -10 -82 -32.5t-30 -60.5h-63zM98 606q-17 33 -27 73t-10 77h63q0 -20 9 -53.5t25 -72.5z" />
    <glyph glyph-name="oShortMatra_anusvaradeva" horiz-adv-x="209" 
d="M210 727q-22 0 -37 14.5t-15 36.5t15 37.5t37 15.5t37 -15.5t15 -37.5t-15 -36.5t-37 -14.5zM73 0v620h63v-620h-63zM-25 567v63h259v-63h-259zM82 630q8 38 -7 60t-56 30l10 60q47 -9 74.5 -28.5t38 -49.5t3.5 -72h-63zM19 720q-46 10 -74 29t-38 49t-4 72h63
q-8 -38 7.5 -60t55.5 -30z" />
    <glyph glyph-name="oMatra_anusvaradeva" horiz-adv-x="209" 
d="M146 729q-22 0 -37 14.5t-15 36.5t15 37.5t37 15.5t37 -15.5t15 -37.5t-15 -36.5t-37 -14.5zM73 0v620h63v-620h-63zM-25 567v63h259v-63h-259zM59 630l-93 141l45 41l119 -182h-71zM-34 771q-25 38 -53.5 46t-65.5 -15l-28 51q61 34 109.5 23t82.5 -64z" />
    <glyph glyph-name="oMatra_rephdeva" horiz-adv-x="209" 
d="M73 0v620h63v-620h-63zM-25 567v63h259v-63h-259zM59 630l-93 141l45 41l119 -182h-71zM-34 771q-25 38 -53.5 46t-65.5 -15l-28 51q61 34 109.5 23t82.5 -64zM47 756q0 39 19.5 70t56.5 52t89 29l10 -58q-52 -10 -82 -32.5t-30 -60.5h-63zM84 606q-17 33 -27 73t-10 77
h63q0 -20 9 -53.5t25 -72.5z" />
    <glyph glyph-name="oMatra_reph_anusvaradeva" horiz-adv-x="209" 
d="M209 695q-22 0 -37 14.5t-15 36.5t15 37.5t37 15.5t37 -15.5t15 -37.5t-15 -36.5t-37 -14.5zM73 0v620h63v-620h-63zM-25 567v63h259v-63h-259zM59 630l-93 141l45 41l119 -182h-71zM-34 771q-25 38 -53.5 46t-65.5 -15l-28 51q61 34 109.5 23t82.5 -64zM51 756
q0 39 19.5 70t56.5 52t89 29l10 -58q-52 -10 -82 -32.5t-30 -60.5h-63zM88 606q-17 33 -27 73t-10 77h63q0 -20 9 -53.5t25 -72.5z" />
    <glyph glyph-name="auMatra_anusvaradeva" horiz-adv-x="209" 
d="M183 722q-22 0 -37 14.5t-15 36.5t15 37.5t37 15.5t37 -15.5t15 -37.5t-15 -36.5t-37 -14.5zM73 0v620h63v-620h-63zM-25 567v63h259v-63h-259zM55 630l-125 101l22 47l184 -148h-81zM-181 719l-45 31q24 34 53.5 48.5t61.5 9.5t63 -30l-22 -47q-30 25 -59 22t-52 -34z
M71 630l-73 174l54 24l84 -198h-65zM-2 804q-14 35 -40.5 48t-58.5 2l-15 64q37 9 69.5 1.5t57.5 -30.5t41 -61z" />
    <glyph glyph-name="auMatra_rephdeva" horiz-adv-x="209" 
d="M88 792q20 33 52 50.5t74.5 17t91.5 -19.5l-20 -55q-51 17 -87.5 12.5t-55.5 -37.5zM45 643q2 38 13 77t30 72l55 -32q-11 -17 -19.5 -50.5t-14.5 -75.5zM73 0v620h63v-620h-63zM-25 567v63h259v-63h-259zM55 630l-125 101l22 47l184 -148h-81zM-181 719l-45 31
q24 34 53.5 48.5t61.5 9.5t63 -30l-22 -47q-30 25 -59 22t-52 -34zM71 630l-73 174l54 24l84 -198h-65zM-2 804q-14 35 -40.5 48t-58.5 2l-15 64q37 9 69.5 1.5t57.5 -30.5t41 -61z" />
    <glyph glyph-name="auMatra_reph_anusvaradeva" horiz-adv-x="209" 
d="M229 695q-22 0 -37 14.5t-15 36.5t15 37.5t37 15.5t37 -15.5t15 -37.5t-15 -36.5t-37 -14.5zM73 0v620h63v-620h-63zM-25 567v63h259v-63h-259zM55 630l-125 101l22 47l184 -148h-81zM-181 719l-45 31q24 34 53.5 48.5t61.5 9.5t63 -30l-22 -47q-30 25 -59 22t-52 -34z
M71 630l-73 174l54 24l84 -198h-65zM-2 804q-14 35 -40.5 48t-58.5 2l-15 64q37 9 69.5 1.5t57.5 -30.5t41 -61zM71 756q0 39 19.5 70t56.5 52t89 29l10 -58q-52 -10 -82 -32.5t-30 -60.5h-63zM108 606q-17 33 -27 73t-10 77h63q0 -20 9 -53.5t25 -72.5z" />
    <glyph glyph-name="uni0940.00" horiz-adv-x="209" 
d="M56 703q-9 55 -24.5 92t-35 56t-41.5 19l-10 60q50 0 85.5 -25.5t58 -74t31.5 -116.5zM-164 723q-12 59 -2 106t39 74t72 27l10 -60q-44 0 -58.5 -39.5t-1.5 -98.5zM69 615l-13 88l64 11l15 -99h-66zM73 0v620h63v-620h-63zM-25 567v63h259v-63h-259z" />
    <glyph glyph-name="iiMatra_anusvaradeva.00" horiz-adv-x="209" 
d="M226 729q-22 0 -37 14.5t-15 36.5t15 37.5t37 15.5t37 -15.5t15 -37.5t-15 -36.5t-37 -14.5zM56 703q-9 55 -24.5 92t-35 56t-41.5 19l-10 60q50 0 85.5 -25.5t58 -74t31.5 -116.5zM-164 723q-12 59 -2 106t39 74t72 27l10 -60q-44 0 -58.5 -39.5t-1.5 -98.5zM69 615
l-13 88l64 11l15 -99h-66zM73 0v620h63v-620h-63zM-25 567v63h259v-63h-259z" />
    <glyph glyph-name="iiMatra_rephdeva.00" horiz-adv-x="209" 
d="M56 703q-9 55 -24.5 92t-35 56t-41.5 19l-10 60q50 0 85.5 -25.5t58 -74t31.5 -116.5zM-164 723q-12 59 -2 106t39 74t72 27l10 -60q-44 0 -58.5 -39.5t-1.5 -98.5zM69 615l-13 88l64 11l15 -99h-66zM73 0v620h63v-620h-63zM-25 567v63h259v-63h-259zM57 756
q0 39 19.5 70t56.5 52t89 29l10 -58q-52 -10 -82 -32.5t-30 -60.5h-63zM94 606q-17 33 -27 73t-10 77h63q0 -20 9 -53.5t25 -72.5z" />
    <glyph glyph-name="iiMatra_reph_anusvaradeva.00" horiz-adv-x="209" 
d="M219 695q-22 0 -37 14.5t-15 36.5t15 37.5t37 15.5t37 -15.5t15 -37.5t-15 -36.5t-37 -14.5zM56 703q-9 55 -24.5 92t-35 56t-41.5 19l-10 60q50 0 85.5 -25.5t58 -74t31.5 -116.5zM-164 723q-12 59 -2 106t39 74t72 27l10 -60q-44 0 -58.5 -39.5t-1.5 -98.5zM69 615
l-13 88l64 11l15 -99h-66zM73 0v620h63v-620h-63zM-25 567v63h259v-63h-259zM61 756q0 39 19.5 70t56.5 52t89 29l10 -58q-52 -10 -82 -32.5t-30 -60.5h-63zM98 606q-17 33 -27 73t-10 77h63q0 -20 9 -53.5t25 -72.5z" />
    <glyph glyph-name="uni093F.01" 
d="M451 733q-28 43 -62.5 73.5t-71.5 47t-73 16.5l-20 60q62 0 114.5 -20t95 -57t73.5 -89zM69 615l-18 87l64 11l20 -98h-66zM51 702q-12 65 5 116.5t60 81.5t108 30l20 -60q-58 0 -88.5 -20.5t-39.5 -56t-1 -80.5zM73 0v620h63v-620h-63zM-25 567v63h259v-63h-259z" />
    <glyph glyph-name="uni093F.02" 
d="M500 733q-33 43 -73.5 73.5t-83 47t-82.5 16.5l-20 60q65 0 122.5 -19.5t106 -56.5t84.5 -89zM69 615l-17 85l63 11l20 -96h-66zM52 700q-13 66 4.5 118t64.5 82t120 30l20 -60q-66 0 -100.5 -21t-44 -56.5t-1.5 -81.5zM73 0v620h63v-620h-63zM-25 567v63h259v-63h-259z
" />
    <glyph glyph-name="uni093F.03" 
d="M548 734q-38 43 -84.5 73.5t-94.5 47t-92 16.5l-20 59q68 0 131 -19.5t117 -56t96 -88.5zM69 615l-17 84l64 11l19 -95h-66zM52 699q-12 65 6.5 117.5t68 83t130.5 30.5l20 -59q-73 0 -111 -21.5t-48 -57.5t-2 -82zM73 0v620h63v-620h-63zM-25 567v63h259v-63h-259z" />
    <glyph glyph-name="uni093F.04" 
d="M597 734q-43 43 -96 73.5t-106.5 47t-100.5 16.5l-20 59q71 0 139 -19.5t128 -55.5t107 -88zM69 615l-17 83l64 10l19 -93h-66zM52 698q-12 65 7 117.5t72.5 83.5t142.5 31l20 -59q-81 0 -122.5 -21.5t-52.5 -58.5t-3 -83zM73 0v620h63v-620h-63zM-25 567v63h259v-63
h-259z" />
    <glyph glyph-name="uni093F.05" 
d="M646 734q-49 43 -107.5 73.5t-118 47t-110.5 16.5l-20 59q74 0 147.5 -19t139.5 -55.5t119 -87.5zM69 615l-17 81l64 11l19 -92h-66zM52 696q-12 66 8 119t76.5 84t153.5 31l20 -59q-89 0 -133.5 -22t-56.5 -59t-4 -83zM73 0v620h63v-620h-63zM-25 567v63h259v-63h-259z
" />
    <glyph glyph-name="uni093F.06" 
d="M695 734q-54 43 -119 73.5t-130 47t-120 16.5l-20 59q78 0 156 -19t150.5 -55t130.5 -87zM69 615l-16 80l63 11l19 -91h-66zM53 695q-13 66 7.5 119t80.5 84.5t165 31.5l20 -59q-97 0 -144.5 -22t-60.5 -59.5t-5 -83.5zM73 0v620h63v-620h-63zM-25 567v63h259v-63h-259z
" />
    <glyph glyph-name="uni093F.07" 
d="M743 735q-59 42 -129.5 72.5t-141 47t-129.5 16.5l-20 59q80 0 163.5 -19t161.5 -54.5t142 -86.5zM69 615l-16 78l64 11l17 -89h-65zM53 693q-9 50 0 93t40.5 75t88 50.5t141.5 18.5l20 -59q-79 0 -127 -13t-71.5 -36t-28.5 -53t1 -65zM73 0v620h63v-620h-63zM-25 567v63
h259v-63h-259z" />
    <glyph glyph-name="uni093F.08" 
d="M792 735q-48 32 -103.5 57t-113.5 43t-113.5 27.5t-102.5 9.5l-20 58q84 0 172.5 -18.5t172.5 -54t153 -86.5zM69 615l-16 77l64 11l17 -88h-65zM53 692q-9 49 0.5 92t42.5 76t92.5 51.5t150.5 18.5l20 -58q-84 0 -135.5 -13t-76.5 -36.5t-30.5 -54t0.5 -65.5zM73 0v620
h63v-620h-63zM-25 567v63h259v-63h-259z" />
    <glyph glyph-name="uni093F.09" 
d="M841 735q-52 32 -112 57t-122.5 43t-121.5 27.5t-109 9.5l-20 58q86 0 179.5 -18.5t183.5 -54t165 -85.5zM69 615l-15 76l63 10l17 -86h-65zM54 691q-10 49 0 92.5t44.5 76.5t97.5 51.5t160 18.5l20 -58q-90 0 -144.5 -13.5t-81.5 -37t-33 -54.5t0 -66zM73 0v620h63v-620
h-63zM-25 567v63h259v-63h-259z" />
    <glyph glyph-name="uni093F.10" 
d="M890 735q-56 32 -121 57t-131.5 43t-129.5 27.5t-116 9.5l-20 58q67 0 140 -10.5t146.5 -30.5t143 -49t129.5 -67zM69 615l-15 74l63 11l17 -85h-65zM54 689q-10 50 0.5 93.5t46.5 76.5t102.5 52t168.5 19l20 -58q-96 0 -153.5 -13.5t-86 -37.5t-35 -55t-0.5 -66zM73 0
v620h63v-620h-63zM-25 567v63h259v-63h-259z" />
    <glyph glyph-name="uni093F.11" 
d="M938 736q-60 31 -129 56t-140 43t-138 27.5t-123 9.5l-20 58q69 0 145.5 -10.5t154.5 -30.5t152 -49t138 -66zM69 615l-15 73l64 11l16 -84h-65zM54 688q-9 50 1.5 93.5t47.5 77t107 52.5t178 19l20 -58q-102 0 -162.5 -13.5t-90.5 -37.5t-36.5 -55.5t-0.5 -66.5zM73 0
v620h63v-620h-63zM-25 567v63h259v-63h-259z" />
    <glyph glyph-name="uni093F.12" 
d="M987 736q-64 31 -137.5 56t-149 43t-146 27.5t-129.5 9.5l-20 58q72 0 151.5 -10.5t161.5 -30t160.5 -48.5t146.5 -66zM69 615l-15 72l64 10l16 -82h-65zM54 687q-9 50 2 93.5t50 77.5t112 53t187 19l20 -58q-108 0 -172 -14t-95.5 -38t-38.5 -55.5t-1 -67.5zM73 0v620
h63v-620h-63zM-25 567v63h259v-63h-259z" />
    <glyph glyph-name="uni093F.13" 
d="M1036 736q-67 32 -145 57t-158.5 43t-155 27.5t-136.5 9.5l-20 57q74 0 157.5 -10t169.5 -30t169 -48.5t156 -65.5zM69 615l-14 70l63 11l16 -81h-65zM55 685q-10 50 1.5 94t51.5 78t116.5 53.5t196.5 19.5l20 -57q-91 0 -152 -9t-97.5 -25.5t-54 -39t-21 -48.5t1.5 -55z
M73 0v620h63v-620h-63zM-25 567v63h259v-63h-259z" />
    <glyph glyph-name="uni093F.14" 
d="M1085 736q-72 32 -154 57t-166.5 43t-163.5 27.5t-143 9.5l-20 57q76 0 163 -10t177.5 -29.5t177.5 -48t164 -65.5zM69 615l-14 69l63 10l16 -79h-65zM55 684q-8 40 -2.5 76.5t29 67t68.5 53.5t116 36t172 13l20 -57q-96 0 -160 -9.5t-102.5 -26t-57 -39t-22 -49
t1.5 -55.5zM73 0v620h63v-620h-63zM-25 567v63h259v-63h-259z" />
    <glyph glyph-name="uni093F.15" 
d="M1133 737q-75 31 -161.5 56t-175.5 43t-172 27.5t-150 9.5l-20 57q78 0 168.5 -10t185.5 -29.5t186.5 -48t172.5 -64.5zM69 615l-14 68l64 10l15 -78h-65zM55 683q-8 40 -2 76.5t30 67.5t70.5 54t120.5 36t180 13l20 -57q-100 0 -167 -9.5t-107.5 -26.5t-59.5 -39.5
t-22.5 -49t1.5 -55.5zM73 0v620h63v-620h-63zM-25 567v63h259v-63h-259z" />
    <glyph glyph-name="uni093F.16" 
d="M1182 737q-79 31 -170.5 56t-184.5 43t-180 27.5t-157 9.5l-20 57q81 0 175 -10t193 -29t195 -47.5t181 -64.5zM69 615l-14 66l64 11l15 -77h-65zM55 681q-7 40 -1 77t30.5 68t73 54.5t125.5 36.5t187 13l20 -57q-105 0 -175 -9.5t-111.5 -26.5t-61.5 -40t-24 -49.5
t1 -55.5zM73 0v620h63v-620h-63zM-25 567v63h259v-63h-259z" />
    <glyph glyph-name="uni093F.17" 
d="M1231 737q-83 31 -179 56t-193.5 43t-188 27.5t-163.5 9.5l-20 57q83 0 180.5 -10t200.5 -29t203.5 -47t189.5 -64zM69 615l-13 65l63 10l15 -75h-65zM56 680q-8 40 -2 77t32 68.5t76 55t130 36.5t195 13l20 -57q-109 0 -182.5 -9.5t-117 -27t-64.5 -40.5t-25 -50t1 -56z
M73 0v620h63v-620h-63zM-25 567v63h259v-63h-259z" />
    <glyph glyph-name="uni093F.18" 
d="M1280 737q-87 31 -187 56.5t-202.5 43.5t-197 27.5t-170.5 9.5l-20 56q86 0 187 -10t208 -28.5t212 -46.5t198 -64zM69 615l-13 64l63 10l15 -74h-65zM56 679q-8 40 -1.5 77t32.5 68.5t78 55t135 37t203 13.5l20 -56q-114 0 -190 -10t-121.5 -27.5t-67 -40.5t-26 -50.5
t0.5 -56.5zM73 0v620h63v-620h-63zM-25 567v63h259v-63h-259z" />
    <glyph glyph-name="uni093F.19" 
d="M1328 738q-91 31 -195 56t-211 43t-205 27.5t-177 9.5l-20 56q87 0 191.5 -9.5t216 -28.5t221 -46.5t206.5 -63.5zM69 615l-13 62l64 10l13 -72h-64zM56 677q-7 40 -0.5 77.5t33.5 69t80.5 55.5t139.5 37.5t211 13.5l20 -56q-119 0 -198 -10t-126 -27.5t-69.5 -41
t-27 -51.5t0.5 -57zM73 0v620h63v-620h-63zM-25 567v63h259v-63h-259z" />
    <glyph glyph-name="uni093F.20" 
d="M1377 738q-94 31 -203 56t-220 43t-213.5 27.5t-184.5 9.5l-20 56q90 0 198 -9.5t223.5 -28.5t229.5 -46t215 -63zM69 615l-12 61l63 10l13 -71h-64zM57 676q-8 40 -1.5 77.5t34.5 69.5t83 56t144 37.5t219 13.5l20 -56q-123 0 -205 -10t-131 -28t-72.5 -41.5t-28 -51.5
t0.5 -57zM73 0v620h63v-620h-63zM-25 567v63h259v-63h-259z" />
    <glyph glyph-name="uni093F.21" 
d="M1426 738q-99 31 -212 56t-228.5 43t-222 27.5t-191.5 9.5l-20 56q92 0 204 -9.5t231.5 -28t238 -46t224.5 -62.5zM69 615l-12 59l63 11l13 -70h-64zM57 674q-8 40 -1 78t35.5 70t85.5 56.5t149 38t226 13.5l20 -56q-128 0 -213 -10t-136 -28t-74.5 -42t-28.5 -52t0 -57z
M73 0v620h63v-620h-63zM-25 567v63h259v-63h-259z" />
    <glyph glyph-name="uni093F.24" 
d="M1572 739q-88 24 -187 45t-202.5 38t-203.5 28.5t-191.5 18t-165.5 6.5l-20 55q99 0 221 -9t254.5 -27.5t264 -45t249.5 -61.5zM69 615l-11 55l63 10l12 -65h-64zM58 670q-6 34 -2.5 66t22 61t56.5 53.5t100.5 42t153 27.5t214.5 10l20 -55q-118 0 -203 -7.5t-141.5 -21
t-90.5 -31.5t-49.5 -40t-18 -46t1.5 -49zM73 0v620h63v-620h-63zM-25 567v63h259v-63h-259z" />
    <glyph glyph-name="iMatra_anusvaradeva.01" 
d="M554 829q-22 0 -37 14.5t-15 36.5t15 37.5t37 15.5t37 -15.5t15 -37.5t-15 -36.5t-37 -14.5zM451 733q-28 43 -62.5 73.5t-71.5 47t-73 16.5l-20 60q62 0 114.5 -20t95 -57t73.5 -89zM69 615l-18 87l64 11l20 -98h-66zM51 702q-12 65 5 116.5t60 81.5t108 30l20 -60
q-58 0 -88.5 -20.5t-39.5 -56t-1 -80.5zM73 0v620h63v-620h-63zM-25 567v63h259v-63h-259z" />
    <glyph glyph-name="iMatra_anusvaradeva.02" 
d="M602 827q-22 0 -37 14.5t-15 36.5t15 37.5t37 15.5t37 -15.5t15 -37.5t-15 -36.5t-37 -14.5zM500 733q-33 43 -73.5 73.5t-83 47t-82.5 16.5l-20 60q65 0 122.5 -19.5t106 -56.5t84.5 -89zM69 615l-17 85l63 11l20 -96h-66zM52 700q-13 66 4.5 118t64.5 82t120 30l20 -60
q-66 0 -100.5 -21t-44 -56.5t-1.5 -81.5zM73 0v620h63v-620h-63zM-25 567v63h259v-63h-259z" />
    <glyph glyph-name="iMatra_anusvaradeva.03" 
d="M651 824q-22 0 -37 14.5t-15 36.5t15 37.5t37 15.5t37 -15.5t15 -37.5t-15 -36.5t-37 -14.5zM548 734q-38 43 -84.5 73.5t-94.5 47t-92 16.5l-20 59q68 0 131 -19.5t117 -56t96 -88.5zM69 615l-17 84l64 11l19 -95h-66zM52 699q-12 65 6.5 117.5t68 83t130.5 30.5l20 -59
q-73 0 -111 -21.5t-48 -57.5t-2 -82zM73 0v620h63v-620h-63zM-25 567v63h259v-63h-259z" />
    <glyph glyph-name="iMatra_anusvaradeva.04" 
d="M700 822q-22 0 -37 14.5t-15 36.5t15 37.5t37 15.5t37 -15.5t15 -37.5t-15 -36.5t-37 -14.5zM597 734q-43 43 -96 73.5t-106.5 47t-100.5 16.5l-20 59q71 0 139 -19.5t128 -55.5t107 -88zM69 615l-17 83l64 10l19 -93h-66zM52 698q-12 65 7 117.5t72.5 83.5t142.5 31
l20 -59q-81 0 -122.5 -21.5t-52.5 -58.5t-3 -83zM73 0v620h63v-620h-63zM-25 567v63h259v-63h-259z" />
    <glyph glyph-name="iMatra_anusvaradeva.05" 
d="M748 819q-22 0 -37 14.5t-15 36.5t15 37.5t37 15.5t37 -15.5t15 -37.5t-15 -36.5t-37 -14.5zM646 734q-49 43 -107.5 73.5t-118 47t-110.5 16.5l-20 59q74 0 147.5 -19t139.5 -55.5t119 -87.5zM69 615l-17 81l64 11l19 -92h-66zM52 696q-12 66 8 119t76.5 84t153.5 31
l20 -59q-89 0 -133.5 -22t-56.5 -59t-4 -83zM73 0v620h63v-620h-63zM-25 567v63h259v-63h-259z" />
    <glyph glyph-name="iMatra_anusvaradeva.06" 
d="M797 817q-22 0 -37 14.5t-15 36.5t15 37.5t37 15.5t37 -15.5t15 -37.5t-15 -36.5t-37 -14.5zM695 734q-54 43 -119 73.5t-130 47t-120 16.5l-20 59q78 0 156 -19t150.5 -55t130.5 -87zM69 615l-16 80l63 11l19 -91h-66zM53 695q-13 66 7.5 119t80.5 84.5t165 31.5l20 -59
q-97 0 -144.5 -22t-60.5 -59.5t-5 -83.5zM73 0v620h63v-620h-63zM-25 567v63h259v-63h-259z" />
    <glyph glyph-name="iMatra_anusvaradeva.07" 
d="M846 814q-22 0 -37 14.5t-15 36.5t15 37.5t37 15.5t37 -15.5t15 -37.5t-15 -36.5t-37 -14.5zM743 735q-59 42 -129.5 72.5t-141 47t-129.5 16.5l-20 59q80 0 163.5 -19t161.5 -54.5t142 -86.5zM69 615l-16 78l64 11l17 -89h-65zM53 693q-9 50 0 93t40.5 75t88 50.5
t141.5 18.5l20 -59q-79 0 -127 -13t-71.5 -36t-28.5 -53t1 -65zM73 0v620h63v-620h-63zM-25 567v63h259v-63h-259z" />
    <glyph glyph-name="iMatra_anusvaradeva.08" 
d="M894 812q-22 0 -37 14.5t-15 36.5t15 37.5t37 15.5t37 -15.5t15 -37.5t-15 -36.5t-37 -14.5zM792 735q-48 32 -103.5 57t-113.5 43t-113.5 27.5t-102.5 9.5l-20 58q84 0 172.5 -18.5t172.5 -54t153 -86.5zM69 615l-16 77l64 11l17 -88h-65zM53 692q-9 49 0.5 92t42.5 76
t92.5 51.5t150.5 18.5l20 -58q-84 0 -135.5 -13t-76.5 -36.5t-30.5 -54t0.5 -65.5zM73 0v620h63v-620h-63zM-25 567v63h259v-63h-259z" />
    <glyph glyph-name="iMatra_anusvaradeva.09" 
d="M943 809q-22 0 -37 14.5t-15 36.5t15 37.5t37 15.5t37 -15.5t15 -37.5t-15 -36.5t-37 -14.5zM841 735q-52 32 -112 57t-122.5 43t-121.5 27.5t-109 9.5l-20 58q86 0 179.5 -18.5t183.5 -54t165 -85.5zM69 615l-15 76l63 10l17 -86h-65zM54 691q-10 49 0 92.5t44.5 76.5
t97.5 51.5t160 18.5l20 -58q-90 0 -144.5 -13.5t-81.5 -37t-33 -54.5t0 -66zM73 0v620h63v-620h-63zM-25 567v63h259v-63h-259z" />
    <glyph glyph-name="iMatra_anusvaradeva.10" 
d="M992 806q-22 0 -37 14.5t-15 36.5t15 37.5t37 15.5t37 -15.5t15 -37.5t-15 -36.5t-37 -14.5zM890 735q-56 32 -121 57t-131.5 43t-129.5 27.5t-116 9.5l-20 58q67 0 140 -10.5t146.5 -30.5t143 -49t129.5 -67zM69 615l-15 74l63 11l17 -85h-65zM54 689q-10 50 0.5 93.5
t46.5 76.5t102.5 52t168.5 19l20 -58q-96 0 -153.5 -13.5t-86 -37.5t-35 -55t-0.5 -66zM73 0v620h63v-620h-63zM-25 567v63h259v-63h-259z" />
    <glyph glyph-name="iMatra_anusvaradeva.11" 
d="M1040 804q-22 0 -37 14.5t-15 36.5t15 37.5t37 15.5t37 -15.5t15 -37.5t-15 -36.5t-37 -14.5zM938 736q-60 31 -129 56t-140 43t-138 27.5t-123 9.5l-20 58q69 0 145.5 -10.5t154.5 -30.5t152 -49t138 -66zM69 615l-15 73l64 11l16 -84h-65zM54 688q-9 50 1.5 93.5
t47.5 77t107 52.5t178 19l20 -58q-102 0 -162.5 -13.5t-90.5 -37.5t-36.5 -55.5t-0.5 -66.5zM73 0v620h63v-620h-63zM-25 567v63h259v-63h-259z" />
    <glyph glyph-name="iMatra_anusvaradeva.12" 
d="M1089 801q-22 0 -37 14.5t-15 36.5t15 37.5t37 15.5t37 -15.5t15 -37.5t-15 -36.5t-37 -14.5zM987 736q-64 31 -137.5 56t-149 43t-146 27.5t-129.5 9.5l-20 58q72 0 151.5 -10.5t161.5 -30t160.5 -48.5t146.5 -66zM69 615l-15 72l64 10l16 -82h-65zM54 687q-9 50 2 93.5
t50 77.5t112 53t187 19l20 -58q-108 0 -172 -14t-95.5 -38t-38.5 -55.5t-1 -67.5zM73 0v620h63v-620h-63zM-25 567v63h259v-63h-259z" />
    <glyph glyph-name="iMatra_anusvaradeva.13" 
d="M1138 799q-22 0 -37 14.5t-15 36.5t15 37.5t37 15.5t37 -15.5t15 -37.5t-15 -36.5t-37 -14.5zM1036 736q-67 32 -145 57t-158.5 43t-155 27.5t-136.5 9.5l-20 57q74 0 157.5 -10t169.5 -30t169 -48.5t156 -65.5zM69 615l-14 70l63 11l16 -81h-65zM55 685q-10 50 1.5 94
t51.5 78t116.5 53.5t196.5 19.5l20 -57q-91 0 -152 -9t-97.5 -25.5t-54 -39t-21 -48.5t1.5 -55zM73 0v620h63v-620h-63zM-25 567v63h259v-63h-259z" />
    <glyph glyph-name="iMatra_anusvaradeva.14" 
d="M1187 796q-22 0 -37 14.5t-15 36.5t15 37.5t37 15.5t37 -15.5t15 -37.5t-15 -36.5t-37 -14.5zM1085 736q-72 32 -154 57t-166.5 43t-163.5 27.5t-143 9.5l-20 57q76 0 163 -10t177.5 -29.5t177.5 -48t164 -65.5zM69 615l-14 69l63 10l16 -79h-65zM55 684q-8 40 -2.5 76.5
t29 67t68.5 53.5t116 36t172 13l20 -57q-96 0 -160 -9.5t-102.5 -26t-57 -39t-22 -49t1.5 -55.5zM73 0v620h63v-620h-63zM-25 567v63h259v-63h-259z" />
    <glyph glyph-name="iMatra_anusvaradeva.15" 
d="M1235 794q-22 0 -37 14.5t-15 36.5t15 37.5t37 15.5t37 -15.5t15 -37.5t-15 -36.5t-37 -14.5zM1133 737q-75 31 -161.5 56t-175.5 43t-172 27.5t-150 9.5l-20 57q78 0 168.5 -10t185.5 -29.5t186.5 -48t172.5 -64.5zM69 615l-14 68l64 10l15 -78h-65zM55 683
q-8 40 -2 76.5t30 67.5t70.5 54t120.5 36t180 13l20 -57q-100 0 -167 -9.5t-107.5 -26.5t-59.5 -39.5t-22.5 -49t1.5 -55.5zM73 0v620h63v-620h-63zM-25 567v63h259v-63h-259z" />
    <glyph glyph-name="iMatra_anusvaradeva.16" 
d="M1284 791q-22 0 -37 14.5t-15 36.5t15 37.5t37 15.5t37 -15.5t15 -37.5t-15 -36.5t-37 -14.5zM1182 737q-79 31 -170.5 56t-184.5 43t-180 27.5t-157 9.5l-20 57q81 0 175 -10t193 -29t195 -47.5t181 -64.5zM69 615l-14 66l64 11l15 -77h-65zM55 681q-7 40 -1 77t30.5 68
t73 54.5t125.5 36.5t187 13l20 -57q-105 0 -175 -9.5t-111.5 -26.5t-61.5 -40t-24 -49.5t1 -55.5zM73 0v620h63v-620h-63zM-25 567v63h259v-63h-259z" />
    <glyph glyph-name="iMatra_anusvaradeva.17" 
d="M1333 788q-22 0 -37 14.5t-15 36.5t15 37.5t37 15.5t37 -15.5t15 -37.5t-15 -36.5t-37 -14.5zM1231 737q-83 31 -179 56t-193.5 43t-188 27.5t-163.5 9.5l-20 57q83 0 180.5 -10t200.5 -29t203.5 -47t189.5 -64zM69 615l-13 65l63 10l15 -75h-65zM56 680q-8 40 -2 77
t32 68.5t76 55t130 36.5t195 13l20 -57q-109 0 -182.5 -9.5t-117 -27t-64.5 -40.5t-25 -50t1 -56zM73 0v620h63v-620h-63zM-25 567v63h259v-63h-259z" />
    <glyph glyph-name="iMatra_anusvaradeva.18" 
d="M1381 786q-22 0 -37 14.5t-15 36.5t15 37.5t37 15.5t37 -15.5t15 -37.5t-15 -36.5t-37 -14.5zM1280 737q-87 31 -187 56.5t-202.5 43.5t-197 27.5t-170.5 9.5l-20 56q86 0 187 -10t208 -28.5t212 -46.5t198 -64zM69 615l-13 64l63 10l15 -74h-65zM56 679q-8 40 -1.5 77
t32.5 68.5t78 55t135 37t203 13.5l20 -56q-114 0 -190 -10t-121.5 -27.5t-67 -40.5t-26 -50.5t0.5 -56.5zM73 0v620h63v-620h-63zM-25 567v63h259v-63h-259z" />
    <glyph glyph-name="iMatra_anusvaradeva.19" 
d="M1430 783q-22 0 -37 14.5t-15 36.5t15 37.5t37 15.5t37 -15.5t15 -37.5t-15 -36.5t-37 -14.5zM1328 738q-91 31 -195 56t-211 43t-205 27.5t-177 9.5l-20 56q87 0 191.5 -9.5t216 -28.5t221 -46.5t206.5 -63.5zM69 615l-13 62l64 10l13 -72h-64zM56 677q-7 40 -0.5 77.5
t33.5 69t80.5 55.5t139.5 37.5t211 13.5l20 -56q-119 0 -198 -10t-126 -27.5t-69.5 -41t-27 -51.5t0.5 -57zM73 0v620h63v-620h-63zM-25 567v63h259v-63h-259z" />
    <glyph glyph-name="iMatra_anusvaradeva.20" 
d="M1479 781q-22 0 -37 14.5t-15 36.5t15 37.5t37 15.5t37 -15.5t15 -37.5t-15 -36.5t-37 -14.5zM1377 738q-94 31 -203 56t-220 43t-213.5 27.5t-184.5 9.5l-20 56q90 0 198 -9.5t223.5 -28.5t229.5 -46t215 -63zM69 615l-12 61l63 10l13 -71h-64zM57 676q-8 40 -1.5 77.5
t34.5 69.5t83 56t144 37.5t219 13.5l20 -56q-123 0 -205 -10t-131 -28t-72.5 -41.5t-28 -51.5t0.5 -57zM73 0v620h63v-620h-63zM-25 567v63h259v-63h-259z" />
    <glyph glyph-name="iMatra_anusvaradeva.21" 
d="M1527 778q-22 0 -37 14.5t-15 36.5t15 37.5t37 15.5t37 -15.5t15 -37.5t-15 -36.5t-37 -14.5zM1426 738q-99 31 -212 56t-228.5 43t-222 27.5t-191.5 9.5l-20 56q92 0 204 -9.5t231.5 -28t238 -46t224.5 -62.5zM69 615l-12 59l63 11l13 -70h-64zM57 674q-8 40 -1 78
t35.5 70t85.5 56.5t149 38t226 13.5l20 -56q-128 0 -213 -10t-136 -28t-74.5 -42t-28.5 -52t0 -57zM73 0v620h63v-620h-63zM-25 567v63h259v-63h-259z" />
    <glyph glyph-name="iMatra_anusvaradeva.24" 
d="M1673 771q-22 0 -37 14.5t-15 36.5t15 37.5t37 15.5t37 -15.5t15 -37.5t-15 -36.5t-37 -14.5zM1572 739q-88 24 -187 45t-202.5 38t-203.5 28.5t-191.5 18t-165.5 6.5l-20 55q99 0 221 -9t254.5 -27.5t264 -45t249.5 -61.5zM69 615l-11 55l63 10l12 -65h-64zM58 670
q-6 34 -2.5 66t22 61t56.5 53.5t100.5 42t153 27.5t214.5 10l20 -55q-118 0 -203 -7.5t-141.5 -21t-90.5 -31.5t-49.5 -40t-18 -46t1.5 -49zM73 0v620h63v-620h-63zM-25 567v63h259v-63h-259z" />
    <glyph glyph-name="iMatra_rephdeva.01" 
d="M451 733q-28 43 -62.5 73.5t-71.5 47t-73 16.5l-20 60q62 0 114.5 -20t95 -57t73.5 -89zM69 615l-18 87l64 11l20 -98h-66zM51 702q-12 65 5 116.5t60 81.5t108 30l20 -60q-58 0 -88.5 -20.5t-39.5 -56t-1 -80.5zM73 0v620h63v-620h-63zM-25 567v63h259v-63h-259z
M434 825q0 39 19.5 70t56.5 52t89 29l10 -58q-52 -10 -82 -32.5t-30 -60.5h-63zM471 675q-17 33 -27 73t-10 77h63q0 -20 9 -53.5t25 -72.5z" />
    <glyph glyph-name="iMatra_rephdeva.02" 
d="M500 733q-33 43 -73.5 73.5t-83 47t-82.5 16.5l-20 60q65 0 122.5 -19.5t106 -56.5t84.5 -89zM69 615l-17 85l63 11l20 -96h-66zM52 700q-13 66 4.5 118t64.5 82t120 30l20 -60q-66 0 -100.5 -21t-44 -56.5t-1.5 -81.5zM73 0v620h63v-620h-63zM-25 567v63h259v-63h-259z
M483 824q0 39 19.5 70t56.5 52t89 29l10 -58q-52 -10 -82 -32.5t-30 -60.5h-63zM520 674q-17 33 -27 73t-10 77h63q0 -20 9 -53.5t25 -72.5z" />
    <glyph glyph-name="iMatra_rephdeva.03" 
d="M548 734q-38 43 -84.5 73.5t-94.5 47t-92 16.5l-20 59q68 0 131 -19.5t117 -56t96 -88.5zM69 615l-17 84l64 11l19 -95h-66zM52 699q-12 65 6.5 117.5t68 83t130.5 30.5l20 -59q-73 0 -111 -21.5t-48 -57.5t-2 -82zM73 0v620h63v-620h-63zM-25 567v63h259v-63h-259z
M531 823q0 39 19.5 70t56.5 52t89 29l10 -58q-52 -10 -82 -32.5t-30 -60.5h-63zM568 673q-17 33 -27 73t-10 77h63q0 -20 9 -53.5t25 -72.5z" />
    <glyph glyph-name="iMatra_rephdeva.04" 
d="M597 734q-43 43 -96 73.5t-106.5 47t-100.5 16.5l-20 59q71 0 139 -19.5t128 -55.5t107 -88zM69 615l-17 83l64 10l19 -93h-66zM52 698q-12 65 7 117.5t72.5 83.5t142.5 31l20 -59q-81 0 -122.5 -21.5t-52.5 -58.5t-3 -83zM73 0v620h63v-620h-63zM-25 567v63h259v-63
h-259zM579 822q0 39 19.5 70t56.5 52t89 29l10 -58q-52 -10 -82 -32.5t-30 -60.5h-63zM616 672q-17 33 -27 73t-10 77h63q0 -20 9 -53.5t25 -72.5z" />
    <glyph glyph-name="iMatra_rephdeva.05" 
d="M646 734q-49 43 -107.5 73.5t-118 47t-110.5 16.5l-20 59q74 0 147.5 -19t139.5 -55.5t119 -87.5zM69 615l-17 81l64 11l19 -92h-66zM52 696q-12 66 8 119t76.5 84t153.5 31l20 -59q-89 0 -133.5 -22t-56.5 -59t-4 -83zM73 0v620h63v-620h-63zM-25 567v63h259v-63h-259z
M627 822q0 39 19.5 70t56.5 52t89 29l10 -58q-52 -10 -82 -32.5t-30 -60.5h-63zM664 672q-17 33 -27 73t-10 77h63q0 -20 9 -53.5t25 -72.5z" />
    <glyph glyph-name="iMatra_rephdeva.06" 
d="M695 734q-54 43 -119 73.5t-130 47t-120 16.5l-20 59q78 0 156 -19t150.5 -55t130.5 -87zM69 615l-16 80l63 11l19 -91h-66zM53 695q-13 66 7.5 119t80.5 84.5t165 31.5l20 -59q-97 0 -144.5 -22t-60.5 -59.5t-5 -83.5zM73 0v620h63v-620h-63zM-25 567v63h259v-63h-259z
M676 821q0 39 19.5 70t56.5 52t89 29l10 -58q-52 -10 -82 -32.5t-30 -60.5h-63zM713 671q-17 33 -27 73t-10 77h63q0 -20 9 -53.5t25 -72.5z" />
    <glyph glyph-name="iMatra_rephdeva.07" 
d="M743 735q-59 42 -129.5 72.5t-141 47t-129.5 16.5l-20 59q80 0 163.5 -19t161.5 -54.5t142 -86.5zM69 615l-16 78l64 11l17 -89h-65zM53 693q-9 50 0 93t40.5 75t88 50.5t141.5 18.5l20 -59q-79 0 -127 -13t-71.5 -36t-28.5 -53t1 -65zM73 0v620h63v-620h-63zM-25 567v63
h259v-63h-259zM724 820q0 39 19.5 70t56.5 52t89 29l10 -58q-52 -10 -82 -32.5t-30 -60.5h-63zM761 670q-17 33 -27 73t-10 77h63q0 -20 9 -53.5t25 -72.5z" />
    <glyph glyph-name="iMatra_rephdeva.08" 
d="M792 735q-48 32 -103.5 57t-113.5 43t-113.5 27.5t-102.5 9.5l-20 58q84 0 172.5 -18.5t172.5 -54t153 -86.5zM69 615l-16 77l64 11l17 -88h-65zM53 692q-9 49 0.5 92t42.5 76t92.5 51.5t150.5 18.5l20 -58q-84 0 -135.5 -13t-76.5 -36.5t-30.5 -54t0.5 -65.5zM73 0v620
h63v-620h-63zM-25 567v63h259v-63h-259zM772 819q0 39 19.5 70t56.5 52t89 29l10 -58q-52 -10 -82 -32.5t-30 -60.5h-63zM809 669q-17 33 -27 73t-10 77h63q0 -20 9 -53.5t25 -72.5z" />
    <glyph glyph-name="iMatra_rephdeva.09" 
d="M841 735q-52 32 -112 57t-122.5 43t-121.5 27.5t-109 9.5l-20 58q86 0 179.5 -18.5t183.5 -54t165 -85.5zM69 615l-15 76l63 10l17 -86h-65zM54 691q-10 49 0 92.5t44.5 76.5t97.5 51.5t160 18.5l20 -58q-90 0 -144.5 -13.5t-81.5 -37t-33 -54.5t0 -66zM73 0v620h63v-620
h-63zM-25 567v63h259v-63h-259zM821 818q0 39 19.5 70t56.5 52t89 29l10 -58q-52 -10 -82 -32.5t-30 -60.5h-63zM858 668q-17 33 -27 73t-10 77h63q0 -20 9 -53.5t25 -72.5z" />
    <glyph glyph-name="iMatra_rephdeva.10" 
d="M890 735q-56 32 -121 57t-131.5 43t-129.5 27.5t-116 9.5l-20 58q67 0 140 -10.5t146.5 -30.5t143 -49t129.5 -67zM69 615l-15 74l63 11l17 -85h-65zM54 689q-10 50 0.5 93.5t46.5 76.5t102.5 52t168.5 19l20 -58q-96 0 -153.5 -13.5t-86 -37.5t-35 -55t-0.5 -66zM73 0
v620h63v-620h-63zM-25 567v63h259v-63h-259zM869 817q0 39 19.5 70t56.5 52t89 29l10 -58q-52 -10 -82 -32.5t-30 -60.5h-63zM906 667q-17 33 -27 73t-10 77h63q0 -20 9 -53.5t25 -72.5z" />
    <glyph glyph-name="iMatra_rephdeva.11" 
d="M938 736q-60 31 -129 56t-140 43t-138 27.5t-123 9.5l-20 58q69 0 145.5 -10.5t154.5 -30.5t152 -49t138 -66zM69 615l-15 73l64 11l16 -84h-65zM54 688q-9 50 1.5 93.5t47.5 77t107 52.5t178 19l20 -58q-102 0 -162.5 -13.5t-90.5 -37.5t-36.5 -55.5t-0.5 -66.5zM73 0
v620h63v-620h-63zM-25 567v63h259v-63h-259zM917 816q0 39 19.5 70t56.5 52t89 29l10 -58q-52 -10 -82 -32.5t-30 -60.5h-63zM954 666q-17 33 -27 73t-10 77h63q0 -20 9 -53.5t25 -72.5z" />
    <glyph glyph-name="iMatra_rephdeva.12" 
d="M987 736q-64 31 -137.5 56t-149 43t-146 27.5t-129.5 9.5l-20 58q72 0 151.5 -10.5t161.5 -30t160.5 -48.5t146.5 -66zM69 615l-15 72l64 10l16 -82h-65zM54 687q-9 50 2 93.5t50 77.5t112 53t187 19l20 -58q-108 0 -172 -14t-95.5 -38t-38.5 -55.5t-1 -67.5zM73 0v620
h63v-620h-63zM-25 567v63h259v-63h-259zM965 815q0 39 19.5 70t56.5 52t89 29l10 -58q-52 -10 -82 -32.5t-30 -60.5h-63zM1002 665q-17 33 -27 73t-10 77h63q0 -20 9 -53.5t25 -72.5z" />
    <glyph glyph-name="iMatra_rephdeva.13" 
d="M1036 736q-67 32 -145 57t-158.5 43t-155 27.5t-136.5 9.5l-20 57q74 0 157.5 -10t169.5 -30t169 -48.5t156 -65.5zM69 615l-14 70l63 11l16 -81h-65zM55 685q-10 50 1.5 94t51.5 78t116.5 53.5t196.5 19.5l20 -57q-91 0 -152 -9t-97.5 -25.5t-54 -39t-21 -48.5t1.5 -55z
M73 0v620h63v-620h-63zM-25 567v63h259v-63h-259zM1014 815q0 39 19.5 70t56.5 52t89 29l10 -58q-52 -10 -82 -32.5t-30 -60.5h-63zM1051 665q-17 33 -27 73t-10 77h63q0 -20 9 -53.5t25 -72.5z" />
    <glyph glyph-name="iMatra_rephdeva.14" 
d="M1085 736q-72 32 -154 57t-166.5 43t-163.5 27.5t-143 9.5l-20 57q76 0 163 -10t177.5 -29.5t177.5 -48t164 -65.5zM69 615l-14 69l63 10l16 -79h-65zM55 684q-8 40 -2.5 76.5t29 67t68.5 53.5t116 36t172 13l20 -57q-96 0 -160 -9.5t-102.5 -26t-57 -39t-22 -49
t1.5 -55.5zM73 0v620h63v-620h-63zM-25 567v63h259v-63h-259zM1062 814q0 39 19.5 70t56.5 52t89 29l10 -58q-52 -10 -82 -32.5t-30 -60.5h-63zM1099 664q-17 33 -27 73t-10 77h63q0 -20 9 -53.5t25 -72.5z" />
    <glyph glyph-name="iMatra_rephdeva.15" 
d="M1133 737q-75 31 -161.5 56t-175.5 43t-172 27.5t-150 9.5l-20 57q78 0 168.5 -10t185.5 -29.5t186.5 -48t172.5 -64.5zM69 615l-14 68l64 10l15 -78h-65zM55 683q-8 40 -2 76.5t30 67.5t70.5 54t120.5 36t180 13l20 -57q-100 0 -167 -9.5t-107.5 -26.5t-59.5 -39.5
t-22.5 -49t1.5 -55.5zM73 0v620h63v-620h-63zM-25 567v63h259v-63h-259zM1110 813q0 39 19.5 70t56.5 52t89 29l10 -58q-52 -10 -82 -32.5t-30 -60.5h-63zM1147 663q-17 33 -27 73t-10 77h63q0 -20 9 -53.5t25 -72.5z" />
    <glyph glyph-name="iMatra_rephdeva.16" 
d="M1182 737q-79 31 -170.5 56t-184.5 43t-180 27.5t-157 9.5l-20 57q81 0 175 -10t193 -29t195 -47.5t181 -64.5zM69 615l-14 66l64 11l15 -77h-65zM55 681q-7 40 -1 77t30.5 68t73 54.5t125.5 36.5t187 13l20 -57q-105 0 -175 -9.5t-111.5 -26.5t-61.5 -40t-24 -49.5
t1 -55.5zM73 0v620h63v-620h-63zM-25 567v63h259v-63h-259zM1158 812q0 39 19.5 70t56.5 52t89 29l10 -58q-52 -10 -82 -32.5t-30 -60.5h-63zM1195 662q-17 33 -27 73t-10 77h63q0 -20 9 -53.5t25 -72.5z" />
    <glyph glyph-name="iMatra_rephdeva.17" 
d="M1231 737q-83 31 -179 56t-193.5 43t-188 27.5t-163.5 9.5l-20 57q83 0 180.5 -10t200.5 -29t203.5 -47t189.5 -64zM69 615l-13 65l63 10l15 -75h-65zM56 680q-8 40 -2 77t32 68.5t76 55t130 36.5t195 13l20 -57q-109 0 -182.5 -9.5t-117 -27t-64.5 -40.5t-25 -50t1 -56z
M73 0v620h63v-620h-63zM-25 567v63h259v-63h-259zM1207 811q0 39 19.5 70t56.5 52t89 29l10 -58q-52 -10 -82 -32.5t-30 -60.5h-63zM1244 661q-17 33 -27 73t-10 77h63q0 -20 9 -53.5t25 -72.5z" />
    <glyph glyph-name="iMatra_rephdeva.18" 
d="M1280 737q-87 31 -187 56.5t-202.5 43.5t-197 27.5t-170.5 9.5l-20 56q86 0 187 -10t208 -28.5t212 -46.5t198 -64zM69 615l-13 64l63 10l15 -74h-65zM56 679q-8 40 -1.5 77t32.5 68.5t78 55t135 37t203 13.5l20 -56q-114 0 -190 -10t-121.5 -27.5t-67 -40.5t-26 -50.5
t0.5 -56.5zM73 0v620h63v-620h-63zM-25 567v63h259v-63h-259zM1255 810q0 39 19.5 70t56.5 52t89 29l10 -58q-52 -10 -82 -32.5t-30 -60.5h-63zM1292 660q-17 33 -27 73t-10 77h63q0 -20 9 -53.5t25 -72.5z" />
    <glyph glyph-name="iMatra_rephdeva.19" 
d="M1328 738q-91 31 -195 56t-211 43t-205 27.5t-177 9.5l-20 56q87 0 191.5 -9.5t216 -28.5t221 -46.5t206.5 -63.5zM69 615l-13 62l64 10l13 -72h-64zM56 677q-7 40 -0.5 77.5t33.5 69t80.5 55.5t139.5 37.5t211 13.5l20 -56q-119 0 -198 -10t-126 -27.5t-69.5 -41
t-27 -51.5t0.5 -57zM73 0v620h63v-620h-63zM-25 567v63h259v-63h-259zM1303 809q0 39 19.5 70t56.5 52t89 29l10 -58q-52 -10 -82 -32.5t-30 -60.5h-63zM1340 659q-17 33 -27 73t-10 77h63q0 -20 9 -53.5t25 -72.5z" />
    <glyph glyph-name="iMatra_rephdeva.20" 
d="M1377 738q-94 31 -203 56t-220 43t-213.5 27.5t-184.5 9.5l-20 56q90 0 198 -9.5t223.5 -28.5t229.5 -46t215 -63zM69 615l-12 61l63 10l13 -71h-64zM57 676q-8 40 -1.5 77.5t34.5 69.5t83 56t144 37.5t219 13.5l20 -56q-123 0 -205 -10t-131 -28t-72.5 -41.5t-28 -51.5
t0.5 -57zM73 0v620h63v-620h-63zM-25 567v63h259v-63h-259zM1352 808q0 39 19.5 70t56.5 52t89 29l10 -58q-52 -10 -82 -32.5t-30 -60.5h-63zM1389 658q-17 33 -27 73t-10 77h63q0 -20 9 -53.5t25 -72.5z" />
    <glyph glyph-name="iMatra_rephdeva.21" 
d="M1426 738q-99 31 -212 56t-228.5 43t-222 27.5t-191.5 9.5l-20 56q92 0 204 -9.5t231.5 -28t238 -46t224.5 -62.5zM69 615l-12 59l63 11l13 -70h-64zM57 674q-8 40 -1 78t35.5 70t85.5 56.5t149 38t226 13.5l20 -56q-128 0 -213 -10t-136 -28t-74.5 -42t-28.5 -52t0 -57z
M73 0v620h63v-620h-63zM-25 567v63h259v-63h-259zM1400 808q0 39 19.5 70t56.5 52t89 29l10 -58q-52 -10 -82 -32.5t-30 -60.5h-63zM1437 658q-17 33 -27 73t-10 77h63q0 -20 9 -53.5t25 -72.5z" />
    <glyph glyph-name="iMatra_rephdeva.24" 
d="M1572 739q-88 24 -187 45t-202.5 38t-203.5 28.5t-191.5 18t-165.5 6.5l-20 55q99 0 221 -9t254.5 -27.5t264 -45t249.5 -61.5zM69 615l-11 55l63 10l12 -65h-64zM58 670q-6 34 -2.5 66t22 61t56.5 53.5t100.5 42t153 27.5t214.5 10l20 -55q-118 0 -203 -7.5t-141.5 -21
t-90.5 -31.5t-49.5 -40t-18 -46t1.5 -49zM73 0v620h63v-620h-63zM-25 567v63h259v-63h-259zM1545 805q0 39 19.5 70t56.5 52t89 29l10 -58q-52 -10 -82 -32.5t-30 -60.5h-63zM1582 655q-17 33 -27 73t-10 77h63q0 -20 9 -53.5t25 -72.5z" />
    <glyph glyph-name="iMatra_reph_anusvaradeva.01" 
d="M592 764q-22 0 -37 14.5t-15 36.5t15 37.5t37 15.5t37 -15.5t15 -37.5t-15 -36.5t-37 -14.5zM451 733q-28 43 -62.5 73.5t-71.5 47t-73 16.5l-20 60q62 0 114.5 -20t95 -57t73.5 -89zM69 615l-18 87l64 11l20 -98h-66zM51 702q-12 65 5 116.5t60 81.5t108 30l20 -60
q-58 0 -88.5 -20.5t-39.5 -56t-1 -80.5zM73 0v620h63v-620h-63zM-25 567v63h259v-63h-259zM434 825q0 39 19.5 70t56.5 52t89 29l10 -58q-52 -10 -82 -32.5t-30 -60.5h-63zM471 675q-17 33 -27 73t-10 77h63q0 -20 9 -53.5t25 -72.5z" />
    <glyph glyph-name="iMatra_reph_anusvaradeva.02" 
d="M641 763q-22 0 -37 14.5t-15 36.5t15 37.5t37 15.5t37 -15.5t15 -37.5t-15 -36.5t-37 -14.5zM500 733q-33 43 -73.5 73.5t-83 47t-82.5 16.5l-20 60q65 0 122.5 -19.5t106 -56.5t84.5 -89zM69 615l-17 85l63 11l20 -96h-66zM52 700q-13 66 4.5 118t64.5 82t120 30l20 -60
q-66 0 -100.5 -21t-44 -56.5t-1.5 -81.5zM73 0v620h63v-620h-63zM-25 567v63h259v-63h-259zM483 824q0 39 19.5 70t56.5 52t89 29l10 -58q-52 -10 -82 -32.5t-30 -60.5h-63zM520 674q-17 33 -27 73t-10 77h63q0 -20 9 -53.5t25 -72.5z" />
    <glyph glyph-name="iMatra_reph_anusvaradeva.03" 
d="M689 762q-22 0 -37 14.5t-15 36.5t15 37.5t37 15.5t37 -15.5t15 -37.5t-15 -36.5t-37 -14.5zM548 734q-38 43 -84.5 73.5t-94.5 47t-92 16.5l-20 59q68 0 131 -19.5t117 -56t96 -88.5zM69 615l-17 84l64 11l19 -95h-66zM52 699q-12 65 6.5 117.5t68 83t130.5 30.5l20 -59
q-73 0 -111 -21.5t-48 -57.5t-2 -82zM73 0v620h63v-620h-63zM-25 567v63h259v-63h-259zM531 823q0 39 19.5 70t56.5 52t89 29l10 -58q-52 -10 -82 -32.5t-30 -60.5h-63zM568 673q-17 33 -27 73t-10 77h63q0 -20 9 -53.5t25 -72.5z" />
    <glyph glyph-name="iMatra_reph_anusvaradeva.04" 
d="M737 761q-22 0 -37 14.5t-15 36.5t15 37.5t37 15.5t37 -15.5t15 -37.5t-15 -36.5t-37 -14.5zM597 734q-43 43 -96 73.5t-106.5 47t-100.5 16.5l-20 59q71 0 139 -19.5t128 -55.5t107 -88zM69 615l-17 83l64 10l19 -93h-66zM52 698q-12 65 7 117.5t72.5 83.5t142.5 31
l20 -59q-81 0 -122.5 -21.5t-52.5 -58.5t-3 -83zM73 0v620h63v-620h-63zM-25 567v63h259v-63h-259zM579 822q0 39 19.5 70t56.5 52t89 29l10 -58q-52 -10 -82 -32.5t-30 -60.5h-63zM616 672q-17 33 -27 73t-10 77h63q0 -20 9 -53.5t25 -72.5z" />
    <glyph glyph-name="iMatra_reph_anusvaradeva.05" 
d="M785 761q-22 0 -37 14.5t-15 36.5t15 37.5t37 15.5t37 -15.5t15 -37.5t-15 -36.5t-37 -14.5zM646 734q-49 43 -107.5 73.5t-118 47t-110.5 16.5l-20 59q74 0 147.5 -19t139.5 -55.5t119 -87.5zM69 615l-17 81l64 11l19 -92h-66zM52 696q-12 66 8 119t76.5 84t153.5 31
l20 -59q-89 0 -133.5 -22t-56.5 -59t-4 -83zM73 0v620h63v-620h-63zM-25 567v63h259v-63h-259zM627 822q0 39 19.5 70t56.5 52t89 29l10 -58q-52 -10 -82 -32.5t-30 -60.5h-63zM664 672q-17 33 -27 73t-10 77h63q0 -20 9 -53.5t25 -72.5z" />
    <glyph glyph-name="iMatra_reph_anusvaradeva.06" 
d="M834 760q-22 0 -37 14.5t-15 36.5t15 37.5t37 15.5t37 -15.5t15 -37.5t-15 -36.5t-37 -14.5zM695 734q-54 43 -119 73.5t-130 47t-120 16.5l-20 59q78 0 156 -19t150.5 -55t130.5 -87zM69 615l-16 80l63 11l19 -91h-66zM53 695q-13 66 7.5 119t80.5 84.5t165 31.5l20 -59
q-97 0 -144.5 -22t-60.5 -59.5t-5 -83.5zM73 0v620h63v-620h-63zM-25 567v63h259v-63h-259zM676 821q0 39 19.5 70t56.5 52t89 29l10 -58q-52 -10 -82 -32.5t-30 -60.5h-63zM713 671q-17 33 -27 73t-10 77h63q0 -20 9 -53.5t25 -72.5z" />
    <glyph glyph-name="iMatra_reph_anusvaradeva.07" 
d="M882 759q-22 0 -37 14.5t-15 36.5t15 37.5t37 15.5t37 -15.5t15 -37.5t-15 -36.5t-37 -14.5zM743 735q-59 42 -129.5 72.5t-141 47t-129.5 16.5l-20 59q80 0 163.5 -19t161.5 -54.5t142 -86.5zM69 615l-16 78l64 11l17 -89h-65zM53 693q-9 50 0 93t40.5 75t88 50.5
t141.5 18.5l20 -59q-79 0 -127 -13t-71.5 -36t-28.5 -53t1 -65zM73 0v620h63v-620h-63zM-25 567v63h259v-63h-259zM724 820q0 39 19.5 70t56.5 52t89 29l10 -58q-52 -10 -82 -32.5t-30 -60.5h-63zM761 670q-17 33 -27 73t-10 77h63q0 -20 9 -53.5t25 -72.5z" />
    <glyph glyph-name="iMatra_reph_anusvaradeva.08" 
d="M930 758q-22 0 -37 14.5t-15 36.5t15 37.5t37 15.5t37 -15.5t15 -37.5t-15 -36.5t-37 -14.5zM792 735q-48 32 -103.5 57t-113.5 43t-113.5 27.5t-102.5 9.5l-20 58q84 0 172.5 -18.5t172.5 -54t153 -86.5zM69 615l-16 77l64 11l17 -88h-65zM53 692q-9 49 0.5 92t42.5 76
t92.5 51.5t150.5 18.5l20 -58q-84 0 -135.5 -13t-76.5 -36.5t-30.5 -54t0.5 -65.5zM73 0v620h63v-620h-63zM-25 567v63h259v-63h-259zM772 819q0 39 19.5 70t56.5 52t89 29l10 -58q-52 -10 -82 -32.5t-30 -60.5h-63zM809 669q-17 33 -27 73t-10 77h63q0 -20 9 -53.5
t25 -72.5z" />
    <glyph glyph-name="iMatra_reph_anusvaradeva.09" 
d="M979 757q-22 0 -37 14.5t-15 36.5t15 37.5t37 15.5t37 -15.5t15 -37.5t-15 -36.5t-37 -14.5zM841 735q-52 32 -112 57t-122.5 43t-121.5 27.5t-109 9.5l-20 58q86 0 179.5 -18.5t183.5 -54t165 -85.5zM69 615l-15 76l63 10l17 -86h-65zM54 691q-10 49 0 92.5t44.5 76.5
t97.5 51.5t160 18.5l20 -58q-90 0 -144.5 -13.5t-81.5 -37t-33 -54.5t0 -66zM73 0v620h63v-620h-63zM-25 567v63h259v-63h-259zM821 818q0 39 19.5 70t56.5 52t89 29l10 -58q-52 -10 -82 -32.5t-30 -60.5h-63zM858 668q-17 33 -27 73t-10 77h63q0 -20 9 -53.5t25 -72.5z" />
    <glyph glyph-name="iMatra_reph_anusvaradeva.10" 
d="M1027 756q-22 0 -37 14.5t-15 36.5t15 37.5t37 15.5t37 -15.5t15 -37.5t-15 -36.5t-37 -14.5zM890 735q-56 32 -121 57t-131.5 43t-129.5 27.5t-116 9.5l-20 58q67 0 140 -10.5t146.5 -30.5t143 -49t129.5 -67zM69 615l-15 74l63 11l17 -85h-65zM54 689q-10 50 0.5 93.5
t46.5 76.5t102.5 52t168.5 19l20 -58q-96 0 -153.5 -13.5t-86 -37.5t-35 -55t-0.5 -66zM73 0v620h63v-620h-63zM-25 567v63h259v-63h-259zM869 817q0 39 19.5 70t56.5 52t89 29l10 -58q-52 -10 -82 -32.5t-30 -60.5h-63zM906 667q-17 33 -27 73t-10 77h63q0 -20 9 -53.5
t25 -72.5z" />
    <glyph glyph-name="iMatra_reph_anusvaradeva.11" 
d="M1075 755q-22 0 -37 14.5t-15 36.5t15 37.5t37 15.5t37 -15.5t15 -37.5t-15 -36.5t-37 -14.5zM938 736q-60 31 -129 56t-140 43t-138 27.5t-123 9.5l-20 58q69 0 145.5 -10.5t154.5 -30.5t152 -49t138 -66zM69 615l-15 73l64 11l16 -84h-65zM54 688q-9 50 1.5 93.5
t47.5 77t107 52.5t178 19l20 -58q-102 0 -162.5 -13.5t-90.5 -37.5t-36.5 -55.5t-0.5 -66.5zM73 0v620h63v-620h-63zM-25 567v63h259v-63h-259zM917 816q0 39 19.5 70t56.5 52t89 29l10 -58q-52 -10 -82 -32.5t-30 -60.5h-63zM954 666q-17 33 -27 73t-10 77h63
q0 -20 9 -53.5t25 -72.5z" />
    <glyph glyph-name="iMatra_reph_anusvaradeva.12" 
d="M1123 754q-22 0 -37 14.5t-15 36.5t15 37.5t37 15.5t37 -15.5t15 -37.5t-15 -36.5t-37 -14.5zM987 736q-64 31 -137.5 56t-149 43t-146 27.5t-129.5 9.5l-20 58q72 0 151.5 -10.5t161.5 -30t160.5 -48.5t146.5 -66zM69 615l-15 72l64 10l16 -82h-65zM54 687q-9 50 2 93.5
t50 77.5t112 53t187 19l20 -58q-108 0 -172 -14t-95.5 -38t-38.5 -55.5t-1 -67.5zM73 0v620h63v-620h-63zM-25 567v63h259v-63h-259zM965 815q0 39 19.5 70t56.5 52t89 29l10 -58q-52 -10 -82 -32.5t-30 -60.5h-63zM1002 665q-17 33 -27 73t-10 77h63q0 -20 9 -53.5
t25 -72.5z" />
    </font>
</defs>
</svg>
