<?xml version="1.0" standalone="no"?>
<!DOCTYPE svg PUBLIC "-//W3C//DTD SVG 1.1//EN" "http://www.w3.org/Graphics/SVG/1.1/DTD/svg11.dtd" >
<svg xmlns="http://www.w3.org/2000/svg" xmlns:xlink="http://www.w3.org/1999/xlink" version="1.1">
<metadata>
Created by FontForge 20170731 at Tue Mar 22 15:24:21 2022
 By Aleksey,,,
Copyright 2020 The Akshar Type Project Authors (https://github.com/tallchai/akshar-type)
</metadata>
<defs>
<font id="Akshar-Bold" horiz-adv-x="272" >
  <font-face 
    font-family="Akshar"
    font-weight="700"
    font-stretch="normal"
    units-per-em="1000"
    panose-1="0 0 0 0 0 0 0 0 0 0"
    ascent="800"
    descent="-200"
    x-height="520"
    cap-height="720"
    bbox="-367.114 -395.075 2559 1066"
    underline-thickness="50"
    underline-position="-175"
    unicode-range="U+0020-25CC"
  />
<missing-glyph horiz-adv-x="990" 
d="M385 -118v126h285v-126h-285zM285 666v126h385v-126h-385zM60 -118v910h156v-910h-156zM110 -118v126h220v-126h-220zM110 666v126h220v-126h-220zM930 -118h-156v910h156v-910zM880 -118h-220v126h220v-126zM880 666h-220v126h220v-126zM60 -118v910h156v-910h-156z
M110 -118v126h220v-126h-220zM110 666v126h220v-126h-220zM385 114q0 45 13.5 77.5t33 58t39 48.5t33 48.5t13.5 58.5q0 36 -11 51.5t-31 15.5q-12 0 -21 -8.5t-13.5 -26.5t-4.5 -47h-166q0 62 27 110.5t73.5 76.5t104.5 28q59 0 105 -26t73 -71.5t27 -102.5
q0 -40 -13.5 -68.5t-33 -52l-39 -47t-33 -53t-13.5 -70.5h-163zM385 -49v163h163v-163h-163z" />
    <glyph glyph-name="f_f" unicode="ff" horiz-adv-x="779" 
d="M210 400v120h339v-120h-339zM83 0v527h166v-527h-166zM25 400v120h339v-120h-339zM83 526q0 99 54 154.5t151 55.5l20 -126q-18 0 -31.5 -10t-20.5 -28.5t-7 -45.5h-166zM352 593q-9 8 -20 12.5t-24 4.5l-20 126q32 0 61.5 -8.5t60.5 -31.5zM442 0v527h166v-527h-166z
M384 400v120h339v-120h-339zM442 526q0 99 54 154.5t151 55.5l20 -126q-18 0 -31.5 -10t-20.5 -28.5t-7 -45.5h-166zM711 593q-9 8 -20 12.5t-24 4.5l-20 126q32 0 61.5 -8.5t60.5 -31.5z" />
    <glyph glyph-name="f_f_i" unicode="ffi" horiz-adv-x="1021" 
d="M210 400v120h339v-120h-339zM83 0v527h166v-527h-166zM25 400v120h339v-120h-339zM83 526q0 99 54 154.5t151 55.5l20 -126q-18 0 -31.5 -10t-20.5 -28.5t-7 -45.5h-166zM352 593q-9 8 -20 12.5t-24 4.5l-20 126q32 0 61.5 -8.5t60.5 -31.5zM792 0v520h166v-520h-166z
M442 0v527h166v-527h-166zM384 400v120h419v-120h-419zM442 526q0 99 67.5 154.5t187.5 55.5l10 -136q-46 0 -72.5 -19.5t-26.5 -54.5h-166zM855 565q-33 17 -72 26t-76 9l-10 136q56 0 106.5 -11.5t84.5 -31.5z" />
    <glyph glyph-name="f_f_j" unicode="ffj" horiz-adv-x="1021" 
d="M958 1q0 -99 -54 -154.5t-151 -55.5l-20 126q19 0 32 10t20 29t7 45h166zM689 -66q9 -8 20 -12.5t24 -4.5l20 -126q-32 0 -61.5 9t-60.5 31zM210 400v120h339v-120h-339zM83 0v527h166v-527h-166zM25 400v120h339v-120h-339zM83 526q0 99 54 154.5t151 55.5l20 -126
q-18 0 -31.5 -10t-20.5 -28.5t-7 -45.5h-166zM352 593q-9 8 -20 12.5t-24 4.5l-20 126q32 0 61.5 -8.5t60.5 -31.5zM792 0v520h166v-520h-166zM442 0v527h166v-527h-166zM384 400v120h419v-120h-419zM442 526q0 99 67.5 154.5t187.5 55.5l10 -136q-46 0 -72.5 -19.5
t-26.5 -54.5h-166zM855 565q-33 17 -72 26t-76 9l-10 136q56 0 106.5 -11.5t84.5 -31.5z" />
    <glyph glyph-name="f_f_l" unicode="ffl" horiz-adv-x="1059" 
d="M210 400v120h339v-120h-339zM83 0v527h166v-527h-166zM25 400v120h339v-120h-339zM83 526q0 99 54 154.5t151 55.5l20 -126q-18 0 -31.5 -10t-20.5 -28.5t-7 -45.5h-166zM352 593q-9 8 -20 12.5t-24 4.5l-20 126q32 0 61.5 -8.5t60.5 -31.5zM823 0v696h166v-696h-166z
M457 0v527h166v-527h-166zM399 400v120h339v-120h-339zM457 526q0 99 70 154.5t195 55.5l10 -136q-52 0 -80.5 -19.5t-28.5 -54.5h-166zM823 584q-17 8 -41 12t-50 4l-10 136q69 0 140 -10.5t127 -29.5z" />
    <glyph glyph-name="f_i" unicode="fi" horiz-adv-x="662" 
d="M83 0v527h166v-527h-166zM25 400v120h419v-120h-419zM83 526q0 99 67.5 154.5t187.5 55.5l10 -136q-46 0 -72.5 -19.5t-26.5 -54.5h-166zM496 565q-33 17 -72 26t-76 9l-10 136q56 0 106.5 -11.5t84.5 -31.5zM433 0v520h166v-520h-166z" />
    <glyph glyph-name="f_j" unicode="fj" horiz-adv-x="662" 
d="M599 1q0 -99 -54 -154.5t-151 -55.5l-20 126q19 0 32 10t20 29t7 45h166zM330 -66q9 -8 20 -12.5t24 -4.5l20 -126q-32 0 -61.5 9t-60.5 31zM83 0v527h166v-527h-166zM25 400v120h419v-120h-419zM83 526q0 99 67.5 154.5t187.5 55.5l10 -136q-46 0 -72.5 -19.5
t-26.5 -54.5h-166zM496 565q-33 17 -72 26t-76 9l-10 136q56 0 106.5 -11.5t84.5 -31.5zM433 0v520h166v-520h-166z" />
    <glyph glyph-name="f_l" unicode="fl" horiz-adv-x="685" 
d="M449 0v696h166v-696h-166zM83 0v527h166v-527h-166zM25 400v120h339v-120h-339zM83 526q0 99 70 154.5t195 55.5l10 -136q-52 0 -80.5 -19.5t-28.5 -54.5h-166zM449 584q-17 8 -41 12t-50 4l-10 136q69 0 140 -10.5t127 -29.5z" />
    <glyph glyph-name="t_t" unicode="tt" horiz-adv-x="800" 
d="M210 400v120h339v-120h-339zM93 193v527h166v-527h-166zM35 400v120h350v-120h-350zM93 194h166q0 -26 7 -45t20.5 -29t31.5 -10l-20 -126q-97 0 -151 55.5t-54 154.5zM362 127l58 -103q-31 -22 -60.5 -31t-61.5 -9l20 126q13 0 24 4.5t20 12.5zM453 193v527h166v-527
h-166zM395 400v120h350v-120h-350zM453 194h166q0 -26 7 -45t20.5 -29t31.5 -10l-20 -126q-97 0 -151 55.5t-54 154.5zM722 127l58 -103q-31 -22 -60.5 -31t-61.5 -9l20 126q13 0 24 4.5t20 12.5z" />
    <glyph glyph-name=".notdef" horiz-adv-x="990" 
d="M385 -118v126h285v-126h-285zM285 666v126h385v-126h-385zM60 -118v910h156v-910h-156zM110 -118v126h220v-126h-220zM110 666v126h220v-126h-220zM930 -118h-156v910h156v-910zM880 -118h-220v126h220v-126zM880 666h-220v126h220v-126zM60 -118v910h156v-910h-156z
M110 -118v126h220v-126h-220zM110 666v126h220v-126h-220zM385 114q0 45 13.5 77.5t33 58t39 48.5t33 48.5t13.5 58.5q0 36 -11 51.5t-31 15.5q-12 0 -21 -8.5t-13.5 -26.5t-4.5 -47h-166q0 62 27 110.5t73.5 76.5t104.5 28q59 0 105 -26t73 -71.5t27 -102.5
q0 -40 -13.5 -68.5t-33 -52l-39 -47t-33 -53t-13.5 -70.5h-163zM385 -49v163h163v-163h-163z" />
    <glyph glyph-name=".null" horiz-adv-x="0" 
 />
    <glyph glyph-name="nonmarkingreturn" horiz-adv-x="333" 
 />
    <glyph glyph-name="space" unicode=" " horiz-adv-x="210" 
 />
    <glyph glyph-name="exclam" unicode="!" horiz-adv-x="280" 
d="M73 226l-16 494h166l-16 -494h-134zM139 -16q-39 0 -64 25t-25 64q0 38 25 64.5t64 26.5q38 0 64.5 -26.5t26.5 -64.5q0 -39 -26.5 -64t-64.5 -25z" />
    <glyph glyph-name="quotedbl" unicode="&#x22;" horiz-adv-x="437" 
d="M253 520l-22 215h146l-22 -215h-102zM82 520l-22 215h146l-22 -215h-102z" />
    <glyph glyph-name="numbersign" unicode="#" horiz-adv-x="647" 
d="M286 31l142 600h126l-142 -600h-126zM50 186l23 106h480l-23 -106h-480zM98 31l142 600h126l-142 -600h-126zM94 369l23 106h480l-23 -106h-480z" />
    <glyph glyph-name="dollar" unicode="$" horiz-adv-x="544" 
d="M185 673v137h134v-137h-134zM185 -91v137h134v-137h-134zM343 174q0 33 -22 56t-56.5 43.5t-73.5 43t-73.5 52.5t-56.5 73t-22 105h166q0 -32 22 -55.5t56.5 -44t73.5 -43t73.5 -52.5t56.5 -73t22 -105h-166zM39 546q0 55 31 97.5t84 67.5t120 25v-126q-32 0 -50.5 -17
t-18.5 -47h-166zM509 174q0 -55 -31 -97.5t-84 -67.5t-120 -25v126q32 0 50.5 17t18.5 47h166zM338 531q-5 38 -21.5 58.5t-42.5 20.5v126q57 0 100.5 -21t71.5 -61t37 -97zM184 229q3 -56 27 -87.5t63 -31.5v-126q-103 0 -166 58t-73 161z" />
    <glyph glyph-name="percent" unicode="%" horiz-adv-x="842" 
d="M139 -66l451 806h115l-451 -806h-115zM620 -55v104q17 0 27.5 16.5t10.5 41.5h134q0 -46 -22.5 -83t-61.5 -58t-88 -21zM620 -55q-49 0 -87.5 21t-61 58t-22.5 83h134q0 -25 10.5 -41.5t26.5 -16.5v-104zM449 107q0 46 22.5 82.5t61 57.5t87.5 21v-104q-16 0 -26.5 -16
t-10.5 -41h-134zM658 107q0 25 -10.5 41t-27.5 16v104q49 0 88 -21t61.5 -57.5t22.5 -82.5h-134zM221 405v104q17 0 27.5 16.5t10.5 41.5h134q0 -46 -22.5 -83t-61.5 -58t-88 -21zM221 405q-49 0 -87.5 21t-61 58t-22.5 83h134q0 -25 10.5 -41.5t26.5 -16.5v-104zM50 567
q0 46 22.5 82.5t61 57.5t87.5 21v-104q-16 0 -26.5 -16t-10.5 -41h-134zM259 567q0 25 -10.5 41t-27.5 16v104q49 0 88 -21t61.5 -57.5t22.5 -82.5h-134z" />
    <glyph glyph-name="ampersand" unicode="&#x26;" horiz-adv-x="749" 
d="M585 -2l-377 392l98 93l383 -384zM291 -20q-109 0 -170 55t-61 148l165 -10q0 -34 20 -46t46 -12v-135zM291 -20v135q23 0 44.5 9t50 31.5t71.5 64.5l92 -96q-55 -55 -95.5 -86.5t-77.5 -44.5t-85 -13zM60 183q0 37 18.5 74t47.5 70.5t62.5 63t64.5 53t53 39.5l101 -108
q-18 -16 -48.5 -39t-61 -50.5t-51.5 -56.5t-21 -56zM549 124l-92 96l121 134l99 -87zM208 390q-31 28 -52.5 53t-32.5 49.5t-13 48.5l163 7q2 -13 5.5 -24t10.5 -21t17 -20zM110 541q-4 56 22.5 99.5t77 69t116.5 25.5v-126q-25 0 -40.5 -18t-12.5 -43zM389 530
q-5 38 -21.5 58.5t-42.5 20.5v126q57 0 100.5 -21t71.5 -61t37 -97z" />
    <glyph glyph-name="quotesingle" unicode="'" horiz-adv-x="266" 
d="M82 520l-22 215h146l-22 -215h-102z" />
    <glyph glyph-name="parenleft" unicode="(" horiz-adv-x="324" 
d="M178 -120q-128 234 -128 455t128 455h146q-112 -234 -112 -455t112 -455h-146z" />
    <glyph glyph-name="parenright" unicode=")" horiz-adv-x="324" 
d="M146 -120h-146q112 234 112 455t-112 455h146q128 -234 128 -455t-128 -455z" />
    <glyph glyph-name="asterisk" unicode="*" horiz-adv-x="454" 
d="M344 428l-137 102l-157 68l60 104l137 -102l157 -68zM110 428l-60 104l157 68l137 102l60 -104l-157 -68zM167 395l20 170l-20 170h120l-20 -170l20 -170h-120z" />
    <glyph glyph-name="plus" unicode="+" horiz-adv-x="500" 
d="M174 117v440h152v-440h-152zM30 277v126h440v-126h-440z" />
    <glyph glyph-name="comma" unicode="," horiz-adv-x="281" 
d="M50 -95q19 29 31.5 49t20 37.5t10.5 39t3 52.5l116 10q0 -42 -13.5 -80t-36 -75t-49.5 -78zM140 4q-39 0 -64 25t-25 64q0 38 25 64.5t64 26.5q38 0 64.5 -26.5t26.5 -64.5q0 -39 -26.5 -64t-64.5 -25z" />
    <glyph glyph-name="hyphen" unicode="-" horiz-adv-x="420" 
d="M50 274v126h320v-126h-320z" />
    <glyph glyph-name="period" unicode="." horiz-adv-x="280" 
d="M139 -16q-39 0 -64 25t-25 64q0 38 25 64.5t64 26.5q38 0 64.5 -26.5t26.5 -64.5q0 -39 -26.5 -64t-64.5 -25z" />
    <glyph glyph-name="slash" unicode="/" horiz-adv-x="390" 
d="M25 0l211 720h129l-211 -720h-129z" />
    <glyph glyph-name="zero" unicode="0" horiz-adv-x="570" 
d="M349 223v273h166v-273h-166zM55 223v273h166v-273h-166zM279 610v126h12v-126h-12zM279 -16v126h12v-126h-12zM55 496q0 69 29.5 123t80.5 85.5t115 31.5v-126q-28 0 -43.5 -30t-15.5 -84h-166zM515 496h-166q0 54 -15.5 84t-43.5 30v126q65 0 115.5 -31.5t80 -85.5
t29.5 -123zM55 224h166q0 -54 15.5 -84t43.5 -30v-126q-64 0 -115 31.5t-80.5 86t-29.5 122.5zM515 224q0 -68 -29.5 -122.5t-80 -86t-115.5 -31.5v126q28 0 43.5 30t15.5 84h166z" />
    <glyph glyph-name="one" unicode="1" horiz-adv-x="434" 
d="M119 442l-89 94l168 184v-191zM198 0v720h166v-720h-166z" />
    <glyph glyph-name="two" unicode="2" horiz-adv-x="543" 
d="M84 126q1 61 19 104t46 73t59.5 54t59.5 46.5t46 49.5t18 64h17h41.5h49h41.5h17q0 -58 -18 -97.5t-46.5 -67.5t-60 -50.5t-60 -46t-47 -54t-19.5 -75.5h-163zM84 0v126h409v-126h-409zM205 531l-145 26q10 57 37.5 97t71.5 61t100 21v-126q-25 0 -42 -20.5t-22 -58.5z
M498 516h-166q0 44 -17 69t-47 25v126q66 0 118 -28.5t82 -78.5t30 -113z" />
    <glyph glyph-name="three" unicode="3" horiz-adv-x="543" 
d="M258 308v126q28 0 43.5 24.5t15.5 67.5h166q0 -68 -27 -117t-77 -75t-121 -26zM332 203v12h166v-12h-166zM198 308v126h61v-126h-61zM317 525q0 40 -15.5 62t-43.5 22v126q71 0 121 -25t77 -72t27 -113h-166zM498 204q0 -63 -30 -112.5t-82 -78.5t-118 -29v126
q30 0 47 25t17 69h166zM498 214h-166q0 44 -17 69t-47 25v126q66 0 118 -28.5t82 -78.5t30 -113zM195 530l-145 26q10 57 37.5 97t71.5 61t100 21v-126q-25 0 -42 -20.5t-22 -58.5zM205 189q5 -37 22 -58t42 -21v-126q-56 0 -100 21t-71.5 61.5t-37.5 96.5z" />
    <glyph glyph-name="four" unicode="4" horiz-adv-x="554" 
d="M35 251l159 469h166l-159 -469h-166zM35 125v126h479v-126h-479zM296 0v399h153v-399h-153z" />
    <glyph glyph-name="five" unicode="5" horiz-adv-x="553" 
d="M70 305v415h145v-415h-145zM327 223v73h166v-73h-166zM70 594v126h400v-126h-400zM327 296q0 45 -17 70t-48 25l34 120q57 0 101.5 -28t70 -76.5t25.5 -110.5h-166zM127 306q0 59 22 105t60.5 73t86.5 27l-34 -120q-22 0 -34.5 -22.5t-12.5 -62.5h-88zM493 225
q0 -68 -29.5 -122.5t-80 -86t-115.5 -31.5v126q28 0 43.5 30t15.5 84h166zM205 189q5 -37 22 -58t42 -21v-126q-56 0 -100 21t-71.5 61.5t-37.5 96.5z" />
    <glyph glyph-name="six" unicode="6" horiz-adv-x="554" 
d="M60 260q0 59 16.5 124.5t45.5 131t69 125t86 104.5l117 -79q-28 -36 -57.5 -72t-54.5 -80.5t-40.5 -105.5t-15.5 -148h-166zM60 224v19h166v-19h-166zM343 224v19h166v-19h-166zM509 225q0 -68 -29.5 -122.5t-80 -86t-115.5 -31.5v126q28 0 43.5 30t15.5 84h166zM60 225
h166q0 -54 15.5 -84t43.5 -30v-126q-64 0 -115 31.5t-80.5 86t-29.5 122.5zM509 242h-166q0 54 -15.5 84t-43.5 30v126q65 0 115.5 -31.5t80 -85.5t29.5 -123zM60 242q0 69 29.5 123t80.5 85.5t115 31.5v-126q-28 0 -43.5 -30t-15.5 -84h-166z" />
    <glyph glyph-name="seven" unicode="7" horiz-adv-x="509" 
d="M104 0l209 594h166l-209 -594h-166zM30 594v126h449v-126h-449z" />
    <glyph glyph-name="eight" unicode="8" horiz-adv-x="590" 
d="M364 227q0 52 -18.5 80.5t-50.5 28.5v86q111 0 173 -54t62 -151zM295 -16q-111 0 -173 60t-62 167l166 10q0 -35 8.5 -60t24 -38t36.5 -13v-126zM60 211v6l166 10v-6zM295 -16v126q22 0 37 13t23.5 38t8.5 60l166 -10q0 -107 -62 -167t-173 -60zM60 217q0 97 62 151
t173 54v-86q-32 0 -50.5 -28.5t-18.5 -80.5zM364 221v6l166 -10v-6zM295 336q-106 0 -166 49.5t-60 137.5l166 -10q0 -43 16 -67t44 -24v-86zM69 523v6l166 -10v-6zM295 336v86q29 0 44.5 24t15.5 67l166 10q0 -88 -59.5 -137.5t-166.5 -49.5zM69 529q0 97 60 151.5
t166 54.5v-126q-19 0 -32.5 -10.5t-20.5 -30.5t-7 -49zM355 513v6l166 10v-6zM355 519q0 29 -7 49t-20.5 30.5t-32.5 10.5v126q107 0 166.5 -54.5t59.5 -151.5z" />
    <glyph glyph-name="nine" unicode="9" horiz-adv-x="554" 
d="M494 460q0 -58 -16.5 -124t-45.5 -131.5t-68.5 -125t-86.5 -104.5l-117 79q28 36 57.5 72t54.5 80.5t40.5 105.5t15.5 148h166zM494 496v-19h-166v19h166zM211 496v-19h-166v19h166zM45 495q0 69 29.5 123t80.5 85.5t115 31.5v-126q-28 0 -43.5 -30t-15.5 -84h-166z
M494 495h-166q0 54 -15.5 84t-43.5 30v126q65 0 115.5 -31.5t80 -85.5t29.5 -123zM45 478h166q0 -54 15.5 -84t43.5 -30v-126q-64 0 -115 31.5t-80.5 86t-29.5 122.5zM494 478q0 -68 -29.5 -122.5t-80 -86t-115.5 -31.5v126q28 0 43.5 30t15.5 84h166z" />
    <glyph glyph-name="colon" unicode=":" horiz-adv-x="330" 
d="M189 6q-39 0 -64 25t-25 64q0 38 25 64.5t64 26.5q38 0 64.5 -26.5t26.5 -64.5q0 -39 -26.5 -64t-64.5 -25zM189 321q-39 0 -64 25t-25 64q0 38 25 64.5t64 26.5q38 0 64.5 -26.5t26.5 -64.5q0 -39 -26.5 -64t-64.5 -25z" />
    <glyph glyph-name="semicolon" unicode=";" horiz-adv-x="346" 
d="M189 321q-39 0 -64 25t-25 64q0 38 25 64.5t64 26.5q38 0 64.5 -26.5t26.5 -64.5q0 -39 -26.5 -64t-64.5 -25zM115 -95q19 29 31.5 49t20 37.5t10.5 39t3 52.5l116 10q0 -42 -13.5 -80t-36 -75t-49.5 -78zM205 4q-39 0 -64 25t-25 64q0 38 25 64.5t64 26.5
q38 0 64.5 -26.5t26.5 -64.5q0 -39 -26.5 -64t-64.5 -25z" />
    <glyph glyph-name="less" unicode="&#x3c;" horiz-adv-x="411" 
d="M30 242v146l351 178v-146zM381 64l-351 178v146l351 -178v-146z" />
    <glyph glyph-name="equal" unicode="=" horiz-adv-x="430" 
d="M30 375v126h370v-126h-370zM30 175v126h370v-126h-370z" />
    <glyph glyph-name="greater" unicode="&#x3e;" horiz-adv-x="411" 
d="M381 242l-351 178v146l351 -178v-146zM30 64v146l351 178v-146z" />
    <glyph glyph-name="question" unicode="?" horiz-adv-x="495" 
d="M150 244q0 45 13.5 77.5t33 58t39 48.5t33 48.5t13.5 58.5q0 36 -11 51.5t-31 15.5q-12 0 -21 -8.5t-13.5 -26.5t-4.5 -47h-166q0 62 27 110.5t73.5 76.5t104.5 28q59 0 105 -26t73 -71.5t27 -102.5q0 -40 -13.5 -68.5t-33 -52l-39 -47t-33 -53t-13.5 -70.5h-163z
M150 221v23h163v-23h-163zM231 -16q-39 0 -64 25t-25 64q0 38 25 64.5t64 26.5q38 0 64.5 -26.5t26.5 -64.5q0 -39 -26.5 -64t-64.5 -25z" />
    <glyph glyph-name="at" unicode="@" horiz-adv-x="800" 
d="M53 328q7 84 35.5 150t77 112.5t114.5 70.5t148 24l-5 -121q-69 0 -121 -28t-82 -81t-36 -127h-131zM372 -120q-111 0 -187 42.5t-111.5 122.5t-26.5 192h131q-5 -74 16.5 -127t68 -81t114.5 -28zM47 237l6 91h131l-6 -91h-131zM372 -120l5 121q31 0 57 4t50 13l24 -112
q-31 -13 -64.5 -19.5t-71.5 -6.5zM353 55q-40 0 -69.5 24t-44.5 66t-10 95h116q-2 -25 8.5 -42t27.5 -17zM229 240l5 71h116l-5 -71h-116zM353 55l28 126q17 0 29.5 17t14.5 42h59q-5 -53 -24 -95t-46.5 -66t-60.5 -24zM616 237h131q-4 -66 -30 -110.5t-64 -66.5
t-79.5 -21.5t-76.5 23t-55.5 67t-16.5 111.5h116q-4 -46 5.5 -69t24.5 -23t28 22t17 67zM234 311q5 53 24.5 95t50 66t65.5 24l19 -126q-16 0 -28.5 -16.5t-14.5 -42.5h-116zM430 321q2 21 -9 35t-28 14l-19 126q34 0 59 -23t37.5 -62.5t8.5 -89.5h-49zM425 240l14 218
l22 32h96l-16 -250h-116zM616 237l6 91h131l-6 -91h-131zM622 328q6 74 -16 127t-68.5 81t-114.5 28l5 121q111 0 186.5 -42.5t111.5 -122.5t27 -192h-131z" />
    <glyph glyph-name="A" unicode="A" horiz-adv-x="580" 
d="M183 112v126h256v-126h-256zM369 720l-179 -720h-160l179 720h160zM371 720l179 -720h-160l-179 720h160z" />
    <glyph glyph-name="B" unicode="B" horiz-adv-x="555" 
d="M265 331v96q32 0 50.5 22t18.5 62h166q0 -51 -31 -92t-84 -64.5t-120 -23.5zM216 0v126h60v-126h-60zM216 311v116h59v-116h-59zM344 209v19h166v-19h-166zM344 227q0 40 -18.5 62t-50.5 22v96q67 0 120 -23.5t84 -64t31 -92.5h-166zM216 594v126h50v-126h-50zM500 510
h-166q0 40 -18.5 62t-50.5 22v126q67 0 120 -27.5t84 -75t31 -107.5zM510 210q0 -60 -31 -107.5t-84 -75t-120 -27.5v126q32 0 50.5 22t18.5 62h166zM60 0v720h166v-720h-166z" />
    <glyph glyph-name="C" unicode="C" horiz-adv-x="553" 
d="M50 193v334h166v-334h-166zM50 526q0 60 31 107.5t84 75t120 27.5v-126q-32 0 -50.5 -22t-18.5 -62h-166zM50 194h166q0 -40 18.5 -62t50.5 -22v-126q-67 0 -120 27.5t-84 75t-31 107.5zM374 491q-3 56 -27 87.5t-63 31.5v126q103 0 166 -57.5t73 -161.5zM374 229
l149 -26q-10 -103 -73 -161t-166 -58v126q39 0 63 31.5t27 87.5z" />
    <glyph glyph-name="D" unicode="D" horiz-adv-x="565" 
d="M344 208v303h166v-303h-166zM206 0v126h69v-126h-69zM206 594v126h69v-126h-69zM206 594v126h69v-126h-69zM510 510h-166q0 40 -18.5 62t-50.5 22v126q67 0 120 -27.5t84 -75t31 -107.5zM510 210q0 -60 -31 -107.5t-84 -75t-120 -27.5v126q32 0 50.5 22t18.5 62h166z
M60 0v720h166v-720h-166z" />
    <glyph glyph-name="E" unicode="E" horiz-adv-x="480" 
d="M186 0v126h254v-126h-254zM186 297v126h194v-126h-194zM60 720h166v-720h-166v720zM196 720h234v-126h-234v126z" />
    <glyph glyph-name="F" unicode="F" horiz-adv-x="450" 
d="M186 297v126h194v-126h-194zM60 720h166v-720h-166v720zM196 720h234v-126h-234v126z" />
    <glyph glyph-name="G" unicode="G" horiz-adv-x="578" 
d="M270 279v126h249v-126h-249zM353 193v209h166v-209h-166zM50 193v334h166v-334h-166zM50 526q0 60 31 107.5t84 75t120 27.5v-126q-32 0 -50.5 -22t-18.5 -62h-166zM50 194h166q0 -40 18.5 -62t50.5 -22v-126q-67 0 -120 27.5t-84 75t-31 107.5zM374 491q-3 56 -27 87.5
t-63 31.5v126q103 0 166 -57.5t73 -161.5zM519 194q0 -60 -31 -107.5t-84 -75t-120 -27.5v126q32 0 50.5 22t18.5 62h166z" />
    <glyph glyph-name="H" unicode="H" horiz-adv-x="592" 
d="M120 296v126h306v-126h-306zM366 0v720h166v-720h-166zM60 0v720h166v-720h-166z" />
    <glyph glyph-name="I" unicode="I" horiz-adv-x="306" 
d="M70 0v720h166v-720h-166z" />
    <glyph glyph-name="J" unicode="J" horiz-adv-x="407" 
d="M181 193v527h166v-527h-166zM347 194q0 -99 -54 -154.5t-151 -55.5l-20 126q19 0 32 10t20 29t7 45h166zM78 127q9 -8 20 -12.5t24 -4.5l20 -126q-32 0 -61.5 9t-60.5 31z" />
    <glyph glyph-name="K" unicode="K" horiz-adv-x="487" 
d="M151 378l189 342h155l-200 -342h-144zM332 0l-214 378h177l212 -378h-175zM60 0v720h166v-720h-166z" />
    <glyph glyph-name="L" unicode="L" horiz-adv-x="450" 
d="M196 0v126h234v-126h-234zM60 0v720h166v-720h-166z" />
    <glyph glyph-name="M" unicode="M" horiz-adv-x="746" 
d="M315 0l156 720h120l-156 -720h-120zM311 0l-156 720h120l156 -720h-120zM60 0v720h166v-720h-166zM520 0v720h166v-720h-166z" />
    <glyph glyph-name="N" unicode="N" horiz-adv-x="637" 
d="M372 0l-285 720h140l285 -720h-140zM60 0v720h166v-720h-166zM411 0v720h166v-720h-166z" />
    <glyph glyph-name="O" unicode="O" horiz-adv-x="578" 
d="M357 194v333h166v-333h-166zM55 194v333h166v-333h-166zM523 525h-166q0 40 -18.5 62t-50.5 22v126q67 0 120 -27.5t84 -75t31 -107.5zM55 525q0 60 31 107.5t84 75t120 27.5v-126q-32 0 -50.5 -22t-18.5 -62h-166zM523 195q0 -60 -31 -107.5t-84 -75t-120 -27.5v126
q32 0 50.5 22t18.5 62h166zM55 195h166q0 -40 18.5 -62t50.5 -22v-126q-67 0 -120 27.5t-84 75t-31 107.5z" />
    <glyph glyph-name="P" unicode="P" horiz-adv-x="530" 
d="M216 594v126h50v-126h-50zM216 248v126h50v-126h-50zM334 457v54h166v-54h-166zM500 510h-166q0 40 -18.5 62t-50.5 22v126q67 0 120 -27.5t84 -75t31 -107.5zM500 458q0 -60 -31 -107.5t-84 -75t-120 -27.5v126q32 0 50.5 22t18.5 62h166zM60 0v720h166v-720h-166z" />
    <glyph glyph-name="Q" unicode="Q" horiz-adv-x="578" 
d="M408 -171q-38 9 -66.5 30.5t-50 50t-40.5 57.5l60 66q30 -32 65.5 -61t88.5 -40zM357 194v333h166v-333h-166zM55 194v333h166v-333h-166zM523 525h-166q0 40 -18.5 62t-50.5 22v126q67 0 120 -27.5t84 -75t31 -107.5zM55 525q0 60 31 107.5t84 75t120 27.5v-126
q-32 0 -50.5 -22t-18.5 -62h-166zM523 195q0 -60 -31 -107.5t-84 -75t-120 -27.5v126q32 0 50.5 22t18.5 62h166zM55 195h166q0 -40 18.5 -62t50.5 -22v-126q-67 0 -120 27.5t-84 75t-31 107.5z" />
    <glyph glyph-name="R" unicode="R" horiz-adv-x="556" 
d="M356 0l-124 331h160l124 -331h-160zM216 261v126h50v-126h-50zM216 594v126h50v-126h-50zM334 470v41h166v-41h-166zM500 510h-166q0 40 -18.5 62t-50.5 22v126q67 0 120 -27.5t84 -75t31 -107.5zM500 471q0 -60 -31 -107.5t-84 -75t-120 -27.5v126q32 0 50.5 22t18.5 62
h166zM60 0v720h166v-720h-166z" />
    <glyph glyph-name="S" unicode="S" horiz-adv-x="544" 
d="M343 174q0 33 -22 56t-56.5 43.5t-73.5 43t-73.5 52.5t-56.5 73t-22 105h166q0 -32 22 -55.5t56.5 -44t73.5 -43t73.5 -52.5t56.5 -73t22 -105h-166zM39 546q0 55 31 97.5t84 67.5t120 25v-126q-32 0 -50.5 -17t-18.5 -47h-166zM509 174q0 -55 -31 -97.5t-84 -67.5
t-120 -25v126q32 0 50.5 17t18.5 47h166zM338 531q-5 38 -21.5 58.5t-42.5 20.5v126q57 0 100.5 -21t71.5 -61t37 -97zM184 229q3 -56 27 -87.5t63 -31.5v-126q-103 0 -166 58t-73 161z" />
    <glyph glyph-name="T" unicode="T" horiz-adv-x="530" 
d="M20 594v126h490v-126h-490zM182 0v720h166v-720h-166z" />
    <glyph glyph-name="U" unicode="U" horiz-adv-x="588" 
d="M362 193v527h166v-527h-166zM60 193v527h166v-527h-166zM528 194q0 -60 -31 -107.5t-84 -75t-120 -27.5v126q32 0 50.5 22t18.5 62h166zM60 194h166q0 -40 18.5 -62t50.5 -22v-126q-67 0 -120 27.5t-84 75t-31 107.5z" />
    <glyph glyph-name="V" unicode="V" horiz-adv-x="580" 
d="M211 0l179 720h160l-179 -720h-160zM209 0l-179 720h160l179 -720h-160z" />
    <glyph glyph-name="W" unicode="W" horiz-adv-x="890" 
d="M516 0l-136 720h130l146 -720h-140zM180 0l-140 720h160l140 -720h-160zM234 0l146 720h130l-136 -720h-140zM550 0l140 720h160l-140 -720h-160z" />
    <glyph glyph-name="X" unicode="X" horiz-adv-x="560" 
d="M350 0l-310 720h170l310 -720h-170zM30 0l175 360h150l-175 -360h-150zM205 360l175 360h150l-175 -360h-150z" />
    <glyph glyph-name="Y" unicode="Y" horiz-adv-x="566" 
d="M211 258l180 462h145l-180 -462h-145zM210 0v258h146v-258h-146zM210 258l-180 462h176l150 -462h-146z" />
    <glyph glyph-name="Z" unicode="Z" horiz-adv-x="512" 
d="M40 126l253 468h179l-253 -468h-179zM40 0v126h432v-126h-432zM40 594v126h432v-126h-432z" />
    <glyph glyph-name="bracketleft" unicode="[" horiz-adv-x="320" 
d="M50 -118v910h156v-910h-156zM100 -118v126h220v-126h-220zM100 666v126h220v-126h-220z" />
    <glyph glyph-name="backslash" unicode="\" horiz-adv-x="390" 
d="M365 0h-129l-211 720h129z" />
    <glyph glyph-name="bracketright" unicode="]" horiz-adv-x="320" 
d="M270 -118h-156v910h156v-910zM220 -118h-220v126h220v-126zM220 666h-220v126h220v-126z" />
    <glyph glyph-name="asciicircum" unicode="^" horiz-adv-x="562" 
d="M208 720h146l178 -351h-146zM30 369l178 351h146l-178 -351h-146z" />
    <glyph glyph-name="underscore" unicode="_" horiz-adv-x="484" 
d="M50 0v126h384v-126h-384z" />
    <glyph glyph-name="grave" unicode="`" horiz-adv-x="343" 
d="M167 557l-97 148h138l65 -148h-106z" />
    <glyph glyph-name="a" unicode="a" horiz-adv-x="541" 
d="M330 0v327h166v-327h-166zM215 -15l30 120q24 0 43 12.5t30.5 36t11.5 55.5l66 10q0 -67 -25 -120t-66 -83.5t-90 -30.5zM215 -15q-51 0 -89.5 21t-59.5 57.5t-21 82.5l146 10q0 -22 15.5 -36.5t38.5 -14.5zM45 146q0 47 26.5 83.5t71.5 58t102 21.5l20 -100
q-35 0 -54.5 -14t-19.5 -39zM265 209l-20 100h115v-100h-95zM330 209v108h66v-98zM496 316h-166q0 44 -17 69t-47 25v126q66 0 118 -28.5t82 -78.5t30 -113zM203 331l-145 26q10 57 37.5 97t71.5 61t100 21v-126q-25 0 -42 -20.5t-22 -58.5z" />
    <glyph glyph-name="b" unicode="b" horiz-adv-x="565" 
d="M60 518v202h166v-202h-166zM226 0h-166v520h166v-520zM520 194h-166v132h166v-132zM354 326q0 40 -15.5 62t-43.5 22l50 126q50 0 89.5 -27.5t62.5 -75t23 -107.5h-166zM180 316q0 63 21.5 113t59 78.5t84.5 28.5l-50 -126q-32 0 -50.5 -25t-18.5 -69h-46zM354 194h166
q0 -60 -23 -107.5t-62.5 -75t-89.5 -27.5l-50 126q28 0 43.5 22t15.5 62zM180 204h46q0 -44 18.5 -69t50.5 -25l50 -126q-47 0 -84.5 29t-59 78.5t-21.5 112.5z" />
    <glyph glyph-name="c" unicode="c" horiz-adv-x="501" 
d="M45 223v74h166v-74h-166zM45 296q0 69 29.5 123t80.5 85.5t115 31.5v-126q-28 0 -43.5 -30t-15.5 -84h-166zM333 331q-5 38 -21.5 58.5t-42.5 20.5v126q57 0 100.5 -21t71.5 -61t37 -97zM45 224h166q0 -54 15.5 -84t43.5 -30v-126q-64 0 -115 31.5t-80.5 86t-29.5 122.5z
M333 189l145 -26q-9 -56 -37 -96.5t-71.5 -61.5t-100.5 -21v126q26 0 42.5 21t21.5 58z" />
    <glyph glyph-name="d" unicode="d" horiz-adv-x="565" 
d="M505 518h-166v202h166v-202zM339 0v520h166v-520h-166zM45 194v132h166v-132h-166zM211 326h-166q0 60 23 107.5t62.5 75t89.5 27.5l50 -126q-28 0 -43.5 -22t-15.5 -62zM385 316h-46q0 44 -18.5 69t-50.5 25l-50 126q47 0 84.5 -28.5t59 -78.5t21.5 -113zM211 194
q0 -40 15.5 -62t43.5 -22l-50 -126q-50 0 -89.5 27.5t-62.5 75t-23 107.5h166zM385 204q0 -63 -21.5 -112.5t-59 -78.5t-84.5 -29l50 126q32 0 50.5 25t18.5 69h46z" />
    <glyph glyph-name="e" unicode="e" horiz-adv-x="524" 
d="M131 219v90h358v-90h-358zM260 -16v126h10v-126h-10zM35 223v74h166v-74h-166zM323 309v8h166v-8h-166zM489 316h-166q0 44 -17 69t-47 25v126q66 0 118 -28.5t82 -78.5t30 -113zM334 189l145 -26q-9 -56 -37 -96.5t-71.5 -61.5t-100.5 -21v126q26 0 42.5 21t21.5 58z
M35 296q0 69 29.5 123t80.5 85.5t115 31.5v-126q-28 0 -43.5 -30t-15.5 -84h-166zM35 224h166q0 -54 15.5 -84t43.5 -30v-126q-64 0 -115 31.5t-80.5 86t-29.5 122.5z" />
    <glyph glyph-name="f" unicode="f" horiz-adv-x="420" 
d="M83 0v527h166v-527h-166zM25 400v120h339v-120h-339zM83 526q0 99 54 154.5t151 55.5l20 -126q-18 0 -31.5 -10t-20.5 -28.5t-7 -45.5h-166zM352 593q-9 8 -20 12.5t-24 4.5l-20 126q32 0 61.5 -8.5t60.5 -31.5z" />
    <glyph glyph-name="g" unicode="g" horiz-adv-x="565" 
d="M339 -12v532h166v-532h-166zM45 218v109h166v-109h-166zM211 326h-166q0 60 23 107.5t62.5 75t89.5 27.5l50 -126q-28 0 -43.5 -22t-15.5 -62zM385 316h-46q0 44 -18.5 69t-50.5 25l-50 126q47 0 84.5 -28.5t59 -78.5t21.5 -113zM211 219q0 -40 15.5 -62t43.5 -22
l-50 -126q-50 0 -89.5 27.5t-62.5 75t-23 107.5h166zM385 229q0 -63 -21.5 -112.5t-59 -78.5t-84.5 -29l50 126q32 0 50.5 25t18.5 69h46zM505 -1q0 -63 -30 -112.5t-82 -78.5t-118 -29v126q30 0 47 25t17 69h166zM212 -16q5 -37 22 -58t42 -21v-126q-56 0 -100 21
t-71.5 61.5t-37.5 96.5z" />
    <glyph glyph-name="h" unicode="h" horiz-adv-x="565" 
d="M60 0v520h166v-520h-166zM354 0v327h166v-327h-166zM354 326q0 40 -15.5 62t-43.5 22l50 126q50 0 89.5 -27.5t62.5 -75t23 -107.5h-166zM180 316q0 63 21.5 113t59 78.5t84.5 28.5l-50 -126q-32 0 -50.5 -25t-18.5 -69h-46zM60 0v736h166v-736h-166z" />
    <glyph glyph-name="i" unicode="i" horiz-adv-x="306" 
d="M70 0v520h166v-520h-166zM152 590q-39 0 -64 25t-25 64q0 38 25 64.5t64 26.5q38 0 64.5 -26.5t26.5 -64.5q0 -39 -26.5 -64t-64.5 -25z" />
    <glyph glyph-name="j" unicode="j" horiz-adv-x="327" 
d="M257 1q0 -99 -54 -154.5t-151 -55.5l-20 126q19 0 32 10t20 29t7 45h166zM-12 -66q9 -8 20 -12.5t24 -4.5l20 -126q-32 0 -61.5 9t-60.5 31zM91 0v520h166v-520h-166zM173 590q-39 0 -64 25t-25 64q0 38 25 64.5t64 26.5q38 0 64.5 -26.5t26.5 -64.5q0 -39 -26.5 -64
t-64.5 -25z" />
    <glyph glyph-name="k" unicode="k" horiz-adv-x="545" 
d="M344 0l-183 285l168 29l191 -314h-176zM204 150l-140 47l260 323h180zM60 0v736h166v-736h-166z" />
    <glyph glyph-name="l" unicode="l" horiz-adv-x="306" 
d="M70 0v736h166v-736h-166z" />
    <glyph glyph-name="m" unicode="m" horiz-adv-x="819" 
d="M60 0v520h166v-520h-166zM334 0v327h166v-327h-166zM180 316q0 63 19.5 113t53.5 78.5t77 28.5l-50 -126q-25 0 -39.5 -25t-14.5 -69h-46zM334 327q0 39 -14 61t-40 22l50 126q49 0 87 -27.5t60.5 -74.5t22.5 -107h-166zM608 0v327h166v-327h-166zM454 316q0 63 19.5 113
t53.5 78.5t77 28.5l-50 -126q-25 0 -39.5 -25t-14.5 -69h-46zM608 327q0 39 -14 61t-40 22l50 126q49 0 87 -27.5t60.5 -74.5t22.5 -107h-166z" />
    <glyph glyph-name="n" unicode="n" horiz-adv-x="565" 
d="M60 0v520h166v-520h-166zM354 0v327h166v-327h-166zM354 326q0 40 -15.5 62t-43.5 22l50 126q50 0 89.5 -27.5t62.5 -75t23 -107.5h-166zM180 316q0 63 21.5 113t59 78.5t84.5 28.5l-50 -126q-32 0 -50.5 -25t-18.5 -69h-46z" />
    <glyph glyph-name="o" unicode="o" horiz-adv-x="530" 
d="M329 224v72h166v-72h-166zM35 224v72h166v-72h-166zM259 409v126h12v-126h-12zM259 -15v126h12v-126h-12zM35 295q0 69 29.5 123t80.5 85.5t115 31.5v-126q-28 0 -43.5 -30t-15.5 -84h-166zM495 295h-166q0 54 -15.5 84t-43.5 30v126q65 0 115.5 -31.5t80 -85.5
t29.5 -123zM35 225h166q0 -54 15.5 -84t43.5 -30v-126q-64 0 -115 31.5t-80.5 86t-29.5 122.5zM495 225q0 -68 -29.5 -122.5t-80 -86t-115.5 -31.5v126q28 0 43.5 30t15.5 84h166z" />
    <glyph glyph-name="p" unicode="p" horiz-adv-x="565" 
d="M60 2h166v-202h-166v202zM226 520v-520h-166v520h166zM520 326v-132h-166v132h166zM354 194h166q0 -60 -23 -107.5t-62.5 -75t-89.5 -27.5l-50 126q28 0 43.5 22t15.5 62zM180 204h46q0 -44 18.5 -69t50.5 -25l50 -126q-47 0 -84.5 29t-59 78.5t-21.5 112.5zM354 326
q0 40 -15.5 62t-43.5 22l50 126q50 0 89.5 -27.5t62.5 -75t23 -107.5h-166zM180 316q0 63 21.5 113t59 78.5t84.5 28.5l-50 -126q-32 0 -50.5 -25t-18.5 -69h-46z" />
    <glyph glyph-name="q" unicode="q" horiz-adv-x="565" 
d="M505 2v-202h-166v202h166zM339 520h166v-520h-166v520zM45 326h166v-132h-166v132zM211 194q0 -40 15.5 -62t43.5 -22l-50 -126q-50 0 -89.5 27.5t-62.5 75t-23 107.5h166zM385 204q0 -63 -21.5 -112.5t-59 -78.5t-84.5 -29l50 126q32 0 50.5 25t18.5 69h46zM211 326
h-166q0 60 23 107.5t62.5 75t89.5 27.5l50 -126q-28 0 -43.5 -22t-15.5 -62zM385 316h-46q0 44 -18.5 69t-50.5 25l-50 126q47 0 84.5 -28.5t59 -78.5t21.5 -113z" />
    <glyph glyph-name="r" unicode="r" horiz-adv-x="446" 
d="M60 0v520h166v-520h-166zM180 296q0 69 19.5 123t53.5 85t77 31l-40 -145q-30 0 -47 -25t-17 -69h-46zM366 350q-13 17 -34.5 28.5t-41.5 11.5l40 145q26 0 47 -10.5t44 -35.5z" />
    <glyph glyph-name="s" unicode="s" horiz-adv-x="490" 
d="M299 145q0 17 -18.5 29t-48 23t-62 24t-62 32t-48 47.5t-18.5 69.5h16h39h46h39h16q0 -17 18.5 -29t48 -23t62 -24t62 -32t48 -47t18.5 -70h-16h-39h-46h-39h-16zM243 -16v126q26 0 41 9.5t15 25.5h156q0 -50 -25.5 -86.5t-72.5 -55.5t-114 -19zM42 370q0 48 26.5 85.5
t72.5 59t104 21.5v-126q-20 0 -33.5 -11.5t-13.5 -28.5h-156zM180 189q5 -37 22 -58t42 -21v-126q-56 0 -100 21t-71.5 61.5t-37.5 96.5zM308 331q-5 38 -21.5 58.5t-42.5 20.5v126q57 0 100.5 -21t71.5 -61t37 -97z" />
    <glyph glyph-name="t" unicode="t" horiz-adv-x="440" 
d="M93 193v527h166v-527h-166zM35 400v120h350v-120h-350zM93 194h166q0 -26 7 -45t20.5 -29t31.5 -10l-20 -126q-97 0 -151 55.5t-54 154.5zM362 127l58 -103q-31 -22 -60.5 -31t-61.5 -9l20 126q13 0 24 4.5t20 12.5z" />
    <glyph glyph-name="u" unicode="u" horiz-adv-x="565" 
d="M505 520v-520h-166v520h166zM211 520v-327h-166v327h166zM211 194q0 -40 15.5 -62t43.5 -22l-50 -126q-50 0 -89.5 27.5t-62.5 75t-23 107.5h166zM385 204q0 -63 -21.5 -112.5t-59 -78.5t-84.5 -29l50 126q32 0 50.5 25t18.5 69h46z" />
    <glyph glyph-name="v" unicode="v" horiz-adv-x="543" 
d="M220 0l126 520h167l-156 -520h-137zM186 0l-156 520h167l126 -520h-137z" />
    <glyph glyph-name="w" unicode="w" horiz-adv-x="798" 
d="M495 0l106 520h167l-136 -520h-137zM166 0l-136 520h167l106 -520h-137zM221 0l116 520h122l-126 -520h-112zM465 0l-126 520h122l116 -520h-112z" />
    <glyph glyph-name="x" unicode="x" horiz-adv-x="536" 
d="M336 0l-306 520h170l306 -520h-170zM30 0l153 260h170l-153 -260h-170zM183 260l153 260h170l-153 -260h-170z" />
    <glyph glyph-name="y" unicode="y" horiz-adv-x="543" 
d="M77 -180l38 128q42 -11 65.5 -4.5t31.5 32.5h138q-33 -109 -99.5 -147t-173.5 -9zM213 -24l133 544h167l-163 -544h-137zM213 -90l-183 610h167l92 -376z" />
    <glyph glyph-name="z" unicode="z" horiz-adv-x="480" 
d="M55 133l195 254h175l-194 -254h-176zM55 0v133h370v-133h-370zM55 387v133h370v-133h-370z" />
    <glyph glyph-name="braceleft" unicode="{" horiz-adv-x="334" 
d="M109 512v50h166v-50h-166zM109 110v50h166v-50h-166zM109 562q0 69 29.5 123t80.5 85.5t115 31.5v-126q-28 0 -43.5 -30t-15.5 -84h-166zM109 111h166q0 -54 15.5 -84t43.5 -30v-126q-64 0 -115 31.5t-80.5 86t-29.5 122.5zM275 513q0 -68 -29.5 -122.5t-80 -86
t-115.5 -31.5v126q28 0 43.5 30t15.5 84h166zM275 159h-166q0 54 -15.5 84t-43.5 30v126q65 0 115.5 -31.5t80 -85.5t29.5 -123z" />
    <glyph glyph-name="bar" unicode="|" horiz-adv-x="303" 
d="M70 -103v880h163v-880h-163z" />
    <glyph glyph-name="braceright" unicode="}" horiz-adv-x="334" 
d="M225 512h-166v50h166v-50zM225 110h-166v50h166v-50zM225 562h-166q0 54 -15.5 84t-43.5 30v126q65 0 115.5 -31.5t80 -85.5t29.5 -123zM225 111q0 -68 -29.5 -122.5t-80 -86t-115.5 -31.5v126q28 0 43.5 30t15.5 84h166zM59 513h166q0 -54 15.5 -84t43.5 -30v-126
q-64 0 -115 31.5t-80.5 86t-29.5 122.5zM59 159q0 69 29.5 123t80.5 85.5t115 31.5v-126q-28 0 -43.5 -30t-15.5 -84h-166z" />
    <glyph glyph-name="asciitilde" unicode="~" horiz-adv-x="572" 
d="M378 200q-27 0 -47.5 8t-37 20t-31.5 24t-31 20t-37 8v114q27 0 47.5 -8t37 -20t31.5 -24t31 -20t37 -8v-114zM30 237q2 74 45 115.5t119 41.5v-114q-21 0 -33.5 -11.5t-13.5 -31.5h-117zM378 200v114q21 0 33.5 11.5t13.5 31.5h117q-1 -74 -44.5 -115.5t-119.5 -41.5z
" />
    <glyph glyph-name="uni00A0" unicode="&#xa0;" horiz-adv-x="210" 
 />
    <glyph glyph-name="exclamdown" unicode="&#xa1;" horiz-adv-x="280" 
d="M139 716q38 0 64.5 -25t26.5 -64q0 -37 -26.5 -64t-64.5 -27q-39 0 -64 27t-25 64q0 39 25 64t64 25zM73 474h134l16 -494h-166z" />
    <glyph glyph-name="cent" unicode="&#xa2;" horiz-adv-x="457" 
d="M172 5v137h134v-137h-134zM172 550v137h134v-137h-134zM45 313v66h149v-66h-149zM45 378q0 62 26 111t72 77t104 28v-113q-25 0 -39 -27t-14 -76h-149zM304 410q-5 34 -20 52.5t-38 18.5v113q51 0 90 -19t64.5 -55t33.5 -87zM45 314h149q0 -49 14 -76t39 -27v-113
q-58 0 -104 28t-72 77t-26 111zM304 282l130 -23q-8 -51 -33.5 -87t-64.5 -55t-90 -19v113q23 0 38 18.5t20 52.5z" />
    <glyph glyph-name="sterling" unicode="&#xa3;" horiz-adv-x="593" 
d="M158 469q0 125 72.5 195.5t202.5 70.5l16 -123q-39 1 -67 -16t-43 -49t-15 -78h-166zM84 0v126h469v-126h-469zM158 218v251h166v-251h-166zM60 310v120h420v-120h-420zM513 592q-11 10 -27.5 15t-36.5 5l-16 123q29 0 64 -7.5t55 -21.5zM324 220q0 -63 -30 -112.5
t-82 -78.5t-118 -29v126q30 0 47 25t17 69h166z" />
    <glyph glyph-name="currency" unicode="&#xa4;" horiz-adv-x="609" 
d="M454 400l-87 87l105 104l87 -87zM137 83l-87 87l105 104l87 -87zM155 400l-105 104l87 87l105 -104zM472 83l-105 104l87 87l105 -104zM305 158v116q19 0 30.5 18.5t11.5 45.5h149q0 -51 -25 -92t-68 -64.5t-98 -23.5zM305 158q-54 0 -97 23.5t-67.5 64.5t-24.5 92h148
q0 -27 12 -45.5t29 -18.5v-116zM116 338q0 51 24.5 91.5t67.5 64t97 23.5v-116q-17 0 -29 -17.5t-12 -45.5h-148zM347 338q0 28 -11.5 45.5t-30.5 17.5v116q55 0 98 -23.5t68 -64t25 -91.5h-149z" />
    <glyph glyph-name="yen" unicode="&#xa5;" horiz-adv-x="626" 
d="M79 289v100h428v-100h-428zM79 145v100h428v-100h-428zM241 258l180 462h145l-180 -462h-145zM240 0v258h146v-258h-146zM240 258l-180 462h176l150 -462h-146z" />
    <glyph glyph-name="brokenbar" unicode="&#xa6;" horiz-adv-x="303" 
d="M70 387v390h163v-390h-163zM70 -103v390h163v-390h-163z" />
    <glyph glyph-name="section" unicode="&#xa7;" horiz-adv-x="502" 
d="M311 330q0 17 -18.5 29t-48 23t-62 24t-62 32t-48 47.5t-18.5 69.5h16h39h46h39h16q0 -17 18.5 -29t48 -23t62 -24t62 -32t48 -47t18.5 -70h-16h-39h-46h-39h-16zM255 169v126q26 0 41 9.5t15 25.5h156q0 -50 -25.5 -86.5t-72.5 -55.5t-114 -19zM54 555q0 48 26.5 85.5
t72.5 59t104 21.5v-126q-20 0 -33.5 -11.5t-13.5 -28.5h-156zM192 374q5 -37 22 -58t42 -21v-126q-56 0 -100 21t-71.5 61.5t-37.5 96.5zM320 516q-5 38 -21.5 58.5t-42.5 20.5v126q57 0 100.5 -21t71.5 -61t37 -97zM191 336q0 -17 18.5 -29t48 -23t62 -24t62 -32t48 -47.5
t18.5 -69.5h-16h-39h-46h-39h-16q0 17 -18.5 29t-48 23t-62 24t-62 32t-48 47.5t-18.5 69.5h16h39h46h39h16zM247 497v-126q-26 0 -41 -9t-15 -26h-156q0 51 25.5 87t73 55t113.5 19zM448 111q0 -48 -26.5 -85.5t-72.5 -59t-104 -21.5v126q20 0 33.5 11.5t13.5 28.5h156z
M310 292q-5 38 -21.5 58.5t-42.5 20.5v126q57 0 100.5 -21t71.5 -61t37 -97zM182 150q5 -37 22 -58t42 -21v-126q-56 0 -100 21t-71.5 61.5t-37.5 96.5zM311 330q0 17 -18.5 29t-48 23t-62 24t-62 32t-48 47.5t-18.5 69.5h16h39h46h39h16q0 -17 18.5 -29t48 -23t62 -24
t62 -32t48 -47t18.5 -70h-16h-39h-46h-39h-16zM255 169v126q26 0 41 9.5t15 25.5h156q0 -50 -25.5 -86.5t-72.5 -55.5t-114 -19zM54 555q0 48 26.5 85.5t72.5 59t104 21.5v-126q-20 0 -33.5 -11.5t-13.5 -28.5h-156zM192 374q5 -37 22 -58t42 -21v-126q-56 0 -100 21
t-71.5 61.5t-37.5 96.5zM320 516q-5 38 -21.5 58.5t-42.5 20.5v126q57 0 100.5 -21t71.5 -61t37 -97z" />
    <glyph glyph-name="dieresis" unicode="&#xa8;" horiz-adv-x="475" 
d="M136 524q-29 0 -47.5 19t-18.5 48q0 28 18.5 48t47.5 20q28 0 48.5 -20t20.5 -48q0 -29 -20.5 -48t-48.5 -19zM336 524q-29 0 -47.5 19t-18.5 48q0 28 18.5 48t47.5 20q28 0 48.5 -20t20.5 -48q0 -29 -20.5 -48t-48.5 -19z" />
    <glyph glyph-name="copyright" unicode="&#xa9;" horiz-adv-x="870" 
d="M683 372q0 84 -29.5 143t-85 90.5t-134.5 31.5v112q123 0 210 -45t134 -129t47 -203h-142zM434 -75q-123 0 -210 45t-133 129.5t-46 202.5h142q0 -84 29.5 -143.5t85 -90.5t132.5 -31v-112zM45 302v70h142v-70h-142zM434 -75v112q79 0 134.5 31.5t85 91t29.5 142.5h142
q0 -118 -47 -202.5t-134 -129.5t-210 -45zM45 372q0 119 46 203t133 129t210 45v-112q-77 1 -132.5 -30.5t-85 -91t-29.5 -143.5h-142zM683 302v70h142v-70h-142zM274 309v56h124v-56h-124zM274 364q0 51 22 92t60 64.5t87 23.5v-94q-21 0 -33 -22.5t-12 -63.5h-124z
M490 390q-4 28 -16.5 44t-31.5 16v94q63 0 104.5 -35.5t52.5 -98.5zM274 310h124q0 -40 12 -62.5t33 -22.5v-95q-49 0 -87 23.5t-60 64.5t-22 92zM490 284l109 -20q-11 -63 -52.5 -98.5t-104.5 -35.5v95q19 0 31.5 15.5t16.5 43.5z" />
    <glyph glyph-name="ordfeminine" unicode="&#xaa;" horiz-adv-x="428" 
d="M259 319v245h124v-245h-124zM172 308l23 90q17 0 31.5 9t23.5 26.5t9 42.5l49 7q0 -50 -18.5 -89.5t-49.5 -62.5t-68 -23zM172 308q-38 0 -67 15.5t-44.5 43t-15.5 62.5l109 7q0 -16 11.5 -27t29.5 -11zM45 429q0 34 19.5 62t53.5 44t77 16l15 -75q-27 0 -41.5 -10.5
t-14.5 -29.5zM210 476l-15 75h86v-75h-71zM259 476v81h49v-74zM383 556h-124q0 33 -13 52t-35 19v94q49 0 88 -21.5t61.5 -59t22.5 -84.5zM163 567l-108 20q10 63 51.5 98.5t104.5 35.5v-94q-19 0 -31.5 -16t-16.5 -44z" />
    <glyph glyph-name="guillemotleft" unicode="&#xab;" horiz-adv-x="806" 
d="M176 224v158l270 196v-152zM176 154l-156 114l156 114v-228zM446 -42l-270 196v158l270 -202v-152zM516 224v158l270 196v-152zM516 154l-156 114l156 114v-228zM786 -42l-270 196v158l270 -202v-152z" />
    <glyph glyph-name="logicalnot" unicode="&#xac;" horiz-adv-x="510" 
d="M35 337v126h440v-126h-440zM309 208v255h166v-255h-166z" />
    <glyph glyph-name="uni00AD" unicode="&#xad;" horiz-adv-x="420" 
d="M50 274v126h320v-126h-320z" />
    <glyph glyph-name="registered" unicode="&#xae;" horiz-adv-x="603" 
d="M302 180q-80 0 -137.5 32t-88 91.5t-31.5 143.5h91q0 -58 20 -102t57 -68.5t89 -24.5v-72zM45 447v22h91v-22h-91zM302 180v72q52 0 89 24.5t56.5 68.5t19.5 102h91q0 -84 -30.5 -143.5t-87.5 -91.5t-138 -32zM45 469q1 84 31.5 143.5t88 91t137.5 31.5v-72
q-52 0 -89 -24.5t-57 -68t-20 -101.5h-91zM467 447v22h91v-22h-91zM467 469q0 58 -19.5 101.5t-56.5 68t-89 24.5v72q81 0 138 -31.5t87.5 -91t30.5 -143.5h-91zM216 319v281h75v-281h-75zM349 319l-56 129h72l56 -129h-72zM286 421v49h23v-49h-23zM286 551v49h23v-49h-23z
M339 502v16h75v-16h-75zM414 518h-75q0 15 -8 24t-23 9v49q45 0 75.5 -23.5t30.5 -58.5zM414 503q0 -35 -30.5 -58.5t-75.5 -23.5v49q15 0 23 8.5t8 24.5h75z" />
    <glyph glyph-name="macron" unicode="&#xaf;" horiz-adv-x="460" 
d="M70 626v94h320v-94h-320z" />
    <glyph glyph-name="degree" unicode="&#xb0;" horiz-adv-x="443" 
d="M221 467v104q17 0 27.5 16.5t10.5 41.5h134q0 -46 -22.5 -83t-61.5 -58t-88 -21zM221 467q-49 0 -87.5 21t-61 58t-22.5 83h134q0 -25 10.5 -41.5t26.5 -16.5v-104zM50 629q0 46 22.5 82.5t61 57.5t87.5 21v-104q-16 0 -26.5 -16t-10.5 -41h-134zM259 629q0 25 -10.5 41
t-27.5 16v104q49 0 88 -21t61.5 -57.5t22.5 -82.5h-134z" />
    <glyph glyph-name="plusminus" unicode="&#xb1;" horiz-adv-x="500" 
d="M174 207v440h152v-440h-152zM30 367v126h440v-126h-440zM30 20v126h440v-126h-440z" />
    <glyph glyph-name="uni00B2" unicode="&#xb2;" horiz-adv-x="307" 
d="M66 510q0 33 11.5 54t28 35.5t33 26.5t27.5 25.5t11 34.5h11.5h26.5h26h11q0 -32 -11 -51.5t-28 -33t-33.5 -25.5t-28 -27t-12.5 -39h-73zM66 453v57h184v-57h-184zM120 692l-65 12q6 38 31 59t63 21v-56q-11 0 -18.5 -9.5t-10.5 -26.5zM252 685h-75q0 20 -7.5 31.5
t-20.5 11.5v56q44 0 73.5 -28t29.5 -71z" />
    <glyph glyph-name="uni00B3" unicode="&#xb3;" horiz-adv-x="311" 
d="M148 592v56q13 0 20 11t7 31h74q0 -47 -26.5 -72.5t-74.5 -25.5zM181 544v6h75v-6h-75zM121 592v56h28v-56h-28zM175 689q0 18 -7 28t-20 10v57q48 0 74.5 -25t26.5 -70h-74zM256 545q0 -43 -29.5 -71t-73.5 -28v57q13 0 20.5 11t7.5 31h75zM256 549h-75q0 20 -7.5 31.5
t-20.5 11.5v56q44 0 73.5 -28t29.5 -71zM120 692l-65 11q6 38 30.5 59.5t63.5 21.5v-57q-12 0 -19.5 -9.5t-9.5 -25.5zM124 538q3 -17 10.5 -26t18.5 -9v-57q-38 0 -63 21t-31 59z" />
    <glyph glyph-name="acute" unicode="&#xb4;" horiz-adv-x="343" 
d="M176 557h-106l65 148h138z" />
    <glyph glyph-name="uni00B5" unicode="&#xb5;" horiz-adv-x="565" 
d="M369 0l-30 97v423h166v-520h-136zM211 174q0 -40 15.5 -62t43.5 -22l-50 -126q-50 0 -89.5 27.5t-62.5 75t-23 107.5h166zM385 184q0 -63 -21.5 -112.5t-59 -78.5t-84.5 -29l50 126q32 0 50.5 25t18.5 69h46zM45 -200v720h166v-720h-166z" />
    <glyph glyph-name="paragraph" unicode="&#xb6;" horiz-adv-x="674" 
d="M258 275q-63 0 -113.5 30.5t-80 83.5t-29.5 119q0 64 29.5 114t80 79t113.5 29v-455zM258 -200v930h146v-930h-146zM468 -200v930h146v-930h-146zM258 604v126h266v-126h-266z" />
    <glyph glyph-name="periodcentered" unicode="&#xb7;" horiz-adv-x="280" 
d="M139 257q-39 0 -64 25t-25 64q0 38 25 64.5t64 26.5q38 0 64.5 -26.5t26.5 -64.5q0 -39 -26.5 -64t-64.5 -25z" />
    <glyph glyph-name="cedilla" unicode="&#xb8;" horiz-adv-x="403" 
d="M189 -185q-41 0 -68.5 10t-50.5 22l29 73q32 -12 53 -13t29.5 10t2.5 32h148q9 -69 -33 -101.5t-110 -32.5zM184 -51q-6 23 -13 39t-16 32h151q9 -13 15.5 -29t10.5 -42h-148z" />
    <glyph glyph-name="uni00B9" unicode="&#xb9;" horiz-adv-x="223" 
d="M93 453v324h75v-324h-75zM58 652l-40 42l75 83v-86z" />
    <glyph glyph-name="ordmasculine" unicode="&#xba;" horiz-adv-x="435" 
d="M266 501v54h124v-54h-124zM45 501v54h125v-54h-125zM213 640v94h9v-94h-9zM213 322v94h9v-94h-9zM45 554q0 52 22 92.5t60.5 64t86.5 23.5v-94q-21 0 -32.5 -22.5t-11.5 -63.5h-125zM390 554h-124q0 41 -12 63.5t-32 22.5v94q48 0 86 -23.5t60 -64t22 -92.5zM45 502h125
q0 -41 11.5 -63.5t32.5 -22.5v-94q-48 0 -86.5 23.5t-60.5 64t-22 92.5zM390 502q0 -52 -22 -92.5t-60 -64t-86 -23.5v94q20 0 32 22.5t12 63.5h124z" />
    <glyph glyph-name="guillemotright" unicode="&#xbb;" horiz-adv-x="806" 
d="M630 224l-270 202v152l270 -196v-158zM630 154v228l156 -114zM360 -42v152l270 202v-158zM290 224l-270 202v152l270 -196v-158zM290 154v228l156 -114zM20 -42v152l270 202v-158z" />
    <glyph glyph-name="onequarter" unicode="&#xbc;" horiz-adv-x="934" 
d="M129 297v475h109v-475h-109zM77 589l-59 62l111 121v-126zM563 166l105 309h110l-105 -309h-110zM563 83v83h316v-83h-316zM735 0v263h101v-263h-101zM243 -15l311 806h95l-311 -806h-95z" />
    <glyph glyph-name="onehalf" unicode="&#xbd;" horiz-adv-x="948" 
d="M129 297v475h109v-475h-109zM77 589l-59 62l111 121v-126zM619 83q1 49 17.5 80t41 52.5t48.5 38.5t40.5 37.5t16.5 49.5h16.5h38.5h38.5h16.5q0 -46 -16.5 -75t-41 -48.5t-49.5 -37t-41.5 -39.5t-17.5 -58h-108zM619 0v83h270v-83h-270zM699 350l-95 18q9 56 45.5 87
t92.5 31v-83q-17 0 -28 -14t-15 -39zM893 341h-110q0 29 -11 45.5t-31 16.5v83q43 0 77.5 -19t54.5 -52t20 -74zM243 -15l311 806h95l-311 -806h-95z" />
    <glyph glyph-name="threequarters" unicode="&#xbe;" horiz-adv-x="1047" 
d="M192 500v83q19 0 29 16t10 45h110q0 -68 -39.5 -106t-109.5 -38zM241 431v8h110v-8h-110zM153 500v83h40v-83h-40zM231 644q0 26 -10 40.5t-29 14.5v83q70 0 109.5 -36.5t39.5 -101.5h-110zM351 432q0 -42 -20 -75t-54.5 -52t-77.5 -19v84q20 0 31 16t11 46h110zM351 438
h-110q0 29 -11 45.5t-31 16.5v83q43 0 77.5 -19t54.5 -51.5t20 -74.5zM151 647l-96 17q9 56 45.5 87t92.5 31v-83q-17 0 -28 -13.5t-14 -38.5zM157 422q4 -25 15 -38.5t28 -13.5v-84q-56 0 -92.5 31.5t-45.5 87.5zM676 166l105 309h110l-105 -309h-110zM676 83v83h316v-83
h-316zM848 0v263h101v-263h-101zM356 -15l311 806h95l-311 -806h-95z" />
    <glyph glyph-name="questiondown" unicode="&#xbf;" horiz-adv-x="495" 
d="M264 736q39 0 64 -25t25 -64q0 -37 -25 -64t-64 -27q-37 0 -64 27t-27 64q0 39 27 64t64 25zM345 476q0 -45 -13.5 -77.5t-33 -58t-39 -48.5t-33 -48.5t-13.5 -58.5q0 -36 11.5 -51.5t30.5 -15.5q13 0 21.5 8.5t13 26.5t4.5 47h166q0 -61 -27 -110t-73 -77t-105 -28
q-58 0 -104.5 26.5t-73.5 71.5t-27 102q0 40 13.5 68.5t33 52l39 47t33 53t13.5 70.5h163zM345 499v-23h-163v23h163z" />
    <glyph glyph-name="Agrave" unicode="&#xc0;" horiz-adv-x="580" 
d="M183 112v126h256v-126h-256zM369 720l-179 -720h-160l179 720h160zM371 720l179 -720h-160l-179 720h160zM225 757l-97 148h138l65 -148h-106z" />
    <glyph glyph-name="Aacute" unicode="&#xc1;" horiz-adv-x="580" 
d="M314 757h-106l65 148h138zM183 112v126h256v-126h-256zM369 720l-179 -720h-160l179 720h160zM371 720l179 -720h-160l-179 720h160z" />
    <glyph glyph-name="Acircumflex" unicode="&#xc2;" horiz-adv-x="580" 
d="M209 925h106l-65 -148h-138zM370 925l97 -148h-138l-65 148h106zM183 112v126h256v-126h-256zM369 720l-179 -720h-160l179 720h160zM371 720l179 -720h-160l-179 720h160z" />
    <glyph glyph-name="Atilde" unicode="&#xc3;" horiz-adv-x="580" 
d="M183 112v126h256v-126h-256zM369 720l-179 -720h-160l179 720h160zM371 720l179 -720h-160l-179 720h160zM355 759q-30 0 -47.5 10.5t-29 23.5t-23 23.5t-30.5 10.5v85q30 0 47.5 -10.5t29 -23.5t23 -23.5t30.5 -10.5v-85zM101 785q0 60 33 93.5t91 33.5v-85
q-12 0 -19 -11t-7 -31h-98zM355 759v85q12 0 19 11.5t7 30.5h98q0 -60 -32.5 -93.5t-91.5 -33.5z" />
    <glyph glyph-name="Adieresis" unicode="&#xc4;" horiz-adv-x="580" 
d="M183 112v126h256v-126h-256zM369 720l-179 -720h-160l179 720h160zM371 720l179 -720h-160l-179 720h160zM189 764q-29 0 -47.5 19t-18.5 48q0 28 18.5 48t47.5 20q28 0 48.5 -20t20.5 -48q0 -29 -20.5 -48t-48.5 -19zM389 764q-29 0 -47.5 19t-18.5 48q0 28 18.5 48
t47.5 20q28 0 48.5 -20t20.5 -48q0 -29 -20.5 -48t-48.5 -19z" />
    <glyph glyph-name="Aring" unicode="&#xc5;" horiz-adv-x="580" 
d="M183 112v126h256v-126h-256zM369 720l-179 -720h-160l179 720h160zM371 720l179 -720h-160l-179 720h160zM326 884q0 17 -10 29t-26 12v68q53 0 88.5 -31t35.5 -78h-88zM290 775q-53 0 -88.5 31.5t-35.5 77.5h88q0 -17 10 -29t26 -12v-68zM290 775v68q16 0 26 12t10 29
h88q0 -46 -35.5 -77.5t-88.5 -31.5zM166 884q0 47 35.5 78t88.5 31v-68q-16 0 -26 -12t-10 -29h-88z" />
    <glyph glyph-name="AE" unicode="&#xc6;" horiz-adv-x="786" 
d="M208 594l34 126h255l-34 -126h-255zM128 135l14 106h355l-14 -106h-355zM30 0l180 720h160l-180 -720h-160zM492 297v126h194v-126h-194zM366 720h166v-720h-166v720zM502 720h234v-126h-234v126zM492 0v126h254v-126h-254z" />
    <glyph glyph-name="Ccedilla" unicode="&#xc7;" horiz-adv-x="553" 
d="M50 193v334h166v-334h-166zM50 526q0 60 31 107.5t84 75t120 27.5v-126q-32 0 -50.5 -22t-18.5 -62h-166zM50 194h166q0 -40 18.5 -62t50.5 -22v-126q-67 0 -120 27.5t-84 75t-31 107.5zM374 491q-3 56 -27 87.5t-63 31.5v126q103 0 166 -57.5t73 -161.5zM374 229
l149 -26q-10 -103 -73 -161t-166 -58v126q39 0 63 31.5t27 87.5zM304 -185q-41 0 -68.5 10t-50.5 22l29 73q32 -12 53 -13t29.5 10t2.5 32h148q9 -69 -33 -101.5t-110 -32.5zM299 -51q-6 23 -13 39t-16 32h151q9 -13 15.5 -29t10.5 -42h-148z" />
    <glyph glyph-name="Egrave" unicode="&#xc8;" horiz-adv-x="480" 
d="M186 0v126h254v-126h-254zM186 297v126h194v-126h-194zM60 720h166v-720h-166v720zM196 720h234v-126h-234v126zM175 757l-97 148h138l65 -148h-106z" />
    <glyph glyph-name="Eacute" unicode="&#xc9;" horiz-adv-x="480" 
d="M264 757h-106l65 148h138zM186 0v126h254v-126h-254zM186 297v126h194v-126h-194zM60 720h166v-720h-166v720zM196 720h234v-126h-234v126z" />
    <glyph glyph-name="Ecircumflex" unicode="&#xca;" horiz-adv-x="480" 
d="M159 925h106l-65 -148h-138zM320 925l97 -148h-138l-65 148h106zM186 0v126h254v-126h-254zM186 297v126h194v-126h-194zM60 720h166v-720h-166v720zM196 720h234v-126h-234v126z" />
    <glyph glyph-name="Edieresis" unicode="&#xcb;" horiz-adv-x="480" 
d="M186 0v126h254v-126h-254zM186 297v126h194v-126h-194zM60 720h166v-720h-166v720zM196 720h234v-126h-234v126zM139 764q-29 0 -47.5 19t-18.5 48q0 28 18.5 48t47.5 20q28 0 48.5 -20t20.5 -48q0 -29 -20.5 -48t-48.5 -19zM339 764q-29 0 -47.5 19t-18.5 48
q0 28 18.5 48t47.5 20q28 0 48.5 -20t20.5 -48q0 -29 -20.5 -48t-48.5 -19z" />
    <glyph glyph-name="Igrave" unicode="&#xcc;" horiz-adv-x="306" 
d="M70 0v720h166v-720h-166zM88 757l-97 148h138l65 -148h-106z" />
    <glyph glyph-name="Iacute" unicode="&#xcd;" horiz-adv-x="306" 
d="M177 757h-106l65 148h138zM70 0v720h166v-720h-166z" />
    <glyph glyph-name="Icircumflex" unicode="&#xce;" horiz-adv-x="306" 
d="M72 925h106l-65 -148h-138zM233 925l97 -148h-138l-65 148h106zM70 0v720h166v-720h-166z" />
    <glyph glyph-name="Idieresis" unicode="&#xcf;" horiz-adv-x="306" 
d="M70 0v720h166v-720h-166zM52 764q-29 0 -47.5 19t-18.5 48q0 28 18.5 48t47.5 20q28 0 48.5 -20t20.5 -48q0 -29 -20.5 -48t-48.5 -19zM252 764q-29 0 -47.5 19t-18.5 48q0 28 18.5 48t47.5 20q28 0 48.5 -20t20.5 -48q0 -29 -20.5 -48t-48.5 -19z" />
    <glyph glyph-name="Eth" unicode="&#xd0;" horiz-adv-x="565" 
d="M344 208v303h166v-303h-166zM206 0v126h69v-126h-69zM206 594v126h69v-126h-69zM206 594v126h69v-126h-69zM510 510h-166q0 40 -18.5 62t-50.5 22v126q67 0 120 -27.5t84 -75t31 -107.5zM510 210q0 -60 -31 -107.5t-84 -75t-120 -27.5v126q32 0 50.5 22t18.5 62h166z
M60 0v720h166v-720h-166zM-22 313v95h290v-95h-290z" />
    <glyph glyph-name="Ntilde" unicode="&#xd1;" horiz-adv-x="637" 
d="M372 0l-285 720h140l285 -720h-140zM60 0v720h166v-720h-166zM411 0v720h166v-720h-166zM364 759q-30 0 -47.5 10.5t-29 23.5t-23 23.5t-30.5 10.5v85q30 0 47.5 -10.5t29 -23.5t23 -23.5t30.5 -10.5v-85zM110 785q0 60 33 93.5t91 33.5v-85q-12 0 -19 -11t-7 -31h-98z
M364 759v85q12 0 19 11.5t7 30.5h98q0 -60 -32.5 -93.5t-91.5 -33.5z" />
    <glyph glyph-name="Ograve" unicode="&#xd2;" horiz-adv-x="578" 
d="M357 194v333h166v-333h-166zM55 194v333h166v-333h-166zM523 525h-166q0 40 -18.5 62t-50.5 22v126q67 0 120 -27.5t84 -75t31 -107.5zM55 525q0 60 31 107.5t84 75t120 27.5v-126q-32 0 -50.5 -22t-18.5 -62h-166zM523 195q0 -60 -31 -107.5t-84 -75t-120 -27.5v126
q32 0 50.5 22t18.5 62h166zM55 195h166q0 -40 18.5 -62t50.5 -22v-126q-67 0 -120 27.5t-84 75t-31 107.5zM224 757l-97 148h138l65 -148h-106z" />
    <glyph glyph-name="Oacute" unicode="&#xd3;" horiz-adv-x="578" 
d="M313 757h-106l65 148h138zM357 194v333h166v-333h-166zM55 194v333h166v-333h-166zM523 525h-166q0 40 -18.5 62t-50.5 22v126q67 0 120 -27.5t84 -75t31 -107.5zM55 525q0 60 31 107.5t84 75t120 27.5v-126q-32 0 -50.5 -22t-18.5 -62h-166zM523 195q0 -60 -31 -107.5
t-84 -75t-120 -27.5v126q32 0 50.5 22t18.5 62h166zM55 195h166q0 -40 18.5 -62t50.5 -22v-126q-67 0 -120 27.5t-84 75t-31 107.5z" />
    <glyph glyph-name="Ocircumflex" unicode="&#xd4;" horiz-adv-x="578" 
d="M208 925h106l-65 -148h-138zM369 925l97 -148h-138l-65 148h106zM357 194v333h166v-333h-166zM55 194v333h166v-333h-166zM523 525h-166q0 40 -18.5 62t-50.5 22v126q67 0 120 -27.5t84 -75t31 -107.5zM55 525q0 60 31 107.5t84 75t120 27.5v-126q-32 0 -50.5 -22
t-18.5 -62h-166zM523 195q0 -60 -31 -107.5t-84 -75t-120 -27.5v126q32 0 50.5 22t18.5 62h166zM55 195h166q0 -40 18.5 -62t50.5 -22v-126q-67 0 -120 27.5t-84 75t-31 107.5z" />
    <glyph glyph-name="Otilde" unicode="&#xd5;" horiz-adv-x="578" 
d="M357 194v333h166v-333h-166zM55 194v333h166v-333h-166zM523 525h-166q0 40 -18.5 62t-50.5 22v126q67 0 120 -27.5t84 -75t31 -107.5zM55 525q0 60 31 107.5t84 75t120 27.5v-126q-32 0 -50.5 -22t-18.5 -62h-166zM523 195q0 -60 -31 -107.5t-84 -75t-120 -27.5v126
q32 0 50.5 22t18.5 62h166zM55 195h166q0 -40 18.5 -62t50.5 -22v-126q-67 0 -120 27.5t-84 75t-31 107.5zM354 759q-30 0 -47.5 10.5t-29 23.5t-23 23.5t-30.5 10.5v85q30 0 47.5 -10.5t29 -23.5t23 -23.5t30.5 -10.5v-85zM100 785q0 60 33 93.5t91 33.5v-85q-12 0 -19 -11
t-7 -31h-98zM354 759v85q12 0 19 11.5t7 30.5h98q0 -60 -32.5 -93.5t-91.5 -33.5z" />
    <glyph glyph-name="Odieresis" unicode="&#xd6;" horiz-adv-x="578" 
d="M357 194v333h166v-333h-166zM55 194v333h166v-333h-166zM523 525h-166q0 40 -18.5 62t-50.5 22v126q67 0 120 -27.5t84 -75t31 -107.5zM55 525q0 60 31 107.5t84 75t120 27.5v-126q-32 0 -50.5 -22t-18.5 -62h-166zM523 195q0 -60 -31 -107.5t-84 -75t-120 -27.5v126
q32 0 50.5 22t18.5 62h166zM55 195h166q0 -40 18.5 -62t50.5 -22v-126q-67 0 -120 27.5t-84 75t-31 107.5zM188 764q-29 0 -47.5 19t-18.5 48q0 28 18.5 48t47.5 20q28 0 48.5 -20t20.5 -48q0 -29 -20.5 -48t-48.5 -19zM388 764q-29 0 -47.5 19t-18.5 48q0 28 18.5 48
t47.5 20q28 0 48.5 -20t20.5 -48q0 -29 -20.5 -48t-48.5 -19z" />
    <glyph glyph-name="multiply" unicode="&#xd7;" horiz-adv-x="464" 
d="M327 135l-297 297l107 107l297 -297zM119 139l-89 89l311 311l89 -89z" />
    <glyph glyph-name="Oslash" unicode="&#xd8;" horiz-adv-x="578" 
d="M357 194v333h166v-333h-166zM55 194v333h166v-333h-166zM523 525h-166q0 40 -18.5 62t-50.5 22v126q67 0 120 -27.5t84 -75t31 -107.5zM55 525q0 60 31 107.5t84 75t120 27.5v-126q-32 0 -50.5 -22t-18.5 -62h-166zM523 195q0 -60 -31 -107.5t-84 -75t-120 -27.5v126
q32 0 50.5 22t18.5 62h166zM55 195h166q0 -40 18.5 -62t50.5 -22v-126q-67 0 -120 27.5t-84 75t-31 107.5zM125 -43l270 806h57l-270 -806h-57z" />
    <glyph glyph-name="Ugrave" unicode="&#xd9;" horiz-adv-x="588" 
d="M362 193v527h166v-527h-166zM60 193v527h166v-527h-166zM528 194q0 -60 -31 -107.5t-84 -75t-120 -27.5v126q32 0 50.5 22t18.5 62h166zM60 194h166q0 -40 18.5 -62t50.5 -22v-126q-67 0 -120 27.5t-84 75t-31 107.5zM229 757l-97 148h138l65 -148h-106z" />
    <glyph glyph-name="Uacute" unicode="&#xda;" horiz-adv-x="588" 
d="M318 757h-106l65 148h138zM362 193v527h166v-527h-166zM60 193v527h166v-527h-166zM528 194q0 -60 -31 -107.5t-84 -75t-120 -27.5v126q32 0 50.5 22t18.5 62h166zM60 194h166q0 -40 18.5 -62t50.5 -22v-126q-67 0 -120 27.5t-84 75t-31 107.5z" />
    <glyph glyph-name="Ucircumflex" unicode="&#xdb;" horiz-adv-x="588" 
d="M213 925h106l-65 -148h-138zM374 925l97 -148h-138l-65 148h106zM362 193v527h166v-527h-166zM60 193v527h166v-527h-166zM528 194q0 -60 -31 -107.5t-84 -75t-120 -27.5v126q32 0 50.5 22t18.5 62h166zM60 194h166q0 -40 18.5 -62t50.5 -22v-126q-67 0 -120 27.5t-84 75
t-31 107.5z" />
    <glyph glyph-name="Udieresis" unicode="&#xdc;" horiz-adv-x="588" 
d="M362 193v527h166v-527h-166zM60 193v527h166v-527h-166zM528 194q0 -60 -31 -107.5t-84 -75t-120 -27.5v126q32 0 50.5 22t18.5 62h166zM60 194h166q0 -40 18.5 -62t50.5 -22v-126q-67 0 -120 27.5t-84 75t-31 107.5zM193 764q-29 0 -47.5 19t-18.5 48q0 28 18.5 48
t47.5 20q28 0 48.5 -20t20.5 -48q0 -29 -20.5 -48t-48.5 -19zM393 764q-29 0 -47.5 19t-18.5 48q0 28 18.5 48t47.5 20q28 0 48.5 -20t20.5 -48q0 -29 -20.5 -48t-48.5 -19z" />
    <glyph glyph-name="Yacute" unicode="&#xdd;" horiz-adv-x="566" 
d="M307 777h-106l65 148h138zM211 258l180 462h145l-180 -462h-145zM210 0v258h146v-258h-146zM210 258l-180 462h176l150 -462h-146z" />
    <glyph glyph-name="Thorn" unicode="&#xde;" horiz-adv-x="520" 
d="M206 465v126h49v-126h-49zM206 129v126h49v-126h-49zM324 339v42h166v-42h-166zM490 381h-166q0 40 -18.5 62t-50.5 22v126q67 0 120 -27.5t84 -75t31 -107.5zM490 339q0 -60 -31 -107.5t-84 -75t-120 -27.5v126q32 0 50.5 22t18.5 62h166zM60 0v720h166v-720h-166z" />
    <glyph glyph-name="germandbls" unicode="&#xdf;" horiz-adv-x="564" 
d="M60 0v506h156v-506h-156zM243 -15l20 123h34v-123h-54zM253 291v123h32v-123h-32zM363 169v61h156v-61h-156zM353 475v32h156v-32h-156zM60 506q0 53 29.5 95t80.5 66t115 24v-123q-29 0 -49 -18t-20 -44h-156zM509 506h-156q0 26 -20 44t-49 18v123q65 0 115.5 -24
t80 -66t29.5 -95zM509 476q0 -53 -29.5 -95t-80 -66t-115.5 -24v123q29 0 49 18t20 44h156zM519 229h-156q0 26 -20 44t-49 18v123q65 0 115.5 -24t80 -66t29.5 -95zM519 170q0 -53 -29.5 -95t-80 -66t-115.5 -24v123q29 0 49 18t20 44h156z" />
    <glyph glyph-name="agrave" unicode="&#xe0;" horiz-adv-x="541" 
d="M330 0v327h166v-327h-166zM215 -15l30 120q24 0 43 12.5t30.5 36t11.5 55.5l66 10q0 -67 -25 -120t-66 -83.5t-90 -30.5zM215 -15q-51 0 -89.5 21t-59.5 57.5t-21 82.5l146 10q0 -22 15.5 -36.5t38.5 -14.5zM45 146q0 47 26.5 83.5t71.5 58t102 21.5l20 -100
q-35 0 -54.5 -14t-19.5 -39zM265 209l-20 100h115v-100h-95zM330 209v108h66v-98zM496 316h-166q0 44 -17 69t-47 25v126q66 0 118 -28.5t82 -78.5t30 -113zM203 331l-145 26q10 57 37.5 97t71.5 61t100 21v-126q-25 0 -42 -20.5t-22 -58.5zM206 557l-97 148h138l65 -148
h-106z" />
    <glyph glyph-name="aacute" unicode="&#xe1;" horiz-adv-x="541" 
d="M295 557h-106l65 148h138zM330 0v327h166v-327h-166zM215 -15l30 120q24 0 43 12.5t30.5 36t11.5 55.5l66 10q0 -67 -25 -120t-66 -83.5t-90 -30.5zM215 -15q-51 0 -89.5 21t-59.5 57.5t-21 82.5l146 10q0 -22 15.5 -36.5t38.5 -14.5zM45 146q0 47 26.5 83.5t71.5 58
t102 21.5l20 -100q-35 0 -54.5 -14t-19.5 -39zM265 209l-20 100h115v-100h-95zM330 209v108h66v-98zM496 316h-166q0 44 -17 69t-47 25v126q66 0 118 -28.5t82 -78.5t30 -113zM203 331l-145 26q10 57 37.5 97t71.5 61t100 21v-126q-25 0 -42 -20.5t-22 -58.5z" />
    <glyph glyph-name="acircumflex" unicode="&#xe2;" horiz-adv-x="541" 
d="M190 725h106l-65 -148h-138zM351 725l97 -148h-138l-65 148h106zM330 0v327h166v-327h-166zM215 -15l30 120q24 0 43 12.5t30.5 36t11.5 55.5l66 10q0 -67 -25 -120t-66 -83.5t-90 -30.5zM215 -15q-51 0 -89.5 21t-59.5 57.5t-21 82.5l146 10q0 -22 15.5 -36.5
t38.5 -14.5zM45 146q0 47 26.5 83.5t71.5 58t102 21.5l20 -100q-35 0 -54.5 -14t-19.5 -39zM265 209l-20 100h115v-100h-95zM330 209v108h66v-98zM496 316h-166q0 44 -17 69t-47 25v126q66 0 118 -28.5t82 -78.5t30 -113zM203 331l-145 26q10 57 37.5 97t71.5 61t100 21
v-126q-25 0 -42 -20.5t-22 -58.5z" />
    <glyph glyph-name="atilde" unicode="&#xe3;" horiz-adv-x="541" 
d="M330 0v327h166v-327h-166zM215 -15l30 120q24 0 43 12.5t30.5 36t11.5 55.5l66 10q0 -67 -25 -120t-66 -83.5t-90 -30.5zM215 -15q-51 0 -89.5 21t-59.5 57.5t-21 82.5l146 10q0 -22 15.5 -36.5t38.5 -14.5zM45 146q0 47 26.5 83.5t71.5 58t102 21.5l20 -100
q-35 0 -54.5 -14t-19.5 -39zM265 209l-20 100h115v-100h-95zM330 209v108h66v-98zM496 316h-166q0 44 -17 69t-47 25v126q66 0 118 -28.5t82 -78.5t30 -113zM203 331l-145 26q10 57 37.5 97t71.5 61t100 21v-126q-25 0 -42 -20.5t-22 -58.5zM336 559q-30 0 -47.5 10.5
t-29 23.5t-23 23.5t-30.5 10.5v85q30 0 47.5 -10.5t29 -23.5t23 -23.5t30.5 -10.5v-85zM82 585q0 60 33 93.5t91 33.5v-85q-12 0 -19 -11t-7 -31h-98zM336 559v85q12 0 19 11.5t7 30.5h98q0 -60 -32.5 -93.5t-91.5 -33.5z" />
    <glyph glyph-name="adieresis" unicode="&#xe4;" horiz-adv-x="541" 
d="M330 0v327h166v-327h-166zM215 -15l30 120q24 0 43 12.5t30.5 36t11.5 55.5l66 10q0 -67 -25 -120t-66 -83.5t-90 -30.5zM215 -15q-51 0 -89.5 21t-59.5 57.5t-21 82.5l146 10q0 -22 15.5 -36.5t38.5 -14.5zM45 146q0 47 26.5 83.5t71.5 58t102 21.5l20 -100
q-35 0 -54.5 -14t-19.5 -39zM265 209l-20 100h115v-100h-95zM330 209v108h66v-98zM496 316h-166q0 44 -17 69t-47 25v126q66 0 118 -28.5t82 -78.5t30 -113zM203 331l-145 26q10 57 37.5 97t71.5 61t100 21v-126q-25 0 -42 -20.5t-22 -58.5zM170 564q-29 0 -47.5 19
t-18.5 48q0 28 18.5 48t47.5 20q28 0 48.5 -20t20.5 -48q0 -29 -20.5 -48t-48.5 -19zM370 564q-29 0 -47.5 19t-18.5 48q0 28 18.5 48t47.5 20q28 0 48.5 -20t20.5 -48q0 -29 -20.5 -48t-48.5 -19z" />
    <glyph glyph-name="aring" unicode="&#xe5;" horiz-adv-x="541" 
d="M330 0v327h166v-327h-166zM215 -15l30 120q24 0 43 12.5t30.5 36t11.5 55.5l66 10q0 -67 -25 -120t-66 -83.5t-90 -30.5zM215 -15q-51 0 -89.5 21t-59.5 57.5t-21 82.5l146 10q0 -22 15.5 -36.5t38.5 -14.5zM45 146q0 47 26.5 83.5t71.5 58t102 21.5l20 -100
q-35 0 -54.5 -14t-19.5 -39zM265 209l-20 100h115v-100h-95zM330 209v108h66v-98zM496 316h-166q0 44 -17 69t-47 25v126q66 0 118 -28.5t82 -78.5t30 -113zM203 331l-145 26q10 57 37.5 97t71.5 61t100 21v-126q-25 0 -42 -20.5t-22 -58.5zM307 684q0 17 -10 29t-26 12v68
q53 0 88.5 -31t35.5 -78h-88zM271 575q-53 0 -88.5 31.5t-35.5 77.5h88q0 -17 10 -29t26 -12v-68zM271 575v68q16 0 26 12t10 29h88q0 -46 -35.5 -77.5t-88.5 -31.5zM147 684q0 47 35.5 78t88.5 31v-68q-16 0 -26 -12t-10 -29h-88z" />
    <glyph glyph-name="ae" unicode="&#xe6;" horiz-adv-x="836" 
d="M225 -15l30 120q27 0 46 10t29 29t10 45l116 10q0 -61 -31.5 -109.5t-84 -76.5t-115.5 -28zM215 -15l30 120q24 0 43 12.5t30.5 36t11.5 55.5l66 10q0 -67 -25 -120t-66 -83.5t-90 -30.5zM215 -15q-51 0 -89.5 21t-59.5 57.5t-21 82.5l146 10q0 -22 15.5 -36.5
t38.5 -14.5zM45 146q0 47 26.5 83.5t71.5 58t102 21.5l20 -100q-35 0 -54.5 -14t-19.5 -39zM265 209l-20 100h115v-100h-95zM330 209v108h66v-98zM496 316h-166q0 44 -17 69t-47 25v126q66 0 118 -28.5t82 -78.5t30 -113zM203 331l-145 26q10 57 37.5 97t71.5 61t100 21
v-126q-25 0 -42 -20.5t-22 -58.5zM443 219v90h358v-90h-358zM572 -16v126h10v-126h-10zM347 223v74h166v-74h-166zM635 309v8h166v-8h-166zM801 316h-166q0 44 -17 69t-47 25v126q66 0 118 -28.5t82 -78.5t30 -113zM646 189l145 -26q-9 -56 -37 -96.5t-71.5 -61.5
t-100.5 -21v126q26 0 42.5 21t21.5 58zM347 296q0 69 29.5 123t80.5 85.5t115 31.5v-126q-28 0 -43.5 -30t-15.5 -84h-166zM347 224h166q0 -54 15.5 -84t43.5 -30v-126q-64 0 -115 31.5t-80.5 86t-29.5 122.5z" />
    <glyph glyph-name="ccedilla" unicode="&#xe7;" horiz-adv-x="501" 
d="M45 223v74h166v-74h-166zM45 296q0 69 29.5 123t80.5 85.5t115 31.5v-126q-28 0 -43.5 -30t-15.5 -84h-166zM333 331q-5 38 -21.5 58.5t-42.5 20.5v126q57 0 100.5 -21t71.5 -61t37 -97zM45 224h166q0 -54 15.5 -84t43.5 -30v-126q-64 0 -115 31.5t-80.5 86t-29.5 122.5z
M333 189l145 -26q-9 -56 -37 -96.5t-71.5 -61.5t-100.5 -21v126q26 0 42.5 21t21.5 58zM295 -185q-41 0 -68.5 10t-50.5 22l29 73q32 -12 53 -13t29.5 10t2.5 32h148q9 -69 -33 -101.5t-110 -32.5zM290 -51q-6 23 -13 39t-16 32h151q9 -13 15.5 -29t10.5 -42h-148z" />
    <glyph glyph-name="egrave" unicode="&#xe8;" horiz-adv-x="524" 
d="M131 219v90h358v-90h-358zM260 -16v126h10v-126h-10zM35 223v74h166v-74h-166zM323 309v8h166v-8h-166zM489 316h-166q0 44 -17 69t-47 25v126q66 0 118 -28.5t82 -78.5t30 -113zM334 189l145 -26q-9 -56 -37 -96.5t-71.5 -61.5t-100.5 -21v126q26 0 42.5 21t21.5 58z
M35 296q0 69 29.5 123t80.5 85.5t115 31.5v-126q-28 0 -43.5 -30t-15.5 -84h-166zM35 224h166q0 -54 15.5 -84t43.5 -30v-126q-64 0 -115 31.5t-80.5 86t-29.5 122.5zM190 557l-97 148h138l65 -148h-106z" />
    <glyph glyph-name="eacute" unicode="&#xe9;" horiz-adv-x="524" 
d="M279 557h-106l65 148h138zM131 219v90h358v-90h-358zM260 -16v126h10v-126h-10zM35 223v74h166v-74h-166zM323 309v8h166v-8h-166zM489 316h-166q0 44 -17 69t-47 25v126q66 0 118 -28.5t82 -78.5t30 -113zM334 189l145 -26q-9 -56 -37 -96.5t-71.5 -61.5t-100.5 -21v126
q26 0 42.5 21t21.5 58zM35 296q0 69 29.5 123t80.5 85.5t115 31.5v-126q-28 0 -43.5 -30t-15.5 -84h-166zM35 224h166q0 -54 15.5 -84t43.5 -30v-126q-64 0 -115 31.5t-80.5 86t-29.5 122.5z" />
    <glyph glyph-name="ecircumflex" unicode="&#xea;" horiz-adv-x="524" 
d="M174 725h106l-65 -148h-138zM335 725l97 -148h-138l-65 148h106zM131 219v90h358v-90h-358zM260 -16v126h10v-126h-10zM35 223v74h166v-74h-166zM323 309v8h166v-8h-166zM489 316h-166q0 44 -17 69t-47 25v126q66 0 118 -28.5t82 -78.5t30 -113zM334 189l145 -26
q-9 -56 -37 -96.5t-71.5 -61.5t-100.5 -21v126q26 0 42.5 21t21.5 58zM35 296q0 69 29.5 123t80.5 85.5t115 31.5v-126q-28 0 -43.5 -30t-15.5 -84h-166zM35 224h166q0 -54 15.5 -84t43.5 -30v-126q-64 0 -115 31.5t-80.5 86t-29.5 122.5z" />
    <glyph glyph-name="edieresis" unicode="&#xeb;" horiz-adv-x="524" 
d="M131 219v90h358v-90h-358zM260 -16v126h10v-126h-10zM35 223v74h166v-74h-166zM323 309v8h166v-8h-166zM489 316h-166q0 44 -17 69t-47 25v126q66 0 118 -28.5t82 -78.5t30 -113zM334 189l145 -26q-9 -56 -37 -96.5t-71.5 -61.5t-100.5 -21v126q26 0 42.5 21t21.5 58z
M35 296q0 69 29.5 123t80.5 85.5t115 31.5v-126q-28 0 -43.5 -30t-15.5 -84h-166zM35 224h166q0 -54 15.5 -84t43.5 -30v-126q-64 0 -115 31.5t-80.5 86t-29.5 122.5zM154 564q-29 0 -47.5 19t-18.5 48q0 28 18.5 48t47.5 20q28 0 48.5 -20t20.5 -48q0 -29 -20.5 -48
t-48.5 -19zM354 564q-29 0 -47.5 19t-18.5 48q0 28 18.5 48t47.5 20q28 0 48.5 -20t20.5 -48q0 -29 -20.5 -48t-48.5 -19z" />
    <glyph glyph-name="igrave" unicode="&#xec;" horiz-adv-x="306" 
d="M70 0v520h166v-520h-166zM88 557l-97 148h138l65 -148h-106z" />
    <glyph glyph-name="iacute" unicode="&#xed;" horiz-adv-x="306" 
d="M177 557h-106l65 148h138zM70 0v520h166v-520h-166z" />
    <glyph glyph-name="icircumflex" unicode="&#xee;" horiz-adv-x="306" 
d="M72 725h106l-65 -148h-138zM233 725l97 -148h-138l-65 148h106zM70 0v520h166v-520h-166z" />
    <glyph glyph-name="idieresis" unicode="&#xef;" horiz-adv-x="306" 
d="M70 0v520h166v-520h-166zM52 564q-29 0 -47.5 19t-18.5 48q0 28 18.5 48t47.5 20q28 0 48.5 -20t20.5 -48q0 -29 -20.5 -48t-48.5 -19zM252 564q-29 0 -47.5 19t-18.5 48q0 28 18.5 48t47.5 20q28 0 48.5 -20t20.5 -48q0 -29 -20.5 -48t-48.5 -19z" />
    <glyph glyph-name="eth" unicode="&#xf0;" horiz-adv-x="540" 
d="M360 299q0 65 -9.5 130t-35 132t-74.5 136l97 61q54 -72 89 -151t51.5 -158t16.5 -150h-135zM255 548l-44 71l220 126l44 -71zM329 224v72h166v-72h-166zM35 224v72h166v-72h-166zM259 409v126h12v-126h-12zM259 -15v126h12v-126h-12zM35 295q0 69 29.5 123t80.5 85.5
t115 31.5v-126q-28 0 -43.5 -30t-15.5 -84h-166zM495 295h-166q0 54 -15.5 84t-43.5 30v126q65 0 115.5 -31.5t80 -85.5t29.5 -123zM35 225h166q0 -54 15.5 -84t43.5 -30v-126q-64 0 -115 31.5t-80.5 86t-29.5 122.5zM495 225q0 -68 -29.5 -122.5t-80 -86t-115.5 -31.5v126
q28 0 43.5 30t15.5 84h166z" />
    <glyph glyph-name="ntilde" unicode="&#xf1;" horiz-adv-x="565" 
d="M60 0v520h166v-520h-166zM354 0v327h166v-327h-166zM354 326q0 40 -15.5 62t-43.5 22l50 126q50 0 89.5 -27.5t62.5 -75t23 -107.5h-166zM180 316q0 63 21.5 113t59 78.5t84.5 28.5l-50 -126q-32 0 -50.5 -25t-18.5 -69h-46zM368 559q-30 0 -47.5 10.5t-29 23.5t-23 23.5
t-30.5 10.5v85q30 0 47.5 -10.5t29 -23.5t23 -23.5t30.5 -10.5v-85zM114 585q0 60 33 93.5t91 33.5v-85q-12 0 -19 -11t-7 -31h-98zM368 559v85q12 0 19 11.5t7 30.5h98q0 -60 -32.5 -93.5t-91.5 -33.5z" />
    <glyph glyph-name="ograve" unicode="&#xf2;" horiz-adv-x="530" 
d="M329 224v72h166v-72h-166zM35 224v72h166v-72h-166zM259 409v126h12v-126h-12zM259 -15v126h12v-126h-12zM35 295q0 69 29.5 123t80.5 85.5t115 31.5v-126q-28 0 -43.5 -30t-15.5 -84h-166zM495 295h-166q0 54 -15.5 84t-43.5 30v126q65 0 115.5 -31.5t80 -85.5
t29.5 -123zM35 225h166q0 -54 15.5 -84t43.5 -30v-126q-64 0 -115 31.5t-80.5 86t-29.5 122.5zM495 225q0 -68 -29.5 -122.5t-80 -86t-115.5 -31.5v126q28 0 43.5 30t15.5 84h166zM200 557l-97 148h138l65 -148h-106z" />
    <glyph glyph-name="oacute" unicode="&#xf3;" horiz-adv-x="530" 
d="M289 557h-106l65 148h138zM329 224v72h166v-72h-166zM35 224v72h166v-72h-166zM259 409v126h12v-126h-12zM259 -15v126h12v-126h-12zM35 295q0 69 29.5 123t80.5 85.5t115 31.5v-126q-28 0 -43.5 -30t-15.5 -84h-166zM495 295h-166q0 54 -15.5 84t-43.5 30v126
q65 0 115.5 -31.5t80 -85.5t29.5 -123zM35 225h166q0 -54 15.5 -84t43.5 -30v-126q-64 0 -115 31.5t-80.5 86t-29.5 122.5zM495 225q0 -68 -29.5 -122.5t-80 -86t-115.5 -31.5v126q28 0 43.5 30t15.5 84h166z" />
    <glyph glyph-name="ocircumflex" unicode="&#xf4;" horiz-adv-x="530" 
d="M184 725h106l-65 -148h-138zM345 725l97 -148h-138l-65 148h106zM329 224v72h166v-72h-166zM35 224v72h166v-72h-166zM259 409v126h12v-126h-12zM259 -15v126h12v-126h-12zM35 295q0 69 29.5 123t80.5 85.5t115 31.5v-126q-28 0 -43.5 -30t-15.5 -84h-166zM495 295h-166
q0 54 -15.5 84t-43.5 30v126q65 0 115.5 -31.5t80 -85.5t29.5 -123zM35 225h166q0 -54 15.5 -84t43.5 -30v-126q-64 0 -115 31.5t-80.5 86t-29.5 122.5zM495 225q0 -68 -29.5 -122.5t-80 -86t-115.5 -31.5v126q28 0 43.5 30t15.5 84h166z" />
    <glyph glyph-name="otilde" unicode="&#xf5;" horiz-adv-x="530" 
d="M329 224v72h166v-72h-166zM35 224v72h166v-72h-166zM259 409v126h12v-126h-12zM259 -15v126h12v-126h-12zM35 295q0 69 29.5 123t80.5 85.5t115 31.5v-126q-28 0 -43.5 -30t-15.5 -84h-166zM495 295h-166q0 54 -15.5 84t-43.5 30v126q65 0 115.5 -31.5t80 -85.5
t29.5 -123zM35 225h166q0 -54 15.5 -84t43.5 -30v-126q-64 0 -115 31.5t-80.5 86t-29.5 122.5zM495 225q0 -68 -29.5 -122.5t-80 -86t-115.5 -31.5v126q28 0 43.5 30t15.5 84h166zM330 559q-30 0 -47.5 10.5t-29 23.5t-23 23.5t-30.5 10.5v85q30 0 47.5 -10.5t29 -23.5
t23 -23.5t30.5 -10.5v-85zM76 585q0 60 33 93.5t91 33.5v-85q-12 0 -19 -11t-7 -31h-98zM330 559v85q12 0 19 11.5t7 30.5h98q0 -60 -32.5 -93.5t-91.5 -33.5z" />
    <glyph glyph-name="odieresis" unicode="&#xf6;" horiz-adv-x="530" 
d="M329 224v72h166v-72h-166zM35 224v72h166v-72h-166zM259 409v126h12v-126h-12zM259 -15v126h12v-126h-12zM35 295q0 69 29.5 123t80.5 85.5t115 31.5v-126q-28 0 -43.5 -30t-15.5 -84h-166zM495 295h-166q0 54 -15.5 84t-43.5 30v126q65 0 115.5 -31.5t80 -85.5
t29.5 -123zM35 225h166q0 -54 15.5 -84t43.5 -30v-126q-64 0 -115 31.5t-80.5 86t-29.5 122.5zM495 225q0 -68 -29.5 -122.5t-80 -86t-115.5 -31.5v126q28 0 43.5 30t15.5 84h166zM164 564q-29 0 -47.5 19t-18.5 48q0 28 18.5 48t47.5 20q28 0 48.5 -20t20.5 -48
q0 -29 -20.5 -48t-48.5 -19zM364 564q-29 0 -47.5 19t-18.5 48q0 28 18.5 48t47.5 20q28 0 48.5 -20t20.5 -48q0 -29 -20.5 -48t-48.5 -19z" />
    <glyph glyph-name="divide" unicode="&#xf7;" horiz-adv-x="500" 
d="M30 277v126h440v-126h-440zM249 467q-39 0 -64 25t-25 64q0 38 25 64.5t64 26.5q38 0 64.5 -26.5t26.5 -64.5q0 -39 -26.5 -64t-64.5 -25zM249 27q-39 0 -64 25t-25 64q0 38 25 64.5t64 26.5q38 0 64.5 -26.5t26.5 -64.5q0 -39 -26.5 -64t-64.5 -25z" />
    <glyph glyph-name="oslash" unicode="&#xf8;" horiz-adv-x="530" 
d="M120 -44l233 608h57l-233 -608h-57zM329 224v72h166v-72h-166zM35 224v72h166v-72h-166zM259 409v126h12v-126h-12zM259 -15v126h12v-126h-12zM35 295q0 69 29.5 123t80.5 85.5t115 31.5v-126q-28 0 -43.5 -30t-15.5 -84h-166zM495 295h-166q0 54 -15.5 84t-43.5 30v126
q65 0 115.5 -31.5t80 -85.5t29.5 -123zM35 225h166q0 -54 15.5 -84t43.5 -30v-126q-64 0 -115 31.5t-80.5 86t-29.5 122.5zM495 225q0 -68 -29.5 -122.5t-80 -86t-115.5 -31.5v126q28 0 43.5 30t15.5 84h166z" />
    <glyph glyph-name="ugrave" unicode="&#xf9;" horiz-adv-x="565" 
d="M505 520v-520h-166v520h166zM211 520v-327h-166v327h166zM211 194q0 -40 15.5 -62t43.5 -22l-50 -126q-50 0 -89.5 27.5t-62.5 75t-23 107.5h166zM385 204q0 -63 -21.5 -112.5t-59 -78.5t-84.5 -29l50 126q32 0 50.5 25t18.5 69h46zM217 557l-97 148h138l65 -148h-106z
" />
    <glyph glyph-name="uacute" unicode="&#xfa;" horiz-adv-x="565" 
d="M505 520v-520h-166v520h166zM211 520v-327h-166v327h166zM211 194q0 -40 15.5 -62t43.5 -22l-50 -126q-50 0 -89.5 27.5t-62.5 75t-23 107.5h166zM385 204q0 -63 -21.5 -112.5t-59 -78.5t-84.5 -29l50 126q32 0 50.5 25t18.5 69h46zM306 557h-106l65 148h138z" />
    <glyph glyph-name="ucircumflex" unicode="&#xfb;" horiz-adv-x="565" 
d="M505 520v-520h-166v520h166zM211 520v-327h-166v327h166zM211 194q0 -40 15.5 -62t43.5 -22l-50 -126q-50 0 -89.5 27.5t-62.5 75t-23 107.5h166zM385 204q0 -63 -21.5 -112.5t-59 -78.5t-84.5 -29l50 126q32 0 50.5 25t18.5 69h46zM201 725h106l-65 -148h-138zM362 725
l97 -148h-138l-65 148h106z" />
    <glyph glyph-name="udieresis" unicode="&#xfc;" horiz-adv-x="565" 
d="M505 520v-520h-166v520h166zM211 520v-327h-166v327h166zM211 194q0 -40 15.5 -62t43.5 -22l-50 -126q-50 0 -89.5 27.5t-62.5 75t-23 107.5h166zM385 204q0 -63 -21.5 -112.5t-59 -78.5t-84.5 -29l50 126q32 0 50.5 25t18.5 69h46zM181 564q-29 0 -47.5 19t-18.5 48
q0 28 18.5 48t47.5 20q28 0 48.5 -20t20.5 -48q0 -29 -20.5 -48t-48.5 -19zM381 564q-29 0 -47.5 19t-18.5 48q0 28 18.5 48t47.5 20q28 0 48.5 -20t20.5 -48q0 -29 -20.5 -48t-48.5 -19z" />
    <glyph glyph-name="yacute" unicode="&#xfd;" horiz-adv-x="543" 
d="M296 557h-106l65 148h138zM77 -180l38 128q42 -11 65.5 -4.5t31.5 32.5h138q-33 -109 -99.5 -147t-173.5 -9zM213 -24l133 544h167l-163 -544h-137zM213 -90l-183 610h167l92 -376z" />
    <glyph glyph-name="thorn" unicode="&#xfe;" horiz-adv-x="565" 
d="M60 518v202h166v-202h-166zM60 2h166v-202h-166v202zM226 520v-520h-166v520h166zM520 326v-132h-166v132h166zM354 194h166q0 -60 -23 -107.5t-62.5 -75t-89.5 -27.5l-50 126q28 0 43.5 22t15.5 62zM180 204h46q0 -44 18.5 -69t50.5 -25l50 -126q-47 0 -84.5 29
t-59 78.5t-21.5 112.5zM354 326q0 40 -15.5 62t-43.5 22l50 126q50 0 89.5 -27.5t62.5 -75t23 -107.5h-166zM180 316q0 63 21.5 113t59 78.5t84.5 28.5l-50 -126q-32 0 -50.5 -25t-18.5 -69h-46z" />
    <glyph glyph-name="ydieresis" unicode="&#xff;" horiz-adv-x="543" 
d="M77 -180l38 128q42 -11 65.5 -4.5t31.5 32.5h138q-33 -109 -99.5 -147t-173.5 -9zM213 -24l133 544h167l-163 -544h-137zM213 -90l-183 610h167l92 -376zM171 564q-29 0 -47.5 19t-18.5 48q0 28 18.5 48t47.5 20q28 0 48.5 -20t20.5 -48q0 -29 -20.5 -48t-48.5 -19z
M371 564q-29 0 -47.5 19t-18.5 48q0 28 18.5 48t47.5 20q28 0 48.5 -20t20.5 -48q0 -29 -20.5 -48t-48.5 -19z" />
    <glyph glyph-name="Amacron" unicode="&#x100;" horiz-adv-x="580" 
d="M128 791v94h320v-94h-320zM183 112v126h256v-126h-256zM369 720l-179 -720h-160l179 720h160zM371 720l179 -720h-160l-179 720h160z" />
    <glyph glyph-name="amacron" unicode="&#x101;" horiz-adv-x="541" 
d="M109 591v94h320v-94h-320zM330 0v327h166v-327h-166zM215 -15l30 120q24 0 43 12.5t30.5 36t11.5 55.5l66 10q0 -67 -25 -120t-66 -83.5t-90 -30.5zM215 -15q-51 0 -89.5 21t-59.5 57.5t-21 82.5l146 10q0 -22 15.5 -36.5t38.5 -14.5zM45 146q0 47 26.5 83.5t71.5 58
t102 21.5l20 -100q-35 0 -54.5 -14t-19.5 -39zM265 209l-20 100h115v-100h-95zM330 209v108h66v-98zM496 316h-166q0 44 -17 69t-47 25v126q66 0 118 -28.5t82 -78.5t30 -113zM203 331l-145 26q10 57 37.5 97t71.5 61t100 21v-126q-25 0 -42 -20.5t-22 -58.5z" />
    <glyph glyph-name="Emacron" unicode="&#x112;" horiz-adv-x="480" 
d="M78 791v94h320v-94h-320zM186 0v126h254v-126h-254zM186 297v126h194v-126h-194zM60 720h166v-720h-166v720zM196 720h234v-126h-234v126z" />
    <glyph glyph-name="emacron" unicode="&#x113;" horiz-adv-x="524" 
d="M93 591v94h320v-94h-320zM131 219v90h358v-90h-358zM260 -16v126h10v-126h-10zM35 223v74h166v-74h-166zM323 309v8h166v-8h-166zM489 316h-166q0 44 -17 69t-47 25v126q66 0 118 -28.5t82 -78.5t30 -113zM334 189l145 -26q-9 -56 -37 -96.5t-71.5 -61.5t-100.5 -21v126
q26 0 42.5 21t21.5 58zM35 296q0 69 29.5 123t80.5 85.5t115 31.5v-126q-28 0 -43.5 -30t-15.5 -84h-166zM35 224h166q0 -54 15.5 -84t43.5 -30v-126q-64 0 -115 31.5t-80.5 86t-29.5 122.5z" />
    <glyph glyph-name="Imacron" unicode="&#x12a;" horiz-adv-x="306" 
d="M-9 791v94h320v-94h-320zM70 0v720h166v-720h-166z" />
    <glyph glyph-name="imacron" unicode="&#x12b;" horiz-adv-x="306" 
d="M-9 591v94h320v-94h-320zM70 0v520h166v-520h-166z" />
    <glyph glyph-name="dotlessi" unicode="&#x131;" horiz-adv-x="306" 
d="M70 0v520h166v-520h-166z" />
    <glyph glyph-name="Omacron" unicode="&#x14c;" horiz-adv-x="578" 
d="M127 791v94h320v-94h-320zM357 194v333h166v-333h-166zM55 194v333h166v-333h-166zM523 525h-166q0 40 -18.5 62t-50.5 22v126q67 0 120 -27.5t84 -75t31 -107.5zM55 525q0 60 31 107.5t84 75t120 27.5v-126q-32 0 -50.5 -22t-18.5 -62h-166zM523 195q0 -60 -31 -107.5
t-84 -75t-120 -27.5v126q32 0 50.5 22t18.5 62h166zM55 195h166q0 -40 18.5 -62t50.5 -22v-126q-67 0 -120 27.5t-84 75t-31 107.5z" />
    <glyph glyph-name="omacron" unicode="&#x14d;" horiz-adv-x="530" 
d="M103 591v94h320v-94h-320zM329 224v72h166v-72h-166zM35 224v72h166v-72h-166zM259 409v126h12v-126h-12zM259 -15v126h12v-126h-12zM35 295q0 69 29.5 123t80.5 85.5t115 31.5v-126q-28 0 -43.5 -30t-15.5 -84h-166zM495 295h-166q0 54 -15.5 84t-43.5 30v126
q65 0 115.5 -31.5t80 -85.5t29.5 -123zM35 225h166q0 -54 15.5 -84t43.5 -30v-126q-64 0 -115 31.5t-80.5 86t-29.5 122.5zM495 225q0 -68 -29.5 -122.5t-80 -86t-115.5 -31.5v126q28 0 43.5 30t15.5 84h166z" />
    <glyph glyph-name="OE" unicode="&#x152;" horiz-adv-x="839" 
d="M357 194v333h166v-333h-166zM55 194v333h166v-333h-166zM523 525h-166q0 40 -18.5 62t-50.5 22v126q67 0 120 -27.5t84 -75t31 -107.5zM55 525q0 60 31 107.5t84 75t120 27.5v-126q-32 0 -50.5 -22t-18.5 -62h-166zM523 195q0 -60 -31 -107.5t-84 -75t-120 -27.5v126
q32 0 50.5 22t18.5 62h166zM55 195h166q0 -40 18.5 -62t50.5 -22v-126q-67 0 -120 27.5t-84 75t-31 107.5zM545 0v126h254v-126h-254zM545 297v126h194v-126h-194zM419 720h166v-720h-166v720zM555 720h234v-126h-234v126z" />
    <glyph glyph-name="oe" unicode="&#x153;" horiz-adv-x="840" 
d="M329 224v72h166v-72h-166zM35 224v72h166v-72h-166zM259 409v126h12v-126h-12zM259 -15v126h12v-126h-12zM35 295q0 69 29.5 123t80.5 85.5t115 31.5v-126q-28 0 -43.5 -30t-15.5 -84h-166zM495 295h-166q0 54 -15.5 84t-43.5 30v126q65 0 115.5 -31.5t80 -85.5
t29.5 -123zM35 225h166q0 -54 15.5 -84t43.5 -30v-126q-64 0 -115 31.5t-80.5 86t-29.5 122.5zM495 225q0 -68 -29.5 -122.5t-80 -86t-115.5 -31.5v126q28 0 43.5 30t15.5 84h166zM447 219v90h358v-90h-358zM576 -16v126h10v-126h-10zM351 223v74h166v-74h-166zM639 309v8
h166v-8h-166zM805 316h-166q0 44 -17 69t-47 25v126q66 0 118 -28.5t82 -78.5t30 -113zM650 189l145 -26q-9 -56 -37 -96.5t-71.5 -61.5t-100.5 -21v126q26 0 42.5 21t21.5 58zM351 296q0 69 29.5 123t80.5 85.5t115 31.5v-126q-28 0 -43.5 -30t-15.5 -84h-166zM351 224h166
q0 -54 15.5 -84t43.5 -30v-126q-64 0 -115 31.5t-80.5 86t-29.5 122.5z" />
    <glyph glyph-name="Umacron" unicode="&#x16a;" horiz-adv-x="588" 
d="M132 791v94h320v-94h-320zM362 193v527h166v-527h-166zM60 193v527h166v-527h-166zM528 194q0 -60 -31 -107.5t-84 -75t-120 -27.5v126q32 0 50.5 22t18.5 62h166zM60 194h166q0 -40 18.5 -62t50.5 -22v-126q-67 0 -120 27.5t-84 75t-31 107.5z" />
    <glyph glyph-name="umacron" unicode="&#x16b;" horiz-adv-x="565" 
d="M505 520v-520h-166v520h166zM211 520v-327h-166v327h166zM211 194q0 -40 15.5 -62t43.5 -22l-50 -126q-50 0 -89.5 27.5t-62.5 75t-23 107.5h166zM385 204q0 -63 -21.5 -112.5t-59 -78.5t-84.5 -29l50 126q32 0 50.5 25t18.5 69h46zM120 591v94h320v-94h-320z" />
    <glyph glyph-name="Wcircumflex" unicode="&#x174;" horiz-adv-x="890" 
d="M365 925h106l-65 -148h-138zM526 925l97 -148h-138l-65 148h106zM516 0l-136 720h130l146 -720h-140zM180 0l-140 720h160l140 -720h-160zM234 0l146 720h130l-136 -720h-140zM550 0l140 720h160l-140 -720h-160z" />
    <glyph glyph-name="wcircumflex" unicode="&#x175;" horiz-adv-x="798" 
d="M318 725h106l-65 -148h-138zM479 725l97 -148h-138l-65 148h106zM495 0l106 520h167l-136 -520h-137zM166 0l-136 520h167l106 -520h-137zM221 0l116 520h122l-126 -520h-112zM465 0l-126 520h122l116 -520h-112z" />
    <glyph glyph-name="Ycircumflex" unicode="&#x176;" horiz-adv-x="566" 
d="M202 945h106l-65 -148h-138zM363 945l97 -148h-138l-65 148h106zM211 258l180 462h145l-180 -462h-145zM210 0v258h146v-258h-146zM210 258l-180 462h176l150 -462h-146z" />
    <glyph glyph-name="ycircumflex" unicode="&#x177;" horiz-adv-x="543" 
d="M191 725h106l-65 -148h-138zM352 725l97 -148h-138l-65 148h106zM77 -180l38 128q42 -11 65.5 -4.5t31.5 32.5h138q-33 -109 -99.5 -147t-173.5 -9zM213 -24l133 544h167l-163 -544h-137zM213 -90l-183 610h167l92 -376z" />
    <glyph glyph-name="Ydieresis" unicode="&#x178;" horiz-adv-x="566" 
d="M211 258l180 462h145l-180 -462h-145zM210 0v258h146v-258h-146zM210 258l-180 462h176l150 -462h-146zM182 784q-29 0 -47.5 19t-18.5 48q0 28 18.5 48t47.5 20q28 0 48.5 -20t20.5 -48q0 -29 -20.5 -48t-48.5 -19zM382 784q-29 0 -47.5 19t-18.5 48q0 28 18.5 48
t47.5 20q28 0 48.5 -20t20.5 -48q0 -29 -20.5 -48t-48.5 -19z" />
    <glyph glyph-name="uni0237" unicode="&#x237;" horiz-adv-x="327" 
d="M257 1q0 -99 -54 -154.5t-151 -55.5l-20 126q19 0 32 10t20 29t7 45h166zM-12 -66q9 -8 20 -12.5t24 -4.5l20 -126q-32 0 -61.5 9t-60.5 31zM91 0v520h166v-520h-166z" />
    <glyph glyph-name="circumflex" unicode="&#x2c6;" horiz-adv-x="495" 
d="M167 725h106l-65 -148h-138zM328 725l97 -148h-138l-65 148h106z" />
    <glyph glyph-name="ring" unicode="&#x2da;" horiz-adv-x="388" 
d="M230 634q0 17 -10 29t-26 12v68q53 0 88.5 -31t35.5 -78h-88zM194 525q-53 0 -88.5 31.5t-35.5 77.5h88q0 -17 10 -29t26 -12v-68zM194 525v68q16 0 26 12t10 29h88q0 -46 -35.5 -77.5t-88.5 -31.5zM70 634q0 47 35.5 78t88.5 31v-68q-16 0 -26 -12t-10 -29h-88z" />
    <glyph glyph-name="tilde" unicode="&#x2dc;" horiz-adv-x="518" 
d="M324 559q-30 0 -47.5 10.5t-29 23.5t-23 23.5t-30.5 10.5v85q30 0 47.5 -10.5t29 -23.5t23 -23.5t30.5 -10.5v-85zM70 585q0 60 33 93.5t91 33.5v-85q-12 0 -19 -11t-7 -31h-98zM324 559v85q12 0 19 11.5t7 30.5h98q0 -60 -32.5 -93.5t-91.5 -33.5z" />
    <glyph glyph-name="gravecomb" unicode="&#x300;" horiz-adv-x="0" 
d="M167 557l-97 148h138l65 -148h-106z" />
    <glyph glyph-name="acutecomb" unicode="&#x301;" horiz-adv-x="0" 
d="M176 557h-106l65 148h138z" />
    <glyph glyph-name="uni0302" unicode="&#x302;" horiz-adv-x="0" 
d="M167 725h106l-65 -148h-138zM328 725l97 -148h-138l-65 148h106z" />
    <glyph glyph-name="tildecomb" unicode="&#x303;" horiz-adv-x="0" 
d="M324 559q-30 0 -47.5 10.5t-29 23.5t-23 23.5t-30.5 10.5v85q30 0 47.5 -10.5t29 -23.5t23 -23.5t30.5 -10.5v-85zM70 585q0 60 33 93.5t91 33.5v-85q-12 0 -19 -11t-7 -31h-98zM324 559v85q12 0 19 11.5t7 30.5h98q0 -60 -32.5 -93.5t-91.5 -33.5z" />
    <glyph glyph-name="uni0307" unicode="&#x307;" horiz-adv-x="0" 
d="M159 520q-39 0 -64 25t-25 64q0 38 25 64.5t64 26.5q38 0 64.5 -26.5t26.5 -64.5q0 -39 -26.5 -64t-64.5 -25z" />
    <glyph glyph-name="uni0308" unicode="&#x308;" horiz-adv-x="0" 
d="M136 524q-29 0 -47.5 19t-18.5 48q0 28 18.5 48t47.5 20q28 0 48.5 -20t20.5 -48q0 -29 -20.5 -48t-48.5 -19zM336 524q-29 0 -47.5 19t-18.5 48q0 28 18.5 48t47.5 20q28 0 48.5 -20t20.5 -48q0 -29 -20.5 -48t-48.5 -19z" />
    <glyph glyph-name="uni030A" unicode="&#x30a;" horiz-adv-x="0" 
d="M230 634q0 17 -10 29t-26 12v68q53 0 88.5 -31t35.5 -78h-88zM194 525q-53 0 -88.5 31.5t-35.5 77.5h88q0 -17 10 -29t26 -12v-68zM194 525v68q16 0 26 12t10 29h88q0 -46 -35.5 -77.5t-88.5 -31.5zM70 634q0 47 35.5 78t88.5 31v-68q-16 0 -26 -12t-10 -29h-88z" />
    <glyph glyph-name="uni0327" unicode="&#x327;" horiz-adv-x="0" 
d="M189 -185q-41 0 -68.5 10t-50.5 22l29 73q32 -12 53 -13t29.5 10t2.5 32h148q9 -69 -33 -101.5t-110 -32.5zM184 -51q-6 23 -13 39t-16 32h151q9 -13 15.5 -29t10.5 -42h-148z" />
    <glyph glyph-name="uni0335" unicode="&#x335;" horiz-adv-x="0" 
d="M70 312v95h290v-95h-290z" />
    <glyph glyph-name="uni0338" unicode="&#x338;" horiz-adv-x="0" 
d="M70 -43l270 806h57l-270 -806h-57z" />
    <glyph glyph-name="uni0900" unicode="&#x900;" horiz-adv-x="0" 
d="M244 1066v-114q-37 0 -71.5 -20.5t-58.5 -58.5l-114 56q50 71 109 104t135 33zM244 1066q76 0 135 -33t109 -104l-114 -56q-24 38 -58 58.5t-72 20.5v114zM245 901q29 0 49.5 -19.5t20.5 -49.5q0 -29 -20.5 -50t-50.5 -21q-29 0 -50 21t-21 50q0 30 21 49.5t51 19.5z" />
    <glyph glyph-name="uni0901" unicode="&#x901;" horiz-adv-x="0" 
d="M244 866q-30 0 -50.5 19.5t-20.5 49.5q0 29 20.5 50t50.5 21q29 0 50 -21t21 -50q0 -30 -21 -49.5t-50 -19.5zM244 701v114q38 0 72 21t58 58l114 -56q-50 -70 -109 -103.5t-135 -33.5zM244 701q-76 0 -135 33.5t-109 103.5l114 56q24 -37 58.5 -58t71.5 -21v-114z" />
    <glyph glyph-name="uni0902" unicode="&#x902;" horiz-adv-x="0" 
d="M80 612q-35 0 -57.5 22.5t-22.5 57.5q0 33 22.5 57.5t57.5 24.5q34 0 58 -24.5t24 -57.5q0 -35 -24 -57.5t-58 -22.5z" />
    <glyph glyph-name="uni0903" unicode="&#x903;" horiz-adv-x="198" 
d="M0 547v113h106v-113h-106zM91 49q-35 0 -57.5 22.5t-22.5 57.5q0 33 22.5 57.5t57.5 24.5q34 0 58 -24.5t24 -57.5q0 -35 -24 -57.5t-58 -22.5zM91 317q-35 0 -57.5 22.5t-22.5 57.5q0 33 22.5 57.5t57.5 24.5q34 0 58 -24.5t24 -57.5q0 -35 -24 -57.5t-58 -22.5z" />
    <glyph glyph-name="uni0904" unicode="&#x904;" horiz-adv-x="741" 
d="M298 484q0 28 -16 46t-41 18v126q59 0 106 -25t74 -67.5t27 -97.5h-150zM178 469l-145 26q10 57 37.5 97t71.5 61t100 21v-126q-25 0 -42 -20.5t-22 -58.5zM382 214v120h226v-120h-226zM302 223q0 31 -20 51.5t-49 20.5v123q62 0 110.5 -25.5t76.5 -69.5t28 -100h-146z
M244 18q-103 0 -161 62t-58 171h150q0 -52 18.5 -81t50.5 -29v-123zM243 18v123q28 0 43.5 21.5t15.5 60.5h146q0 -64 -24.5 -110t-70 -70.5t-110.5 -24.5zM186 295v126h41v-126h-41zM226 295v126q31 0 51.5 18t20.5 46h150q0 -54 -29 -97t-79 -68t-114 -25zM512 0v660h163
v-660h-163zM553 547v113h213v-113h-213zM512 660q8 39 -4.5 55t-58.5 25l40 100q84 -17 127 -37.5t55.5 -54t3.5 -88.5h-163zM449 740q-83 17 -126.5 37.5t-56 54t-3.5 88.5h163q-7 -39 5 -55t58 -25z" />
    <glyph glyph-name="uni0905" unicode="&#x905;" horiz-adv-x="741" 
d="M298 484q0 28 -16 46t-41 18v126q59 0 106 -25t74 -67.5t27 -97.5h-150zM178 469l-145 26q10 57 37.5 97t71.5 61t100 21v-126q-25 0 -42 -20.5t-22 -58.5zM382 214v120h226v-120h-226zM302 223q0 31 -20 51.5t-49 20.5v123q62 0 110.5 -25.5t76.5 -69.5t28 -100h-146z
M244 18q-103 0 -161 62t-58 171h150q0 -52 18.5 -81t50.5 -29v-123zM243 18v123q28 0 43.5 21.5t15.5 60.5h146q0 -64 -24.5 -110t-70 -70.5t-110.5 -24.5zM186 295v126h41v-126h-41zM226 295v126q31 0 51.5 18t20.5 46h150q0 -54 -29 -97t-79 -68t-114 -25zM512 0v660h163
v-660h-163zM553 547v113h213v-113h-213z" />
    <glyph glyph-name="uni0906" unicode="&#x906;" horiz-adv-x="1035" 
d="M298 484q0 28 -16 46t-41 18v126q59 0 106 -25t74 -67.5t27 -97.5h-150zM178 469l-145 26q10 57 37.5 97t71.5 61t100 21v-126q-25 0 -42 -20.5t-22 -58.5zM382 214v120h226v-120h-226zM302 223q0 31 -20 51.5t-49 20.5v123q62 0 110.5 -25.5t76.5 -69.5t28 -100h-146z
M244 18q-103 0 -161 62t-58 171h150q0 -52 18.5 -81t50.5 -29v-123zM243 18v123q28 0 43.5 21.5t15.5 60.5h146q0 -64 -24.5 -110t-70 -70.5t-110.5 -24.5zM186 295v126h41v-126h-41zM226 295v126q31 0 51.5 18t20.5 46h150q0 -54 -29 -97t-79 -68t-114 -25zM512 0v660h163
v-660h-163zM553 547v113h213v-113h-213zM806 0v645h163v-645h-163zM716 547v113h344v-113h-344z" />
    <glyph glyph-name="uni0907" unicode="&#x907;" horiz-adv-x="511" 
d="M-25 547v113h561v-113h-561zM251 -15v120q32 0 50 17t18 38h163q0 -79 -61 -127.5t-170 -47.5zM246 206q-94 0 -147.5 32t-53.5 99l163 5q0 -17 15.5 -21.5t42.5 -4.5zM319 160q0 20 -20.5 33t-52.5 13l20 110q62 0 110.5 -20.5t77 -55.5t28.5 -80h-163zM45 337
q0 71 61 110.5t170 39.5v-110q-32 0 -50 -9t-18 -26zM276 377v110h135v-110h-135zM275 430v200h136v-200h-136zM42 99h126q0 -17 7.5 -26.5t28.5 -9.5v-73q-83 0 -122.5 26.5t-39.5 82.5zM96 204l99 -45q-27 -37 -27 -60h-126q0 56 54 105zM96 204l108 -45v-114h-108v159z
M252 -15q-11 0 -26 1.5t-32 4.5v124q17 -5 31 -7.5t27 -2.5v-120zM227 -181l-137 237l106 62l137 -237z" />
    <glyph glyph-name="uni0908" unicode="&#x908;" horiz-adv-x="511" 
d="M290 749l-140 31q0 51 28 91t77 63t110 23v-133q-40 0 -57.5 -21.5t-17.5 -53.5zM375 562q-64 0 -115 28.5t-80.5 78t-29.5 111.5l140 -31q0 -38 20 -63.5t65 -25.5v-98zM404 818q-7 3 -18.5 4.5t-22.5 1.5v133q24 0 57 -8t58 -19zM-25 547v113h561v-113h-561zM251 -15
v120q32 0 50 17t18 38h163q0 -79 -61 -127.5t-170 -47.5zM246 206q-94 0 -147.5 32t-53.5 99l163 5q0 -17 15.5 -21.5t42.5 -4.5zM319 160q0 20 -20.5 33t-52.5 13l20 110q62 0 110.5 -20.5t77 -55.5t28.5 -80h-163zM45 337q0 71 61 110.5t170 39.5v-110q-32 0 -50 -9
t-18 -26zM276 377v110h135v-110h-135zM275 430v200h136v-200h-136zM42 99h126q0 -17 7.5 -26.5t28.5 -9.5v-73q-83 0 -122.5 26.5t-39.5 82.5zM96 204l99 -45q-27 -37 -27 -60h-126q0 56 54 105zM96 204l108 -45v-114h-108v159zM252 -15q-11 0 -26 1.5t-32 4.5v124
q17 -5 31 -7.5t27 -2.5v-120zM227 -181l-137 237l106 62l137 -237z" />
    <glyph glyph-name="uni0909" unicode="&#x909;" horiz-adv-x="500" 
d="M303 466q0 38 -24 59.5t-67 21.5v78q76 0 129.5 -19t82.5 -54.5t29 -85.5h-150zM-25 547v113h550v-113h-550zM307 205q0 31 -20 51.5t-49 20.5v123q62 0 110.5 -25.5t76.5 -69.5t28 -100h-146zM249 0q-103 0 -161 62t-58 171h150q0 -52 18.5 -81t50.5 -29v-123zM248 0
v123q28 0 43.5 21.5t15.5 60.5h146q0 -64 -24.5 -110t-70 -70.5t-110.5 -24.5zM191 277v126h41v-126h-41zM231 277v126q31 0 51.5 18t20.5 46h150q0 -54 -29 -97t-79 -68t-114 -25z" />
    <glyph glyph-name="uni090A" unicode="&#x90a;" horiz-adv-x="720" 
d="M294 547v113h451v-113h-451zM496 -10v120q44 0 73 25.5t29 63.5h123q0 -59 -29.5 -106.5t-80 -75t-115.5 -27.5zM439 258l-50 99q33 23 63 32.5t64 9.5v-120q-19 0 -35 -5t-42 -16zM598 199q0 35 -23.5 57.5t-58.5 22.5v120q59 0 105 -26.5t73 -71.5t27 -102h-123z
M303 466q0 38 -24 59.5t-67 21.5v78q76 0 129.5 -19t82.5 -54.5t29 -85.5h-150zM-25 547v113h550v-113h-550zM307 205q0 31 -20 51.5t-49 20.5v123q62 0 110.5 -25.5t76.5 -69.5t28 -100h-146zM249 0q-103 0 -161 62t-58 171h150q0 -52 18.5 -81t50.5 -29v-123zM248 0v123
q28 0 43.5 21.5t15.5 60.5h146q0 -64 -24.5 -110t-70 -70.5t-110.5 -24.5zM191 277v126h41v-126h-41zM231 277v126q31 0 51.5 18t20.5 46h150q0 -54 -29 -97t-79 -68t-114 -25z" />
    <glyph glyph-name="uni090B" unicode="&#x90b;" horiz-adv-x="1058" 
d="M471 153v151l210 141v-149zM833 -38q-60 0 -108 23t-75.5 62.5t-27.5 88.5h150q0 -30 16.5 -47t44.5 -17v-110zM833 -38v110q29 0 45 25.5t16 71.5l140 -23q0 -58 -24 -99t-69 -63t-108 -22zM622 136q0 46 29 81.5t79 56.5t113 21v-94q-34 -1 -52.5 -18t-18.5 -47h-150z
M833 201q-64 0 -110.5 21t-71 61.5t-24.5 96.5h130q0 -40 18 -62.5t58 -22.5v-94zM627 380q0 42 22.5 74.5t61.5 51.5t88 19v-97q-18 0 -30 -14t-12 -34h-130zM819 408q0 8 -6 14t-14 6v97q43 0 77 -14t53.5 -38t19.5 -55zM582 547v113h501v-113h-501zM823 314l-32 65
q14 2 21 10t7 19l130 10q1 -25 -14.5 -47t-43.5 -37t-68 -20zM164 -17l-84 84l284 284l-2 -171zM204 314q-37 33 -69.5 25t-67.5 -31l-54 111q40 31 85 46.5t93 6.5t97 -52zM358 176l-154 138l84 106l165 -150zM-25 547v113h341v-113h-341zM367 0v645h163v-645h-163z
M277 547v113h344v-113h-344z" />
    <glyph glyph-name="uni090C" unicode="&#x90c;" horiz-adv-x="785" 
d="M570 123v462h163v-462h-163zM383 547v113h427v-113h-427zM360 279q0 95 52 153t144 58v-120q-40 0 -66.5 -20.5t-26.5 -70.5h-103zM555 370v120h48v-120h-48zM376 -16q-97 0 -169.5 26t-112 76.5t-39.5 121.5h166q0 -49 41 -76.5t114 -27.5v-120zM55 207v72h166v-72h-166
zM55 279q0 100 55 155.5t144 55.5l10 -120q-20 0 -31.5 -24t-11.5 -67h-166zM310 193v86h153v-86h-153zM310 279q0 43 -12 67t-34 24l-10 120q75 1 117 -54.5t42 -156.5h-103zM-25 547v113h636v-113h-636zM571 175v315h88v-315h-88zM523 73q0 72 54.5 107t151.5 35l5 -93
q-26 0 -44 -14t-18 -35h-149zM745 -72q-105 0 -163.5 40.5t-58.5 104.5h149q0 -22 21 -37t52 -15v-93z" />
    <glyph glyph-name="uni090D" unicode="&#x90d;" horiz-adv-x="544" 
d="M419 -35q-125 0 -200.5 36t-109.5 110.5t-34 189.5h160q0 -73 17 -120t57 -70t110 -23v-123zM75 301v303h160v-303h-160zM340 400v205h160v-205h-160zM-25 547v113h594v-113h-594zM500 400q0 -55 -25.5 -96.5t-70.5 -65.5t-106 -28l-20 126q17 4 31 13t22.5 22t8.5 29
h160zM292 711v114q38 0 72 21t58 58l114 -56q-50 -70 -109 -103.5t-135 -33.5zM292 711q-76 0 -135 33.5t-109 103.5l114 56q24 -37 58.5 -58t71.5 -21v-114z" />
    <glyph glyph-name="uni090E" unicode="&#x90e;" horiz-adv-x="544" 
d="M419 -35q-125 0 -200.5 36t-109.5 110.5t-34 189.5h160q0 -73 17 -120t57 -70t110 -23v-123zM75 301v303h160v-303h-160zM340 400v205h160v-205h-160zM-25 547v113h594v-113h-594zM500 400q0 -55 -25.5 -96.5t-70.5 -65.5t-106 -28l-20 126q17 4 31 13t22.5 22t8.5 29
h160zM338 660q8 39 -4.5 55t-58.5 25l40 100q84 -17 127 -37.5t55.5 -54t3.5 -88.5h-163zM275 740q-83 17 -126.5 37.5t-56 54t-3.5 88.5h163q-7 -39 5 -55t58 -25z" />
    <glyph glyph-name="uni090F" unicode="&#x90f;" horiz-adv-x="544" 
d="M419 -35q-125 0 -200.5 36t-109.5 110.5t-34 189.5h160q0 -73 17 -120t57 -70t110 -23v-123zM75 301v303h160v-303h-160zM340 400v205h160v-205h-160zM-25 547v113h594v-113h-594zM500 400q0 -55 -25.5 -96.5t-70.5 -65.5t-106 -28l-20 126q17 4 31 13t22.5 22t8.5 29
h160z" />
    <glyph glyph-name="uni0910" unicode="&#x910;" horiz-adv-x="544" 
d="M419 -35q-125 0 -200.5 36t-109.5 110.5t-34 189.5h160q0 -73 17 -120t57 -70t110 -23v-123zM75 301v303h160v-303h-160zM340 400v205h160v-205h-160zM-25 547v113h594v-113h-594zM500 400q0 -55 -25.5 -96.5t-70.5 -65.5t-106 -28l-20 126q17 4 31 13t22.5 22t8.5 29
h160zM318 660l-81 126l122 60l119 -186h-160zM237 786q-16 26 -39 31t-66 -21l-59 97q102 58 169 44t117 -91z" />
    <glyph glyph-name="uni0911" unicode="&#x911;" horiz-adv-x="1035" 
d="M298 484q0 28 -16 46t-41 18v126q59 0 106 -25t74 -67.5t27 -97.5h-150zM178 469l-145 26q10 57 37.5 97t71.5 61t100 21v-126q-25 0 -42 -20.5t-22 -58.5zM382 214v120h226v-120h-226zM302 223q0 31 -20 51.5t-49 20.5v123q62 0 110.5 -25.5t76.5 -69.5t28 -100h-146z
M244 18q-103 0 -161 62t-58 171h150q0 -52 18.5 -81t50.5 -29v-123zM243 18v123q28 0 43.5 21.5t15.5 60.5h146q0 -64 -24.5 -110t-70 -70.5t-110.5 -24.5zM186 295v126h41v-126h-41zM226 295v126q31 0 51.5 18t20.5 46h150q0 -54 -29 -97t-79 -68t-114 -25zM512 0v660h163
v-660h-163zM553 547v113h213v-113h-213zM806 0v645h163v-645h-163zM716 547v113h344v-113h-344zM773 711v114q38 0 72 21t58 58l114 -56q-50 -70 -109 -103.5t-135 -33.5zM773 711q-76 0 -135 33.5t-109 103.5l114 56q24 -37 58.5 -58t71.5 -21v-114z" />
    <glyph glyph-name="uni0912" unicode="&#x912;" horiz-adv-x="1035" 
d="M298 484q0 28 -16 46t-41 18v126q59 0 106 -25t74 -67.5t27 -97.5h-150zM178 469l-145 26q10 57 37.5 97t71.5 61t100 21v-126q-25 0 -42 -20.5t-22 -58.5zM382 214v120h226v-120h-226zM302 223q0 31 -20 51.5t-49 20.5v123q62 0 110.5 -25.5t76.5 -69.5t28 -100h-146z
M244 18q-103 0 -161 62t-58 171h150q0 -52 18.5 -81t50.5 -29v-123zM243 18v123q28 0 43.5 21.5t15.5 60.5h146q0 -64 -24.5 -110t-70 -70.5t-110.5 -24.5zM186 295v126h41v-126h-41zM226 295v126q31 0 51.5 18t20.5 46h150q0 -54 -29 -97t-79 -68t-114 -25zM512 0v660h163
v-660h-163zM553 547v113h213v-113h-213zM806 0v645h163v-645h-163zM716 547v113h344v-113h-344zM806 660q8 39 -4.5 55t-58.5 25l40 100q84 -17 127 -37.5t55.5 -54t3.5 -88.5h-163zM743 740q-83 17 -126.5 37.5t-56 54t-3.5 88.5h163q-7 -39 5 -55t58 -25z" />
    <glyph glyph-name="uni0913" unicode="&#x913;" horiz-adv-x="1035" 
d="M298 484q0 28 -16 46t-41 18v126q59 0 106 -25t74 -67.5t27 -97.5h-150zM178 469l-145 26q10 57 37.5 97t71.5 61t100 21v-126q-25 0 -42 -20.5t-22 -58.5zM382 214v120h226v-120h-226zM302 223q0 31 -20 51.5t-49 20.5v123q62 0 110.5 -25.5t76.5 -69.5t28 -100h-146z
M244 18q-103 0 -161 62t-58 171h150q0 -52 18.5 -81t50.5 -29v-123zM243 18v123q28 0 43.5 21.5t15.5 60.5h146q0 -64 -24.5 -110t-70 -70.5t-110.5 -24.5zM186 295v126h41v-126h-41zM226 295v126q31 0 51.5 18t20.5 46h150q0 -54 -29 -97t-79 -68t-114 -25zM512 0v660h163
v-660h-163zM553 547v113h213v-113h-213zM806 0v645h163v-645h-163zM716 547v113h344v-113h-344zM786 660l-81 126l122 60l119 -186h-160zM705 786q-16 26 -39 31t-66 -21l-59 97q102 58 169 44t117 -91z" />
    <glyph glyph-name="uni0914" unicode="&#x914;" horiz-adv-x="1035" 
d="M298 484q0 28 -16 46t-41 18v126q59 0 106 -25t74 -67.5t27 -97.5h-150zM178 469l-145 26q10 57 37.5 97t71.5 61t100 21v-126q-25 0 -42 -20.5t-22 -58.5zM382 214v120h226v-120h-226zM302 223q0 31 -20 51.5t-49 20.5v123q62 0 110.5 -25.5t76.5 -69.5t28 -100h-146z
M244 18q-103 0 -161 62t-58 171h150q0 -52 18.5 -81t50.5 -29v-123zM243 18v123q28 0 43.5 21.5t15.5 60.5h146q0 -64 -24.5 -110t-70 -70.5t-110.5 -24.5zM186 295v126h41v-126h-41zM226 295v126q31 0 51.5 18t20.5 46h150q0 -54 -29 -97t-79 -68t-114 -25zM512 0v660h163
v-660h-163zM553 547v113h213v-113h-213zM806 0v645h163v-645h-163zM716 547v113h344v-113h-344zM866 630l-144 76l57 99l144 -76zM603 722l-15 94q30 16 60.5 19.5t63 -4t67.5 -26.5l-57 -99q-28 16 -57.5 20t-61.5 -4zM816 660l-21 174h144l14 -174h-137zM795 834
q-4 30 -23 42.5t-56 7.5l-15 94q80 19 130.5 5.5t76.5 -52.5t31 -97h-144z" />
    <glyph glyph-name="uni0915" unicode="&#x915;" horiz-adv-x="792" 
d="M446 547v113h371v-113h-371zM-25 547v113h458v-113h-458zM36 271v4h156v-4h-156zM323 251v45h88v-45h-88zM192 274h-156q0 62 25 110.5t68 76.5t97 28l34 -120q-29 0 -48.5 -27t-19.5 -68zM411 294h-88q0 32 -18 53.5t-45 21.5l-34 120q53 0 95 -25.5t66 -69.5t24 -100z
M192 272q0 -40 19.5 -67.5t48.5 -27.5l-34 -120q-54 0 -97 28t-68 77t-25 110h156zM411 252q0 -55 -24 -99.5t-66 -70t-95 -25.5l34 120q27 0 45 21.5t18 53.5h88zM617 264q0 41 -19.5 68t-48.5 27l34 120q55 0 97.5 -28t67.5 -76.5t25 -110.5h-156zM398 284q0 56 24 100
t66 69.5t95 25.5l-34 -120q-27 0 -45 -21.5t-18 -53.5h-88zM617 248v17h156v-17h-156zM570 30l-20 121q39 18 53 43.5t14 53.5h156q0 -56 -24 -100.5t-69.5 -74.5t-109.5 -43zM323 0v645h163v-645h-163zM233 547v113h344v-113h-344z" />
    <glyph glyph-name="uni0916" unicode="&#x916;" horiz-adv-x="880" 
d="M339 -15q-87 0 -151 42.5t-92 118.5l143 42q12 -34 27.5 -53.5t34 -28t38.5 -8.5v-113zM96 146l-63 173h159l47 -131zM338 -15v113q29 0 51 15t41 46l102 -74q-27 -31 -59 -53.5t-66.5 -34.5t-68.5 -12zM564 79q-51 0 -92 27.5t-64.5 75t-23.5 106.5h156q0 -25 7.5 -45.5
t21 -32t29.5 -11.5zM564 79l34 120q15 0 27 8.5t19 23.5t7 33h88q0 -53 -23 -95t-62.5 -66t-89.5 -24zM384 287q0 60 23.5 107.5t64.5 75t92 27.5l34 -120q-16 0 -29.5 -12t-21 -32t-7.5 -46h-156zM-25 547v113h766v-113h-766zM651 312q0 19 -7 33.5t-19 23t-27 8.5l-34 120
q50 0 89.5 -24t62.5 -66t23 -95h-88zM63 238l-40 106q74 0 113.5 12t52.5 38t7 68h163q8 -53 -8 -94.5t-49.5 -70.5t-78.5 -44t-96 -15h-64zM196 462l-20 138h163l20 -138h-163zM651 0v645h163v-645h-163zM561 547v113h344v-113h-344z" />
    <glyph glyph-name="uni0917" unicode="&#x917;" horiz-adv-x="647" 
d="M-25 547v113h393v-113h-393zM153 306v324h160v-324h-160zM168 127v140q23 0 35.5 8.5t12.5 31.5h97q0 -92 -35.5 -136t-109.5 -44zM28 187l60 110q49 -30 80 -30v-140q-76 0 -140 60zM28 187l60 120h152v-120h-212zM418 0v645h163v-645h-163zM328 547v113h344v-113h-344z
" />
    <glyph glyph-name="uni0918" unicode="&#x918;" horiz-adv-x="684" 
d="M331 35l20 120q33 0 56 12.5t35.5 34.5t12.5 49h79q0 -61 -25.5 -110t-71 -77.5t-106.5 -28.5zM331 35q-70 0 -123.5 25t-83 68.5t-29.5 97.5h153q0 -31 29.5 -51t73.5 -20zM95 226q0 89 59 138t172 49v-120q-37 0 -57.5 -17.5t-20.5 -49.5h-153zM326 293
q-127 0 -194 48.5t-67 133.5l153 5q0 -28 31 -47.5t77 -19.5v-120zM326 293v120h16v-120h-16zM65 475q0 62 53.5 97t157.5 35v-70q-25 0 -41.5 -16t-16.5 -41zM-25 547v113h601v-113h-601zM343 512q-15 12 -33 18.5t-35 6.5v70q29 0 56 -13t44 -27zM455 0v645h163v-645h-163
zM365 547v113h344v-113h-344z" />
    <glyph glyph-name="uni0919" unicode="&#x919;" horiz-adv-x="601" 
d="M485 547v113h131v-113h-131zM262 -15q-84 0 -138.5 39t-68.5 109l143 35q10 -30 27 -46.5t37 -16.5v-120zM-25 547v113h561v-113h-561zM251 -15v120q32 0 50 17t18 38h163q0 -79 -61 -127.5t-170 -47.5zM246 206q-94 0 -147.5 32t-53.5 99l163 5q0 -17 15.5 -21.5
t42.5 -4.5zM319 160q0 20 -20.5 33t-52.5 13l20 110q62 0 110.5 -20.5t77 -55.5t28.5 -80h-163zM45 337q0 71 61 110.5t170 39.5v-110q-32 0 -50 -9t-18 -26zM276 377v110h135v-110h-135zM275 430v200h136v-200h-136zM535 248q-39 0 -64 25t-25 64q0 38 25 64.5t64 26.5
q38 0 64.5 -26.5t26.5 -64.5q0 -39 -26.5 -64t-64.5 -25z" />
    <glyph glyph-name="uni091A" unicode="&#x91a;" horiz-adv-x="653" 
d="M319 68q-57 0 -103 23t-72.5 62.5t-26.5 89.5l166 20q0 -32 18.5 -50.5t51.5 -18.5zM117 243v12l166 20v-12zM319 68l34 126q34 0 52.5 15.5t18.5 43.5h48q0 -53 -20 -95t-54.5 -66t-78.5 -24zM117 255q0 48 27 82.5t77.5 52.5t120.5 18l10 -49q-32 0 -50.5 -22
t-18.5 -62zM55 359v117h300v-117h-300zM-25 547v113h474v-113h-474zM424 0v645h163v-645h-163zM334 547v113h344v-113h-344z" />
    <glyph glyph-name="uni091B" unicode="&#x91b;" horiz-adv-x="708" 
d="M427 393v192h146v-192q-27 8 -50 10.5t-45.5 0t-50.5 -10.5zM370 -44l-10 119q45 0 82.5 27t60 73.5t22.5 105.5h150q0 -92 -40 -165.5t-109 -116t-156 -43.5zM340 -44q-78 0 -139.5 28t-97.5 77t-36 110h163q0 -27 17 -49t44.5 -34.5t58.5 -12.5zM339 -44l10 119h12
l10 -119h-32zM67 171q0 47 15 83.5t44.5 61.5t73.5 38.5t101 13.5v-120q-25 0 -41 -9t-23 -26.5t-7 -41.5h-163zM301 248q-80 0 -135 24t-83 68.5t-28 104.5h163q0 -34 20 -55.5t63 -21.5v-120zM55 445q0 59 35.5 102t99.5 66.5t151 23.5v-90q-35 0 -63 -13t-44 -35.5
t-16 -53.5h-163zM-25 547v113h758v-113h-758zM525 279q0 25 -7.5 41.5t-21.5 16.5l-2 132q53 0 93.5 -25t64 -67.5t23.5 -97.5h-150zM358 192q-15 32 -20.5 55t-5.5 45l140 10q0 -9 2 -27.5t12 -50.5zM332 292q0 48 21.5 88t58.5 64.5t82 24.5l2 -132q-10 0 -17 -10t-7 -25z
" />
    <glyph glyph-name="uni091C" unicode="&#x91c;" horiz-adv-x="714" 
d="M234 30v118q24 0 39.5 31.5t10.5 71.5l141 10q9 -64 -15.5 -116.5t-70.5 -83.5t-105 -31zM235 30q-55 0 -99.5 25.5t-70 70t-25.5 99.5h146q0 -31 14 -54t35 -23v-118zM40 224v56l146 20v-76h-146zM284 251q-3 27 -14 50.5t-26.5 38t-33.5 14.5v59q73 0 118 -19.5
t68 -53.5t29 -79zM210 354v110h301v-110h-301zM-25 547v113h536v-113h-536zM485 0v645h163v-645h-163zM395 547v113h344v-113h-344z" />
    <glyph glyph-name="uni091D" unicode="&#x91d;" horiz-adv-x="760" 
d="M554 212l-290 1l-33 103l323 -1v-103zM-25 547v113h561v-113h-561zM251 -15v120q32 0 50 17t18 38h163q0 -79 -61 -127.5t-170 -47.5zM246 206q-94 0 -147.5 32t-53.5 99l163 5q0 -17 15.5 -21.5t42.5 -4.5zM319 160q0 20 -20.5 33t-52.5 13l20 110q62 0 110.5 -20.5
t77 -55.5t28.5 -80h-163zM45 337q0 71 61 110.5t170 39.5v-110q-32 0 -50 -9t-18 -26zM276 377v110h135v-110h-135zM275 430v200h136v-200h-136zM42 99h126q0 -17 7.5 -26.5t28.5 -9.5v-73q-83 0 -122.5 26.5t-39.5 82.5zM96 204l99 -45q-27 -37 -27 -60h-126q0 56 54 105z
M96 204l108 -45v-114h-108v159zM252 -15q-11 0 -26 1.5t-32 4.5v124q17 -5 31 -7.5t27 -2.5v-120zM227 -181l-137 237l106 62l137 -237zM531 0v645h163v-645h-163zM441 547v113h344v-113h-344z" />
    <glyph glyph-name="uni091E" unicode="&#x91e;" horiz-adv-x="754" 
d="M-25 547v113h608v-113h-608zM258 3q-55 0 -99.5 25t-70 68t-25.5 97h156q0 -35 10 -54.5t29 -19.5v-116zM255 3v116q20 0 31 18.5t11 50.5h160q0 -53 -26.5 -95t-72 -66t-103.5 -24zM214 286l-145 26q8 53 33.5 91t65 58t90.5 20v-116q-16 0 -27.5 -20.5t-16.5 -58.5z
M297 187v120h160v-120h-160zM437 183v120h125v-120h-125zM297 306q0 28 -11 43.5t-31 15.5v116q58 0 103.5 -23t72 -62.5t26.5 -89.5h-160zM525 0v645h163v-645h-163zM435 547v113h344v-113h-344z" />
    <glyph glyph-name="uni091F" unicode="&#x91f;" horiz-adv-x="530" 
d="M-25 547v113h580v-113h-580zM298 -15v123q20 0 34.5 9t25.5 28.5t19 50.5l115 -27q-11 -91 -60.5 -137.5t-133.5 -46.5zM300 -15q-115 0 -175 46.5t-60 128.5l156 10q0 -19 8 -33t25.5 -21.5t45.5 -7.5v-123zM65 159v94h156v-84zM65 252q0 89 51.5 145.5t152.5 69.5v-123
q-27 -5 -37.5 -29.5t-10.5 -62.5h-156zM269 344v123l167 20v-123zM273 447v183h163v-183h-163z" />
    <glyph glyph-name="uni0920" unicode="&#x920;" horiz-adv-x="537" 
d="M-25 547v113h587v-113h-587zM263 -15v123h6v-123h-6zM42 169v118h156v-118h-156zM336 169v118h156v-118h-156zM263 348v123h6v-123h-6zM228 417v213h163v-213h-163zM492 170q0 -53 -29.5 -95t-80 -66t-115.5 -24v123q29 0 49 18t20 44h156zM492 286h-156q0 26 -20 44
t-49 18v123q65 0 115.5 -24t80 -66t29.5 -95zM42 170h156q0 -26 20 -44t49 -18v-123q-64 0 -115 24t-80.5 66t-29.5 95zM42 286q0 53 29.5 95t80.5 66t115 24v-123q-29 0 -49 -18t-20 -44h-156z" />
    <glyph glyph-name="uni0921" unicode="&#x921;" horiz-adv-x="511" 
d="M262 -15q-84 0 -138.5 39t-68.5 109l143 35q10 -30 27 -46.5t37 -16.5v-120zM-25 547v113h561v-113h-561zM251 -15v120q32 0 50 17t18 38h163q0 -79 -61 -127.5t-170 -47.5zM246 206q-94 0 -147.5 32t-53.5 99l163 5q0 -17 15.5 -21.5t42.5 -4.5zM319 160q0 20 -20.5 33
t-52.5 13l20 110q62 0 110.5 -20.5t77 -55.5t28.5 -80h-163zM45 337q0 71 61 110.5t170 39.5v-110q-32 0 -50 -9t-18 -26zM276 377v110h135v-110h-135zM275 430v200h136v-200h-136z" />
    <glyph glyph-name="uni0922" unicode="&#x922;" horiz-adv-x="502" 
d="M-25 547v113h552v-113h-552zM268 -15v123h1l10 -123h-11zM279 -15l-10 123q38 0 62.5 20t24.5 51l117 -10q0 -52 -25.5 -94t-69 -66t-99.5 -24zM303 76l-40 93q0 50 31 83t77 33q44 0 73 -33t29 -83q0 -26 -22.5 -47.5t-60.5 -33.5t-87 -12zM270 -15q-115 0 -175 46.5
t-60 128.5l156 10q0 -19 8 -33t25.5 -21.5t45.5 -7.5v-123zM35 159v94h156v-84zM35 252q0 89 51.5 145.5t152.5 69.5v-123q-27 -5 -37.5 -29.5t-10.5 -62.5h-156zM239 344v123l167 20v-123zM243 447v183h163v-183h-163z" />
    <glyph glyph-name="uni0923" unicode="&#x923;" horiz-adv-x="748" 
d="M-25 547v113h529v-113h-529zM248 89q-55 0 -98.5 25t-69 68t-25.5 97h160q0 -33 8 -48.5t25 -15.5v-126zM246 89v126q17 0 25 15.5t8 48.5h160q0 -54 -25.5 -97t-69 -68t-98.5 -25zM55 279v351h160v-351h-160zM279 279v351h160v-351h-160zM519 0v645h163v-645h-163z
M429 547v113h344v-113h-344z" />
    <glyph glyph-name="uni0924" unicode="&#x924;" horiz-adv-x="599" 
d="M64 199q-36 122 16.5 190.5t181.5 68.5h38l14 -120h-38q-20 0 -33 -8.5t-19.5 -24.5t-5.5 -39t9 -52zM129 0l-65 199l163 15l68 -214h-166zM299 338v120h75v-120h-75zM-25 547v113h450v-113h-450zM370 0v645h163v-645h-163zM280 547v113h344v-113h-344z" />
    <glyph glyph-name="uni0925" unicode="&#x925;" horiz-adv-x="708" 
d="M479 0v660h163v-660h-163zM520 547v113h213v-113h-213zM119 181l-64 129q75 11 122 27.5t69 49t22 90.5h150q0 -59 -20 -107t-58 -85t-93.5 -63t-127.5 -41zM320 87q-76 1 -136 30.5t-94.5 79.5t-34.5 113h163q0 -29 16 -52.5t43.5 -37t62.5 -13.5zM320 87l20 120
q40 0 71 13.5t49.5 37.5t18.5 53h89q0 -64 -32.5 -114.5t-88.5 -80t-127 -29.5zM268 476q0 25 -7.5 41.5t-21.5 16.5l-2 132q53 0 93.5 -25t64 -67.5t23.5 -97.5h-150zM101 389q-15 32 -20.5 55t-5.5 45l140 10q0 -9 2 -27.5t12 -50.5zM75 489q0 48 21.5 88t58.5 64.5
t82 24.5l2 -132q-10 0 -17 -10t-7 -25z" />
    <glyph glyph-name="uni0926" unicode="&#x926;" horiz-adv-x="512" 
d="M-25 547v113h562v-113h-562zM270 -15q-115 0 -175 46.5t-60 128.5l156 10q0 -19 8 -33t25.5 -21.5t45.5 -7.5v-123zM35 159v94h156v-84zM35 252q0 89 51.5 145.5t152.5 69.5v-123q-27 -5 -37.5 -29.5t-10.5 -62.5h-156zM239 344v123l167 20v-123zM243 447v183h163v-183
h-163zM464 199q19 -72 -14 -117.5t-122 -69.5l-25 94q22 6 27 20.5t-1 36.5zM370 319q74 -47 94 -120l-135 -36q-8 30 -50 69zM370 319l55 -205l-116 -31l-40 147zM365 -125l-87 325l122 23l83 -312zM268 -15v123q23 0 45.5 8t44.5 22v-133q-28 -11 -49 -15.5t-41 -4.5z" />
    <glyph glyph-name="uni0927" unicode="&#x927;" horiz-adv-x="719" 
d="M490 0v660h163v-660h-163zM531 547v113h213v-113h-213zM268 288q-45 -7 -85 8t-71 46t-49 71t-18 82h150q0 -21 7 -45t23 -43.5t42 -29t63 -2.5v-77zM346 27q-59 1 -106 21.5t-73.5 56.5t-26.5 81l160 25q-1 -25 18 -41t48 -16zM140 186q0 47 25.5 87t69.5 64t99 24
l29 -80q-20 -7 -34 -17.5t-21.5 -24t-7.5 -28.5zM346 27l20 127q44 0 71.5 18t40 49t12.5 70h69q0 -75 -24.5 -135t-71.5 -94.5t-117 -34.5zM319 265v108l63 13l25 -89zM195 493h-150q0 55 23.5 97.5t64.5 67.5t93 25l-2 -132q-13 0 -21 -16.5t-8 -41.5zM362 406l-128 32
q11 32 12.5 50.5t1.5 27.5l140 -10q0 -22 -5.5 -45t-20.5 -55zM388 506l-140 10q0 15 -6.5 25t-17.5 10l2 132q46 0 82.5 -24.5t58 -64.5t21.5 -88z" />
    <glyph glyph-name="uni0928" unicode="&#x928;" horiz-adv-x="578" 
d="M-25 547v113h449v-113h-449zM30 279q0 74 44 109.5t136 35.5v-97q-23 0 -31.5 -12.5t-8.5 -35.5h-140zM90 139q-60 64 -60 140h140q0 -31 30 -80zM90 139v212h120v-152zM208 287v137h203v-137h-203zM349 0v645h163v-645h-163zM259 547v113h344v-113h-344z" />
    <glyph glyph-name="uni092A" unicode="&#x92a;" horiz-adv-x="581" 
d="M255 129q-54 0 -97 28t-68 77t-25 110h156q0 -45 18 -70t50 -25zM255 129l34 120q30 0 46.5 20t16.5 55h88q0 -55 -24 -99.5t-66 -70t-95 -25.5zM65 343v277h156v-277h-156zM-25 547v113h431v-113h-431zM352 0v645h163v-645h-163zM262 547v113h344v-113h-344z" />
    <glyph glyph-name="uni092B" unicode="&#x92b;" horiz-adv-x="816" 
d="M403 547v113h438v-113h-438zM626 261v17h156v-17h-156zM579 43l-20 121q39 18 53 43.5t14 53.5h156q0 -56 -24 -100.5t-69.5 -74.5t-109.5 -43zM626 277q0 41 -19.5 68t-48.5 27l34 120q55 0 97.5 -28t67.5 -76.5t25 -110.5h-156zM407 297q0 56 24 100t66 69.5t95 25.5
l-34 -120q-27 0 -45 -21.5t-18 -53.5h-88zM245 129q-51 0 -92 28t-64.5 77t-23.5 110h156q0 -27 7.5 -48.5t21 -34t29.5 -12.5zM245 129l34 120q23 0 38 21.5t15 53.5h88q0 -55 -23 -99.5t-62.5 -70t-89.5 -25.5zM65 343v277h156v-277h-156zM-25 547v113h421v-113h-421z
M332 0v645h163v-645h-163zM242 547v113h344v-113h-344z" />
    <glyph glyph-name="uni092C" unicode="&#x92c;" horiz-adv-x="572" 
d="M343 231v65h88v-65h-88zM332 89l-184 331l48 36l184 -331zM-25 547v113h478v-113h-478zM36 251v24h156v-24h-156zM192 274h-156q0 62 26.5 110.5t71.5 76.5t102 28l34 -120q-22 0 -40 -12.5t-28 -34t-10 -48.5zM431 294h-88q0 32 -20.5 53.5t-52.5 21.5l-34 120
q56 0 100 -25.5t69.5 -69.5t25.5 -100zM192 252q0 -27 10 -48.5t28 -34t40 -12.5l-34 -120q-57 0 -102 28t-71.5 77t-26.5 110h156zM431 232q0 -55 -25.5 -99.5t-69.5 -70t-100 -25.5l34 120q32 0 52.5 21.5t20.5 53.5h88zM343 0v645h163v-645h-163zM253 547v113h344v-113
h-344z" />
    <glyph glyph-name="uni092D" unicode="&#x92d;" horiz-adv-x="665" 
d="M436 0v660h163v-660h-163zM477 547v113h213v-113h-213zM150 309v200h150v-200h-150zM226 152v149h64v-118zM35 547l-19 109q35 11 61.5 15.5t47.5 4.5l-26 -117q-13 0 -28.5 -3t-35.5 -9zM150 508q0 29 -13.5 40t-37.5 11l26 117q87 0 131 -41.5t44 -126.5h-150zM228 237
v137h253v-137h-253zM70 227q0 67 39.5 99t122.5 32v-88q-21 0 -28.5 -11.5t-7.5 -31.5h-126zM124 101q-54 58 -54 126h126q0 -28 27 -72zM124 101v191h108v-137z" />
    <glyph glyph-name="uni092E" unicode="&#x92e;" horiz-adv-x="655" 
d="M-25 547v113h441v-113h-441zM130 276v354h150v-354h-150zM206 152v149h64v-118zM208 247v137h243v-137h-243zM50 227q0 67 39.5 99t122.5 32v-88q-21 0 -28.5 -11.5t-7.5 -31.5h-126zM104 101q-54 58 -54 126h126q0 -28 27 -72zM104 101v191h108v-137zM426 0v645h163
v-645h-163zM336 547v113h344v-113h-344z" />
    <glyph glyph-name="uni092F" unicode="&#x92f;" horiz-adv-x="686" 
d="M84 206l-40 104q53 0 90.5 14.5t57.5 41.5t20 65h160q0 -71 -34.5 -122t-98.5 -77.5t-155 -25.5zM212 431q0 34 -11 57.5t-31 36t-49 12.5v70q79 0 135 -21t86 -60t30 -95h-160zM-25 547v113h487v-113h-487zM298 87q-73 1 -131 30.5t-91 79.5t-33 113h163
q0 -29 14.5 -52.5t40 -37t57.5 -13.5zM298 87l20 120q40 0 71 15t49.5 41t18.5 58h89q0 -67 -32.5 -120t-88.5 -83.5t-127 -30.5zM54 512l-32 55q17 14 44.5 27t55.5 13v-70q-16 0 -34.5 -6.5t-33.5 -18.5zM457 0v645h163v-645h-163zM367 547v113h344v-113h-344z" />
    <glyph glyph-name="uni0930" unicode="&#x930;" horiz-adv-x="417" 
d="M93 238l-55 106q74 0 109.5 12t45 38t3.5 68h163q8 -53 -6.5 -94.5t-46 -70.5t-75 -44t-94.5 -15h-44zM199 0l-174 344l156 -1l174 -343h-156zM196 462l-20 138h163l20 -138h-163zM-25 547v113h467v-113h-467z" />
    <glyph glyph-name="uni0931" unicode="&#x931;" horiz-adv-x="473" 
d="M-25 547v113h80v-113h-80zM139 238l-55 106q74 0 109.5 12t45 38t3.5 68h163q8 -53 -6.5 -94.5t-46 -70.5t-75 -44t-94.5 -15h-44zM245 0l-174 344l156 -1l174 -343h-156zM242 462l-20 138h163l20 -138h-163zM21 547v113h467v-113h-467zM43 -16q-30 0 -49 19t-19 49
q0 29 19 49.5t49 20.5q29 0 49.5 -20.5t20.5 -49.5q0 -30 -20.5 -49t-49.5 -19z" />
    <glyph glyph-name="uni0932" unicode="&#x932;" horiz-adv-x="770" 
d="M360 279q0 95 52 153t144 58v-120q-40 0 -66.5 -20.5t-26.5 -70.5h-103zM555 370v120h48v-120h-48zM376 -16q-97 0 -169.5 26t-112 76.5t-39.5 121.5h166q0 -49 41 -76.5t114 -27.5v-120zM55 207v72h166v-72h-166zM55 279q0 100 55 155.5t144 55.5l10 -120
q-20 0 -31.5 -24t-11.5 -67h-166zM310 193v86h153v-86h-153zM310 279q0 43 -12 67t-34 24l-10 120q75 1 117 -54.5t42 -156.5h-103zM-25 547v113h636v-113h-636zM541 0v645h163v-645h-163zM451 547v113h344v-113h-344z" />
    <glyph glyph-name="uni0933" unicode="&#x933;" horiz-adv-x="746" 
d="M465 417v198h143v-198h-143zM-25 547v113h796v-113h-796zM249 -5q-68 0 -111.5 25.5t-64.5 74t-21 115.5h163q0 -40 8.5 -67.5t36.5 -27.5zM52 209v47h163v-47h-163zM249 -5l11 120q29 0 39 30t10 75h118q0 -70 -18.5 -120.5t-58 -77.5t-101.5 -27zM52 255q0 68 21 116
t64.5 73.5t111.5 25.5l11 -120q-28 0 -36.5 -27t-8.5 -68h-163zM517 -5q-62 0 -101.5 26.5t-58 77t-18.5 121.5h118q0 -45 10 -75t39 -30zM309 220v25h148v-25h-148zM309 245q0 45 -10 75t-39 30l-11 120q62 0 101.5 -27t58 -77t18.5 -121h-118zM517 -5l-11 120
q28 0 36.5 27.5t8.5 67.5h163q0 -67 -21 -115.5t-64.5 -74t-111.5 -25.5zM339 245q0 71 18.5 121t58 77t101.5 27l-11 -120q-29 0 -39 -30t-10 -75h-118zM551 209v47h163v-47h-163zM551 255q0 41 -8.5 68t-36.5 27l11 120q68 0 111.5 -25.5t64.5 -73.5t21 -116h-163z" />
    <glyph glyph-name="uni0935" unicode="&#x935;" horiz-adv-x="572" 
d="M-25 547v113h478v-113h-478zM36 251v24h156v-24h-156zM192 274h-156q0 62 26.5 110.5t71.5 76.5t102 28l34 -120q-22 0 -40 -12.5t-28 -34t-10 -48.5zM431 294h-88q0 32 -20.5 53.5t-52.5 21.5l-34 120q56 0 100 -25.5t69.5 -69.5t25.5 -100zM192 252q0 -27 10 -48.5
t28 -34t40 -12.5l-34 -120q-57 0 -102 28t-71.5 77t-26.5 110h156zM431 232q0 -55 -25.5 -99.5t-69.5 -70t-100 -25.5l34 120q32 0 52.5 21.5t20.5 53.5h88zM343 0v645h163v-645h-163zM253 547v113h344v-113h-344z" />
    <glyph glyph-name="uni0936" unicode="&#x936;" horiz-adv-x="760" 
d="M531 0v660h163v-660h-163zM572 547v113h213v-113h-213zM37 214l48 116q51 -22 92 -23.5t69 13.5t43 42t15 61h160q0 -75 -32 -131.5t-90 -87.5t-135.5 -30t-169.5 40zM221 371q-52 0 -89 16.5t-56.5 47t-19.5 73.5h135q0 -19 8 -29.5t22 -10.5v-97zM221 371v97q10 0 17 1
t19 5l6 -97q-13 -4 -21.5 -5t-20.5 -1zM56 508q0 45 22.5 83t62 61t90.5 23v-127q-19 0 -29.5 -10.5t-10.5 -29.5h-135zM304 423q0 53 -21 89t-52 36v127q67 0 119.5 -30t83 -86.5t30.5 -135.5h-160zM301 -30l-211 234l109 98l210 -234z" />
    <glyph glyph-name="uni0937" unicode="&#x937;" horiz-adv-x="601" 
d="M384 239l-218 310l44 40l218 -309zM255 129q-54 0 -97 28t-68 77t-25 110h156q0 -45 18 -70t50 -25zM255 129l34 120q30 0 46.5 20t16.5 55h88q0 -55 -24 -99.5t-66 -70t-95 -25.5zM65 343v277h156v-277h-156zM-25 547v113h431v-113h-431zM372 0v645h163v-645h-163z
M282 547v113h344v-113h-344z" />
    <glyph glyph-name="uni0938" unicode="&#x938;" horiz-adv-x="694" 
d="M280 547v113h202v-113h-202zM140 225v119h344v-119h-344zM88 238l-55 106q74 0 109.5 12t45 38t3.5 68h163q8 -53 -6.5 -94.5t-46 -70.5t-75 -44t-94.5 -15h-44zM194 0l-174 344l156 -1l174 -343h-156zM191 462l-20 138h163l20 -138h-163zM-30 547v113h467v-113h-467z
M465 0v645h163v-645h-163zM375 547v113h344v-113h-344z" />
    <glyph glyph-name="uni0939" unicode="&#x939;" horiz-adv-x="535" 
d="M416 -119q-186 0 -273.5 57.5t-87.5 179.5h160q0 -61 49 -89.5t152 -28.5v-119zM-25 547v113h585v-113h-585zM55 116q0 66 26.5 110.5t76 67t118.5 22.5v-117q-28 -1 -44.5 -23t-16.5 -60h-160zM176 188q-50 35 -78 73.5t-28 73.5h140q0 -21 19 -40t44 -33zM70 335
q0 80 44 117.5t158 37.5v-120q-37 0 -49.5 -8.5t-12.5 -26.5h-140zM271 370v120h174v-120h-174zM292 490v170h153v-170h-153zM497 115l-150 -29v25l150 40v-36zM347 111q0 41 -18.5 64.5t-52.5 23.5v117q70 0 119 -18.5t75.5 -55t26.5 -91.5z" />
    <glyph glyph-name="uni093A" unicode="&#x93a;" horiz-adv-x="0" 
d="M0 508v288h163v-288h-163z" />
    <glyph glyph-name="uni093B" unicode="&#x93b;" horiz-adv-x="294" 
d="M65 0v645h163v-645h-163zM-25 547v113h344v-113h-344zM65 508v288h163v-288h-163z" />
    <glyph glyph-name="uni093C" unicode="&#x93c;" horiz-adv-x="0" 
d="M68 -170q-30 0 -49 19t-19 49q0 29 19 49.5t49 20.5q29 0 49.5 -20.5t20.5 -49.5q0 -30 -20.5 -49t-49.5 -19z" />
    <glyph glyph-name="uni093D" unicode="&#x93d;" horiz-adv-x="543" 
d="M342 194q0 24 -14.5 37t-38 20.5t-52 15t-57 18t-52 30.5t-38 52.5t-14.5 83.5h166q0 -24 14.5 -37t38 -20.5t52 -15t57 -18t52 -30.5t38 -52.5t14.5 -83.5h-166zM310 534v126h177v-126h-177zM76 450q0 60 31 107.5t84 75t120 27.5v-126q-32 0 -50.5 -22t-18.5 -62h-166z
M508 195q0 -60 -31 -107.5t-84 -75t-120 -27.5v126q32 0 50.5 22t18.5 62h166zM184 230q3 -56 27 -87.5t63 -31.5v-126q-103 0 -166 58t-73 161z" />
    <glyph glyph-name="uni093E" unicode="&#x93e;" horiz-adv-x="294" 
d="M65 0v645h163v-645h-163zM-25 547v113h344v-113h-344z" />
    <glyph glyph-name="uni093F" unicode="&#x93f;" 
d="M534 713q-36 56 -95 86.5t-129 30.5l-10 130q71 0 137.5 -19.5t124 -56t99.5 -88.5zM61 635l-8 28l163 10l20 -38h-175zM53 663q-23 85 1.5 152t88 106t157.5 39l10 -130q-47 0 -75 -20.5t-33.5 -56t14.5 -80.5zM65 0v645h163v-645h-163zM-25 547v113h344v-113h-344z" />
    <glyph glyph-name="uni0940" unicode="&#x940;" horiz-adv-x="294" 
d="M53 713q-5 40 -15 68.5t-24 43.5t-32 15l-10 120q70 0 122.5 -27t84 -77.5t37.5 -122.5zM-222 693q-14 77 6.5 137t69 95t118.5 35l10 -120q-32 0 -44 -36t3 -91zM63 615l-10 98l163 20l10 -118h-163zM65 0v645h163v-645h-163zM-25 547v113h344v-113h-344z" />
    <glyph glyph-name="uni0941" unicode="&#x941;" horiz-adv-x="0" 
d="M380 -192q-89 -2 -182 49t-198 155l96 96q89 -87 156.5 -130.5t128.5 -43.5zM380 -192l1 126q32 0 50 15.5t18 43.5h140q0 -50 -28.5 -92.5t-76 -67.5t-104.5 -25zM332 -11l-100 52q25 61 76 91.5t103 30.5l-10 -123q-20 1 -37.5 -12.5t-31.5 -38.5zM589 -7h-140
q0 21 -14 34.5t-34 12.5l10 123q51 0 91.5 -23.5t63.5 -62t23 -84.5z" />
    <glyph glyph-name="uni0942" unicode="&#x942;" horiz-adv-x="0" 
d="M256 144q86 -22 163 -95t151 -201l-118 -67q-63 107 -117 166.5t-113 74.5zM256 144l-34 -122q-31 8 -52 -2t-29 -37l-135 36q13 49 51.5 82.5t91 45.5t107.5 -3zM255 -43l83 -77q-26 -34 -61 -53t-72 -23t-71 5l41 116q20 -6 40 3t40 29zM6 19l135 -36q-5 -20 5 -36.5
t29 -21.5l-41 -116q-49 14 -82 47t-45.5 76t-0.5 87z" />
    <glyph glyph-name="uni0943" unicode="&#x943;" horiz-adv-x="0" 
d="M0 -60q0 72 54.5 107t151.5 35l5 -93q-26 0 -44 -14t-18 -35h-149zM222 -205q-105 0 -163.5 40.5t-58.5 104.5h149q0 -22 21 -37t52 -15v-93z" />
    <glyph glyph-name="uni0944" unicode="&#x944;" horiz-adv-x="0" 
d="M49 -5q-16 54 29.5 100t133.5 74l22 -59q-35 -12 -50 -26t-11 -31zM286 -71q-89 -25 -154.5 -8t-82.5 74l124 58q6 -16 25.5 -19t54.5 4zM234 110q-92 -25 -152 -11t-76 65l127 21q5 -16 24.5 -19.5t54.5 3.5zM6 164q-19 59 21 108t129 77l37 -107q-35 -12 -49.5 -26
t-10.5 -31z" />
    <glyph glyph-name="uni0945" unicode="&#x945;" horiz-adv-x="0" 
d="M244 701v114q38 0 72 21t58 58l114 -56q-50 -70 -109 -103.5t-135 -33.5zM244 701q-76 0 -135 33.5t-109 103.5l114 56q24 -37 58.5 -58t71.5 -21v-114z" />
    <glyph glyph-name="uni0946" unicode="&#x946;" horiz-adv-x="0" 
d="M253 660q8 39 -4.5 55t-58.5 25l40 100q84 -17 127 -37.5t55.5 -54t3.5 -88.5h-163zM190 740q-83 17 -126.5 37.5t-56 54t-3.5 88.5h163q-7 -39 5 -55t58 -25z" />
    <glyph glyph-name="uni0947" unicode="&#x947;" horiz-adv-x="0" 
d="M245 660l-81 126l122 60l119 -186h-160zM164 786q-16 26 -39 31t-66 -21l-59 97q102 58 169 44t117 -91z" />
    <glyph glyph-name="uni0948" unicode="&#x948;" horiz-adv-x="0" 
d="M278 630l-144 76l57 99l144 -76zM15 722l-15 94q30 16 60.5 19.5t63 -4t67.5 -26.5l-57 -99q-28 16 -57.5 20t-61.5 -4zM228 660l-21 174h144l14 -174h-137zM207 834q-4 30 -23 42.5t-56 7.5l-15 94q80 19 130.5 5.5t76.5 -52.5t31 -97h-144z" />
    <glyph glyph-name="uni0949" unicode="&#x949;" horiz-adv-x="294" 
d="M65 0v645h163v-645h-163zM-25 547v113h344v-113h-344zM32 711v114q38 0 72 21t58 58l114 -56q-50 -70 -109 -103.5t-135 -33.5zM32 711q-76 0 -135 33.5t-109 103.5l114 56q24 -37 58.5 -58t71.5 -21v-114z" />
    <glyph glyph-name="uni094A" unicode="&#x94a;" horiz-adv-x="294" 
d="M65 0v645h163v-645h-163zM-25 547v113h344v-113h-344zM65 660q8 39 -4.5 55t-58.5 25l40 100q84 -17 127 -37.5t55.5 -54t3.5 -88.5h-163zM2 740q-83 17 -126.5 37.5t-56 54t-3.5 88.5h163q-7 -39 5 -55t58 -25z" />
    <glyph glyph-name="uni094B" unicode="&#x94b;" horiz-adv-x="294" 
d="M65 0v645h163v-645h-163zM-25 547v113h344v-113h-344zM45 660l-81 126l122 60l119 -186h-160zM-36 786q-16 26 -39 31t-66 -21l-59 97q102 58 169 44t117 -91z" />
    <glyph glyph-name="uni094C" unicode="&#x94c;" horiz-adv-x="294" 
d="M65 0v645h163v-645h-163zM-25 547v113h344v-113h-344zM125 630l-144 76l57 99l144 -76zM-138 722l-15 94q30 16 60.5 19.5t63 -4t67.5 -26.5l-57 -99q-28 16 -57.5 20t-61.5 -4zM75 660l-21 174h144l14 -174h-137zM54 834q-4 30 -23 42.5t-56 7.5l-15 94q80 19 130.5 5.5
t76.5 -52.5t31 -97h-144z" />
    <glyph glyph-name="uni094D" unicode="&#x94d;" horiz-adv-x="0" 
d="M88 -200l-88 141l83 48l87 -141z" />
    <glyph glyph-name="uni094F" unicode="&#x94f;" horiz-adv-x="294" 
d="M95 666q16 36 9.5 54t-43.5 38l60 87q69 -36 101 -66t34.5 -65t-20.5 -86zM61 758q-68 35 -100.5 65t-34.5 65.5t20 86.5l141 -38q-16 -36 -9.5 -54.5t43.5 -37.5zM35 617q-3 40 -18 52.5t-57 10.5l9 106q77 3 119.5 -7t62 -39t26.5 -85zM-40 680q-77 -3 -120 7t-62.5 39
t-26.5 85l142 38q4 -40 18.5 -52.5t57.5 -10.5zM65 0v645h163v-645h-163zM-25 547v113h344v-113h-344z" />
    <glyph glyph-name="uni0950" unicode="&#x950;" horiz-adv-x="995" 
d="M499 111l-23 107q14 0 22 13.5t8 37.5h160q0 -74 -44 -116t-123 -42zM499 111q-25 0 -47 19.5t-34.5 51t-10.5 66.5h40q0 -14 8 -22t21 -8zM740 36q-28 0 -60 7t-62 20l55 117q14 -8 31 -13t36 -5v-126zM506 269v106h160v-106h-160zM810 225v150h160v-150h-160zM298 493
q0 26 -16.5 40.5t-45.5 14.5v126q67 0 114 -21.5t72.5 -62t25.5 -97.5h-150zM173 469l-145 26q10 57 37.5 97t71.5 61t100 21v-126q-25 0 -42 -20.5t-22 -58.5zM970 375h-160q0 30 -19 47t-53 17v126q73 0 125 -22.5t79.5 -65t27.5 -102.5zM506 375q0 60 27.5 102.5t79.5 65
t125 22.5v-126q-34 0 -53 -17t-19 -47h-160zM970 226q0 -59 -27.5 -102t-79.5 -65.5t-125 -22.5v126q34 0 53 17t19 47h160zM302 232q0 31 -20 51.5t-49 20.5v123q62 0 110.5 -25.5t76.5 -69.5t28 -100h-146zM244 27q-103 0 -161 62t-58 171h150q0 -52 18.5 -81t50.5 -29
v-123zM243 27v123q28 0 43.5 21.5t15.5 60.5h146q0 -64 -24.5 -110t-70 -70.5t-110.5 -24.5zM186 304v126h41v-126h-41zM226 304v126q31 0 51.5 18t20.5 46h150q0 -54 -29 -97t-79 -68t-114 -25zM593 611v128q42 0 80 23t65 65l128 -63q-56 -79 -122 -116t-151 -37zM593 611
q-85 0 -151 37t-122 116l128 63q26 -42 64.5 -65t80.5 -23v-128zM593 796q-34 0 -56.5 21.5t-22.5 55.5q0 33 22.5 56t56.5 23q33 0 56 -23t23 -56q0 -34 -23 -55.5t-56 -21.5z" />
    <glyph glyph-name="uni0952" unicode="&#x952;" horiz-adv-x="0" 
d="M30 -157v91h460v-91h-460z" />
    <glyph glyph-name="uni0953" unicode="&#x953;" horiz-adv-x="0" 
d="M167 557l-97 148h138l65 -148h-106z" />
    <glyph glyph-name="uni0954" unicode="&#x954;" horiz-adv-x="0" 
d="M176 557h-106l65 148h138z" />
    <glyph glyph-name="uni0956" unicode="&#x956;" horiz-adv-x="0" 
d="M204 -163v92q43 0 82.5 8.5t96.5 29.5l25 -87q-71 -24 -116 -33.5t-88 -9.5zM204 -163q-43 0 -88 9.5t-116 33.5l25 87q57 -21 96.5 -29.5t82.5 -8.5v-92z" />
    <glyph glyph-name="uni0957" unicode="&#x957;" horiz-adv-x="0" 
d="M204 -166v92q43 0 82.5 8.5t96.5 29.5l25 -87q-71 -24 -116 -33.5t-88 -9.5zM204 -166q-43 0 -88 9.5t-116 33.5l25 87q57 -21 96.5 -29.5t82.5 -8.5v-92zM204 -286v92q43 0 82.5 8.5t96.5 29.5l25 -87q-71 -24 -116 -33.5t-88 -9.5zM204 -286q-43 0 -88 9.5t-116 33.5
l25 87q57 -21 96.5 -29.5t82.5 -8.5v-92z" />
    <glyph glyph-name="uni0958" unicode="&#x958;" horiz-adv-x="792" 
d="M446 547v113h371v-113h-371zM-25 547v113h458v-113h-458zM36 271v4h156v-4h-156zM323 251v45h88v-45h-88zM192 274h-156q0 62 25 110.5t68 76.5t97 28l34 -120q-29 0 -48.5 -27t-19.5 -68zM411 294h-88q0 32 -18 53.5t-45 21.5l-34 120q53 0 95 -25.5t66 -69.5t24 -100z
M192 272q0 -40 19.5 -67.5t48.5 -27.5l-34 -120q-54 0 -97 28t-68 77t-25 110h156zM411 252q0 -55 -24 -99.5t-66 -70t-95 -25.5l34 120q27 0 45 21.5t18 53.5h88zM617 264q0 41 -19.5 68t-48.5 27l34 120q55 0 97.5 -28t67.5 -76.5t25 -110.5h-156zM398 284q0 56 24 100
t66 69.5t95 25.5l-34 -120q-27 0 -45 -21.5t-18 -53.5h-88zM617 248v17h156v-17h-156zM570 30l-20 121q39 18 53 43.5t14 53.5h156q0 -56 -24 -100.5t-69.5 -74.5t-109.5 -43zM323 0v645h163v-645h-163zM233 547v113h344v-113h-344zM50 -69q-30 0 -49 19t-19 49
q0 29 19 49.5t49 20.5q29 0 49.5 -20.5t20.5 -49.5q0 -30 -20.5 -49t-49.5 -19z" />
    <glyph glyph-name="uni0959" unicode="&#x959;" horiz-adv-x="880" 
d="M339 -15q-87 0 -151 42.5t-92 118.5l143 42q12 -34 27.5 -53.5t34 -28t38.5 -8.5v-113zM96 146l-63 173h159l47 -131zM338 -15v113q29 0 51 15t41 46l102 -74q-27 -31 -59 -53.5t-66.5 -34.5t-68.5 -12zM564 79q-51 0 -92 27.5t-64.5 75t-23.5 106.5h156q0 -25 7.5 -45.5
t21 -32t29.5 -11.5zM564 79l34 120q15 0 27 8.5t19 23.5t7 33h88q0 -53 -23 -95t-62.5 -66t-89.5 -24zM384 287q0 60 23.5 107.5t64.5 75t92 27.5l34 -120q-16 0 -29.5 -12t-21 -32t-7.5 -46h-156zM-25 547v113h766v-113h-766zM651 312q0 19 -7 33.5t-19 23t-27 8.5l-34 120
q50 0 89.5 -24t62.5 -66t23 -95h-88zM63 238l-40 106q74 0 113.5 12t52.5 38t7 68h163q8 -53 -8 -94.5t-49.5 -70.5t-78.5 -44t-96 -15h-64zM196 462l-20 138h163l20 -138h-163zM651 0v645h163v-645h-163zM561 547v113h344v-113h-344zM68 -99q-30 0 -49 19t-19 49
q0 29 19 49.5t49 20.5q29 0 49.5 -20.5t20.5 -49.5q0 -30 -20.5 -49t-49.5 -19z" />
    <glyph glyph-name="uni095A" unicode="&#x95a;" horiz-adv-x="647" 
d="M-25 547v113h393v-113h-393zM153 306v324h160v-324h-160zM168 127v140q23 0 35.5 8.5t12.5 31.5h97q0 -92 -35.5 -136t-109.5 -44zM28 187l60 110q49 -30 80 -30v-140q-76 0 -140 60zM28 187l60 120h152v-120h-212zM418 0v645h163v-645h-163zM328 547v113h344v-113h-344z
M172 -49q-30 0 -49 19t-19 49q0 29 19 49.5t49 20.5q29 0 49.5 -20.5t20.5 -49.5q0 -30 -20.5 -49t-49.5 -19z" />
    <glyph glyph-name="uni095B" unicode="&#x95b;" horiz-adv-x="714" 
d="M234 30v118q24 0 39.5 31.5t10.5 71.5l141 10q9 -64 -15.5 -116.5t-70.5 -83.5t-105 -31zM235 30q-55 0 -99.5 25.5t-70 70t-25.5 99.5h146q0 -31 14 -54t35 -23v-118zM40 224v56l146 20v-76h-146zM284 251q-3 27 -14 50.5t-26.5 38t-33.5 14.5v59q73 0 118 -19.5
t68 -53.5t29 -79zM210 354v110h301v-110h-301zM-25 547v113h536v-113h-536zM485 0v645h163v-645h-163zM395 547v113h344v-113h-344zM80 -109q-30 0 -49 19t-19 49q0 29 19 49.5t49 20.5q29 0 49.5 -20.5t20.5 -49.5q0 -30 -20.5 -49t-49.5 -19z" />
    <glyph glyph-name="uni095C" unicode="&#x95c;" horiz-adv-x="511" 
d="M262 -15q-84 0 -138.5 39t-68.5 109l143 35q10 -30 27 -46.5t37 -16.5v-120zM-25 547v113h561v-113h-561zM251 -15v120q32 0 50 17t18 38h163q0 -79 -61 -127.5t-170 -47.5zM246 206q-94 0 -147.5 32t-53.5 99l163 5q0 -17 15.5 -21.5t42.5 -4.5zM319 160q0 20 -20.5 33
t-52.5 13l20 110q62 0 110.5 -20.5t77 -55.5t28.5 -80h-163zM45 337q0 71 61 110.5t170 39.5v-110q-32 0 -50 -9t-18 -26zM276 377v110h135v-110h-135zM275 430v200h136v-200h-136zM261 -184q-30 0 -49 19t-19 49q0 29 19 49.5t49 20.5q29 0 49.5 -20.5t20.5 -49.5
q0 -30 -20.5 -49t-49.5 -19z" />
    <glyph glyph-name="uni095D" unicode="&#x95d;" horiz-adv-x="502" 
d="M-25 547v113h552v-113h-552zM268 -15v123h1l10 -123h-11zM279 -15l-10 123q38 0 62.5 20t24.5 51l117 -10q0 -52 -25.5 -94t-69 -66t-99.5 -24zM303 76l-40 93q0 50 31 83t77 33q44 0 73 -33t29 -83q0 -26 -22.5 -47.5t-60.5 -33.5t-87 -12zM270 -15q-115 0 -175 46.5
t-60 128.5l156 10q0 -19 8 -33t25.5 -21.5t45.5 -7.5v-123zM35 159v94h156v-84zM35 252q0 89 51.5 145.5t152.5 69.5v-123q-27 -5 -37.5 -29.5t-10.5 -62.5h-156zM239 344v123l167 20v-123zM243 447v183h163v-183h-163zM282 -189q-30 0 -49 19t-19 49q0 29 19 49.5t49 20.5
q29 0 49.5 -20.5t20.5 -49.5q0 -30 -20.5 -49t-49.5 -19z" />
    <glyph glyph-name="uni095E" unicode="&#x95e;" horiz-adv-x="816" 
d="M403 547v113h438v-113h-438zM626 261v17h156v-17h-156zM579 43l-20 121q39 18 53 43.5t14 53.5h156q0 -56 -24 -100.5t-69.5 -74.5t-109.5 -43zM626 277q0 41 -19.5 68t-48.5 27l34 120q55 0 97.5 -28t67.5 -76.5t25 -110.5h-156zM407 297q0 56 24 100t66 69.5t95 25.5
l-34 -120q-27 0 -45 -21.5t-18 -53.5h-88zM245 129q-51 0 -92 28t-64.5 77t-23.5 110h156q0 -27 7.5 -48.5t21 -34t29.5 -12.5zM245 129l34 120q23 0 38 21.5t15 53.5h88q0 -55 -23 -99.5t-62.5 -70t-89.5 -25.5zM65 343v277h156v-277h-156zM-25 547v113h421v-113h-421z
M332 0v645h163v-645h-163zM242 547v113h344v-113h-344zM36 37q-30 0 -49 19t-19 49q0 29 19 49.5t49 20.5q29 0 49.5 -20.5t20.5 -49.5q0 -30 -20.5 -49t-49.5 -19z" />
    <glyph glyph-name="uni095F" unicode="&#x95f;" horiz-adv-x="686" 
d="M84 206l-40 104q53 0 90.5 14.5t57.5 41.5t20 65h160q0 -71 -34.5 -122t-98.5 -77.5t-155 -25.5zM212 431q0 34 -11 57.5t-31 36t-49 12.5v70q79 0 135 -21t86 -60t30 -95h-160zM-25 547v113h487v-113h-487zM298 87q-73 1 -131 30.5t-91 79.5t-33 113h163
q0 -29 14.5 -52.5t40 -37t57.5 -13.5zM298 87l20 120q40 0 71 15t49.5 41t18.5 58h89q0 -67 -32.5 -120t-88.5 -83.5t-127 -30.5zM54 512l-32 55q17 14 44.5 27t55.5 13v-70q-16 0 -34.5 -6.5t-33.5 -18.5zM457 0v645h163v-645h-163zM367 547v113h344v-113h-344zM70 -21
q-30 0 -49 19t-19 49q0 29 19 49.5t49 20.5q29 0 49.5 -20.5t20.5 -49.5q0 -30 -20.5 -49t-49.5 -19z" />
    <glyph glyph-name="uni0960" unicode="&#x960;" horiz-adv-x="1048" 
d="M873 -109q-94 -22 -154.5 -1.5t-74.5 81.5l147 37q2 -10 14.5 -13t31.5 1zM644 -29q-15 59 34 106.5t152 72.5l21 -91q-32 -8 -48 -21.5t-12 -29.5zM852 59q-104 -14 -161 8t-63 76l149 25q2 -14 16 -17t47 1zM873 -109l-36 105q26 7 37.5 26t5.5 46l140 25
q18 -69 -23 -124.5t-124 -77.5zM628 143q-7 59 47.5 99.5t157.5 52.5l11 -94q-32 -4 -50 -13t-17 -20zM833 201q-97 0 -151.5 47t-54.5 132h140q0 -26 5.5 -45.5t19.5 -29.5t41 -10v-94zM627 380q0 42 22.5 74.5t61.5 51.5t88 19v-97q-10 0 -17 -5.5t-11 -16.5t-4 -26h-140z
M819 408q0 8 -6 14t-14 6v97q43 0 77 -14t53.5 -38t19.5 -55zM582 547v113h491v-113h-491zM823 314l-32 65q14 2 21 10t7 19l130 10q1 -25 -14.5 -47t-43.5 -37t-68 -20zM471 143v151l210 141v-149zM164 -17l-84 84l284 284l-2 -171zM204 314q-37 33 -69.5 25t-67.5 -31
l-54 111q40 31 85 46.5t93 6.5t97 -52zM358 176l-154 138l84 106l165 -150zM-25 547v113h341v-113h-341zM367 0v645h163v-645h-163zM277 547v113h344v-113h-344z" />
    <glyph glyph-name="uni0961" unicode="&#x961;" horiz-adv-x="812" 
d="M571 73v512h163v-462zM384 547v113h453v-113h-453zM360 279q0 95 52 153t144 58v-120q-40 0 -66.5 -20.5t-26.5 -70.5h-103zM555 370v120h48v-120h-48zM376 -16q-97 0 -169.5 26t-112 76.5t-39.5 121.5h166q0 -49 41 -76.5t114 -27.5v-120zM55 207v72h166v-72h-166z
M55 279q0 100 55 155.5t144 55.5l10 -120q-20 0 -31.5 -24t-11.5 -67h-166zM310 193v86h153v-86h-153zM310 279q0 43 -12 67t-34 24l-10 120q75 1 117 -54.5t42 -156.5h-103zM-25 547v113h636v-113h-636zM571 175v315h88v-315h-88zM590 -124q-16 54 29.5 100t133.5 74
l22 -59q-35 -12 -50 -26t-11 -31zM827 -190q-89 -25 -154.5 -8t-82.5 74l124 58q6 -16 25.5 -19t54.5 4zM775 -9q-92 -25 -152 -11t-76 65l127 21q5 -16 24.5 -19.5t54.5 3.5zM547 45q-19 59 21 108t129 77l37 -107q-35 -12 -49.5 -26t-10.5 -31z" />
    <glyph glyph-name="uni0962" unicode="&#x962;" horiz-adv-x="0" 
d="M260 -196q-81 0 -139.5 27t-89.5 77.5t-31 120.5h143q0 -54 31 -84.5t86 -30.5v-110zM0 29q0 80 47.5 125.5t132.5 45.5l10 -110q-22 0 -34.5 -16t-12.5 -45h-143zM246 -31q0 57 -15 89t-41 32l-10 110q50 0 85.5 -27.5t54.5 -79t19 -124.5h-93zM276 -31q0 73 19.5 124.5
t56.5 79t88 27.5l-14 -110q-27 0 -42 -32t-15 -89h-93zM468 62q-8 14 -17.5 21t-24.5 7l14 110q19 0 43.5 -6t48 -22t40.5 -46zM435 -9q0 72 54.5 107t151.5 35l5 -93q-26 0 -44 -14t-18 -35h-149zM657 -154q-105 0 -163.5 40.5t-58.5 104.5h149q0 -22 21 -37t52 -15v-93z
" />
    <glyph glyph-name="uni0963" unicode="&#x963;" horiz-adv-x="0" 
d="M260 -196q-81 0 -139.5 27t-89.5 77.5t-31 120.5h143q0 -54 31 -84.5t86 -30.5v-110zM0 29q0 80 46.5 125.5t128.5 45.5l10 -110q-19 0 -30.5 -16t-11.5 -45h-143zM241 -31q0 57 -15 89t-41 32l-10 110q50 0 85.5 -27.5t54.5 -79t19 -124.5h-93zM271 -31q0 73 19.5 124.5
t56.5 79t88 27.5l-14 -110q-27 0 -42 -32t-15 -89h-93zM468 62q-8 14 -20 21t-27 7l14 110q19 0 44.5 -6t50.5 -22t42 -46zM465 -158q-9 50 36 87t127 53l14 -55q-33 -7 -47.5 -18t-12.5 -27zM671 -239q-82 -15 -139 6.5t-67 74.5l117 40q4 -14 21 -19t49 -2zM642 -73
q-85 -14 -137.5 4.5t-61.5 65.5l115 7q4 -15 20.5 -20t49.5 -2zM443 -3q-11 55 29 95t122 57l24 -100q-33 -7 -47.5 -18t-12.5 -27z" />
    <glyph glyph-name="uni0964" unicode="&#x964;" horiz-adv-x="381" 
d="M180 -34v720h141v-720h-141z" />
    <glyph glyph-name="uni0965" unicode="&#x965;" horiz-adv-x="627" 
d="M426 -34v720h141v-720h-141zM180 -34v720h141v-720h-141z" />
    <glyph glyph-name="uni0966" unicode="&#x966;" horiz-adv-x="499" 
d="M318 228v214h156v-214h-156zM25 228v214h156v-214h-156zM25 441q0 53 29.5 95t80.5 66t115 24v-123q-29 0 -49 -18t-20 -44h-156zM474 441h-156q0 26 -20 44t-49 18v123q65 0 115.5 -24t80 -66t29.5 -95zM25 229h156q0 -26 20 -44t49 -18v-123q-64 0 -115 24t-80.5 66
t-29.5 95zM474 229q0 -53 -29.5 -95t-80 -66t-115.5 -24v123q29 0 49 18t20 44h156z" />
    <glyph glyph-name="uni0967" unicode="&#x967;" horiz-adv-x="432" 
d="M200 189q0 57 5 108.5t10 106t5 121.5h160q0 -67 -5 -121.5t-10 -106t-5 -108.5h-160zM170 350q-77 8 -123.5 57t-46.5 128h140q0 -29 16.5 -44.5t33.5 -23.5zM315 -23q-59 49 -87 100t-28 112h160q0 -35 11.5 -62t35.5 -49zM0 535q0 53 23.5 92.5t64.5 61t92 21.5v-117
q-19 0 -29.5 -15.5t-10.5 -42.5h-140zM220 525q0 32 -10.5 50t-29.5 18v117q95 0 147.5 -49t52.5 -136h-160z" />
    <glyph glyph-name="uni0968" unicode="&#x968;" horiz-adv-x="487" 
d="M95 501l-70 111q54 33 100.5 48t95.5 15l-10 -140q-29 0 -59.5 -9t-56.5 -25zM302 412q0 32 -9.5 60t-29.5 45.5t-52 17.5l10 140q75 0 129 -35.5t83 -95t29 -132.5h-160zM65 174l42 102q62 -27 105.5 -15t66.5 53t23 99h160q0 -83 -29.5 -144t-83 -95t-126 -35.5
t-158.5 35.5zM249 -59l-156 236l122 82l155 -235zM51 191l121 70q11 -20 24.5 -26.5t33.5 4.5l49 -84q-80 -46 -135.5 -37.5t-92.5 73.5zM32 342l126 3q-2 -57 14 -84l-121 -70q-38 65 -19 151zM32 342l134 8l76 -132l-104 -60z" />
    <glyph glyph-name="uni0969" unicode="&#x969;" horiz-adv-x="480" 
d="M295 485q0 30 -16.5 47t-45.5 17v126q64 0 114 -25t79 -67.5t29 -97.5h-160zM244 42v120q23 0 35.5 20.5t12.5 51.5h156q0 -54 -26 -97.5t-72 -68.5t-106 -26zM183 295l10 127h31v-127h-41zM178 479l-153 21q5 50 33.5 89.5t74.5 62.5t101 23v-126q-26 0 -41 -18.5
t-15 -51.5zM448 233h-156q0 26 -20 44t-49 18v123q65 0 115.5 -24t80 -66t29.5 -95zM455 486q0 -59 -27.5 -102t-79.5 -65.5t-125 -22.5v126q34 0 53 17t19 47h160zM245 42q-11 0 -26 1.5t-32 4.5v124q17 -5 31 -7.5t27 -2.5v-120zM220 -124l-137 237l106 62l137 -237z
M35 156h126q0 -17 7.5 -26.5t28.5 -9.5v-73q-83 0 -122.5 26.5t-39.5 82.5zM89 261l99 -45q-27 -37 -27 -60h-126q0 56 54 105zM89 261l108 -45v-114h-108v159z" />
    <glyph glyph-name="uni096A" unicode="&#x96a;" horiz-adv-x="519" 
d="M260 289v105q34 0 56 21.5t22 61.5h156q0 -53 -31.5 -95.5t-84.5 -67.5t-118 -25zM261 -16q-66 0 -113.5 26.5t-73 74t-25.5 110.5h160q0 -40 13.5 -67.5t38.5 -27.5v-116zM260 -16v116q25 0 38.5 27.5t13.5 67.5h160q0 -63 -25.5 -110.5t-72.5 -74t-114 -26.5zM49 194
q0 57 25.5 102t73 71.5t113.5 26.5v-106q-25 0 -38.5 -27t-13.5 -67h-160zM259 289q-64 0 -117.5 25t-85 67.5t-31.5 95.5h156q0 -40 22 -61.5t56 -21.5v-105zM312 194q0 40 -13.5 67t-38.5 27v106q67 0 114 -26.5t72.5 -71.5t25.5 -102h-160zM25 476q0 31 7 63t20.5 61.5
t31.5 54.5l135 -45q-12 -19 -20.5 -42t-13 -46t-4.5 -46h-156zM338 476q0 23 -4.5 46t-13 46t-20.5 42l135 45q19 -25 32 -54.5t20 -61.5t7 -63h-156z" />
    <glyph glyph-name="uni096B" unicode="&#x96b;" horiz-adv-x="493" 
d="M25 474v186h156v-186h-156zM312 223v437h156v-427zM251 28v120q19 0 32.5 9t21 26t7.5 41l156 10q0 -97 -57.5 -151.5t-159.5 -54.5zM181 475q0 -40 19.5 -67.5t48.5 -27.5l-34 -120q-54 0 -97 28t-68 77t-25 110h156zM400 455q0 -55 -24 -99.5t-66 -70t-95 -25.5l34 120
q27 0 45 21.5t18 53.5h88zM42 142h126q0 -17 7.5 -26.5t28.5 -9.5v-73q-83 0 -122.5 26.5t-39.5 82.5zM96 247l99 -45q-27 -37 -27 -60h-126q0 56 54 105zM96 247l108 -45v-114h-108v159zM252 28q-11 0 -26 1.5t-32 4.5v124q17 -5 31 -7.5t27 -2.5v-120zM227 -138l-137 237
l106 62l137 -237z" />
    <glyph glyph-name="uni096C" unicode="&#x96c;" horiz-adv-x="532" 
d="M293 0q-84 0 -144 27t-92 77.5t-32 120.5h156q0 -48 30 -75t82 -27v-123zM260 296q-73 0 -125 22.5t-79.5 65.5t-27.5 102h160q0 -30 19 -47t53 -17v-126zM25 224v12h156v-12h-156zM260 296v126h41l10 -126h-51zM327 460q0 38 -18 63.5t-50 25.5v126q70 0 117 -23
t73 -66.5t31 -105.5zM25 234q0 53 29.5 95t80.5 66t115 24v-123q-29 0 -49 -18t-20 -44h-156zM28 485q0 60 27.5 102.5t79.5 65t125 22.5v-126q-34 0 -53 -17t-19 -47h-160zM389 -110l-87 325l122 23l83 -312zM292 0v123q23 0 45.5 8t44.5 22v-133q-28 -11 -49 -15.5
t-41 -4.5zM488 214q19 -72 -14 -117.5t-122 -69.5l-25 94q22 6 27 20.5t-1 36.5zM394 334q74 -47 94 -120l-135 -36q-8 30 -50 69zM394 334l55 -205l-116 -31l-40 147z" />
    <glyph glyph-name="uni096D" unicode="&#x96d;" horiz-adv-x="607" 
d="M303 -14q-76 0 -139 42t-100.5 122.5t-38.5 192.5h163q0 -54 8 -95t23 -69t36 -42.5t48 -14.5v-136zM303 -14v136q26 0 49 11.5t41 32.5t28.5 51t10.5 66h150q0 -90 -39 -156.5t-102.5 -103.5t-137.5 -37zM25 343q0 53 12 107.5t34 108t53 99.5l146 -59
q-39 -54 -60.5 -121.5t-21.5 -134.5h-163zM432 282q0 25 -7.5 41.5t-21.5 16.5l-2 132q53 0 93.5 -25t64 -67.5t23.5 -97.5h-150zM265 195q-15 32 -20.5 55t-5.5 45l140 10q0 -9 2 -27.5t12 -50.5zM239 295q0 48 21.5 88t58.5 64.5t82 24.5l2 -132q-10 0 -17 -10t-7 -25z
" />
    <glyph glyph-name="uni096E" unicode="&#x96e;" horiz-adv-x="480" 
d="M219 247l-162 14l178 399l163 -15zM287 -15q-109 0 -175.5 33t-82 95t27.5 148l162 -14q-22 -44 -18.5 -71t26.5 -39t60 -12v-140zM287 -15v140q23 0 53 2.5t60.5 7t54.5 10.5v-140q-22 -6 -53.5 -10.5t-62.5 -7t-52 -2.5z" />
    <glyph glyph-name="uni096F" unicode="&#x96f;" horiz-adv-x="445" 
d="M257 129q0 24 -23.5 51t-58 58.5t-69 69.5t-58 84t-23.5 101h163q0 -34 17 -63.5t43 -56.5t56 -54t56 -55t43 -58.5t17 -66.5zM342 -40l-147 47q18 19 32 38t22 40t8 44l163 10q0 -33 -8.5 -63t-25.5 -58.5t-44 -57.5zM25 493q0 52 26 93t71 65t101 24l5 -120
q-17 0 -28.5 -18t-11.5 -44h-163zM279 362l-56 119q17 2 27 12t10 25h143q0 -39 -14.5 -71t-42.5 -53.5t-67 -31.5zM260 518q0 16 -9 26.5t-23 10.5l-5 120q52 0 92.5 -20.5t64 -56t23.5 -80.5h-143z" />
    <glyph glyph-name="uni0970" unicode="&#x970;" horiz-adv-x="462" 
d="M230 156v125q20 0 33 20t13 50h161q0 -56 -27.5 -100t-74 -69.5t-105.5 -25.5zM230 156q-59 0 -105 25.5t-73 69.5t-27 100h161q0 -30 12.5 -50t31.5 -20v-125zM25 351q0 55 27 98.5t73 69t105 25.5v-125q-19 0 -31.5 -19t-12.5 -49h-161zM276 351q0 30 -13 49t-33 19
v125q59 0 105.5 -25.5t74 -69t27.5 -98.5h-161z" />
    <glyph glyph-name="uni0972" unicode="&#x972;" horiz-adv-x="741" 
d="M298 484q0 28 -16 46t-41 18v126q59 0 106 -25t74 -67.5t27 -97.5h-150zM178 469l-145 26q10 57 37.5 97t71.5 61t100 21v-126q-25 0 -42 -20.5t-22 -58.5zM382 214v120h226v-120h-226zM302 223q0 31 -20 51.5t-49 20.5v123q62 0 110.5 -25.5t76.5 -69.5t28 -100h-146z
M244 18q-103 0 -161 62t-58 171h150q0 -52 18.5 -81t50.5 -29v-123zM243 18v123q28 0 43.5 21.5t15.5 60.5h146q0 -64 -24.5 -110t-70 -70.5t-110.5 -24.5zM186 295v126h41v-126h-41zM226 295v126q31 0 51.5 18t20.5 46h150q0 -54 -29 -97t-79 -68t-114 -25zM512 0v660h163
v-660h-163zM553 547v113h213v-113h-213zM544 711v114q38 0 72 21t58 58l114 -56q-50 -70 -109 -103.5t-135 -33.5zM544 711q-76 0 -135 33.5t-109 103.5l114 56q24 -37 58.5 -58t71.5 -21v-114z" />
    <glyph glyph-name="uni0973" unicode="&#x973;" horiz-adv-x="741" 
d="M512 458v338h163v-338h-163zM298 484q0 28 -16 46t-41 18v126q59 0 106 -25t74 -67.5t27 -97.5h-150zM178 469l-145 26q10 57 37.5 97t71.5 61t100 21v-126q-25 0 -42 -20.5t-22 -58.5zM382 214v120h226v-120h-226zM302 223q0 31 -20 51.5t-49 20.5v123q62 0 110.5 -25.5
t76.5 -69.5t28 -100h-146zM244 18q-103 0 -161 62t-58 171h150q0 -52 18.5 -81t50.5 -29v-123zM243 18v123q28 0 43.5 21.5t15.5 60.5h146q0 -64 -24.5 -110t-70 -70.5t-110.5 -24.5zM186 295v126h41v-126h-41zM226 295v126q31 0 51.5 18t20.5 46h150q0 -54 -29 -97t-79 -68
t-114 -25zM512 0v660h163v-660h-163zM553 547v113h213v-113h-213z" />
    <glyph glyph-name="uni0974" unicode="&#x974;" horiz-adv-x="1035" 
d="M806 458v338h163v-338h-163zM298 484q0 28 -16 46t-41 18v126q59 0 106 -25t74 -67.5t27 -97.5h-150zM178 469l-145 26q10 57 37.5 97t71.5 61t100 21v-126q-25 0 -42 -20.5t-22 -58.5zM382 214v120h226v-120h-226zM302 223q0 31 -20 51.5t-49 20.5v123q62 0 110.5 -25.5
t76.5 -69.5t28 -100h-146zM244 18q-103 0 -161 62t-58 171h150q0 -52 18.5 -81t50.5 -29v-123zM243 18v123q28 0 43.5 21.5t15.5 60.5h146q0 -64 -24.5 -110t-70 -70.5t-110.5 -24.5zM186 295v126h41v-126h-41zM226 295v126q31 0 51.5 18t20.5 46h150q0 -54 -29 -97t-79 -68
t-114 -25zM512 0v660h163v-660h-163zM553 547v113h213v-113h-213zM806 0v645h163v-645h-163zM716 547v113h344v-113h-344z" />
    <glyph glyph-name="uni0975" unicode="&#x975;" horiz-adv-x="1035" 
d="M836 666q16 36 9.5 54t-43.5 38l60 87q69 -36 101 -66t34.5 -65t-20.5 -86zM802 758q-68 35 -100.5 65t-34.5 65.5t20 86.5l141 -38q-16 -36 -9.5 -54.5t43.5 -37.5zM776 617q-3 40 -18 52.5t-57 10.5l9 106q77 3 119.5 -7t62 -39t26.5 -85zM701 680q-77 -3 -120 7
t-62.5 39t-26.5 85l142 38q4 -40 18.5 -52.5t57.5 -10.5zM298 484q0 28 -16 46t-41 18v126q59 0 106 -25t74 -67.5t27 -97.5h-150zM178 469l-145 26q10 57 37.5 97t71.5 61t100 21v-126q-25 0 -42 -20.5t-22 -58.5zM382 214v120h226v-120h-226zM302 223q0 31 -20 51.5
t-49 20.5v123q62 0 110.5 -25.5t76.5 -69.5t28 -100h-146zM244 18q-103 0 -161 62t-58 171h150q0 -52 18.5 -81t50.5 -29v-123zM243 18v123q28 0 43.5 21.5t15.5 60.5h146q0 -64 -24.5 -110t-70 -70.5t-110.5 -24.5zM186 295v126h41v-126h-41zM226 295v126q31 0 51.5 18
t20.5 46h150q0 -54 -29 -97t-79 -68t-114 -25zM512 0v660h163v-660h-163zM553 547v113h213v-113h-213zM806 0v645h163v-645h-163zM716 547v113h344v-113h-344z" />
    <glyph glyph-name="uni0976" unicode="&#x976;" horiz-adv-x="741" 
d="M298 484q0 28 -16 46t-41 18v126q59 0 106 -25t74 -67.5t27 -97.5h-150zM178 469l-145 26q10 57 37.5 97t71.5 61t100 21v-126q-25 0 -42 -20.5t-22 -58.5zM382 214v120h226v-120h-226zM302 223q0 31 -20 51.5t-49 20.5v123q62 0 110.5 -25.5t76.5 -69.5t28 -100h-146z
M244 18q-103 0 -161 62t-58 171h150q0 -52 18.5 -81t50.5 -29v-123zM243 18v123q28 0 43.5 21.5t15.5 60.5h146q0 -64 -24.5 -110t-70 -70.5t-110.5 -24.5zM186 295v126h41v-126h-41zM226 295v126q31 0 51.5 18t20.5 46h150q0 -54 -29 -97t-79 -68t-114 -25zM512 0v660h163
v-660h-163zM553 547v113h213v-113h-213zM390 -163v92q43 0 82.5 8.5t96.5 29.5l25 -87q-71 -24 -116 -33.5t-88 -9.5zM390 -163q-43 0 -88 9.5t-116 33.5l25 87q57 -21 96.5 -29.5t82.5 -8.5v-92z" />
    <glyph glyph-name="uni0977" unicode="&#x977;" horiz-adv-x="741" 
d="M298 484q0 28 -16 46t-41 18v126q59 0 106 -25t74 -67.5t27 -97.5h-150zM178 469l-145 26q10 57 37.5 97t71.5 61t100 21v-126q-25 0 -42 -20.5t-22 -58.5zM382 214v120h226v-120h-226zM302 223q0 31 -20 51.5t-49 20.5v123q62 0 110.5 -25.5t76.5 -69.5t28 -100h-146z
M244 18q-103 0 -161 62t-58 171h150q0 -52 18.5 -81t50.5 -29v-123zM243 18v123q28 0 43.5 21.5t15.5 60.5h146q0 -64 -24.5 -110t-70 -70.5t-110.5 -24.5zM186 295v126h41v-126h-41zM226 295v126q31 0 51.5 18t20.5 46h150q0 -54 -29 -97t-79 -68t-114 -25zM512 0v660h163
v-660h-163zM553 547v113h213v-113h-213zM385 -166v92q43 0 82.5 8.5t96.5 29.5l25 -87q-71 -24 -116 -33.5t-88 -9.5zM385 -166q-43 0 -88 9.5t-116 33.5l25 87q57 -21 96.5 -29.5t82.5 -8.5v-92zM385 -286v92q43 0 82.5 8.5t96.5 29.5l25 -87q-71 -24 -116 -33.5t-88 -9.5z
M385 -286q-43 0 -88 9.5t-116 33.5l25 87q57 -21 96.5 -29.5t82.5 -8.5v-92z" />
    <glyph glyph-name="uni0979" unicode="&#x979;" horiz-adv-x="714" 
d="M237 -223q-24 0 -40 16t-16 41q0 23 16 40t40 17t41 -17t17 -40q0 -25 -17 -41t-41 -16zM323 -103q-24 0 -40 16t-16 41q0 23 16 40t40 17t41 -17t17 -40q0 -25 -17 -41t-41 -16zM153 -103q-24 0 -40 16t-16 41q0 23 16 40t40 17t41 -17t17 -40q0 -25 -17 -41t-41 -16z
M234 30v118q24 0 39.5 31.5t10.5 71.5l141 10q9 -64 -15.5 -116.5t-70.5 -83.5t-105 -31zM235 30q-55 0 -99.5 25.5t-70 70t-25.5 99.5h146q0 -31 14 -54t35 -23v-118zM40 224v56l146 20v-76h-146zM284 251q-3 27 -14 50.5t-26.5 38t-33.5 14.5v59q73 0 118 -19.5t68 -53.5
t29 -79zM210 354v110h301v-110h-301zM-25 547v113h536v-113h-536zM485 0v645h163v-645h-163zM395 547v113h344v-113h-344z" />
    <glyph glyph-name="uni097B" unicode="&#x97b;" horiz-adv-x="647" 
d="M-25 547v113h393v-113h-393zM153 306v324h160v-324h-160zM168 127v140q23 0 35.5 8.5t12.5 31.5h97q0 -92 -35.5 -136t-109.5 -44zM28 187l60 110q49 -30 80 -30v-140q-76 0 -140 60zM28 187l60 120h152v-120h-212zM418 0v645h163v-645h-163zM328 547v113h344v-113h-344z
M70 -157v91h460v-91h-460z" />
    <glyph glyph-name="uni097C" unicode="&#x97c;" horiz-adv-x="714" 
d="M234 30v118q24 0 39.5 31.5t10.5 71.5l141 10q9 -64 -15.5 -116.5t-70.5 -83.5t-105 -31zM235 30q-55 0 -99.5 25.5t-70 70t-25.5 99.5h146q0 -31 14 -54t35 -23v-118zM40 224v56l146 20v-76h-146zM284 251q-3 27 -14 50.5t-26.5 38t-33.5 14.5v59q73 0 118 -19.5
t68 -53.5t29 -79zM210 354v110h301v-110h-301zM-25 547v113h536v-113h-536zM485 0v645h163v-645h-163zM395 547v113h344v-113h-344zM137 -157v91h460v-91h-460z" />
    <glyph glyph-name="uni097D" unicode="&#x97d;" horiz-adv-x="510" 
d="M165 244q0 45 13.5 77.5t33 58t39 48.5t33 48.5t13.5 58.5q0 36 -11 51.5t-31 15.5q-12 0 -21 -8.5t-13.5 -26.5t-4.5 -47h-166q0 62 27 110.5t73.5 76.5t104.5 28q59 0 105 -26t73 -71.5t27 -102.5q0 -40 -13.5 -68.5t-33 -52l-39 -47t-33 -53t-13.5 -70.5h-163zM165 81
v163h163v-163h-163z" />
    <glyph glyph-name="uni097E" unicode="&#x97e;" horiz-adv-x="511" 
d="M262 -15q-84 0 -138.5 39t-68.5 109l143 35q10 -30 27 -46.5t37 -16.5v-120zM-25 547v113h561v-113h-561zM251 -15v120q32 0 50 17t18 38h163q0 -79 -61 -127.5t-170 -47.5zM246 206q-94 0 -147.5 32t-53.5 99l163 5q0 -17 15.5 -21.5t42.5 -4.5zM319 160q0 20 -20.5 33
t-52.5 13l20 110q62 0 110.5 -20.5t77 -55.5t28.5 -80h-163zM45 337q0 71 61 110.5t170 39.5v-110q-32 0 -50 -9t-18 -26zM276 377v110h135v-110h-135zM275 430v200h136v-200h-136zM29 -159v91h460v-91h-460z" />
    <glyph glyph-name="uni097F" unicode="&#x97f;" horiz-adv-x="572" 
d="M343 231v65h88v-65h-88zM332 89l-184 331l48 36l184 -331zM-25 547v113h478v-113h-478zM36 251v24h156v-24h-156zM192 274h-156q0 62 26.5 110.5t71.5 76.5t102 28l34 -120q-22 0 -40 -12.5t-28 -34t-10 -48.5zM431 294h-88q0 32 -20.5 53.5t-52.5 21.5l-34 120
q56 0 100 -25.5t69.5 -69.5t25.5 -100zM192 252q0 -27 10 -48.5t28 -34t40 -12.5l-34 -120q-57 0 -102 28t-71.5 77t-26.5 110h156zM431 232q0 -55 -25.5 -99.5t-69.5 -70t-100 -25.5l34 120q32 0 52.5 21.5t20.5 53.5h88zM343 0v645h163v-645h-163zM253 547v113h344v-113
h-344zM54 -157v91h460v-91h-460z" />
    <glyph glyph-name="uni0FD5" unicode="&#xfd5;" horiz-adv-x="550" 
d="M217 30v490h116v-490h-116zM33 30v106h245v-106h-245zM30 272v245h106v-245h-106zM30 217v116h490v-116h-490zM414 33v245h106v-245h-106zM272 414v106h245v-106h-245z" />
    <glyph glyph-name="Wgrave" unicode="&#x1e80;" horiz-adv-x="890" 
d="M516 0l-136 720h130l146 -720h-140zM180 0l-140 720h160l140 -720h-160zM234 0l146 720h130l-136 -720h-140zM550 0l140 720h160l-140 -720h-160zM381 757l-97 148h138l65 -148h-106z" />
    <glyph glyph-name="wgrave" unicode="&#x1e81;" horiz-adv-x="798" 
d="M495 0l106 520h167l-136 -520h-137zM166 0l-136 520h167l106 -520h-137zM221 0l116 520h122l-126 -520h-112zM465 0l-126 520h122l116 -520h-112zM334 557l-97 148h138l65 -148h-106z" />
    <glyph glyph-name="Wacute" unicode="&#x1e82;" horiz-adv-x="890" 
d="M470 757h-106l65 148h138zM516 0l-136 720h130l146 -720h-140zM180 0l-140 720h160l140 -720h-160zM234 0l146 720h130l-136 -720h-140zM550 0l140 720h160l-140 -720h-160z" />
    <glyph glyph-name="wacute" unicode="&#x1e83;" horiz-adv-x="798" 
d="M423 557h-106l65 148h138zM495 0l106 520h167l-136 -520h-137zM166 0l-136 520h167l106 -520h-137zM221 0l116 520h122l-126 -520h-112zM465 0l-126 520h122l116 -520h-112z" />
    <glyph glyph-name="Wdieresis" unicode="&#x1e84;" horiz-adv-x="890" 
d="M516 0l-136 720h130l146 -720h-140zM180 0l-140 720h160l140 -720h-160zM234 0l146 720h130l-136 -720h-140zM550 0l140 720h160l-140 -720h-160zM345 764q-29 0 -47.5 19t-18.5 48q0 28 18.5 48t47.5 20q28 0 48.5 -20t20.5 -48q0 -29 -20.5 -48t-48.5 -19zM545 764
q-29 0 -47.5 19t-18.5 48q0 28 18.5 48t47.5 20q28 0 48.5 -20t20.5 -48q0 -29 -20.5 -48t-48.5 -19z" />
    <glyph glyph-name="wdieresis" unicode="&#x1e85;" horiz-adv-x="798" 
d="M495 0l106 520h167l-136 -520h-137zM166 0l-136 520h167l106 -520h-137zM221 0l116 520h122l-126 -520h-112zM465 0l-126 520h122l116 -520h-112zM298 564q-29 0 -47.5 19t-18.5 48q0 28 18.5 48t47.5 20q28 0 48.5 -20t20.5 -48q0 -29 -20.5 -48t-48.5 -19zM498 564
q-29 0 -47.5 19t-18.5 48q0 28 18.5 48t47.5 20q28 0 48.5 -20t20.5 -48q0 -29 -20.5 -48t-48.5 -19z" />
    <glyph glyph-name="Ygrave" unicode="&#x1ef2;" horiz-adv-x="566" 
d="M211 258l180 462h145l-180 -462h-145zM210 0v258h146v-258h-146zM210 258l-180 462h176l150 -462h-146zM218 777l-97 148h138l65 -148h-106z" />
    <glyph glyph-name="ygrave" unicode="&#x1ef3;" horiz-adv-x="543" 
d="M77 -180l38 128q42 -11 65.5 -4.5t31.5 32.5h138q-33 -109 -99.5 -147t-173.5 -9zM213 -24l133 544h167l-163 -544h-137zM213 -90l-183 610h167l92 -376zM207 557l-97 148h138l65 -148h-106z" />
    <glyph glyph-name="endash" unicode="&#x2013;" horiz-adv-x="484" 
d="M50 274v126h384v-126h-384z" />
    <glyph glyph-name="emdash" unicode="&#x2014;" horiz-adv-x="676" 
d="M50 274v126h576v-126h-576z" />
    <glyph glyph-name="quoteleft" unicode="&#x2018;" horiz-adv-x="301" 
d="M151 612q39 0 64 -25t25 -64q0 -37 -25 -64t-64 -27q-37 0 -64 27t-27 64q0 39 27 64t64 25zM241 711q-19 -29 -31.5 -49t-20 -37.5t-10.5 -38.5t-3 -53l-116 -10q0 42 13.5 80t36 75.5t49.5 77.5z" />
    <glyph glyph-name="quoteright" unicode="&#x2019;" horiz-adv-x="301" 
d="M60 458q19 29 31.5 49t20 37.5t10.5 39t3 52.5l116 10q0 -42 -13.5 -80t-36 -75t-49.5 -78zM150 557q-39 0 -64 25t-25 64q0 38 25 64.5t64 26.5q38 0 64.5 -26.5t26.5 -64.5q0 -39 -26.5 -64t-64.5 -25z" />
    <glyph glyph-name="quotesinglbase" unicode="&#x201a;" horiz-adv-x="281" 
d="M50 -95q19 29 31.5 49t20 37.5t10.5 39t3 52.5l116 10q0 -42 -13.5 -80t-36 -75t-49.5 -78zM140 4q-39 0 -64 25t-25 64q0 38 25 64.5t64 26.5q38 0 64.5 -26.5t26.5 -64.5q0 -39 -26.5 -64t-64.5 -25z" />
    <glyph glyph-name="quotedblleft" unicode="&#x201c;" horiz-adv-x="521" 
d="M151 612q39 0 64 -25t25 -64q0 -37 -25 -64t-64 -27q-37 0 -64 27t-27 64q0 39 27 64t64 25zM241 711q-19 -29 -31.5 -49t-20 -37.5t-10.5 -38.5t-3 -53l-116 -10q0 42 13.5 80t36 75.5t49.5 77.5zM371 612q39 0 64 -25t25 -64q0 -37 -25 -64t-64 -27q-37 0 -64 27
t-27 64q0 39 27 64t64 25zM461 711q-19 -29 -31.5 -49t-20 -37.5t-10.5 -38.5t-3 -53l-116 -10q0 42 13.5 80t36 75.5t49.5 77.5z" />
    <glyph glyph-name="quotedblright" unicode="&#x201d;" horiz-adv-x="521" 
d="M280 457q19 29 31.5 49t20 37.5t10.5 39t3 52.5l116 10q0 -42 -13.5 -80t-36 -75t-49.5 -78zM370 556q-39 0 -64 25t-25 64q0 38 25 64.5t64 26.5q38 0 64.5 -26.5t26.5 -64.5q0 -39 -26.5 -64t-64.5 -25zM60 457q19 29 31.5 49t20 37.5t10.5 39t3 52.5l116 10
q0 -42 -13.5 -80t-36 -75t-49.5 -78zM150 556q-39 0 -64 25t-25 64q0 38 25 64.5t64 26.5q38 0 64.5 -26.5t26.5 -64.5q0 -39 -26.5 -64t-64.5 -25z" />
    <glyph glyph-name="quotedblbase" unicode="&#x201e;" horiz-adv-x="500" 
d="M269 -95q19 29 31.5 49t20 37.5t10.5 39t3 52.5l116 10q0 -42 -13.5 -80t-36 -75t-49.5 -78zM359 4q-39 0 -64 25t-25 64q0 38 25 64.5t64 26.5q38 0 64.5 -26.5t26.5 -64.5q0 -39 -26.5 -64t-64.5 -25zM50 -95q19 29 31.5 49t20 37.5t10.5 39t3 52.5l116 10
q0 -42 -13.5 -80t-36 -75t-49.5 -78zM140 4q-39 0 -64 25t-25 64q0 38 25 64.5t64 26.5q38 0 64.5 -26.5t26.5 -64.5q0 -39 -26.5 -64t-64.5 -25z" />
    <glyph glyph-name="bullet" unicode="&#x2022;" horiz-adv-x="370" 
d="M184 202q-59 0 -96.5 37.5t-37.5 96.5q0 37 17 68t47.5 49.5t69.5 18.5q37 0 68 -18.5t49.5 -49.5t18.5 -68q0 -39 -18.5 -69.5t-49.5 -47.5t-68 -17z" />
    <glyph glyph-name="ellipsis" unicode="&#x2026;" horiz-adv-x="740" 
d="M369 -16q-39 0 -64 25t-25 64q0 38 25 64.5t64 26.5q38 0 64.5 -26.5t26.5 -64.5q0 -39 -26.5 -64t-64.5 -25zM139 -16q-39 0 -64 25t-25 64q0 38 25 64.5t64 26.5q38 0 64.5 -26.5t26.5 -64.5q0 -39 -26.5 -64t-64.5 -25zM599 -16q-39 0 -64 25t-25 64q0 38 25 64.5
t64 26.5q38 0 64.5 -26.5t26.5 -64.5q0 -39 -26.5 -64t-64.5 -25z" />
    <glyph glyph-name="guilsinglleft" unicode="&#x2039;" horiz-adv-x="466" 
d="M176 224v158l270 196v-152zM176 154l-156 114l156 114v-228zM446 -42l-270 196v158l270 -202v-152z" />
    <glyph glyph-name="guilsinglright" unicode="&#x203a;" horiz-adv-x="466" 
d="M290 224l-270 202v152l270 -196v-158zM290 154v228l156 -114zM20 -42v152l270 202v-158z" />
    <glyph glyph-name="fraction" unicode="&#x2044;" horiz-adv-x="256" 
d="M-50 -15l311 806h95l-311 -806h-95z" />
    <glyph glyph-name="uni2074" unicode="&#x2074;" horiz-adv-x="325" 
d="M55 563l71 211h75l-72 -211h-74zM55 506v57h215v-57h-215zM172 450v180h69v-180h-69z" />
    <glyph glyph-name="Euro" unicode="&#x20ac;" horiz-adv-x="612" 
d="M143 204v312h166v-312h-166zM60 241v90h410v-90h-410zM60 390v90h410v-90h-410zM143 515q0 63 30 113t82.5 78.5t117.5 28.5v-126q-30 0 -47 -25t-17 -69h-166zM143 205h166q0 -44 17 -69t47 -25v-126q-65 0 -117.5 29t-82.5 78.5t-30 112.5zM437 530q-5 38 -21.5 58.5
t-42.5 20.5v126q57 0 100.5 -21t71.5 -61t37 -97zM436 190l145 -26q-9 -56 -37 -96.5t-71.5 -61.5t-100.5 -21v126q26 0 42.5 21t21.5 58z" />
    <glyph glyph-name="uni20B9" unicode="&#x20b9;" horiz-adv-x="595" 
d="M60 453v96h475v-96h-475zM306 0l-175 317h170l176 -317h-171zM279 50l-182 327h170l182 -327h-170zM166 288l-29 89q44 0 77.5 17.5t52.5 50t19 77.5h163q-1 -110 -47.5 -172t-147.5 -62h-88zM286 522v173h163v-173h-163zM60 597v113h475v-113h-475z" />
    <glyph glyph-name="trademark" unicode="&#x2122;" horiz-adv-x="566" 
d="M88 406v302h70v-302h-70zM20 655v53h206v-53h-206zM436 406v302h70v-302h-70zM350 406l66 302h50l-65 -302h-51zM349 406l-66 302h51l65 -302h-50zM243 406v302h70v-302h-70z" />
    <glyph glyph-name="oneeighth" unicode="&#x215b;" horiz-adv-x="969" 
d="M129 297v475h109v-475h-109zM77 589l-59 62l111 121v-126zM804 150q0 34 -12 53t-33 19v57q73 0 114 -36t41 -100zM759 -11q-74 0 -114.5 39.5t-40.5 110.5l109 7q0 -35 12 -54t34 -19v-84zM604 139v4l109 7v-4zM759 -11v84q21 0 33 19t12 54l110 -7q0 -71 -41 -110.5
t-114 -39.5zM604 143q0 64 40.5 100t114.5 36v-57q-22 0 -34 -19t-12 -53zM804 146v4l110 -7v-4zM759 222q-71 0 -110 32.5t-39 90.5l109 -6q0 -29 10.5 -44.5t29.5 -15.5v-57zM610 345v4l109 -6v-4zM759 222v57q19 0 29 15.5t10 44.5l110 6q0 -58 -39.5 -90.5t-109.5 -32.5
zM610 349q0 64 39 100t110 36v-83q-19 0 -29.5 -15.5t-10.5 -43.5zM798 339v4l110 6v-4zM798 343q0 28 -10 43.5t-29 15.5v83q70 0 109.5 -36t39.5 -100zM243 -15l311 806h95l-311 -806h-95z" />
    <glyph glyph-name="threeeighths" unicode="&#x215c;" horiz-adv-x="1082" 
d="M192 500v83q19 0 29 16t10 45h110q0 -68 -39.5 -106t-109.5 -38zM241 431v8h110v-8h-110zM153 500v83h40v-83h-40zM231 644q0 26 -10 40.5t-29 14.5v83q70 0 109.5 -36.5t39.5 -101.5h-110zM351 432q0 -42 -20 -75t-54.5 -52t-77.5 -19v84q20 0 31 16t11 46h110zM351 438
h-110q0 29 -11 45.5t-31 16.5v83q43 0 77.5 -19t54.5 -51.5t20 -74.5zM151 647l-96 17q9 56 45.5 87t92.5 31v-83q-17 0 -28 -13.5t-14 -38.5zM157 422q4 -25 15 -38.5t28 -13.5v-84q-56 0 -92.5 31.5t-45.5 87.5zM917 150q0 34 -12 53t-33 19v57q73 0 114 -36t41 -100z
M872 -11q-74 0 -114.5 39.5t-40.5 110.5l109 7q0 -35 12 -54t34 -19v-84zM717 139v4l109 7v-4zM872 -11v84q21 0 33 19t12 54l110 -7q0 -71 -41 -110.5t-114 -39.5zM717 143q0 64 40.5 100t114.5 36v-57q-22 0 -34 -19t-12 -53zM917 146v4l110 -7v-4zM872 222
q-71 0 -110 32.5t-39 90.5l109 -6q0 -29 10.5 -44.5t29.5 -15.5v-57zM723 345v4l109 -6v-4zM872 222v57q19 0 29 15.5t10 44.5l110 6q0 -58 -39.5 -90.5t-109.5 -32.5zM723 349q0 64 39 100t110 36v-83q-19 0 -29.5 -15.5t-10.5 -43.5zM911 339v4l110 6v-4zM911 343
q0 28 -10 43.5t-29 15.5v83q70 0 109.5 -36t39.5 -100zM356 -15l311 806h95l-311 -806h-95z" />
    <glyph glyph-name="fiveeighths" unicode="&#x215d;" horiz-adv-x="1071" 
d="M61 498v274h96v-274h-96zM231 444v48h109v-48h-109zM61 689v83h264v-83h-264zM231 492q0 30 -11.5 46.5t-31.5 16.5l22 79q38 0 67 -18.5t46 -50.5t17 -73h-109zM99 499q0 58 31.5 96.5t79.5 38.5l-22 -79q-15 0 -23 -15t-8 -41h-58zM340 446q0 -46 -19 -81.5t-53 -56.5
t-76 -21v83q18 0 28.5 20t10.5 56h109zM150 422q4 -25 15 -38.5t28 -13.5v-84q-56 0 -92.5 31.5t-45.5 87.5zM906 150q0 34 -12 53t-33 19v57q73 0 114 -36t41 -100zM861 -11q-74 0 -114.5 39.5t-40.5 110.5l109 7q0 -35 12 -54t34 -19v-84zM706 139v4l109 7v-4zM861 -11v84
q21 0 33 19t12 54l110 -7q0 -71 -41 -110.5t-114 -39.5zM706 143q0 64 40.5 100t114.5 36v-57q-22 0 -34 -19t-12 -53zM906 146v4l110 -7v-4zM861 222q-71 0 -110 32.5t-39 90.5l109 -6q0 -29 10.5 -44.5t29.5 -15.5v-57zM712 345v4l109 -6v-4zM861 222v57q19 0 29 15.5
t10 44.5l110 6q0 -58 -39.5 -90.5t-109.5 -32.5zM712 349q0 64 39 100t110 36v-83q-19 0 -29.5 -15.5t-10.5 -43.5zM900 339v4l110 6v-4zM900 343q0 28 -10 43.5t-29 15.5v83q70 0 109.5 -36t39.5 -100zM345 -15l311 806h95l-311 -806h-95z" />
    <glyph glyph-name="seveneighths" unicode="&#x215e;" horiz-adv-x="972" 
d="M104 297l138 392h109l-138 -392h-109zM55 689v83h296v-83h-296zM807 150q0 34 -12 53t-33 19v57q73 0 114 -36t41 -100zM762 -11q-74 0 -114.5 39.5t-40.5 110.5l109 7q0 -35 12 -54t34 -19v-84zM607 139v4l109 7v-4zM762 -11v84q21 0 33 19t12 54l110 -7
q0 -71 -41 -110.5t-114 -39.5zM607 143q0 64 40.5 100t114.5 36v-57q-22 0 -34 -19t-12 -53zM807 146v4l110 -7v-4zM762 222q-71 0 -110 32.5t-39 90.5l109 -6q0 -29 10.5 -44.5t29.5 -15.5v-57zM613 345v4l109 -6v-4zM762 222v57q19 0 29 15.5t10 44.5l110 6
q0 -58 -39.5 -90.5t-109.5 -32.5zM613 349q0 64 39 100t110 36v-83q-19 0 -29.5 -15.5t-10.5 -43.5zM801 339v4l110 6v-4zM801 343q0 28 -10 43.5t-29 15.5v83q70 0 109.5 -36t39.5 -100zM246 -15l311 806h95l-311 -806h-95z" />
    <glyph glyph-name="minus" unicode="&#x2212;" horiz-adv-x="500" 
d="M30 277v126h440v-126h-440z" />
    <glyph glyph-name="uni2215" unicode="&#x2215;" horiz-adv-x="390" 
d="M25 16l211 720h129l-211 -720h-129z" />
    <glyph glyph-name="approxequal" unicode="&#x2248;" horiz-adv-x="572" 
d="M378 310q-27 0 -47.5 8t-37 20t-31.5 24t-31 20t-37 8v114q27 0 47.5 -8t37 -20t31.5 -24t31 -20t37 -8v-114zM30 347q2 74 45 115.5t119 41.5v-114q-21 0 -33.5 -11.5t-13.5 -31.5h-117zM378 310v114q21 0 33.5 11.5t13.5 31.5h117q-1 -74 -44.5 -115.5t-119.5 -41.5z
M378 90q-27 0 -47.5 8t-37 20t-31.5 24t-31 20t-37 8v114q27 0 47.5 -8t37 -20t31.5 -24t31 -20t37 -8v-114zM30 127q2 74 45 115.5t119 41.5v-114q-21 0 -33.5 -11.5t-13.5 -31.5h-117zM378 90v114q21 0 33.5 11.5t13.5 31.5h117q-1 -74 -44.5 -115.5t-119.5 -41.5z" />
    <glyph glyph-name="notequal" unicode="&#x2260;" horiz-adv-x="430" 
d="M35 92l275 490h86l-275 -490h-86zM30 375v126h370v-126h-370zM30 175v126h370v-126h-370z" />
    <glyph glyph-name="lessequal" unicode="&#x2264;" horiz-adv-x="411" 
d="M30 343v146l351 178v-146zM381 165l-351 178v146l351 -178v-146zM381 -16l-351 178v136l351 -178v-136z" />
    <glyph glyph-name="greaterequal" unicode="&#x2265;" horiz-adv-x="411" 
d="M30 -16v136l351 178v-136zM381 343l-351 178v146l351 -178v-146zM30 165v146l351 178v-146z" />
    <glyph glyph-name="uni25CC" unicode="&#x25cc;" horiz-adv-x="641" 
d="M336 42q-20 0 -32.5 12.5t-12.5 32.5q0 18 12.5 31.5t32.5 13.5q18 0 31.5 -13.5t13.5 -31.5q0 -20 -13.5 -32.5t-31.5 -12.5zM336 542q-20 0 -32.5 12.5t-12.5 32.5q0 18 12.5 31.5t32.5 13.5q18 0 31.5 -13.5t13.5 -31.5q0 -20 -13.5 -32.5t-31.5 -12.5zM609 368
q10 -17 5.5 -34t-21.5 -27q-16 -9 -34 -5t-28 21q-9 16 -4 34.5t21 27.5q17 10 34.5 4.5t26.5 -21.5zM109 368q10 -17 5.5 -34t-21.5 -27q-16 -9 -34 -5t-28 21q-9 16 -4 34.5t21 27.5q17 10 34.5 4.5t26.5 -21.5zM495 106q-10 -17 -27 -21.5t-34 5.5q-16 9 -21.5 26.5
t4.5 34.5q9 16 27.5 21t34.5 -4q17 -10 21 -28t-5 -34zM245 539q-10 -17 -27 -21.5t-34 5.5q-16 9 -21.5 26.5t4.5 34.5q9 16 27.5 21t34.5 -4q17 -10 21 -28t-5 -34zM556 506q17 -10 21.5 -27t-5.5 -34q-9 -16 -26.5 -21.5t-34.5 4.5q-16 9 -21 27.5t4 34.5q10 17 28 21
t34 -5zM123 256q17 -10 21.5 -27t-5.5 -34q-9 -16 -26.5 -21.5t-34.5 4.5q-16 9 -21 27.5t4 34.5q10 17 28 21t34 -5zM587 222q0 -20 -12.5 -32.5t-31.5 -12.5t-32.5 12.5t-13.5 32.5q0 18 13.5 31.5t32.5 13.5t31.5 -13.5t12.5 -31.5zM154 472q0 -20 -12.5 -32.5
t-31.5 -12.5t-32.5 12.5t-13.5 32.5q0 18 13.5 31.5t32.5 13.5t31.5 -13.5t12.5 -31.5zM441 598q19 0 31.5 -12.5t12.5 -31.5t-12.5 -32.5t-31.5 -13.5t-32.5 13.5t-13.5 32.5t13.5 31.5t32.5 12.5zM191 165q19 0 31.5 -12.5t12.5 -31.5t-12.5 -32.5t-31.5 -13.5t-32.5 13.5
t-13.5 32.5t13.5 31.5t32.5 12.5z" />
    <glyph glyph-name="I.ss01" horiz-adv-x="430" 
d="M132 0v720h166v-720h-166zM20 594v126h390v-126h-390zM20 0v126h390v-126h-390z" />
    <glyph glyph-name="Iacute.ss01" horiz-adv-x="430" 
d="M239 757h-106l65 148h138zM132 0v720h166v-720h-166zM20 594v126h390v-126h-390zM20 0v126h390v-126h-390z" />
    <glyph glyph-name="Icircumflex.ss01" horiz-adv-x="430" 
d="M134 925h106l-65 -148h-138zM295 925l97 -148h-138l-65 148h106zM132 0v720h166v-720h-166zM20 594v126h390v-126h-390zM20 0v126h390v-126h-390z" />
    <glyph glyph-name="Idieresis.ss01" horiz-adv-x="430" 
d="M132 0v720h166v-720h-166zM20 594v126h390v-126h-390zM20 0v126h390v-126h-390zM114 764q-29 0 -47.5 19t-18.5 48q0 28 18.5 48t47.5 20q28 0 48.5 -20t20.5 -48q0 -29 -20.5 -48t-48.5 -19zM314 764q-29 0 -47.5 19t-18.5 48q0 28 18.5 48t47.5 20q28 0 48.5 -20
t20.5 -48q0 -29 -20.5 -48t-48.5 -19z" />
    <glyph glyph-name="Igrave.ss01" horiz-adv-x="430" 
d="M132 0v720h166v-720h-166zM20 594v126h390v-126h-390zM20 0v126h390v-126h-390zM150 757l-97 148h138l65 -148h-106z" />
    <glyph glyph-name="Imacron.ss01" horiz-adv-x="430" 
d="M53 791v94h320v-94h-320zM132 0v720h166v-720h-166zM20 594v126h390v-126h-390zM20 0v126h390v-126h-390z" />
    <glyph glyph-name="J.ss01" horiz-adv-x="450" 
d="M181 193v527h166v-527h-166zM20 594v126h410v-126h-410zM347 194q0 -99 -54 -154.5t-151 -55.5l-20 126q19 0 32 10t20 29t7 45h166zM78 127q9 -8 20 -12.5t24 -4.5l20 -126q-32 0 -61.5 9t-60.5 31z" />
    <glyph glyph-name="Y.ss03" horiz-adv-x="566" 
d="M130 0l261 720h145l-261 -720h-145zM246 191l-216 529h176l160 -462z" />
    <glyph glyph-name="Yacute.ss03" horiz-adv-x="566" 
d="M307 777h-106l65 148h138zM130 0l261 720h145l-261 -720h-145zM246 191l-216 529h176l160 -462z" />
    <glyph glyph-name="Ycircumflex.ss03" horiz-adv-x="566" 
d="M202 945h106l-65 -148h-138zM363 945l97 -148h-138l-65 148h106zM130 0l261 720h145l-261 -720h-145zM246 191l-216 529h176l160 -462z" />
    <glyph glyph-name="Ydieresis.ss03" horiz-adv-x="566" 
d="M130 0l261 720h145l-261 -720h-145zM246 191l-216 529h176l160 -462zM182 784q-29 0 -47.5 19t-18.5 48q0 28 18.5 48t47.5 20q28 0 48.5 -20t20.5 -48q0 -29 -20.5 -48t-48.5 -19zM382 784q-29 0 -47.5 19t-18.5 48q0 28 18.5 48t47.5 20q28 0 48.5 -20t20.5 -48
q0 -29 -20.5 -48t-48.5 -19z" />
    <glyph glyph-name="Ygrave.ss03" horiz-adv-x="566" 
d="M130 0l261 720h145l-261 -720h-145zM246 191l-216 529h176l160 -462zM218 777l-97 148h138l65 -148h-106z" />
    <glyph glyph-name="a.ss02" horiz-adv-x="520" 
d="M30 194v132h166v-132h-166zM196 326h-166q0 60 23 107.5t62.5 75t89.5 27.5l50 -126q-28 0 -43.5 -22t-15.5 -62zM370 316h-46q0 44 -18.5 69t-50.5 25l-50 126q47 0 84.5 -28.5t59 -78.5t21.5 -113zM196 194q0 -40 15.5 -62t43.5 -22l-50 -126q-50 0 -89.5 27.5
t-62.5 75t-23 107.5h166zM370 204q0 -63 -21.5 -112.5t-59 -78.5t-84.5 -29l50 126q32 0 50.5 25t18.5 69h46zM324 0v520h166v-520h-166z" />
    <glyph glyph-name="aacute.ss02" horiz-adv-x="520" 
d="M279 577h-106l65 148h138zM30 194v132h166v-132h-166zM196 326h-166q0 60 23 107.5t62.5 75t89.5 27.5l50 -126q-28 0 -43.5 -22t-15.5 -62zM370 316h-46q0 44 -18.5 69t-50.5 25l-50 126q47 0 84.5 -28.5t59 -78.5t21.5 -113zM196 194q0 -40 15.5 -62t43.5 -22l-50 -126
q-50 0 -89.5 27.5t-62.5 75t-23 107.5h166zM370 204q0 -63 -21.5 -112.5t-59 -78.5t-84.5 -29l50 126q32 0 50.5 25t18.5 69h46zM324 0v520h166v-520h-166z" />
    <glyph glyph-name="acircumflex.ss02" horiz-adv-x="520" 
d="M174 745h106l-65 -148h-138zM335 745l97 -148h-138l-65 148h106zM30 194v132h166v-132h-166zM196 326h-166q0 60 23 107.5t62.5 75t89.5 27.5l50 -126q-28 0 -43.5 -22t-15.5 -62zM370 316h-46q0 44 -18.5 69t-50.5 25l-50 126q47 0 84.5 -28.5t59 -78.5t21.5 -113z
M196 194q0 -40 15.5 -62t43.5 -22l-50 -126q-50 0 -89.5 27.5t-62.5 75t-23 107.5h166zM370 204q0 -63 -21.5 -112.5t-59 -78.5t-84.5 -29l50 126q32 0 50.5 25t18.5 69h46zM324 0v520h166v-520h-166z" />
    <glyph glyph-name="adieresis.ss02" horiz-adv-x="520" 
d="M30 194v132h166v-132h-166zM196 326h-166q0 60 23 107.5t62.5 75t89.5 27.5l50 -126q-28 0 -43.5 -22t-15.5 -62zM370 316h-46q0 44 -18.5 69t-50.5 25l-50 126q47 0 84.5 -28.5t59 -78.5t21.5 -113zM196 194q0 -40 15.5 -62t43.5 -22l-50 -126q-50 0 -89.5 27.5
t-62.5 75t-23 107.5h166zM370 204q0 -63 -21.5 -112.5t-59 -78.5t-84.5 -29l50 126q32 0 50.5 25t18.5 69h46zM324 0v520h166v-520h-166zM154 584q-29 0 -47.5 19t-18.5 48q0 28 18.5 48t47.5 20q28 0 48.5 -20t20.5 -48q0 -29 -20.5 -48t-48.5 -19zM354 584q-29 0 -47.5 19
t-18.5 48q0 28 18.5 48t47.5 20q28 0 48.5 -20t20.5 -48q0 -29 -20.5 -48t-48.5 -19z" />
    <glyph glyph-name="agrave.ss02" horiz-adv-x="520" 
d="M30 194v132h166v-132h-166zM196 326h-166q0 60 23 107.5t62.5 75t89.5 27.5l50 -126q-28 0 -43.5 -22t-15.5 -62zM370 316h-46q0 44 -18.5 69t-50.5 25l-50 126q47 0 84.5 -28.5t59 -78.5t21.5 -113zM196 194q0 -40 15.5 -62t43.5 -22l-50 -126q-50 0 -89.5 27.5
t-62.5 75t-23 107.5h166zM370 204q0 -63 -21.5 -112.5t-59 -78.5t-84.5 -29l50 126q32 0 50.5 25t18.5 69h46zM324 0v520h166v-520h-166zM190 577l-97 148h138l65 -148h-106z" />
    <glyph glyph-name="amacron.ss02" horiz-adv-x="520" 
d="M93 611v94h320v-94h-320zM30 194v132h166v-132h-166zM196 326h-166q0 60 23 107.5t62.5 75t89.5 27.5l50 -126q-28 0 -43.5 -22t-15.5 -62zM370 316h-46q0 44 -18.5 69t-50.5 25l-50 126q47 0 84.5 -28.5t59 -78.5t21.5 -113zM196 194q0 -40 15.5 -62t43.5 -22l-50 -126
q-50 0 -89.5 27.5t-62.5 75t-23 107.5h166zM370 204q0 -63 -21.5 -112.5t-59 -78.5t-84.5 -29l50 126q32 0 50.5 25t18.5 69h46zM324 0v520h166v-520h-166z" />
    <glyph glyph-name="aring.ss02" horiz-adv-x="520" 
d="M30 194v132h166v-132h-166zM196 326h-166q0 60 23 107.5t62.5 75t89.5 27.5l50 -126q-28 0 -43.5 -22t-15.5 -62zM370 316h-46q0 44 -18.5 69t-50.5 25l-50 126q47 0 84.5 -28.5t59 -78.5t21.5 -113zM196 194q0 -40 15.5 -62t43.5 -22l-50 -126q-50 0 -89.5 27.5
t-62.5 75t-23 107.5h166zM370 204q0 -63 -21.5 -112.5t-59 -78.5t-84.5 -29l50 126q32 0 50.5 25t18.5 69h46zM324 0v520h166v-520h-166zM291 704q0 17 -10 29t-26 12v68q53 0 88.5 -31t35.5 -78h-88zM255 595q-53 0 -88.5 31.5t-35.5 77.5h88q0 -17 10 -29t26 -12v-68z
M255 595v68q16 0 26 12t10 29h88q0 -46 -35.5 -77.5t-88.5 -31.5zM131 704q0 47 35.5 78t88.5 31v-68q-16 0 -26 -12t-10 -29h-88z" />
    <glyph glyph-name="atilde.ss02" horiz-adv-x="520" 
d="M30 194v132h166v-132h-166zM196 326h-166q0 60 23 107.5t62.5 75t89.5 27.5l50 -126q-28 0 -43.5 -22t-15.5 -62zM370 316h-46q0 44 -18.5 69t-50.5 25l-50 126q47 0 84.5 -28.5t59 -78.5t21.5 -113zM196 194q0 -40 15.5 -62t43.5 -22l-50 -126q-50 0 -89.5 27.5
t-62.5 75t-23 107.5h166zM370 204q0 -63 -21.5 -112.5t-59 -78.5t-84.5 -29l50 126q32 0 50.5 25t18.5 69h46zM324 0v520h166v-520h-166zM320 579q-30 0 -47.5 10.5t-29 23.5t-23 23.5t-30.5 10.5v85q30 0 47.5 -10.5t29 -23.5t23 -23.5t30.5 -10.5v-85zM66 605
q0 60 33 93.5t91 33.5v-85q-12 0 -19 -11t-7 -31h-98zM320 579v85q12 0 19 11.5t7 30.5h98q0 -60 -32.5 -93.5t-91.5 -33.5z" />
    <glyph glyph-name="ae.ss02" horiz-adv-x="844" 
d="M451 219v90h358v-90h-358zM580 -16v126h10v-126h-10zM355 223v74h166v-74h-166zM643 309v8h166v-8h-166zM809 316h-166q0 44 -17 69t-47 25v126q66 0 118 -28.5t82 -78.5t30 -113zM654 189l145 -26q-9 -56 -37 -96.5t-71.5 -61.5t-100.5 -21v126q26 0 42.5 21t21.5 58z
M355 296q0 69 29.5 123t80.5 85.5t115 31.5v-126q-28 0 -43.5 -30t-15.5 -84h-166zM355 224h166q0 -54 15.5 -84t43.5 -30v-126q-64 0 -115 31.5t-80.5 86t-29.5 122.5zM45 194v132h166v-132h-166zM211 326h-166q0 60 23 107.5t62.5 75t89.5 27.5l50 -126q-28 0 -43.5 -22
t-15.5 -62zM385 316h-46q0 44 -18.5 69t-50.5 25l-50 126q47 0 84.5 -28.5t59 -78.5t21.5 -113zM211 194q0 -40 15.5 -62t43.5 -22l-50 -126q-50 0 -89.5 27.5t-62.5 75t-23 107.5h166zM385 204q0 -63 -21.5 -112.5t-59 -78.5t-84.5 -29l50 126q32 0 50.5 25t18.5 69h46z
M339 0v520h166v-520h-166z" />
    <glyph glyph-name="y.ss03" horiz-adv-x="543" 
d="M166 -184l180 704h167l-210 -704h-137zM213 -90l-183 610h167l92 -376z" />
    <glyph glyph-name="yacute.ss03" horiz-adv-x="543" 
d="M306 557h-106l65 148h138zM166 -184l180 704h167l-210 -704h-137zM213 -90l-183 610h167l92 -376z" />
    <glyph glyph-name="ycircumflex.ss03" horiz-adv-x="543" 
d="M201 725h106l-65 -148h-138zM362 725l97 -148h-138l-65 148h106zM166 -184l180 704h167l-210 -704h-137zM213 -90l-183 610h167l92 -376z" />
    <glyph glyph-name="ydieresis.ss03" horiz-adv-x="543" 
d="M166 -184l180 704h167l-210 -704h-137zM213 -90l-183 610h167l92 -376zM181 564q-29 0 -47.5 19t-18.5 48q0 28 18.5 48t47.5 20q28 0 48.5 -20t20.5 -48q0 -29 -20.5 -48t-48.5 -19zM381 564q-29 0 -47.5 19t-18.5 48q0 28 18.5 48t47.5 20q28 0 48.5 -20t20.5 -48
q0 -29 -20.5 -48t-48.5 -19z" />
    <glyph glyph-name="ygrave.ss03" horiz-adv-x="543" 
d="M166 -184l180 704h167l-210 -704h-137zM213 -90l-183 610h167l92 -376zM217 557l-97 148h138l65 -148h-106z" />
    <glyph glyph-name="ordfeminine.ss02" horiz-adv-x="434" 
d="M265 333v390h125v-390h-125zM45 479v99h124v-99h-124zM169 578h-124q0 45 17 80.5t46.5 56t67.5 20.5l37 -94q-21 0 -32.5 -17t-11.5 -46zM300 570h-35q0 33 -14 52t-38 19l-37 94q35 0 63 -21.5t44.5 -59t16.5 -84.5zM169 479q0 -30 11.5 -46.5t32.5 -16.5l-37 -95
q-38 0 -67.5 20.5t-46.5 56.5t-17 81h124zM300 486q0 -47 -16.5 -84.5t-44.5 -59t-63 -21.5l37 95q24 0 38 18.5t14 51.5h35z" />
    <glyph glyph-name="uniA7330902" horiz-adv-x="1035" 
d="M746 717q-35 0 -57.5 22.5t-22.5 57.5q0 33 22.5 57.5t57.5 24.5q34 0 58 -24.5t24 -57.5q0 -35 -24 -57.5t-58 -22.5zM298 484q0 28 -16 46t-41 18v126q59 0 106 -25t74 -67.5t27 -97.5h-150zM178 469l-145 26q10 57 37.5 97t71.5 61t100 21v-126q-25 0 -42 -20.5
t-22 -58.5zM382 214v120h226v-120h-226zM302 223q0 31 -20 51.5t-49 20.5v123q62 0 110.5 -25.5t76.5 -69.5t28 -100h-146zM244 18q-103 0 -161 62t-58 171h150q0 -52 18.5 -81t50.5 -29v-123zM243 18v123q28 0 43.5 21.5t15.5 60.5h146q0 -64 -24.5 -110t-70 -70.5
t-110.5 -24.5zM186 295v126h41v-126h-41zM226 295v126q31 0 51.5 18t20.5 46h150q0 -54 -29 -97t-79 -68t-114 -25zM512 0v660h163v-660h-163zM553 547v113h213v-113h-213zM806 0v645h163v-645h-163zM716 547v113h344v-113h-344z" />
    <glyph glyph-name="uni006F0902" horiz-adv-x="1035" 
d="M987 767q-35 0 -57.5 22.5t-22.5 57.5q0 33 22.5 57.5t57.5 24.5q34 0 58 -24.5t24 -57.5q0 -35 -24 -57.5t-58 -22.5zM298 484q0 28 -16 46t-41 18v126q59 0 106 -25t74 -67.5t27 -97.5h-150zM178 469l-145 26q10 57 37.5 97t71.5 61t100 21v-126q-25 0 -42 -20.5
t-22 -58.5zM382 214v120h226v-120h-226zM302 223q0 31 -20 51.5t-49 20.5v123q62 0 110.5 -25.5t76.5 -69.5t28 -100h-146zM244 18q-103 0 -161 62t-58 171h150q0 -52 18.5 -81t50.5 -29v-123zM243 18v123q28 0 43.5 21.5t15.5 60.5h146q0 -64 -24.5 -110t-70 -70.5
t-110.5 -24.5zM186 295v126h41v-126h-41zM226 295v126q31 0 51.5 18t20.5 46h150q0 -54 -29 -97t-79 -68t-114 -25zM512 0v660h163v-660h-163zM553 547v113h213v-113h-213zM806 0v645h163v-645h-163zM716 547v113h344v-113h-344zM786 660l-81 126l122 60l119 -186h-160z
M705 786q-16 26 -39 31t-66 -21l-59 97q102 58 169 44t117 -91z" />
    <glyph glyph-name="iMatra_anusvaradeva" 
d="M744 857q-35 0 -57.5 22.5t-22.5 57.5q0 33 22.5 57.5t57.5 24.5q34 0 58 -24.5t24 -57.5q0 -35 -24 -57.5t-58 -22.5zM534 713q-36 56 -95 86.5t-129 30.5l-10 130q71 0 137.5 -19.5t124 -56t99.5 -88.5zM61 635l-8 28l163 10l20 -38h-175zM53 663q-23 85 1.5 152
t88 106t157.5 39l10 -130q-47 0 -75 -20.5t-33.5 -56t14.5 -80.5zM65 0v645h163v-645h-163zM-25 547v113h344v-113h-344z" />
    <glyph glyph-name="iMatra_rephdeva" 
d="M534 713q-36 56 -95 86.5t-129 30.5l-10 130q71 0 137.5 -19.5t124 -56t99.5 -88.5zM61 635l-8 28l163 10l20 -38h-175zM53 663q-23 85 1.5 152t88 106t157.5 39l10 -130q-47 0 -75 -20.5t-33.5 -56t14.5 -80.5zM65 0v645h163v-645h-163zM-25 547v113h344v-113h-344z
M510 827q0 59 28 102.5t81.5 70.5t128.5 33l17 -113q-49 -4 -77 -29t-28 -64h-150zM567 640q-32 57 -44.5 102.5t-12.5 84.5h150q0 -32 18 -66t49 -76z" />
    <glyph glyph-name="iMatra_reph_anusvaradeva" 
d="M770 746q-31 0 -51.5 19t-20.5 49q0 29 20.5 49.5t51.5 20.5q30 0 52 -20.5t22 -49.5q0 -30 -22 -49t-52 -19zM534 713q-36 56 -95 86.5t-129 30.5l-10 130q71 0 137.5 -19.5t124 -56t99.5 -88.5zM61 635l-8 28l163 10l20 -38h-175zM53 663q-23 85 1.5 152t88 106
t157.5 39l10 -130q-47 0 -75 -20.5t-33.5 -56t14.5 -80.5zM65 0v645h163v-645h-163zM-25 547v113h344v-113h-344zM510 827q0 59 28.5 102.5t81.5 70.5t128 33l17 -113q-49 -4 -77 -29t-28 -64h-150zM567 640q-32 57 -44.5 102.5t-12.5 84.5h150q0 -32 18 -66t49 -76z" />
    <glyph glyph-name="iiMatra_anusvaradeva" horiz-adv-x="294" 
d="M344 722q-35 0 -57.5 22.5t-22.5 57.5q0 33 22.5 57.5t57.5 24.5q34 0 58 -24.5t24 -57.5q0 -35 -24 -57.5t-58 -22.5zM53 713q-5 40 -15 68.5t-24 43.5t-32 15l-10 120q70 0 122.5 -27t84 -77.5t37.5 -122.5zM-222 693q-14 77 6.5 137t69 95t118.5 35l10 -120
q-32 0 -44 -36t3 -91zM63 615l-10 98l163 20l10 -118h-163zM65 0v645h163v-645h-163zM-25 547v113h344v-113h-344z" />
    <glyph glyph-name="iiMatra_rephdeva" horiz-adv-x="294" 
d="M53 713q-5 40 -15 68.5t-24 43.5t-32 15l-10 120q70 0 122.5 -27t84 -77.5t37.5 -122.5zM-222 693q-14 77 6.5 137t69 95t118.5 35l10 -120q-32 0 -44 -36t3 -91zM63 615l-10 98l163 20l10 -118h-163zM65 0v645h163v-645h-163zM-25 547v113h344v-113h-344zM55 802
q0 59 28 102.5t81.5 70.5t128.5 33l17 -113q-49 -4 -77 -29t-28 -64h-150zM112 615q-32 57 -44.5 102.5t-12.5 84.5h150q0 -32 18 -66t49 -76z" />
    <glyph glyph-name="iiMatra_reph_anusvaradeva" horiz-adv-x="294" 
d="M315 721q-31 0 -51.5 19t-20.5 49q0 29 20.5 49.5t51.5 20.5q30 0 52 -20.5t22 -49.5q0 -30 -22 -49t-52 -19zM53 713q-5 40 -15 68.5t-24 43.5t-32 15l-10 120q70 0 122.5 -27t84 -77.5t37.5 -122.5zM-222 693q-14 77 6.5 137t69 95t118.5 35l10 -120q-32 0 -44 -36
t3 -91zM63 615l-10 98l163 20l10 -118h-163zM65 0v645h163v-645h-163zM-25 547v113h344v-113h-344zM55 802q0 59 28 102.5t81.5 70.5t128.5 33l17 -113q-49 -4 -77 -29t-28 -64h-150zM112 615q-32 57 -44.5 102.5t-12.5 84.5h150q0 -32 18 -66t49 -76z" />
    <glyph glyph-name="oShortMatra_anusvaradeva" horiz-adv-x="294" 
d="M274 767q-35 0 -57.5 22.5t-22.5 57.5q0 33 22.5 57.5t57.5 24.5q34 0 58 -24.5t24 -57.5q0 -35 -24 -57.5t-58 -22.5zM65 0v645h163v-645h-163zM-25 547v113h344v-113h-344zM65 660q8 39 -4.5 55t-58.5 25l40 100q84 -17 127 -37.5t55.5 -54t3.5 -88.5h-163zM2 740
q-83 17 -126.5 37.5t-56 54t-3.5 88.5h163q-7 -39 5 -55t58 -25z" />
    <glyph glyph-name="oMatra_anusvaradeva" horiz-adv-x="294" 
d="M227 757q-35 0 -57.5 22.5t-22.5 57.5q0 33 22.5 57.5t57.5 24.5q34 0 58 -24.5t24 -57.5q0 -35 -24 -57.5t-58 -22.5zM65 0v645h163v-645h-163zM-25 547v113h344v-113h-344zM45 660l-81 126l122 60l119 -186h-160zM-36 786q-16 26 -39 31t-66 -21l-59 97q102 58 169 44
t117 -91z" />
    <glyph glyph-name="oMatra_rephdeva" horiz-adv-x="294" 
d="M65 0v645h163v-645h-163zM-25 547v113h344v-113h-344zM45 660l-81 126l122 60l119 -186h-160zM-36 786q-16 26 -39 31t-66 -21l-59 97q102 58 169 44t117 -91zM35 802q0 59 28 102.5t81.5 70.5t128.5 33l17 -113q-49 -4 -77 -29t-28 -64h-150zM92 615q-32 57 -44.5 102.5
t-12.5 84.5h150q0 -32 18 -66t49 -76z" />
    <glyph glyph-name="oMatra_reph_anusvaradeva" horiz-adv-x="294" 
d="M295 721q-31 0 -51.5 19t-20.5 49q0 29 20.5 49.5t51.5 20.5q30 0 52 -20.5t22 -49.5q0 -30 -22 -49t-52 -19zM65 0v645h163v-645h-163zM-25 547v113h344v-113h-344zM45 660l-81 126l122 60l119 -186h-160zM-36 786q-16 26 -39 31t-66 -21l-59 97q102 58 169 44t117 -91z
M35 802q0 59 28 102.5t81.5 70.5t128.5 33l17 -113q-49 -4 -77 -29t-28 -64h-150zM92 615q-32 57 -44.5 102.5t-12.5 84.5h150q0 -32 18 -66t49 -76z" />
    <glyph glyph-name="auMatra_anusvaradeva" horiz-adv-x="294" 
d="M313 748q-35 0 -57.5 22.5t-22.5 57.5q0 33 22.5 57.5t57.5 24.5q34 0 58 -24.5t24 -57.5q0 -35 -24 -57.5t-58 -22.5zM65 0v645h163v-645h-163zM-25 547v113h344v-113h-344zM125 630l-144 76l57 99l144 -76zM-138 722l-15 94q30 16 60.5 19.5t63 -4t67.5 -26.5l-57 -99
q-28 16 -57.5 20t-61.5 -4zM75 660l-21 174h144l14 -174h-137zM54 834q-4 30 -23 42.5t-56 7.5l-15 94q80 19 130.5 5.5t76.5 -52.5t31 -97h-144z" />
    <glyph glyph-name="auMatra_rephdeva" horiz-adv-x="294" 
d="M100 861q29 50 75.5 74t106 20.5t127.5 -35.5l-42 -106q-45 20 -81.5 12.5t-55.5 -40.5zM56 670q0 66 12.5 111.5t31.5 79.5l130 -75q-16 -28 -17.5 -66.5t4.5 -90.5zM65 0v645h163v-645h-163zM-25 547v113h344v-113h-344zM125 630l-144 76l57 99l144 -76zM-138 722
l-15 94q30 16 60.5 19.5t63 -4t67.5 -26.5l-57 -99q-28 16 -57.5 20t-61.5 -4zM75 660l-21 174h144l14 -174h-137zM54 834q-4 30 -23 42.5t-56 7.5l-15 94q80 19 130.5 5.5t76.5 -52.5t31 -97h-144z" />
    <glyph glyph-name="auMatra_reph_anusvaradeva" horiz-adv-x="294" 
d="M327 721q-31 0 -51.5 19t-20.5 49q0 29 20.5 49.5t51.5 20.5q30 0 52 -20.5t22 -49.5q0 -30 -22 -49t-52 -19zM65 0v645h163v-645h-163zM-25 547v113h344v-113h-344zM125 630l-144 76l57 99l144 -76zM-138 722l-15 94q30 16 60.5 19.5t63 -4t67.5 -26.5l-57 -99
q-28 16 -57.5 20t-61.5 -4zM75 660l-21 174h144l14 -174h-137zM54 834q-4 30 -23 42.5t-56 7.5l-15 94q80 19 130.5 5.5t76.5 -52.5t31 -97h-144zM67 802q0 59 28 102.5t81.5 70.5t128.5 33l17 -113q-49 -4 -77 -29t-28 -64h-150zM124 615q-32 57 -44.5 102.5t-12.5 84.5
h150q0 -32 18 -66t49 -76z" />
    <glyph glyph-name="uni0940.00" horiz-adv-x="294" 
d="M53 713q-5 40 -15 68.5t-24 43.5t-32 15l-10 120q70 0 122.5 -27t84 -77.5t37.5 -122.5zM-222 693q-14 77 6.5 137t69 95t118.5 35l10 -120q-32 0 -44 -36t3 -91zM63 615l-10 98l163 20l10 -118h-163zM65 0v645h163v-645h-163zM-25 547v113h344v-113h-344z" />
    <glyph glyph-name="iiMatra_anusvaradeva.00" horiz-adv-x="294" 
d="M344 722q-35 0 -57.5 22.5t-22.5 57.5q0 33 22.5 57.5t57.5 24.5q34 0 58 -24.5t24 -57.5q0 -35 -24 -57.5t-58 -22.5zM53 713q-5 40 -15 68.5t-24 43.5t-32 15l-10 120q70 0 122.5 -27t84 -77.5t37.5 -122.5zM-222 693q-14 77 6.5 137t69 95t118.5 35l10 -120
q-32 0 -44 -36t3 -91zM63 615l-10 98l163 20l10 -118h-163zM65 0v645h163v-645h-163zM-25 547v113h344v-113h-344z" />
    <glyph glyph-name="iiMatra_rephdeva.00" horiz-adv-x="294" 
d="M53 713q-5 40 -15 68.5t-24 43.5t-32 15l-10 120q70 0 122.5 -27t84 -77.5t37.5 -122.5zM-222 693q-14 77 6.5 137t69 95t118.5 35l10 -120q-32 0 -44 -36t3 -91zM63 615l-10 98l163 20l10 -118h-163zM65 0v645h163v-645h-163zM-25 547v113h344v-113h-344zM55 802
q0 59 28 102.5t81.5 70.5t128.5 33l17 -113q-49 -4 -77 -29t-28 -64h-150zM112 615q-32 57 -44.5 102.5t-12.5 84.5h150q0 -32 18 -66t49 -76z" />
    <glyph glyph-name="iiMatra_reph_anusvaradeva.00" horiz-adv-x="294" 
d="M315 721q-31 0 -51.5 19t-20.5 49q0 29 20.5 49.5t51.5 20.5q30 0 52 -20.5t22 -49.5q0 -30 -22 -49t-52 -19zM53 713q-5 40 -15 68.5t-24 43.5t-32 15l-10 120q70 0 122.5 -27t84 -77.5t37.5 -122.5zM-222 693q-14 77 6.5 137t69 95t118.5 35l10 -120q-32 0 -44 -36
t3 -91zM63 615l-10 98l163 20l10 -118h-163zM65 0v645h163v-645h-163zM-25 547v113h344v-113h-344zM55 802q0 59 28 102.5t81.5 70.5t128.5 33l17 -113q-49 -4 -77 -29t-28 -64h-150zM112 615q-32 57 -44.5 102.5t-12.5 84.5h150q0 -32 18 -66t49 -76z" />
    <glyph glyph-name="uni093F.01" 
d="M607 712q-31 38 -73.5 64t-92.5 40t-106 14l-11 130q79 0 153 -19.5t139 -56t115 -88.5zM61 635l-8 28l163 10l20 -38h-175zM53 663q-23 85 2.5 152t94 106t174.5 39l11 -130q-59 0 -92 -20.5t-40 -55.5t13 -81zM65 0v645h163v-645h-163zM-25 547v113h344v-113h-344z" />
    <glyph glyph-name="uni093F.02" 
d="M680 711q-39 38 -89 65t-108 41t-123 14l-12 129q86 0 168 -19.5t155 -56.5t130 -89zM61 635l-8 28l163 10l20 -38h-175zM53 663q-23 86 3.5 153t100 105.5t191.5 38.5l12 -129q-71 0 -109.5 -20.5t-46.5 -56t12 -81.5zM65 0v645h163v-645h-163zM-25 547v113h344v-113
h-344z" />
    <glyph glyph-name="uni093F.03" 
d="M752 709q-46 39 -103.5 66.5t-124 41.5t-140.5 14l-12 129q93 0 183 -19.5t170.5 -56t144.5 -89.5zM61 635l-8 28l163 10l20 -38h-175zM53 663q-23 86 4 153t106 105.5t209 38.5l12 -129q-82 0 -126 -20t-53 -55.5t11 -82.5zM65 0v645h163v-645h-163zM-25 547v113h344
v-113h-344z" />
    <glyph glyph-name="uni093F.04" 
d="M825 708q-54 40 -119 67.5t-139.5 42t-157.5 14.5l-13 128q101 0 198 -19.5t185.5 -56t160.5 -89.5zM61 635l-8 28l163 10l20 -38h-175zM53 663q-23 86 5 153t112 105.5t226 38.5l13 -128q-94 0 -143.5 -20.5t-60 -56t10.5 -82.5zM65 0v645h163v-645h-163zM-25 547v113
h344v-113h-344z" />
    <glyph glyph-name="uni093F.05" 
d="M898 707q-62 40 -134.5 67.5t-155 42.5t-174.5 15l-14 128q108 0 213 -19.5t201 -56.5t176 -90zM61 635l-8 28l163 10l20 -38h-175zM53 663q-24 86 5.5 153t118.5 105.5t243 38.5l14 -128q-106 0 -160.5 -20t-66.5 -56t9 -83zM65 0v645h163v-645h-163zM-25 547v113h344
v-113h-344z" />
    <glyph glyph-name="uni093F.06" 
d="M971 706q-69 40 -149.5 68t-171 43t-191.5 15l-15 128q115 0 228 -19.5t217 -56.5t191 -90zM61 635l-8 28l163 10l20 -38h-175zM53 663q-24 86 6.5 153t124.5 105.5t260 38.5l15 -128q-118 0 -178 -20t-73 -55.5t8 -83.5zM65 0v645h163v-645h-163zM-25 547v113h344v-113
h-344z" />
    <glyph glyph-name="uni093F.07" 
d="M1043 704q-77 41 -164.5 70t-186 44t-208.5 15l-16 127q123 0 243.5 -19t232 -56t206.5 -91zM61 635l-8 28l163 10l20 -38h-175zM53 663q-18 65 -5.5 119.5t61 94t137 61.5t222.5 22l16 -127q-98 0 -158.5 -11.5t-89.5 -32.5t-32.5 -50.5t12.5 -65.5zM65 0v645h163v-645
h-163zM-25 547v113h344v-113h-344z" />
    <glyph glyph-name="uni093F.08" 
d="M1116 703q-63 31 -132.5 55t-145 41t-158 25.5t-172.5 8.5l-16 127q130 0 258.5 -19t247.5 -56.5t221 -91.5zM61 635l-8 28l163 10l20 -38h-175zM53 663q-18 65 -5 119.5t63.5 94t144 61.5t236.5 22l16 -127q-107 0 -172.5 -11.5t-96.5 -32.5t-35 -50.5t12 -65.5zM65 0
v645h163v-645h-163zM-25 547v113h344v-113h-344z" />
    <glyph glyph-name="uni093F.09" 
d="M1189 702q-69 32 -144.5 56.5t-156.5 41t-170 25.5t-185 9l-17 126q137 0 273 -19t263.5 -56.5t236.5 -91.5zM61 635l-8 28l163 10l20 -38h-175zM53 663q-18 65 -4.5 119.5t66 94.5t151 61.5t250.5 21.5l17 -126q-116 0 -186.5 -11.5t-104.5 -32.5t-38 -50.5t12 -66.5z
M65 0v645h163v-645h-163zM-25 547v113h344v-113h-344z" />
    <glyph glyph-name="uni093F.10" 
d="M1262 701q-75 32 -155.5 56.5t-168 41.5t-182.5 26t-198 9l-18 126q108 0 216.5 -11t213.5 -32t203 -52t186 -72zM61 635l-8 28l163 10l20 -38h-175zM53 663q-18 65 -4 119.5t68.5 94.5t158 61.5t264.5 21.5l18 -126q-125 0 -200.5 -11.5t-111.5 -32.5t-41 -50.5
t11 -66.5zM65 0v645h163v-645h-163zM-25 547v113h344v-113h-344z" />
    <glyph glyph-name="uni093F.11" 
d="M1334 699q-80 33 -166.5 58t-179.5 42t-194 26t-211 9l-19 126q114 0 228 -11t224.5 -32t214.5 -52.5t198 -72.5zM61 635l-8 28l163 10l20 -38h-175zM53 663q-18 65 -3.5 119.5t71 94.5t165 61.5t278.5 21.5l19 -126q-134 0 -214.5 -11t-119 -32t-44 -51t10.5 -67zM65 0
v645h163v-645h-163zM-25 547v113h344v-113h-344z" />
    <glyph glyph-name="uni093F.12" 
d="M1407 698q-86 33 -178 58.5t-191 43t-206 26.5t-224 9l-20 125q120 0 239.5 -11t236 -32t226.5 -52.5t209 -72.5zM61 635l-8 28l163 10l20 -38h-175zM53 663q-18 66 -3.5 120t73.5 94t172.5 61.5t292.5 21.5l20 -125q-143 0 -229 -11t-127 -32.5t-47 -51t11 -67.5zM65 0
v645h163v-645h-163zM-25 547v113h344v-113h-344z" />
    <glyph glyph-name="uni093F.13" 
d="M1480 697q-92 33 -189.5 58.5t-202.5 43.5t-218.5 27t-237.5 9l-20 125q125 0 250.5 -11t248 -32t237.5 -52.5t220 -72.5zM61 635l-8 28l163 10l20 -38h-175zM53 663q-18 66 -3 120t75.5 94t179 61.5t307.5 21.5l20 -125q-121 0 -203 -7t-131 -21t-71 -33.5t-23 -45
t12 -55.5zM65 0v645h163v-645h-163zM-25 547v113h344v-113h-344z" />
    <glyph glyph-name="uni093F.14" 
d="M1553 696q-98 33 -201 59t-214 44t-230.5 27.5t-250.5 9.5l-21 124q131 0 262 -11t259 -32t249.5 -52.5t231.5 -72.5zM61 635l-8 28l163 10l20 -38h-175zM53 663q-15 53 -8.5 98.5t41 82t103.5 62.5t179 40t268 14l21 -124q-128 0 -215 -7t-138.5 -21t-75 -33.5t-25 -45
t12.5 -56.5zM65 0v645h163v-645h-163zM-25 547v113h344v-113h-344z" />
    <glyph glyph-name="uni093F.15" 
d="M1625 694q-103 34 -212 60.5t-225 44.5t-242 27.5t-264 9.5l-22 124q136 0 273 -10.5t271 -32t261 -53t243 -73.5zM61 635l-8 28l163 10l20 -38h-175zM53 663q-15 53 -8.5 98.5t42.5 82t107.5 62.5t186 40t279.5 14l22 -124q-136 0 -227 -7t-145.5 -20.5t-79.5 -33.5
t-26.5 -45.5t12.5 -56.5zM65 0v645h163v-645h-163zM-25 547v113h344v-113h-344z" />
    <glyph glyph-name="uni093F.16" 
d="M1698 693q-109 35 -223.5 61.5t-236.5 44.5t-254.5 27.5t-276.5 9.5l-23 124q142 0 284.5 -10.5t282.5 -32t272.5 -53t254.5 -73.5zM61 635l-8 28l163 10l20 -38h-175zM53 663q-15 53 -8 98.5t43.5 82t110.5 62.5t193.5 40t291.5 14l23 -124q-143 0 -239 -7t-153 -20.5
t-83 -33.5t-28 -45.5t12 -56.5zM65 0v645h163v-645h-163zM-25 547v113h344v-113h-344z" />
    <glyph glyph-name="uni093F.17" 
d="M1771 692q-115 35 -235 62t-248 45.5t-266.5 28t-289.5 9.5l-24 123q147 0 295.5 -10.5t294 -32t284.5 -53t266 -73.5zM61 635l-8 28l163 10l20 -38h-175zM53 663q-15 53 -8 98.5t45 82.5t114.5 62.5t200 39.5t303.5 14l24 -123q-150 0 -250.5 -7t-160.5 -20.5
t-87.5 -33.5t-29.5 -46t12 -57zM65 0v645h163v-645h-163zM-25 547v113h344v-113h-344z" />
    <glyph glyph-name="uni093F.18" 
d="M1844 691q-120 35 -246 62.5t-260 46t-279 28t-303 9.5l-24 123q153 0 307 -10.5t305.5 -32t295.5 -53.5t277 -74zM61 635l-8 28l163 10l20 -38h-175zM53 663q-15 53 -7.5 98.5t46 82.5t117.5 62.5t207.5 39.5t315.5 14l24 -123q-157 0 -262 -7t-167.5 -20.5t-91 -33.5
t-31 -45.5t11.5 -57.5zM65 0v645h163v-645h-163zM-25 547v113h344v-113h-344z" />
    <glyph glyph-name="uni093F.19" 
d="M1916 689q-126 36 -257.5 64t-271 46.5t-290.5 28.5t-316 10l-25 122q158 0 318 -10.5t317 -31.5t307.5 -53t288.5 -75zM61 635l-8 28l163 10l20 -38h-175zM53 663q-15 53 -7.5 99t47.5 82.5t121.5 62.5t214.5 39.5t327 13.5l25 -122q-164 0 -274 -7t-175.5 -20.5
t-95 -33.5t-32 -46t11.5 -58zM65 0v645h163v-645h-163zM-25 547v113h344v-113h-344z" />
    <glyph glyph-name="uni093F.20" 
d="M1989 688q-132 36 -269 64t-282.5 47t-302.5 29t-329 10l-26 122q164 0 329.5 -10.5t328.5 -31.5t319 -53t300 -75zM61 635l-8 28l163 10l20 -38h-175zM53 663q-15 53 -7 99t48.5 82.5t125 62.5t221.5 39.5t339 13.5l26 -122q-172 0 -286.5 -7t-182.5 -20.5t-98.5 -33.5
t-33.5 -46t11 -58zM65 0v645h163v-645h-163zM-25 547v113h344v-113h-344z" />
    <glyph glyph-name="uni093F.21" 
d="M2062 687q-137 36 -280 64.5t-294.5 47.5t-314.5 29t-342 10l-27 122q169 0 340.5 -10.5t340.5 -32t330.5 -53.5t311.5 -75zM61 635l-8 28l163 10l20 -38h-175zM53 663q-15 53 -7.5 99t50 82.5t129 62.5t228.5 39.5t351 13.5l27 -122q-179 0 -298 -7t-190 -20t-103 -33
t-35 -46.5t11 -58.5zM65 0v645h163v-645h-163zM-25 547v113h344v-113h-344z" />
    <glyph glyph-name="uni093F.24" 
d="M2280 683q-124 30 -250.5 55t-258.5 44t-271 32t-287.5 19.5t-307.5 6.5l-29 120q186 0 374.5 -10.5t374.5 -31.5t365.5 -53.5t345.5 -76.5zM61 635l-8 28l163 10l20 -38h-175zM53 663q-12 45 -9 84.5t29.5 72.5t84 59t152 44t234.5 27.5t332 9.5l29 -120
q-167 0 -286.5 -4.5t-199.5 -14t-127 -23.5t-67.5 -32.5t-20.5 -41.5t12 -51zM65 0v645h163v-645h-163zM-25 547v113h344v-113h-344z" />
    <glyph glyph-name="iMatra_anusvaradeva.01" 
d="M813 851q-35 0 -57.5 22.5t-22.5 57.5q0 33 22.5 57.5t57.5 24.5q34 0 58 -24.5t24 -57.5q0 -35 -24 -57.5t-58 -22.5zM607 712q-31 38 -73.5 64t-92.5 40t-106 14l-11 130q79 0 153 -19.5t139 -56t115 -88.5zM61 635l-8 28l163 10l20 -38h-175zM53 663q-23 85 2.5 152
t94 106t174.5 39l11 -130q-59 0 -92 -20.5t-40 -55.5t13 -81zM65 0v645h163v-645h-163zM-25 547v113h344v-113h-344z" />
    <glyph glyph-name="iMatra_anusvaradeva.02" 
d="M882 844q-35 0 -57.5 22.5t-22.5 57.5q0 33 22.5 57.5t57.5 24.5q34 0 58 -24.5t24 -57.5q0 -35 -24 -57.5t-58 -22.5zM680 711q-39 38 -89 65t-108 41t-123 14l-12 129q86 0 168 -19.5t155 -56.5t130 -89zM61 635l-8 28l163 10l20 -38h-175zM53 663q-23 86 3.5 153
t100 105.5t191.5 38.5l12 -129q-71 0 -109.5 -20.5t-46.5 -56t12 -81.5zM65 0v645h163v-645h-163zM-25 547v113h344v-113h-344z" />
    <glyph glyph-name="iMatra_anusvaradeva.03" 
d="M952 838q-35 0 -57.5 22.5t-22.5 57.5q0 33 22.5 57.5t57.5 24.5q34 0 58 -24.5t24 -57.5q0 -35 -24 -57.5t-58 -22.5zM752 709q-46 39 -103.5 66.5t-124 41.5t-140.5 14l-12 129q93 0 183 -19.5t170.5 -56t144.5 -89.5zM61 635l-8 28l163 10l20 -38h-175zM53 663
q-23 86 4 153t106 105.5t209 38.5l12 -129q-82 0 -126 -20t-53 -55.5t11 -82.5zM65 0v645h163v-645h-163zM-25 547v113h344v-113h-344z" />
    <glyph glyph-name="iMatra_anusvaradeva.04" 
d="M1021 831q-35 0 -57.5 22.5t-22.5 57.5q0 33 22.5 57.5t57.5 24.5q34 0 58 -24.5t24 -57.5q0 -35 -24 -57.5t-58 -22.5zM825 708q-54 40 -119 67.5t-139.5 42t-157.5 14.5l-13 128q101 0 198 -19.5t185.5 -56t160.5 -89.5zM61 635l-8 28l163 10l20 -38h-175zM53 663
q-23 86 5 153t112 105.5t226 38.5l13 -128q-94 0 -143.5 -20.5t-60 -56t10.5 -82.5zM65 0v645h163v-645h-163zM-25 547v113h344v-113h-344z" />
    <glyph glyph-name="iMatra_anusvaradeva.05" 
d="M1090 825q-35 0 -57.5 22.5t-22.5 57.5q0 33 22.5 57.5t57.5 24.5q34 0 58 -24.5t24 -57.5q0 -35 -24 -57.5t-58 -22.5zM898 707q-62 40 -134.5 67.5t-155 42.5t-174.5 15l-14 128q108 0 213 -19.5t201 -56.5t176 -90zM61 635l-8 28l163 10l20 -38h-175zM53 663
q-24 86 5.5 153t118.5 105.5t243 38.5l14 -128q-106 0 -160.5 -20t-66.5 -56t9 -83zM65 0v645h163v-645h-163zM-25 547v113h344v-113h-344z" />
    <glyph glyph-name="iMatra_anusvaradeva.06" 
d="M1159 818q-35 0 -57.5 22.5t-22.5 57.5q0 33 22.5 57.5t57.5 24.5q34 0 58 -24.5t24 -57.5q0 -35 -24 -57.5t-58 -22.5zM971 706q-69 40 -149.5 68t-171 43t-191.5 15l-15 128q115 0 228 -19.5t217 -56.5t191 -90zM61 635l-8 28l163 10l20 -38h-175zM53 663
q-24 86 6.5 153t124.5 105.5t260 38.5l15 -128q-118 0 -178 -20t-73 -55.5t8 -83.5zM65 0v645h163v-645h-163zM-25 547v113h344v-113h-344z" />
    <glyph glyph-name="iMatra_anusvaradeva.07" 
d="M1228 812q-35 0 -57.5 22.5t-22.5 57.5q0 33 22.5 57.5t57.5 24.5q34 0 58 -24.5t24 -57.5q0 -35 -24 -57.5t-58 -22.5zM1043 704q-77 41 -164.5 70t-186 44t-208.5 15l-16 127q123 0 243.5 -19t232 -56t206.5 -91zM61 635l-8 28l163 10l20 -38h-175zM53 663
q-18 65 -5.5 119.5t61 94t137 61.5t222.5 22l16 -127q-98 0 -158.5 -11.5t-89.5 -32.5t-32.5 -50.5t12.5 -65.5zM65 0v645h163v-645h-163zM-25 547v113h344v-113h-344z" />
    <glyph glyph-name="iMatra_anusvaradeva.08" 
d="M1298 805q-35 0 -57.5 22.5t-22.5 57.5q0 33 22.5 57.5t57.5 24.5q34 0 58 -24.5t24 -57.5q0 -35 -24 -57.5t-58 -22.5zM1116 703q-63 31 -132.5 55t-145 41t-158 25.5t-172.5 8.5l-16 127q130 0 258.5 -19t247.5 -56.5t221 -91.5zM61 635l-8 28l163 10l20 -38h-175z
M53 663q-18 65 -5 119.5t63.5 94t144 61.5t236.5 22l16 -127q-107 0 -172.5 -11.5t-96.5 -32.5t-35 -50.5t12 -65.5zM65 0v645h163v-645h-163zM-25 547v113h344v-113h-344z" />
    <glyph glyph-name="iMatra_anusvaradeva.09" 
d="M1367 799q-35 0 -57.5 22.5t-22.5 57.5q0 33 22.5 57.5t57.5 24.5q34 0 58 -24.5t24 -57.5q0 -35 -24 -57.5t-58 -22.5zM1189 702q-69 32 -144.5 56.5t-156.5 41t-170 25.5t-185 9l-17 126q137 0 273 -19t263.5 -56.5t236.5 -91.5zM61 635l-8 28l163 10l20 -38h-175z
M53 663q-18 65 -4.5 119.5t66 94.5t151 61.5t250.5 21.5l17 -126q-116 0 -186.5 -11.5t-104.5 -32.5t-38 -50.5t12 -66.5zM65 0v645h163v-645h-163zM-25 547v113h344v-113h-344z" />
    <glyph glyph-name="iMatra_anusvaradeva.10" 
d="M1436 793q-35 0 -57.5 22.5t-22.5 57.5q0 33 22.5 57.5t57.5 24.5q34 0 58 -24.5t24 -57.5q0 -35 -24 -57.5t-58 -22.5zM1262 701q-75 32 -155.5 56.5t-168 41.5t-182.5 26t-198 9l-18 126q108 0 216.5 -11t213.5 -32t203 -52t186 -72zM61 635l-8 28l163 10l20 -38h-175z
M53 663q-18 65 -4 119.5t68.5 94.5t158 61.5t264.5 21.5l18 -126q-125 0 -200.5 -11.5t-111.5 -32.5t-41 -50.5t11 -66.5zM65 0v645h163v-645h-163zM-25 547v113h344v-113h-344z" />
    <glyph glyph-name="iMatra_anusvaradeva.11" 
d="M1505 786q-35 0 -57.5 22.5t-22.5 57.5q0 33 22.5 57.5t57.5 24.5q34 0 58 -24.5t24 -57.5q0 -35 -24 -57.5t-58 -22.5zM1334 699q-80 33 -166.5 58t-179.5 42t-194 26t-211 9l-19 126q114 0 228 -11t224.5 -32t214.5 -52.5t198 -72.5zM61 635l-8 28l163 10l20 -38h-175z
M53 663q-18 65 -3.5 119.5t71 94.5t165 61.5t278.5 21.5l19 -126q-134 0 -214.5 -11t-119 -32t-44 -51t10.5 -67zM65 0v645h163v-645h-163zM-25 547v113h344v-113h-344z" />
    <glyph glyph-name="iMatra_anusvaradeva.12" 
d="M1574 780q-35 0 -57.5 22.5t-22.5 57.5q0 33 22.5 57.5t57.5 24.5q34 0 58 -24.5t24 -57.5q0 -35 -24 -57.5t-58 -22.5zM1407 698q-86 33 -178 58.5t-191 43t-206 26.5t-224 9l-20 125q120 0 239.5 -11t236 -32t226.5 -52.5t209 -72.5zM61 635l-8 28l163 10l20 -38h-175z
M53 663q-18 66 -3.5 120t73.5 94t172.5 61.5t292.5 21.5l20 -125q-143 0 -229 -11t-127 -32.5t-47 -51t11 -67.5zM65 0v645h163v-645h-163zM-25 547v113h344v-113h-344z" />
    <glyph glyph-name="iMatra_anusvaradeva.13" 
d="M1644 773q-35 0 -57.5 22.5t-22.5 57.5q0 33 22.5 57.5t57.5 24.5q34 0 58 -24.5t24 -57.5q0 -35 -24 -57.5t-58 -22.5zM1480 697q-92 33 -189.5 58.5t-202.5 43.5t-218.5 27t-237.5 9l-20 125q125 0 250.5 -11t248 -32t237.5 -52.5t220 -72.5zM61 635l-8 28l163 10
l20 -38h-175zM53 663q-18 66 -3 120t75.5 94t179 61.5t307.5 21.5l20 -125q-121 0 -203 -7t-131 -21t-71 -33.5t-23 -45t12 -55.5zM65 0v645h163v-645h-163zM-25 547v113h344v-113h-344z" />
    <glyph glyph-name="iMatra_anusvaradeva.14" 
d="M1713 767q-35 0 -57.5 22.5t-22.5 57.5q0 33 22.5 57.5t57.5 24.5q34 0 58 -24.5t24 -57.5q0 -35 -24 -57.5t-58 -22.5zM1553 696q-98 33 -201 59t-214 44t-230.5 27.5t-250.5 9.5l-21 124q131 0 262 -11t259 -32t249.5 -52.5t231.5 -72.5zM61 635l-8 28l163 10l20 -38
h-175zM53 663q-15 53 -8.5 98.5t41 82t103.5 62.5t179 40t268 14l21 -124q-128 0 -215 -7t-138.5 -21t-75 -33.5t-25 -45t12.5 -56.5zM65 0v645h163v-645h-163zM-25 547v113h344v-113h-344z" />
    <glyph glyph-name="iMatra_anusvaradeva.15" 
d="M1782 760q-35 0 -57.5 22.5t-22.5 57.5q0 33 22.5 57.5t57.5 24.5q34 0 58 -24.5t24 -57.5q0 -35 -24 -57.5t-58 -22.5zM1625 694q-103 34 -212 60.5t-225 44.5t-242 27.5t-264 9.5l-22 124q136 0 273 -10.5t271 -32t261 -53t243 -73.5zM61 635l-8 28l163 10l20 -38h-175
zM53 663q-15 53 -8.5 98.5t42.5 82t107.5 62.5t186 40t279.5 14l22 -124q-136 0 -227 -7t-145.5 -20.5t-79.5 -33.5t-26.5 -45.5t12.5 -56.5zM65 0v645h163v-645h-163zM-25 547v113h344v-113h-344z" />
    <glyph glyph-name="iMatra_anusvaradeva.16" 
d="M1851 754q-35 0 -57.5 22.5t-22.5 57.5q0 33 22.5 57.5t57.5 24.5q34 0 58 -24.5t24 -57.5q0 -35 -24 -57.5t-58 -22.5zM1698 693q-109 35 -223.5 61.5t-236.5 44.5t-254.5 27.5t-276.5 9.5l-23 124q142 0 284.5 -10.5t282.5 -32t272.5 -53t254.5 -73.5zM61 635l-8 28
l163 10l20 -38h-175zM53 663q-15 53 -8 98.5t43.5 82t110.5 62.5t193.5 40t291.5 14l23 -124q-143 0 -239 -7t-153 -20.5t-83 -33.5t-28 -45.5t12 -56.5zM65 0v645h163v-645h-163zM-25 547v113h344v-113h-344z" />
    <glyph glyph-name="iMatra_anusvaradeva.17" 
d="M1920 748q-35 0 -57.5 22.5t-22.5 57.5q0 33 22.5 57.5t57.5 24.5q34 0 58 -24.5t24 -57.5q0 -35 -24 -57.5t-58 -22.5zM1771 692q-115 35 -235 62t-248 45.5t-266.5 28t-289.5 9.5l-24 123q147 0 295.5 -10.5t294 -32t284.5 -53t266 -73.5zM61 635l-8 28l163 10l20 -38
h-175zM53 663q-15 53 -8 98.5t45 82.5t114.5 62.5t200 39.5t303.5 14l24 -123q-150 0 -250.5 -7t-160.5 -20.5t-87.5 -33.5t-29.5 -46t12 -57zM65 0v645h163v-645h-163zM-25 547v113h344v-113h-344z" />
    <glyph glyph-name="iMatra_anusvaradeva.18" 
d="M1990 741q-35 0 -57.5 22.5t-22.5 57.5q0 33 22.5 57.5t57.5 24.5q34 0 58 -24.5t24 -57.5q0 -35 -24 -57.5t-58 -22.5zM1844 691q-120 35 -246 62.5t-260 46t-279 28t-303 9.5l-24 123q153 0 307 -10.5t305.5 -32t295.5 -53.5t277 -74zM61 635l-8 28l163 10l20 -38h-175
zM53 663q-15 53 -7.5 98.5t46 82.5t117.5 62.5t207.5 39.5t315.5 14l24 -123q-157 0 -262 -7t-167.5 -20.5t-91 -33.5t-31 -45.5t11.5 -57.5zM65 0v645h163v-645h-163zM-25 547v113h344v-113h-344z" />
    <glyph glyph-name="iMatra_anusvaradeva.19" 
d="M2059 735q-35 0 -57.5 22.5t-22.5 57.5q0 33 22.5 57.5t57.5 24.5q34 0 58 -24.5t24 -57.5q0 -35 -24 -57.5t-58 -22.5zM1916 689q-126 36 -257.5 64t-271 46.5t-290.5 28.5t-316 10l-25 122q158 0 318 -10.5t317 -31.5t307.5 -53t288.5 -75zM61 635l-8 28l163 10l20 -38
h-175zM53 663q-15 53 -7.5 99t47.5 82.5t121.5 62.5t214.5 39.5t327 13.5l25 -122q-164 0 -274 -7t-175.5 -20.5t-95 -33.5t-32 -46t11.5 -58zM65 0v645h163v-645h-163zM-25 547v113h344v-113h-344z" />
    <glyph glyph-name="iMatra_anusvaradeva.20" 
d="M2128 728q-35 0 -57.5 22.5t-22.5 57.5q0 33 22.5 57.5t57.5 24.5q34 0 58 -24.5t24 -57.5q0 -35 -24 -57.5t-58 -22.5zM1989 688q-132 36 -269 64t-282.5 47t-302.5 29t-329 10l-26 122q164 0 329.5 -10.5t328.5 -31.5t319 -53t300 -75zM61 635l-8 28l163 10l20 -38
h-175zM53 663q-15 53 -7 99t48.5 82.5t125 62.5t221.5 39.5t339 13.5l26 -122q-172 0 -286.5 -7t-182.5 -20.5t-98.5 -33.5t-33.5 -46t11 -58zM65 0v645h163v-645h-163zM-25 547v113h344v-113h-344z" />
    <glyph glyph-name="iMatra_anusvaradeva.21" 
d="M2197 722q-35 0 -57.5 22.5t-22.5 57.5q0 33 22.5 57.5t57.5 24.5q34 0 58 -24.5t24 -57.5q0 -35 -24 -57.5t-58 -22.5zM2062 687q-137 36 -280 64.5t-294.5 47.5t-314.5 29t-342 10l-27 122q169 0 340.5 -10.5t340.5 -32t330.5 -53.5t311.5 -75zM61 635l-8 28l163 10
l20 -38h-175zM53 663q-15 53 -7.5 99t50 82.5t129 62.5t228.5 39.5t351 13.5l27 -122q-179 0 -298 -7t-190 -20t-103 -33t-35 -46.5t11 -58.5zM65 0v645h163v-645h-163zM-25 547v113h344v-113h-344z" />
    <glyph glyph-name="iMatra_anusvaradeva.24" 
d="M2405 702q-35 0 -57.5 22.5t-22.5 57.5q0 33 22.5 57.5t57.5 24.5q34 0 58 -24.5t24 -57.5q0 -35 -24 -57.5t-58 -22.5zM2280 683q-124 30 -250.5 55t-258.5 44t-271 32t-287.5 19.5t-307.5 6.5l-29 120q186 0 374.5 -10.5t374.5 -31.5t365.5 -53.5t345.5 -76.5zM61 635
l-8 28l163 10l20 -38h-175zM53 663q-12 45 -9 84.5t29.5 72.5t84 59t152 44t234.5 27.5t332 9.5l29 -120q-167 0 -286.5 -4.5t-199.5 -14t-127 -23.5t-67.5 -32.5t-20.5 -41.5t12 -51zM65 0v645h163v-645h-163zM-25 547v113h344v-113h-344z" />
    <glyph glyph-name="iMatra_rephdeva.01" 
d="M607 712q-31 38 -73.5 64t-92.5 40t-106 14l-11 130q79 0 153 -19.5t139 -56t115 -88.5zM61 635l-8 28l163 10l20 -38h-175zM53 663q-23 85 2.5 152t94 106t174.5 39l11 -130q-59 0 -92 -20.5t-40 -55.5t13 -81zM65 0v645h163v-645h-163zM-25 547v113h344v-113h-344z
M581 825q0 59 28 102.5t81.5 70.5t128.5 33l17 -113q-49 -4 -77 -29t-28 -64h-150zM638 638q-32 57 -44.5 102.5t-12.5 84.5h150q0 -32 18 -66t49 -76z" />
    <glyph glyph-name="iMatra_rephdeva.02" 
d="M680 711q-39 38 -89 65t-108 41t-123 14l-12 129q86 0 168 -19.5t155 -56.5t130 -89zM61 635l-8 28l163 10l20 -38h-175zM53 663q-23 86 3.5 153t100 105.5t191.5 38.5l12 -129q-71 0 -109.5 -20.5t-46.5 -56t12 -81.5zM65 0v645h163v-645h-163zM-25 547v113h344v-113
h-344zM653 823q0 59 28 102.5t81.5 70.5t128.5 33l17 -113q-49 -4 -77 -29t-28 -64h-150zM710 636q-32 57 -44.5 102.5t-12.5 84.5h150q0 -32 18 -66t49 -76z" />
    <glyph glyph-name="iMatra_rephdeva.03" 
d="M752 709q-46 39 -103.5 66.5t-124 41.5t-140.5 14l-12 129q93 0 183 -19.5t170.5 -56t144.5 -89.5zM61 635l-8 28l163 10l20 -38h-175zM53 663q-23 86 4 153t106 105.5t209 38.5l12 -129q-82 0 -126 -20t-53 -55.5t11 -82.5zM65 0v645h163v-645h-163zM-25 547v113h344
v-113h-344zM724 821q0 59 28 102.5t81.5 70.5t128.5 33l17 -113q-49 -4 -77 -29t-28 -64h-150zM781 634q-32 57 -44.5 102.5t-12.5 84.5h150q0 -32 18 -66t49 -76z" />
    <glyph glyph-name="iMatra_rephdeva.04" 
d="M825 708q-54 40 -119 67.5t-139.5 42t-157.5 14.5l-13 128q101 0 198 -19.5t185.5 -56t160.5 -89.5zM61 635l-8 28l163 10l20 -38h-175zM53 663q-23 86 5 153t112 105.5t226 38.5l13 -128q-94 0 -143.5 -20.5t-60 -56t10.5 -82.5zM65 0v645h163v-645h-163zM-25 547v113
h344v-113h-344zM796 819q0 59 28 102.5t81.5 70.5t128.5 33l17 -113q-49 -4 -77 -29t-28 -64h-150zM853 632q-32 57 -44.5 102.5t-12.5 84.5h150q0 -32 18 -66t49 -76z" />
    <glyph glyph-name="iMatra_rephdeva.05" 
d="M898 707q-62 40 -134.5 67.5t-155 42.5t-174.5 15l-14 128q108 0 213 -19.5t201 -56.5t176 -90zM61 635l-8 28l163 10l20 -38h-175zM53 663q-24 86 5.5 153t118.5 105.5t243 38.5l14 -128q-106 0 -160.5 -20t-66.5 -56t9 -83zM65 0v645h163v-645h-163zM-25 547v113h344
v-113h-344zM867 818q0 59 28 102.5t81.5 70.5t128.5 33l17 -113q-49 -4 -77 -29t-28 -64h-150zM924 631q-32 57 -44.5 102.5t-12.5 84.5h150q0 -32 18 -66t49 -76z" />
    <glyph glyph-name="iMatra_rephdeva.06" 
d="M971 706q-69 40 -149.5 68t-171 43t-191.5 15l-15 128q115 0 228 -19.5t217 -56.5t191 -90zM61 635l-8 28l163 10l20 -38h-175zM53 663q-24 86 6.5 153t124.5 105.5t260 38.5l15 -128q-118 0 -178 -20t-73 -55.5t8 -83.5zM65 0v645h163v-645h-163zM-25 547v113h344v-113
h-344zM939 816q0 59 28 102.5t81.5 70.5t128.5 33l17 -113q-49 -4 -77 -29t-28 -64h-150zM996 629q-32 57 -44.5 102.5t-12.5 84.5h150q0 -32 18 -66t49 -76z" />
    <glyph glyph-name="iMatra_rephdeva.07" 
d="M1043 704q-77 41 -164.5 70t-186 44t-208.5 15l-16 127q123 0 243.5 -19t232 -56t206.5 -91zM61 635l-8 28l163 10l20 -38h-175zM53 663q-18 65 -5.5 119.5t61 94t137 61.5t222.5 22l16 -127q-98 0 -158.5 -11.5t-89.5 -32.5t-32.5 -50.5t12.5 -65.5zM65 0v645h163v-645
h-163zM-25 547v113h344v-113h-344zM1010 814q0 59 28 102.5t81.5 70.5t128.5 33l17 -113q-49 -4 -77 -29t-28 -64h-150zM1067 627q-32 57 -44.5 102.5t-12.5 84.5h150q0 -32 18 -66t49 -76z" />
    <glyph glyph-name="iMatra_rephdeva.08" 
d="M1116 703q-63 31 -132.5 55t-145 41t-158 25.5t-172.5 8.5l-16 127q130 0 258.5 -19t247.5 -56.5t221 -91.5zM61 635l-8 28l163 10l20 -38h-175zM53 663q-18 65 -5 119.5t63.5 94t144 61.5t236.5 22l16 -127q-107 0 -172.5 -11.5t-96.5 -32.5t-35 -50.5t12 -65.5zM65 0
v645h163v-645h-163zM-25 547v113h344v-113h-344zM1082 812q0 59 28 102.5t81.5 70.5t128.5 33l17 -113q-49 -4 -77 -29t-28 -64h-150zM1139 625q-32 57 -44.5 102.5t-12.5 84.5h150q0 -32 18 -66t49 -76z" />
    <glyph glyph-name="iMatra_rephdeva.09" 
d="M1189 702q-69 32 -144.5 56.5t-156.5 41t-170 25.5t-185 9l-17 126q137 0 273 -19t263.5 -56.5t236.5 -91.5zM61 635l-8 28l163 10l20 -38h-175zM53 663q-18 65 -4.5 119.5t66 94.5t151 61.5t250.5 21.5l17 -126q-116 0 -186.5 -11.5t-104.5 -32.5t-38 -50.5t12 -66.5z
M65 0v645h163v-645h-163zM-25 547v113h344v-113h-344zM1153 810q0 59 28 102.5t81.5 70.5t128.5 33l17 -113q-49 -4 -77 -29t-28 -64h-150zM1210 623q-32 57 -44.5 102.5t-12.5 84.5h150q0 -32 18 -66t49 -76z" />
    <glyph glyph-name="iMatra_rephdeva.10" 
d="M1262 701q-75 32 -155.5 56.5t-168 41.5t-182.5 26t-198 9l-18 126q108 0 216.5 -11t213.5 -32t203 -52t186 -72zM61 635l-8 28l163 10l20 -38h-175zM53 663q-18 65 -4 119.5t68.5 94.5t158 61.5t264.5 21.5l18 -126q-125 0 -200.5 -11.5t-111.5 -32.5t-41 -50.5
t11 -66.5zM65 0v645h163v-645h-163zM-25 547v113h344v-113h-344zM1224 808q0 59 28 102.5t81.5 70.5t128.5 33l17 -113q-49 -4 -77 -29t-28 -64h-150zM1281 621q-32 57 -44.5 102.5t-12.5 84.5h150q0 -32 18 -66t49 -76z" />
    <glyph glyph-name="iMatra_rephdeva.11" 
d="M1334 699q-80 33 -166.5 58t-179.5 42t-194 26t-211 9l-19 126q114 0 228 -11t224.5 -32t214.5 -52.5t198 -72.5zM61 635l-8 28l163 10l20 -38h-175zM53 663q-18 65 -3.5 119.5t71 94.5t165 61.5t278.5 21.5l19 -126q-134 0 -214.5 -11t-119 -32t-44 -51t10.5 -67zM65 0
v645h163v-645h-163zM-25 547v113h344v-113h-344zM1296 806q0 59 28 102.5t81.5 70.5t128.5 33l17 -113q-49 -4 -77 -29t-28 -64h-150zM1353 619q-32 57 -44.5 102.5t-12.5 84.5h150q0 -32 18 -66t49 -76z" />
    <glyph glyph-name="iMatra_rephdeva.12" 
d="M1407 698q-86 33 -178 58.5t-191 43t-206 26.5t-224 9l-20 125q120 0 239.5 -11t236 -32t226.5 -52.5t209 -72.5zM61 635l-8 28l163 10l20 -38h-175zM53 663q-18 66 -3.5 120t73.5 94t172.5 61.5t292.5 21.5l20 -125q-143 0 -229 -11t-127 -32.5t-47 -51t11 -67.5zM65 0
v645h163v-645h-163zM-25 547v113h344v-113h-344zM1367 804q0 59 28 102.5t81.5 70.5t128.5 33l17 -113q-49 -4 -77 -29t-28 -64h-150zM1424 617q-32 57 -44.5 102.5t-12.5 84.5h150q0 -32 18 -66t49 -76z" />
    <glyph glyph-name="iMatra_rephdeva.13" 
d="M1480 697q-92 33 -189.5 58.5t-202.5 43.5t-218.5 27t-237.5 9l-20 125q125 0 250.5 -11t248 -32t237.5 -52.5t220 -72.5zM61 635l-8 28l163 10l20 -38h-175zM53 663q-18 66 -3 120t75.5 94t179 61.5t307.5 21.5l20 -125q-121 0 -203 -7t-131 -21t-71 -33.5t-23 -45
t12 -55.5zM65 0v645h163v-645h-163zM-25 547v113h344v-113h-344zM1439 803q0 59 28 102.5t81.5 70.5t128.5 33l17 -113q-49 -4 -77 -29t-28 -64h-150zM1496 616q-32 57 -44.5 102.5t-12.5 84.5h150q0 -32 18 -66t49 -76z" />
    <glyph glyph-name="iMatra_rephdeva.14" 
d="M1553 696q-98 33 -201 59t-214 44t-230.5 27.5t-250.5 9.5l-21 124q131 0 262 -11t259 -32t249.5 -52.5t231.5 -72.5zM61 635l-8 28l163 10l20 -38h-175zM53 663q-15 53 -8.5 98.5t41 82t103.5 62.5t179 40t268 14l21 -124q-128 0 -215 -7t-138.5 -21t-75 -33.5t-25 -45
t12.5 -56.5zM65 0v645h163v-645h-163zM-25 547v113h344v-113h-344zM1510 801q0 59 28 102.5t81.5 70.5t128.5 33l17 -113q-49 -4 -77 -29t-28 -64h-150zM1567 614q-32 57 -44.5 102.5t-12.5 84.5h150q0 -32 18 -66t49 -76z" />
    <glyph glyph-name="iMatra_rephdeva.15" 
d="M1625 694q-103 34 -212 60.5t-225 44.5t-242 27.5t-264 9.5l-22 124q136 0 273 -10.5t271 -32t261 -53t243 -73.5zM61 635l-8 28l163 10l20 -38h-175zM53 663q-15 53 -8.5 98.5t42.5 82t107.5 62.5t186 40t279.5 14l22 -124q-136 0 -227 -7t-145.5 -20.5t-79.5 -33.5
t-26.5 -45.5t12.5 -56.5zM65 0v645h163v-645h-163zM-25 547v113h344v-113h-344zM1582 799q0 59 28 102.5t81.5 70.5t128.5 33l17 -113q-49 -4 -77 -29t-28 -64h-150zM1639 612q-32 57 -44.5 102.5t-12.5 84.5h150q0 -32 18 -66t49 -76z" />
    <glyph glyph-name="iMatra_rephdeva.16" 
d="M1698 693q-109 35 -223.5 61.5t-236.5 44.5t-254.5 27.5t-276.5 9.5l-23 124q142 0 284.5 -10.5t282.5 -32t272.5 -53t254.5 -73.5zM61 635l-8 28l163 10l20 -38h-175zM53 663q-15 53 -8 98.5t43.5 82t110.5 62.5t193.5 40t291.5 14l23 -124q-143 0 -239 -7t-153 -20.5
t-83 -33.5t-28 -45.5t12 -56.5zM65 0v645h163v-645h-163zM-25 547v113h344v-113h-344zM1653 797q0 59 28 102.5t81.5 70.5t128.5 33l17 -113q-49 -4 -77 -29t-28 -64h-150zM1710 610q-32 57 -44.5 102.5t-12.5 84.5h150q0 -32 18 -66t49 -76z" />
    <glyph glyph-name="iMatra_rephdeva.17" 
d="M1771 692q-115 35 -235 62t-248 45.5t-266.5 28t-289.5 9.5l-24 123q147 0 295.5 -10.5t294 -32t284.5 -53t266 -73.5zM61 635l-8 28l163 10l20 -38h-175zM53 663q-15 53 -8 98.5t45 82.5t114.5 62.5t200 39.5t303.5 14l24 -123q-150 0 -250.5 -7t-160.5 -20.5
t-87.5 -33.5t-29.5 -46t12 -57zM65 0v645h163v-645h-163zM-25 547v113h344v-113h-344zM1724 795q0 59 28 102.5t81.5 70.5t128.5 33l17 -113q-49 -4 -77 -29t-28 -64h-150zM1781 608q-32 57 -44.5 102.5t-12.5 84.5h150q0 -32 18 -66t49 -76z" />
    <glyph glyph-name="iMatra_rephdeva.18" 
d="M1844 691q-120 35 -246 62.5t-260 46t-279 28t-303 9.5l-24 123q153 0 307 -10.5t305.5 -32t295.5 -53.5t277 -74zM61 635l-8 28l163 10l20 -38h-175zM53 663q-15 53 -7.5 98.5t46 82.5t117.5 62.5t207.5 39.5t315.5 14l24 -123q-157 0 -262 -7t-167.5 -20.5t-91 -33.5
t-31 -45.5t11.5 -57.5zM65 0v645h163v-645h-163zM-25 547v113h344v-113h-344zM1796 793q0 59 28 102.5t81.5 70.5t128.5 33l17 -113q-49 -4 -77 -29t-28 -64h-150zM1853 606q-32 57 -44.5 102.5t-12.5 84.5h150q0 -32 18 -66t49 -76z" />
    </font>
</defs>
</svg>
