<svg width="24" height="16" viewBox="0 0 24 16" fill="none" xmlns="http://www.w3.org/2000/svg">
<path d="M12.0001 15.3829C8.24262 15.3829 4.37862 13.0459 1.11987 8.80244C0.943056 8.5721 0.847277 8.28982 0.847412 7.99944C0.847548 7.70907 0.943591 7.42687 1.12062 7.19669C4.37862 2.95394 8.24262 0.616943 12.0001 0.616943C15.7576 0.616943 19.6216 2.95394 22.8804 7.19744C23.0572 7.42778 23.153 7.71007 23.1528 8.00044C23.1527 8.29082 23.0566 8.57302 22.8796 8.80319C19.6216 13.0459 15.7576 15.3829 12.0001 15.3829ZM2.87262 7.99994C4.63362 10.2034 7.94937 13.5079 12.0001 13.5079C16.0516 13.5079 19.3674 10.2027 21.1276 7.99994C19.3666 5.79644 16.0509 2.49194 12.0001 2.49194C7.94862 2.49194 4.63287 5.79644 2.87262 7.99994ZM21.3931 8.33894L21.3939 8.34044L21.3931 8.33894ZM2.60562 7.65944L2.60712 7.66094L2.60562 7.65944Z" fill="black"/>
</svg>
